<?xml version="1.0" encoding="UTF-8" standalone="no"?>
<svg
   width="576pt"
   height="432pt"
   viewBox="0 0 576 432"
   version="1.1"
   id="svg207"
   sodipodi:docname="demo.svg"
   inkscape:version="1.1.2 (1:1.1+202202050852+0a00cf5339)"
   inkscape:export-filename="/home/filip/Documents/phd/python/wt/resonance/wavenumber/demo.png"
   inkscape:export-xdpi="300"
   inkscape:export-ydpi="300"
   xmlns:inkscape="http://www.inkscape.org/namespaces/inkscape"
   xmlns:sodipodi="http://sodipodi.sourceforge.net/DTD/sodipodi-0.dtd"
   xmlns:xlink="http://www.w3.org/1999/xlink"
   xmlns="http://www.w3.org/2000/svg"
   xmlns:svg="http://www.w3.org/2000/svg"
   xmlns:rdf="http://www.w3.org/1999/02/22-rdf-syntax-ns#"
   xmlns:cc="http://creativecommons.org/ns#"
   xmlns:dc="http://purl.org/dc/elements/1.1/">
  <sodipodi:namedview
     id="namedview209"
     pagecolor="#ffffff"
     bordercolor="#666666"
     borderopacity="1.0"
     inkscape:pageshadow="2"
     inkscape:pageopacity="0.0"
     inkscape:pagecheckerboard="0"
     inkscape:document-units="pt"
     showgrid="false"
     inkscape:zoom="1.4600694"
     inkscape:cx="294.84899"
     inkscape:cy="337.65517"
     inkscape:window-width="1920"
     inkscape:window-height="1055"
     inkscape:window-x="1920"
     inkscape:window-y="0"
     inkscape:window-maximized="1"
     inkscape:current-layer="svg207" />
  <metadata
     id="metadata2">
    <rdf:RDF>
      <cc:Work>
        <dc:type
           rdf:resource="http://purl.org/dc/dcmitype/StillImage" />
        <dc:date>2022-07-04T11:05:54.711035</dc:date>
        <dc:format>image/svg+xml</dc:format>
        <dc:creator>
          <cc:Agent>
            <dc:title>Matplotlib v3.5.1, https://matplotlib.org/</dc:title>
          </cc:Agent>
        </dc:creator>
      </cc:Work>
    </rdf:RDF>
  </metadata>
  <defs
     id="defs6">
    <marker
       style="overflow:visible;"
       id="Arrow1Mend"
       refX="0.0"
       refY="0.0"
       orient="auto"
       inkscape:stockid="Arrow1Mend"
       inkscape:isstock="true">
      <path
         transform="scale(0.4) rotate(180) translate(10,0)"
         style="fill-rule:evenodd;fill:context-stroke;stroke:context-stroke;stroke-width:1.0pt;"
         d="M 0.0,0.0 L 5.0,-5.0 L -12.5,0.0 L 5.0,5.0 L 0.0,0.0 z "
         id="path2188" />
    </marker>
    <marker
       style="overflow:visible"
       id="Arrow1Lstart"
       refX="0.0"
       refY="0.0"
       orient="auto"
       inkscape:stockid="Arrow1Lstart"
       inkscape:isstock="true">
      <path
         transform="scale(0.8) translate(12.5,0)"
         style="fill-rule:evenodd;fill:context-stroke;stroke:context-stroke;stroke-width:1.0pt"
         d="M 0.0,0.0 L 5.0,-5.0 L -12.5,0.0 L 5.0,5.0 L 0.0,0.0 z "
         id="path2179" />
    </marker>
    <style
       type="text/css"
       id="style4">*{stroke-linejoin: round; stroke-linecap: butt}</style>
    <marker
       style="overflow:visible"
       id="Arrow1Mend-3"
       refX="0"
       refY="0"
       orient="auto"
       inkscape:stockid="Arrow1Mend"
       inkscape:isstock="true">
      <path
         transform="matrix(-0.4,0,0,-0.4,-4,0)"
         style="fill:context-stroke;fill-rule:evenodd;stroke:context-stroke;stroke-width:1pt"
         d="M 0,0 5,-5 -12.5,0 5,5 Z"
         id="path2188-0" />
    </marker>
    <marker
       style="overflow:visible"
       id="Arrow1Mend-31"
       refX="0"
       refY="0"
       orient="auto"
       inkscape:stockid="Arrow1Mend"
       inkscape:isstock="true">
      <path
         transform="matrix(-0.4,0,0,-0.4,-4,0)"
         style="fill:context-stroke;fill-rule:evenodd;stroke:context-stroke;stroke-width:1pt"
         d="M 0,0 5,-5 -12.5,0 5,5 Z"
         id="path2188-7" />
    </marker>
    <marker
       style="overflow:visible"
       id="Arrow1Mend-3-9"
       refX="0"
       refY="0"
       orient="auto"
       inkscape:stockid="Arrow1Mend"
       inkscape:isstock="true">
      <path
         transform="matrix(-0.4,0,0,-0.4,-4,0)"
         style="fill:context-stroke;fill-rule:evenodd;stroke:context-stroke;stroke-width:1pt"
         d="M 0,0 5,-5 -12.5,0 5,5 Z"
         id="path2188-0-6" />
    </marker>
    <marker
       style="overflow:visible"
       id="Arrow1Mend-3-1"
       refX="0"
       refY="0"
       orient="auto"
       inkscape:stockid="Arrow1Mend"
       inkscape:isstock="true">
      <path
         transform="matrix(-0.4,0,0,-0.4,-4,0)"
         style="fill:context-stroke;fill-rule:evenodd;stroke:context-stroke;stroke-width:1pt"
         d="M 0,0 5,-5 -12.5,0 5,5 Z"
         id="path2188-0-7" />
    </marker>
    <g
       id="g7954">
      <symbol
         overflow="visible"
         id="symbol7022">
        <path
           style="stroke:none;"
           d=""
           id="path4960" />
      </symbol>
      <symbol
         overflow="visible"
         id="symbol5191">
        <path
           style="stroke:none;"
           d="M 2.859375 -6.8125 C 2.859375 -6.8125 2.859375 -6.921875 2.734375 -6.921875 C 2.5 -6.921875 1.78125 -6.84375 1.515625 -6.8125 C 1.4375 -6.8125 1.328125 -6.796875 1.328125 -6.625 C 1.328125 -6.5 1.421875 -6.5 1.5625 -6.5 C 2.046875 -6.5 2.0625 -6.4375 2.0625 -6.328125 L 2.03125 -6.125 L 0.59375 -0.390625 C 0.546875 -0.25 0.546875 -0.234375 0.546875 -0.171875 C 0.546875 0.0625 0.75 0.109375 0.84375 0.109375 C 0.96875 0.109375 1.109375 0.015625 1.171875 -0.09375 C 1.21875 -0.1875 1.671875 -2.03125 1.734375 -2.28125 C 2.078125 -2.25 2.890625 -2.09375 2.890625 -1.4375 C 2.890625 -1.359375 2.890625 -1.328125 2.859375 -1.21875 C 2.84375 -1.109375 2.828125 -0.984375 2.828125 -0.875 C 2.828125 -0.296875 3.21875 0.109375 3.734375 0.109375 C 4.03125 0.109375 4.3125 -0.046875 4.53125 -0.421875 C 4.78125 -0.859375 4.890625 -1.40625 4.890625 -1.421875 C 4.890625 -1.53125 4.796875 -1.53125 4.765625 -1.53125 C 4.671875 -1.53125 4.65625 -1.484375 4.625 -1.34375 C 4.421875 -0.625 4.203125 -0.109375 3.765625 -0.109375 C 3.5625 -0.109375 3.4375 -0.21875 3.4375 -0.578125 C 3.4375 -0.75 3.484375 -0.984375 3.515625 -1.140625 C 3.5625 -1.3125 3.5625 -1.34375 3.5625 -1.453125 C 3.5625 -2.09375 2.9375 -2.375 2.078125 -2.5 C 2.390625 -2.671875 2.71875 -2.984375 2.9375 -3.234375 C 3.421875 -3.765625 3.875 -4.1875 4.359375 -4.1875 C 4.421875 -4.1875 4.4375 -4.1875 4.453125 -4.171875 C 4.578125 -4.15625 4.578125 -4.15625 4.671875 -4.09375 C 4.6875 -4.09375 4.6875 -4.078125 4.703125 -4.0625 C 4.234375 -4.03125 4.140625 -3.640625 4.140625 -3.515625 C 4.140625 -3.359375 4.25 -3.171875 4.515625 -3.171875 C 4.78125 -3.171875 5.0625 -3.390625 5.0625 -3.78125 C 5.0625 -4.078125 4.828125 -4.40625 4.390625 -4.40625 C 4.109375 -4.40625 3.65625 -4.328125 2.9375 -3.53125 C 2.59375 -3.15625 2.203125 -2.75 1.828125 -2.609375 Z M 2.859375 -6.8125 "
           id="path6053" />
      </symbol>
      <symbol
         overflow="visible"
         id="symbol7017">
        <path
           style="stroke:none;"
           d=""
           id="path4990" />
      </symbol>
      <symbol
         overflow="visible"
         id="symbol6687">
        <path
           style="stroke:none;"
           d="M 2.328125 -4.4375 C 2.328125 -4.625 2.328125 -4.625 2.125 -4.625 C 1.671875 -4.1875 1.046875 -4.1875 0.765625 -4.1875 L 0.765625 -3.9375 C 0.921875 -3.9375 1.390625 -3.9375 1.765625 -4.125 L 1.765625 -0.578125 C 1.765625 -0.34375 1.765625 -0.25 1.078125 -0.25 L 0.8125 -0.25 L 0.8125 0 C 0.9375 0 1.796875 -0.03125 2.046875 -0.03125 C 2.265625 -0.03125 3.140625 0 3.296875 0 L 3.296875 -0.25 L 3.03125 -0.25 C 2.328125 -0.25 2.328125 -0.34375 2.328125 -0.578125 Z M 2.328125 -4.4375 "
           id="path1505" />
      </symbol>
    </g>
    <g
       id="g1483">
      <symbol
         overflow="visible"
         id="symbol8004">
        <path
           style="stroke:none;"
           d=""
           id="path1606" />
      </symbol>
      <symbol
         overflow="visible"
         id="symbol7679">
        <path
           style="stroke:none;"
           d="M 2.859375 -6.8125 C 2.859375 -6.8125 2.859375 -6.921875 2.734375 -6.921875 C 2.5 -6.921875 1.78125 -6.84375 1.515625 -6.8125 C 1.4375 -6.8125 1.328125 -6.796875 1.328125 -6.625 C 1.328125 -6.5 1.421875 -6.5 1.5625 -6.5 C 2.046875 -6.5 2.0625 -6.4375 2.0625 -6.328125 L 2.03125 -6.125 L 0.59375 -0.390625 C 0.546875 -0.25 0.546875 -0.234375 0.546875 -0.171875 C 0.546875 0.0625 0.75 0.109375 0.84375 0.109375 C 0.96875 0.109375 1.109375 0.015625 1.171875 -0.09375 C 1.21875 -0.1875 1.671875 -2.03125 1.734375 -2.28125 C 2.078125 -2.25 2.890625 -2.09375 2.890625 -1.4375 C 2.890625 -1.359375 2.890625 -1.328125 2.859375 -1.21875 C 2.84375 -1.109375 2.828125 -0.984375 2.828125 -0.875 C 2.828125 -0.296875 3.21875 0.109375 3.734375 0.109375 C 4.03125 0.109375 4.3125 -0.046875 4.53125 -0.421875 C 4.78125 -0.859375 4.890625 -1.40625 4.890625 -1.421875 C 4.890625 -1.53125 4.796875 -1.53125 4.765625 -1.53125 C 4.671875 -1.53125 4.65625 -1.484375 4.625 -1.34375 C 4.421875 -0.625 4.203125 -0.109375 3.765625 -0.109375 C 3.5625 -0.109375 3.4375 -0.21875 3.4375 -0.578125 C 3.4375 -0.75 3.484375 -0.984375 3.515625 -1.140625 C 3.5625 -1.3125 3.5625 -1.34375 3.5625 -1.453125 C 3.5625 -2.09375 2.9375 -2.375 2.078125 -2.5 C 2.390625 -2.671875 2.71875 -2.984375 2.9375 -3.234375 C 3.421875 -3.765625 3.875 -4.1875 4.359375 -4.1875 C 4.421875 -4.1875 4.4375 -4.1875 4.453125 -4.171875 C 4.578125 -4.15625 4.578125 -4.15625 4.671875 -4.09375 C 4.6875 -4.09375 4.6875 -4.078125 4.703125 -4.0625 C 4.234375 -4.03125 4.140625 -3.640625 4.140625 -3.515625 C 4.140625 -3.359375 4.25 -3.171875 4.515625 -3.171875 C 4.78125 -3.171875 5.0625 -3.390625 5.0625 -3.78125 C 5.0625 -4.078125 4.828125 -4.40625 4.390625 -4.40625 C 4.109375 -4.40625 3.65625 -4.328125 2.9375 -3.53125 C 2.59375 -3.15625 2.203125 -2.75 1.828125 -2.609375 Z M 2.859375 -6.8125 "
           id="path7080" />
      </symbol>
      <symbol
         overflow="visible"
         id="symbol8526">
        <path
           style="stroke:none;"
           d=""
           id="path7808" />
      </symbol>
      <symbol
         overflow="visible"
         id="symbol734">
        <path
           style="stroke:none;"
           d="M 3.515625 -1.265625 L 3.28125 -1.265625 C 3.265625 -1.109375 3.1875 -0.703125 3.09375 -0.640625 C 3.046875 -0.59375 2.515625 -0.59375 2.40625 -0.59375 L 1.125 -0.59375 C 1.859375 -1.234375 2.109375 -1.4375 2.515625 -1.765625 C 3.03125 -2.171875 3.515625 -2.609375 3.515625 -3.265625 C 3.515625 -4.109375 2.78125 -4.625 1.890625 -4.625 C 1.03125 -4.625 0.4375 -4.015625 0.4375 -3.375 C 0.4375 -3.03125 0.734375 -2.984375 0.8125 -2.984375 C 0.96875 -2.984375 1.171875 -3.109375 1.171875 -3.359375 C 1.171875 -3.484375 1.125 -3.734375 0.765625 -3.734375 C 0.984375 -4.21875 1.453125 -4.375 1.78125 -4.375 C 2.484375 -4.375 2.84375 -3.828125 2.84375 -3.265625 C 2.84375 -2.65625 2.40625 -2.1875 2.1875 -1.9375 L 0.515625 -0.265625 C 0.4375 -0.203125 0.4375 -0.1875 0.4375 0 L 3.3125 0 Z M 3.515625 -1.265625 "
           id="path4828" />
      </symbol>
    </g>
    <g
       id="g9361">
      <symbol
         overflow="visible"
         id="symbol6984">
        <path
           style="stroke:none;"
           d=""
           id="path2357" />
      </symbol>
      <symbol
         overflow="visible"
         id="symbol232">
        <path
           style="stroke:none;"
           d="M 2.859375 -6.8125 C 2.859375 -6.8125 2.859375 -6.921875 2.734375 -6.921875 C 2.5 -6.921875 1.78125 -6.84375 1.515625 -6.8125 C 1.4375 -6.8125 1.328125 -6.796875 1.328125 -6.625 C 1.328125 -6.5 1.421875 -6.5 1.5625 -6.5 C 2.046875 -6.5 2.0625 -6.4375 2.0625 -6.328125 L 2.03125 -6.125 L 0.59375 -0.390625 C 0.546875 -0.25 0.546875 -0.234375 0.546875 -0.171875 C 0.546875 0.0625 0.75 0.109375 0.84375 0.109375 C 0.96875 0.109375 1.109375 0.015625 1.171875 -0.09375 C 1.21875 -0.1875 1.671875 -2.03125 1.734375 -2.28125 C 2.078125 -2.25 2.890625 -2.09375 2.890625 -1.4375 C 2.890625 -1.359375 2.890625 -1.328125 2.859375 -1.21875 C 2.84375 -1.109375 2.828125 -0.984375 2.828125 -0.875 C 2.828125 -0.296875 3.21875 0.109375 3.734375 0.109375 C 4.03125 0.109375 4.3125 -0.046875 4.53125 -0.421875 C 4.78125 -0.859375 4.890625 -1.40625 4.890625 -1.421875 C 4.890625 -1.53125 4.796875 -1.53125 4.765625 -1.53125 C 4.671875 -1.53125 4.65625 -1.484375 4.625 -1.34375 C 4.421875 -0.625 4.203125 -0.109375 3.765625 -0.109375 C 3.5625 -0.109375 3.4375 -0.21875 3.4375 -0.578125 C 3.4375 -0.75 3.484375 -0.984375 3.515625 -1.140625 C 3.5625 -1.3125 3.5625 -1.34375 3.5625 -1.453125 C 3.5625 -2.09375 2.9375 -2.375 2.078125 -2.5 C 2.390625 -2.671875 2.71875 -2.984375 2.9375 -3.234375 C 3.421875 -3.765625 3.875 -4.1875 4.359375 -4.1875 C 4.421875 -4.1875 4.4375 -4.1875 4.453125 -4.171875 C 4.578125 -4.15625 4.578125 -4.15625 4.671875 -4.09375 C 4.6875 -4.09375 4.6875 -4.078125 4.703125 -4.0625 C 4.234375 -4.03125 4.140625 -3.640625 4.140625 -3.515625 C 4.140625 -3.359375 4.25 -3.171875 4.515625 -3.171875 C 4.78125 -3.171875 5.0625 -3.390625 5.0625 -3.78125 C 5.0625 -4.078125 4.828125 -4.40625 4.390625 -4.40625 C 4.109375 -4.40625 3.65625 -4.328125 2.9375 -3.53125 C 2.59375 -3.15625 2.203125 -2.75 1.828125 -2.609375 Z M 2.859375 -6.8125 "
           id="path8429" />
      </symbol>
      <symbol
         overflow="visible"
         id="symbol8329">
        <path
           style="stroke:none;"
           d=""
           id="path7492" />
      </symbol>
      <symbol
         overflow="visible"
         id="symbol8659">
        <path
           style="stroke:none;"
           d="M 1.90625 -2.328125 C 2.453125 -2.328125 2.84375 -1.953125 2.84375 -1.203125 C 2.84375 -0.34375 2.328125 -0.078125 1.9375 -0.078125 C 1.65625 -0.078125 1.03125 -0.15625 0.75 -0.578125 C 1.078125 -0.578125 1.15625 -0.8125 1.15625 -0.96875 C 1.15625 -1.1875 0.984375 -1.34375 0.765625 -1.34375 C 0.578125 -1.34375 0.375 -1.21875 0.375 -0.9375 C 0.375 -0.28125 1.09375 0.140625 1.9375 0.140625 C 2.90625 0.140625 3.578125 -0.515625 3.578125 -1.203125 C 3.578125 -1.75 3.140625 -2.296875 2.375 -2.453125 C 3.09375 -2.71875 3.359375 -3.234375 3.359375 -3.671875 C 3.359375 -4.21875 2.734375 -4.625 1.953125 -4.625 C 1.1875 -4.625 0.59375 -4.25 0.59375 -3.6875 C 0.59375 -3.453125 0.75 -3.328125 0.953125 -3.328125 C 1.171875 -3.328125 1.3125 -3.484375 1.3125 -3.671875 C 1.3125 -3.875 1.171875 -4.03125 0.953125 -4.046875 C 1.203125 -4.34375 1.671875 -4.421875 1.9375 -4.421875 C 2.25 -4.421875 2.6875 -4.265625 2.6875 -3.671875 C 2.6875 -3.375 2.59375 -3.046875 2.40625 -2.84375 C 2.1875 -2.578125 1.984375 -2.5625 1.640625 -2.53125 C 1.46875 -2.515625 1.453125 -2.515625 1.421875 -2.515625 C 1.40625 -2.515625 1.34375 -2.5 1.34375 -2.421875 C 1.34375 -2.328125 1.40625 -2.328125 1.53125 -2.328125 Z M 1.90625 -2.328125 "
           id="path7831" />
      </symbol>
    </g>
    <g
       id="g9469">
      <symbol
         overflow="visible"
         id="symbol6643">
        <path
           style="stroke:none;"
           d=""
           id="path1569" />
      </symbol>
      <symbol
         overflow="visible"
         id="symbol6487">
        <path
           style="stroke:none;"
           d="M 6.03125 -3.703125 C 6.03125 -4.15625 5.859375 -4.40625 5.625 -4.40625 C 5.375 -4.40625 5.109375 -4.171875 5.109375 -3.9375 C 5.109375 -3.84375 5.15625 -3.734375 5.25 -3.640625 C 5.421875 -3.484375 5.609375 -3.21875 5.609375 -2.796875 C 5.609375 -2.40625 5.40625 -1.828125 5.109375 -1.375 C 4.8125 -0.953125 4.4375 -0.609375 3.96875 -0.609375 C 3.40625 -0.609375 3.09375 -0.96875 3 -1.5 C 3.109375 -1.765625 3.34375 -2.40625 3.34375 -2.6875 C 3.34375 -2.796875 3.296875 -2.90625 3.15625 -2.90625 C 3.078125 -2.90625 2.96875 -2.875 2.890625 -2.734375 C 2.78125 -2.53125 2.65625 -1.890625 2.65625 -1.53125 C 2.328125 -1.0625 1.9375 -0.609375 1.3125 -0.609375 C 0.640625 -0.609375 0.4375 -1.203125 0.4375 -1.75 C 0.4375 -3 1.453125 -4.046875 1.453125 -4.171875 C 1.453125 -4.28125 1.375 -4.359375 1.265625 -4.359375 C 1.140625 -4.359375 1.0625 -4.234375 1 -4.140625 C 0.5 -3.40625 0.125 -2.21875 0.125 -1.3125 C 0.125 -0.625 0.34375 0.109375 1.171875 0.109375 C 1.875 0.109375 2.34375 -0.390625 2.703125 -0.9375 C 2.796875 -0.359375 3.1875 0.109375 3.796875 0.109375 C 4.578125 0.109375 5.046875 -0.5 5.40625 -1.25 C 5.65625 -1.734375 6.03125 -3.09375 6.03125 -3.703125 Z M 6.03125 -3.703125 "
           id="path1484" />
      </symbol>
      <symbol
         overflow="visible"
         id="symbol5034">
        <path
           style="stroke:none;"
           d=""
           id="path4258" />
      </symbol>
      <symbol
         overflow="visible"
         id="symbol2662">
        <path
           style="stroke:none;"
           d="M 1.90625 -2.328125 C 2.453125 -2.328125 2.84375 -1.953125 2.84375 -1.203125 C 2.84375 -0.34375 2.328125 -0.078125 1.9375 -0.078125 C 1.65625 -0.078125 1.03125 -0.15625 0.75 -0.578125 C 1.078125 -0.578125 1.15625 -0.8125 1.15625 -0.96875 C 1.15625 -1.1875 0.984375 -1.34375 0.765625 -1.34375 C 0.578125 -1.34375 0.375 -1.21875 0.375 -0.9375 C 0.375 -0.28125 1.09375 0.140625 1.9375 0.140625 C 2.90625 0.140625 3.578125 -0.515625 3.578125 -1.203125 C 3.578125 -1.75 3.140625 -2.296875 2.375 -2.453125 C 3.09375 -2.71875 3.359375 -3.234375 3.359375 -3.671875 C 3.359375 -4.21875 2.734375 -4.625 1.953125 -4.625 C 1.1875 -4.625 0.59375 -4.25 0.59375 -3.6875 C 0.59375 -3.453125 0.75 -3.328125 0.953125 -3.328125 C 1.171875 -3.328125 1.3125 -3.484375 1.3125 -3.671875 C 1.3125 -3.875 1.171875 -4.03125 0.953125 -4.046875 C 1.203125 -4.34375 1.671875 -4.421875 1.9375 -4.421875 C 2.25 -4.421875 2.6875 -4.265625 2.6875 -3.671875 C 2.6875 -3.375 2.59375 -3.046875 2.40625 -2.84375 C 2.1875 -2.578125 1.984375 -2.5625 1.640625 -2.53125 C 1.46875 -2.515625 1.453125 -2.515625 1.421875 -2.515625 C 1.40625 -2.515625 1.34375 -2.5 1.34375 -2.421875 C 1.34375 -2.328125 1.40625 -2.328125 1.53125 -2.328125 Z M 1.90625 -2.328125 "
           id="path1031" />
      </symbol>
    </g>
    <g
       id="g3152">
      <symbol
         overflow="visible"
         id="symbol1738">
        <path
           style="stroke:none;"
           d=""
           id="path1630" />
      </symbol>
      <symbol
         overflow="visible"
         id="symbol1836">
        <path
           style="stroke:none;"
           d="M 6.03125 -3.703125 C 6.03125 -4.15625 5.859375 -4.40625 5.625 -4.40625 C 5.375 -4.40625 5.109375 -4.171875 5.109375 -3.9375 C 5.109375 -3.84375 5.15625 -3.734375 5.25 -3.640625 C 5.421875 -3.484375 5.609375 -3.21875 5.609375 -2.796875 C 5.609375 -2.40625 5.40625 -1.828125 5.109375 -1.375 C 4.8125 -0.953125 4.4375 -0.609375 3.96875 -0.609375 C 3.40625 -0.609375 3.09375 -0.96875 3 -1.5 C 3.109375 -1.765625 3.34375 -2.40625 3.34375 -2.6875 C 3.34375 -2.796875 3.296875 -2.90625 3.15625 -2.90625 C 3.078125 -2.90625 2.96875 -2.875 2.890625 -2.734375 C 2.78125 -2.53125 2.65625 -1.890625 2.65625 -1.53125 C 2.328125 -1.0625 1.9375 -0.609375 1.3125 -0.609375 C 0.640625 -0.609375 0.4375 -1.203125 0.4375 -1.75 C 0.4375 -3 1.453125 -4.046875 1.453125 -4.171875 C 1.453125 -4.28125 1.375 -4.359375 1.265625 -4.359375 C 1.140625 -4.359375 1.0625 -4.234375 1 -4.140625 C 0.5 -3.40625 0.125 -2.21875 0.125 -1.3125 C 0.125 -0.625 0.34375 0.109375 1.171875 0.109375 C 1.875 0.109375 2.34375 -0.390625 2.703125 -0.9375 C 2.796875 -0.359375 3.1875 0.109375 3.796875 0.109375 C 4.578125 0.109375 5.046875 -0.5 5.40625 -1.25 C 5.65625 -1.734375 6.03125 -3.09375 6.03125 -3.703125 Z M 6.03125 -3.703125 "
           id="path3571" />
      </symbol>
      <symbol
         overflow="visible"
         id="symbol6495">
        <path
           style="stroke:none;"
           d=""
           id="path8022" />
      </symbol>
      <symbol
         overflow="visible"
         id="symbol5602">
        <path
           style="stroke:none;"
           d="M 3.515625 -1.265625 L 3.28125 -1.265625 C 3.265625 -1.109375 3.1875 -0.703125 3.09375 -0.640625 C 3.046875 -0.59375 2.515625 -0.59375 2.40625 -0.59375 L 1.125 -0.59375 C 1.859375 -1.234375 2.109375 -1.4375 2.515625 -1.765625 C 3.03125 -2.171875 3.515625 -2.609375 3.515625 -3.265625 C 3.515625 -4.109375 2.78125 -4.625 1.890625 -4.625 C 1.03125 -4.625 0.4375 -4.015625 0.4375 -3.375 C 0.4375 -3.03125 0.734375 -2.984375 0.8125 -2.984375 C 0.96875 -2.984375 1.171875 -3.109375 1.171875 -3.359375 C 1.171875 -3.484375 1.125 -3.734375 0.765625 -3.734375 C 0.984375 -4.21875 1.453125 -4.375 1.78125 -4.375 C 2.484375 -4.375 2.84375 -3.828125 2.84375 -3.265625 C 2.84375 -2.65625 2.40625 -2.1875 2.1875 -1.9375 L 0.515625 -0.265625 C 0.4375 -0.203125 0.4375 -0.1875 0.4375 0 L 3.3125 0 Z M 3.515625 -1.265625 "
           id="path2151" />
      </symbol>
    </g>
    <g
       id="g9749">
      <symbol
         overflow="visible"
         id="symbol4018">
        <path
           style="stroke:none;"
           d=""
           id="path7144" />
      </symbol>
      <symbol
         overflow="visible"
         id="symbol2967">
        <path
           style="stroke:none;"
           d="M 6.03125 -3.703125 C 6.03125 -4.15625 5.859375 -4.40625 5.625 -4.40625 C 5.375 -4.40625 5.109375 -4.171875 5.109375 -3.9375 C 5.109375 -3.84375 5.15625 -3.734375 5.25 -3.640625 C 5.421875 -3.484375 5.609375 -3.21875 5.609375 -2.796875 C 5.609375 -2.40625 5.40625 -1.828125 5.109375 -1.375 C 4.8125 -0.953125 4.4375 -0.609375 3.96875 -0.609375 C 3.40625 -0.609375 3.09375 -0.96875 3 -1.5 C 3.109375 -1.765625 3.34375 -2.40625 3.34375 -2.6875 C 3.34375 -2.796875 3.296875 -2.90625 3.15625 -2.90625 C 3.078125 -2.90625 2.96875 -2.875 2.890625 -2.734375 C 2.78125 -2.53125 2.65625 -1.890625 2.65625 -1.53125 C 2.328125 -1.0625 1.9375 -0.609375 1.3125 -0.609375 C 0.640625 -0.609375 0.4375 -1.203125 0.4375 -1.75 C 0.4375 -3 1.453125 -4.046875 1.453125 -4.171875 C 1.453125 -4.28125 1.375 -4.359375 1.265625 -4.359375 C 1.140625 -4.359375 1.0625 -4.234375 1 -4.140625 C 0.5 -3.40625 0.125 -2.21875 0.125 -1.3125 C 0.125 -0.625 0.34375 0.109375 1.171875 0.109375 C 1.875 0.109375 2.34375 -0.390625 2.703125 -0.9375 C 2.796875 -0.359375 3.1875 0.109375 3.796875 0.109375 C 4.578125 0.109375 5.046875 -0.5 5.40625 -1.25 C 5.65625 -1.734375 6.03125 -3.09375 6.03125 -3.703125 Z M 6.03125 -3.703125 "
           id="path8658" />
      </symbol>
      <symbol
         overflow="visible"
         id="symbol7929">
        <path
           style="stroke:none;"
           d=""
           id="path2629" />
      </symbol>
      <symbol
         overflow="visible"
         id="symbol1990">
        <path
           style="stroke:none;"
           d="M 2.328125 -4.4375 C 2.328125 -4.625 2.328125 -4.625 2.125 -4.625 C 1.671875 -4.1875 1.046875 -4.1875 0.765625 -4.1875 L 0.765625 -3.9375 C 0.921875 -3.9375 1.390625 -3.9375 1.765625 -4.125 L 1.765625 -0.578125 C 1.765625 -0.34375 1.765625 -0.25 1.078125 -0.25 L 0.8125 -0.25 L 0.8125 0 C 0.9375 0 1.796875 -0.03125 2.046875 -0.03125 C 2.265625 -0.03125 3.140625 0 3.296875 0 L 3.296875 -0.25 L 3.03125 -0.25 C 2.328125 -0.25 2.328125 -0.34375 2.328125 -0.578125 Z M 2.328125 -4.4375 "
           id="path9606" />
      </symbol>
    </g>
  </defs>
  <g
     id="line2d_12"
     transform="translate(-67.98823,-15.190522)">
    <path
       d="m 92.290909,69.05278 9.285131,19.753074 9.28513,19.227436 8.89825,17.91902 8.51136,16.6619 8.51137,16.18074 8.12449,14.98301 8.12449,14.51775 7.73761,13.38065 7.7376,12.93227 7.35073,11.85768 7.35073,11.42813 6.96385,10.41907 6.96384,10.01188 6.57697,9.07302 6.57697,8.69429 6.57696,8.31116 6.19009,7.47206 6.19009,7.13838 6.57696,7.23709 6.96385,7.31911 9.67201,9.78902 7.73761,7.9295 4.25568,4.67377 3.48192,4.16308 3.09505,4.07771 2.70816,3.94253 2.70816,4.34767 2.70817,4.7677 3.09504,5.89999 3.09504,6.19853 h 0.38688 l 5.02945,-9.93555 3.09504,-5.61063 2.70816,-4.46843 2.70817,-4.05411 2.70816,-3.68398 3.09504,-3.841 3.48193,-3.9724 4.64256,-4.93263 8.12449,-8.22279 9.67201,-9.87711 6.96384,-7.44853 6.19009,-6.93705 6.19009,-7.26231 6.19008,-7.59909 6.19009,-7.9392 6.57697,-8.80628 6.57696,-9.18317 6.57697,-9.55275 6.96385,-10.50816 6.96384,-10.90255 7.35073,-11.92437 7.35073,-12.33966 7.73761,-13.42475 8.12448,-14.56267 8.12449,-15.0266 8.51137,-16.22506 8.51137,-16.70496 8.89825,-17.96276 8.89825,-18.458248 8.89825,-18.940422 v 0"
       clip-path="url(#pb9ec3cc324)"
       style="fill:none;stroke:#ff0000;stroke-width:1.5;stroke-linecap:square"
       id="path182" />
  </g>
  <g
     id="line2d_13"
     transform="translate(-67.98823,-15.190522)">
    <path
       d="m 169.58961,66.96 8.55006,16.651335 8.55005,16.16317 8.22121,15.067225 7.89236,14.01369 7.89236,13.55844 7.56351,12.55316 7.23467,11.59186 7.23466,11.17359 6.90581,10.26455 6.90582,9.86246 6.57697,9.01051 6.57696,8.63085 6.24812,7.84407 6.24812,7.49848 6.24812,7.15996 6.57696,7.19161 6.90582,7.22059 10.85199,10.96204 6.57697,6.80941 3.94618,4.3886 3.28848,3.97729 2.95964,3.93376 2.63078,3.85245 2.63079,4.23657 2.63079,4.63301 3.28848,6.27716 2.95964,5.93324 h 0.32884 l 4.93273,-9.75604 2.95963,-5.39554 2.63079,-4.38634 2.63079,-3.99239 2.95963,-4.06679 2.95964,-3.69771 3.61733,-4.14882 4.60388,-4.90373 7.56351,-7.66505 10.1943,-10.39229 6.90581,-7.37302 6.24812,-6.9882 6.24812,-7.31886 6.24812,-7.66177 6.24811,-8.00826 6.57697,-8.80237 6.57697,-9.17933 6.90581,-10.03599 6.90582,-10.4338 7.23466,-11.34614 7.23466,-11.75956 7.56352,-12.7234 7.89236,-13.73078 7.89236,-14.18091 8.2212,-15.236274 8.55006,-16.33379 L 498.10909,66.96 v 0"
       clip-path="url(#pb9ec3cc324)"
       style="fill:none;stroke:#0000ff;stroke-width:1.5;stroke-linecap:square"
       id="path185" />
  </g>
  <defs
     id="defs205">
    <clipPath
       id="pb9ec3cc324">
      <rect
         x="72"
         y="51.84"
         width="446.4"
         height="332.64"
         id="rect202" />
    </clipPath>
  </defs>
  <path
     style="fill:none;stroke:#000000;stroke-width:0.679857;stroke-linecap:butt;stroke-linejoin:miter;stroke-miterlimit:4;stroke-dasharray:4.07914, 4.07914;stroke-dashoffset:0;stroke-opacity:1"
     d="M 266.02842,213.424 V 357.169"
     id="path2060" />
  <path
     style="fill:none;stroke:#000000;stroke-width:0.679857;stroke-linecap:butt;stroke-linejoin:miter;stroke-miterlimit:4;stroke-dasharray:4.07914, 4.07914;stroke-dashoffset:0;stroke-opacity:1"
     d="M 217.74287,213.42437 V 357.16948"
     id="path2060-44" />
  <path
     style="fill:none;stroke:#000000;stroke-width:0.679856;stroke-linecap:butt;stroke-linejoin:miter;stroke-miterlimit:4;stroke-dasharray:4.07914, 4.07914;stroke-dashoffset:0;stroke-opacity:1"
     d="M 315.37323,213.424 V 357.169"
     id="path2060-4" />
  <path
     style="fill:#ff0000;stroke:#ff0000;stroke-width:0.75;stroke-linecap:butt;stroke-linejoin:miter;stroke-opacity:1;marker-end:url(#Arrow1Mend);fill-opacity:1;stroke-miterlimit:4;stroke-dasharray:none"
     d="m 217.74287,354.16948 h 45.05957"
     id="path2177" />
  <path
     style="fill:#ff0000;fill-opacity:1;stroke:#ff0000;stroke-width:0.75;stroke-linecap:butt;stroke-linejoin:miter;stroke-miterlimit:4;stroke-dasharray:none;stroke-opacity:1;marker-end:url(#Arrow1Mend-31)"
     d="M 332.21654,355.77574 V 295.39151"
     id="path2177-5" />
  <path
     style="fill:#0000ff;stroke:#0000ff;stroke-width:0.75px;stroke-linecap:butt;stroke-linejoin:miter;stroke-opacity:1;marker-end:url(#Arrow1Mend-3);fill-opacity:1"
     d="M 268.00723,354.56312 H 313.0668"
     id="path2177-4" />
  <path
     style="fill:#0000ff;fill-opacity:1;stroke:#0000ff;stroke-width:0.75;stroke-linecap:butt;stroke-linejoin:miter;stroke-miterlimit:4;stroke-dasharray:none;stroke-opacity:1;marker-end:url(#Arrow1Mend-3-9)"
     d="M 332.19738,292.62394 V 229.75952"
     id="path2177-4-2" />
  <path
     style="fill:none;stroke:#00ad00;stroke-width:0.75px;stroke-linecap:butt;stroke-linejoin:miter;stroke-opacity:1;marker-end:url(#Arrow1Mend-3)"
     d="m 217.55451,367.21034 h 96.5086"
     id="path2628" />
  <path
     style="fill:none;stroke:#00ad00;stroke-width:0.75;stroke-linecap:butt;stroke-linejoin:miter;stroke-miterlimit:4;stroke-dasharray:none;stroke-opacity:1;marker-end:url(#Arrow1Mend-3-1)"
     d="M 346.62141,355.81545 V 229.23869"
     id="path2628-8" />
  <circle
     style="fill:#0000ff;fill-opacity:1;stroke:none;stroke-width:0.336381;stroke-miterlimit:4;stroke-dasharray:none;stroke-dashoffset:0;stroke-opacity:1"
     id="path46007"
     cx="265.97205"
     cy="292.11414"
     r="2.8301384" />
  <circle
     style="fill:#ff0000;fill-opacity:1;stroke:none;stroke-width:0.336381;stroke-linecap:butt;stroke-linejoin:round;stroke-miterlimit:4;stroke-dasharray:none;stroke-dashoffset:0;stroke-opacity:1"
     id="path46007-7"
     cx="217.93402"
     cy="354.12534"
     r="2.8301384" />
  <circle
     style="fill:#00ad00;fill-opacity:1;stroke:none;stroke-width:0.336381;stroke-linecap:butt;stroke-linejoin:round;stroke-miterlimit:4;stroke-dasharray:none;stroke-dashoffset:0;stroke-opacity:1"
     id="path46007-6"
     cx="315.65851"
     cy="229.28656"
     r="2.8301384" />
  <g
     inkscape:label=""
     transform="translate(145.95666,267.77033)"
     id="g46712"
     style="fill:#ff0000;fill-opacity:1">
    <g
       id="g5843"
       style="fill:#ff0000;fill-opacity:1">
      <g
         style="fill:#ff0000;fill-opacity:1"
         id="g47233">
        <use
           xlink:href="#symbol5191"
           x="91.925003"
           y="81.962997"
           id="use3081"
           width="100%"
           height="100%"
           style="fill:#ff0000;fill-opacity:1" />
      </g>
      <g
         style="fill:#ff0000;fill-opacity:1"
         id="g2945">
        <use
           xlink:href="#symbol6687"
           x="97.112"
           y="83.457001"
           id="use6008"
           width="100%"
           height="100%"
           style="fill:#ff0000;fill-opacity:1" />
      </g>
    </g>
  </g>
  <g
     inkscape:label=""
     transform="translate(194.42005,268.03759)"
     id="g46863"
     style="fill:#0000ff;fill-opacity:1">
    <g
       id="g5533"
       style="fill:#0000ff;fill-opacity:1">
      <g
         style="fill:#0000ff;fill-opacity:1"
         id="g5716">
        <use
           xlink:href="#symbol7679"
           x="91.925003"
           y="81.962997"
           id="use8464"
           width="100%"
           height="100%"
           style="fill:#0000ff;fill-opacity:1" />
      </g>
      <g
         style="fill:#0000ff;fill-opacity:1"
         id="g1510">
        <use
           xlink:href="#symbol734"
           x="97.112"
           y="83.457001"
           id="use6017"
           width="100%"
           height="100%"
           style="fill:#0000ff;fill-opacity:1" />
      </g>
    </g>
  </g>
  <g
     inkscape:label=""
     transform="translate(169.28638,294.43188)"
     id="g47044"
     style="fill:#00ad00;fill-opacity:1">
    <g
       id="g1437"
       style="fill:#00ad00;fill-opacity:1">
      <g
         style="fill:#00ad00;fill-opacity:1"
         id="g3180">
        <use
           xlink:href="#symbol232"
           x="91.925003"
           y="81.962997"
           id="use2986"
           width="100%"
           height="100%"
           style="fill:#00ad00;fill-opacity:1" />
      </g>
      <g
         style="fill:#00ad00;fill-opacity:1"
         id="g8680">
        <use
           xlink:href="#symbol8659"
           x="97.112"
           y="83.457001"
           id="use4104"
           width="100%"
           height="100%"
           style="fill:#00ad00;fill-opacity:1" />
      </g>
    </g>
  </g>
  <g
     inkscape:label=""
     transform="translate(257.27168,208.63667)"
     id="g47256"
     style="stroke:#00ad00;stroke-opacity:1;fill:#00ad00;fill-opacity:1">
    <g
       id="g1403"
       style="stroke:#00ad00;stroke-opacity:1;fill:#00ad00;fill-opacity:1">
      <g
         style="fill:#00ad00;fill-opacity:1;stroke:#00ad00;stroke-opacity:1"
         id="g8586">
        <use
           xlink:href="#symbol6487"
           x="91.925003"
           y="81.962997"
           id="use5414"
           width="100%"
           height="100%"
           style="stroke:#00ad00;stroke-opacity:1;fill:#00ad00;fill-opacity:1" />
      </g>
      <g
         style="fill:#00ad00;fill-opacity:1;stroke:#00ad00;stroke-opacity:1"
         id="g4578">
        <use
           xlink:href="#symbol2662"
           x="98.126999"
           y="83.457001"
           id="use1779"
           width="100%"
           height="100%"
           style="stroke:#00ad00;stroke-opacity:1;fill:#00ad00;fill-opacity:1" />
      </g>
    </g>
  </g>
  <g
     inkscape:label=""
     transform="translate(227.09629,181.82275)"
     id="g47499"
     style="fill:#0000ff;fill-opacity:1">
    <g
       id="g8358"
       style="fill:#0000ff;fill-opacity:1">
      <g
         style="fill:#0000ff;fill-opacity:1"
         id="g6057">
        <use
           xlink:href="#symbol1836"
           x="91.925003"
           y="81.962997"
           id="use3042"
           width="100%"
           height="100%"
           style="fill:#0000ff;fill-opacity:1" />
      </g>
      <g
         style="fill:#0000ff;fill-opacity:1"
         id="g1473">
        <use
           xlink:href="#symbol5602"
           x="98.126999"
           y="83.457001"
           id="use2746"
           width="100%"
           height="100%"
           style="fill:#0000ff;fill-opacity:1" />
      </g>
    </g>
  </g>
  <g
     inkscape:label=""
     transform="translate(227.89883,242.82474)"
     id="g47770"
     style="fill:#ff0000;fill-opacity:1">
    <g
       id="g4790"
       style="fill:#ff0000;fill-opacity:1">
      <g
         style="fill:#ff0000;fill-opacity:1"
         id="g198">
        <use
           xlink:href="#symbol2967"
           x="91.925003"
           y="81.962997"
           id="use8360"
           width="100%"
           height="100%"
           style="fill:#ff0000;fill-opacity:1" />
      </g>
      <g
         style="fill:#ff0000;fill-opacity:1"
         id="g3593">
        <use
           xlink:href="#symbol1990"
           x="98.126999"
           y="83.457001"
           id="use4261"
           width="100%"
           height="100%"
           style="fill:#ff0000;fill-opacity:1" />
      </g>
    </g>
  </g>
</svg>
