<?xml version="1.0" encoding="UTF-8" standalone="no"?>
<svg
   width="576pt"
   height="432pt"
   viewBox="0 0 576 432"
   version="1.1"
   id="svg242"
   sodipodi:docname="demo_2.svg"
   inkscape:version="1.1.2 (1:1.1+202202050852+0a00cf5339)"
   inkscape:export-filename="/home/filip/Documents/phd/python/wt/resonance/wavenumber/demo_2.png"
   inkscape:export-xdpi="300"
   inkscape:export-ydpi="300"
   xmlns:inkscape="http://www.inkscape.org/namespaces/inkscape"
   xmlns:sodipodi="http://sodipodi.sourceforge.net/DTD/sodipodi-0.dtd"
   xmlns="http://www.w3.org/2000/svg"
   xmlns:svg="http://www.w3.org/2000/svg"
   xmlns:rdf="http://www.w3.org/1999/02/22-rdf-syntax-ns#"
   xmlns:cc="http://creativecommons.org/ns#"
   xmlns:dc="http://purl.org/dc/elements/1.1/">
  <sodipodi:namedview
     id="namedview244"
     pagecolor="#ffffff"
     bordercolor="#666666"
     borderopacity="1.0"
     inkscape:pageshadow="2"
     inkscape:pageopacity="0.0"
     inkscape:pagecheckerboard="0"
     inkscape:document-units="pt"
     showgrid="false"
     inkscape:zoom="2.06485"
     inkscape:cx="415.2844"
     inkscape:cy="447.49013"
     inkscape:window-width="1920"
     inkscape:window-height="1055"
     inkscape:window-x="1920"
     inkscape:window-y="0"
     inkscape:window-maximized="1"
     inkscape:current-layer="svg242" />
  <metadata
     id="metadata2">
    <rdf:RDF>
      <cc:Work>
        <dc:type
           rdf:resource="http://purl.org/dc/dcmitype/StillImage" />
        <dc:date>2022-07-04T12:32:12.005235</dc:date>
        <dc:format>image/svg+xml</dc:format>
        <dc:creator>
          <cc:Agent>
            <dc:title>Matplotlib v3.5.1, https://matplotlib.org/</dc:title>
          </cc:Agent>
        </dc:creator>
      </cc:Work>
    </rdf:RDF>
  </metadata>
  <defs
     id="defs6">
    <style
       type="text/css"
       id="style4">*{stroke-linejoin: round; stroke-linecap: butt}</style>
    <marker
       style="overflow:visible"
       id="Arrow1Mend"
       refX="0"
       refY="0"
       orient="auto"
       inkscape:stockid="Arrow1Mend"
       inkscape:isstock="true">
      <path
         transform="matrix(-0.4,0,0,-0.4,-4,0)"
         style="fill:context-stroke;fill-rule:evenodd;stroke:context-stroke;stroke-width:1pt"
         d="M 0,0 5,-5 -12.5,0 5,5 Z"
         id="path2188" />
    </marker>
    <marker
       style="overflow:visible"
       id="Arrow1Mend-31"
       refX="0"
       refY="0"
       orient="auto"
       inkscape:stockid="Arrow1Mend"
       inkscape:isstock="true">
      <path
         transform="matrix(-0.4,0,0,-0.4,-4,0)"
         style="fill:context-stroke;fill-rule:evenodd;stroke:context-stroke;stroke-width:1pt"
         d="M 0,0 5,-5 -12.5,0 5,5 Z"
         id="path2188-7" />
    </marker>
    <marker
       style="overflow:visible"
       id="Arrow1Mend-3"
       refX="0"
       refY="0"
       orient="auto"
       inkscape:stockid="Arrow1Mend"
       inkscape:isstock="true">
      <path
         transform="matrix(-0.4,0,0,-0.4,-4,0)"
         style="fill:context-stroke;fill-rule:evenodd;stroke:context-stroke;stroke-width:1pt"
         d="M 0,0 5,-5 -12.5,0 5,5 Z"
         id="path2188-0" />
    </marker>
    <marker
       style="overflow:visible"
       id="Arrow1Mend-3-9"
       refX="0"
       refY="0"
       orient="auto"
       inkscape:stockid="Arrow1Mend"
       inkscape:isstock="true">
      <path
         transform="matrix(-0.4,0,0,-0.4,-4,0)"
         style="fill:context-stroke;fill-rule:evenodd;stroke:context-stroke;stroke-width:1pt"
         d="M 0,0 5,-5 -12.5,0 5,5 Z"
         id="path2188-0-6" />
    </marker>
    <marker
       style="overflow:visible"
       id="marker48110"
       refX="0"
       refY="0"
       orient="auto"
       inkscape:stockid="Arrow1Mend"
       inkscape:isstock="true">
      <path
         transform="matrix(-0.4,0,0,-0.4,-4,0)"
         style="fill:context-stroke;fill-rule:evenodd;stroke:context-stroke;stroke-width:1pt"
         d="M 0,0 5,-5 -12.5,0 5,5 Z"
         id="path48108" />
    </marker>
    <marker
       style="overflow:visible"
       id="Arrow1Mend-3-1"
       refX="0"
       refY="0"
       orient="auto"
       inkscape:stockid="Arrow1Mend"
       inkscape:isstock="true">
      <path
         transform="matrix(-0.4,0,0,-0.4,-4,0)"
         style="fill:context-stroke;fill-rule:evenodd;stroke:context-stroke;stroke-width:1pt"
         d="M 0,0 5,-5 -12.5,0 5,5 Z"
         id="path2188-0-7" />
    </marker>
  </defs>
  <g
     id="line2d_14">
    <path
       d="m 92.290909,180.11476 9.642251,14.62271 9.28513,13.67991 8.92801,12.77171 8.92801,12.38613 8.57088,11.51724 8.57089,11.14063 8.21377,10.31284 7.85665,9.52226 7.85665,9.17895 7.49952,8.43381 7.49953,8.10652 7.49953,7.77283 7.14241,7.08707 7.1424,6.77419 6.78529,6.14109 6.78529,5.8491 6.78528,5.55067 6.42817,4.97599 6.42817,4.69394 6.42816,4.40833 6.42817,4.13027 6.78529,4.09173 8.92801,5.09638 1.7856,1.00094 h 0.35712 l 11.78497,-6.72758 6.78529,-4.13145 6.42816,-4.17528 6.07105,-4.20079 6.42816,-4.72556 6.42817,-5.00692 6.42817,-5.28114 6.78528,-5.86461 6.78529,-6.15631 7.14241,-6.78996 7.14241,-7.10258 7.1424,-7.41035 7.49953,-8.10652 7.49953,-8.43381 7.85665,-9.17895 7.85664,-9.52226 8.21377,-10.31284 8.21377,-10.66884 8.57089,-11.50177 8.57089,-11.86816 8.92801,-12.74127 9.28512,-13.64916 9.28513,-14.0438 1.07137,-1.64533 v 0"
       clip-path="url(#pd08d9c4c2e)"
       style="fill:none;stroke:#ff0000;stroke-width:1.5;stroke-linecap:square"
       id="path214" />
  </g>
  <g
     id="line2d_15">
    <path
       d="m 194.86034,161.97363 8.80302,12.26279 8.80301,11.8783 8.49947,11.09311 8.19591,10.33732 8.19591,9.97434 7.89236,9.25277 7.58881,8.56305 7.58881,8.22849 7.28525,7.57839 7.28526,7.25847 6.9817,6.65104 6.9817,6.3478 6.67815,5.78308 6.67815,5.49469 6.3746,4.96903 6.3746,4.69246 6.3746,4.41162 6.3746,4.13598 6.67815,4.06513 8.19591,4.71351 3.64263,2.0449 h 0.30355 l 11.83854,-6.75841 6.9817,-4.2561 6.3746,-4.14874 6.3746,-4.42499 6.3746,-4.70576 6.3746,-4.98203 6.67815,-5.50795 6.67815,-5.79604 6.9817,-6.36109 6.9817,-6.66412 7.28526,-7.27189 7.28526,-7.59161 7.28525,-7.90586 7.58881,-8.56305 7.89236,-9.25277 7.89236,-9.59839 8.19591,-10.32405 8.19591,-10.6776 8.49947,-11.43622 8.80301,-12.22353 0.91066,-1.28607 v 0"
       clip-path="url(#pd08d9c4c2e)"
       style="fill:none;stroke:#0000ff;stroke-width:1.5;stroke-linecap:square"
       id="path217" />
  </g>
  <g
     id="line2d_16"
     style="stroke:#00ad00;stroke-opacity:1">
    <path
       d="m 92.290909,66.96 20.355861,30.827596 17.4989,26.107714 14.99905,21.98653 12.85633,18.46458 11.42786,16.02946 9.99937,13.6484 8.92801,11.81294 7.85664,10.03687 7.14241,8.77157 6.42817,7.55189 5.71392,6.3931 5.35681,5.67741 4.99968,4.98374 4.64257,4.32004 4.28544,3.69424 3.92833,3.11367 3.92832,2.82911 3.5712,2.30541 3.57121,2.03372 3.21408,1.58437 3.21408,1.33968 3.21409,1.08494 2.85696,0.74359 2.85696,0.53074 2.85696,0.31438 2.85697,0.0959 2.85696,-0.12326 2.85696,-0.34157 2.85697,-0.55757 2.85696,-0.76988 3.21408,-1.1137 3.21409,-1.36738 3.21408,-1.61088 3.5712,-2.06166 3.57121,-2.33163 3.92832,-2.85595 3.92832,-3.13838 4.28545,-3.71887 4.64256,-4.34408 4.99969,-5.0068 5.3568,-5.69917 5.71393,-6.4133 6.42816,-7.57143 6.78529,-8.34197 7.49953,-9.57283 8.57089,-11.31792 9.28513,-12.63408 10.71361,-14.96693 12.14209,-17.36327 13.57057,-19.80004 15.7133,-23.32624 L 440.84038,79.449287 449.05415,66.96 v 0"
       clip-path="url(#pd08d9c4c2e)"
       style="fill:none;stroke:#00ad00;stroke-width:1.5;stroke-linecap:square;stroke-opacity:1"
       id="path220" />
  </g>
  <defs
     id="defs240">
    <clipPath
       id="pd08d9c4c2e">
      <rect
         x="72"
         y="51.84"
         width="446.4"
         height="332.64"
         id="rect237" />
    </clipPath>
  </defs>
  <path
     style="fill:none;stroke:#000000;stroke-width:0.679857;stroke-linecap:butt;stroke-linejoin:miter;stroke-miterlimit:4;stroke-dasharray:4.07914, 4.07914;stroke-dashoffset:0;stroke-opacity:1"
     d="m 346.13664,228.61452 v 143.745"
     id="path2060" />
  <path
     style="fill:none;stroke:#000000;stroke-width:0.679857;stroke-linecap:butt;stroke-linejoin:miter;stroke-miterlimit:4;stroke-dasharray:4.07914, 4.07914;stroke-dashoffset:0;stroke-opacity:1"
     d="M 270.85109,228.61489 V 372.36"
     id="path2060-44" />
  <path
     style="fill:none;stroke:#000000;stroke-width:0.679856;stroke-linecap:butt;stroke-linejoin:miter;stroke-miterlimit:4;stroke-dasharray:4.07914, 4.07914;stroke-dashoffset:0;stroke-opacity:1"
     d="m 287.48145,224.11452 v 143.745"
     id="path2060-4" />
  <path
     style="fill:none;stroke:#000000;stroke-width:0.679856;stroke-linecap:butt;stroke-linejoin:miter;stroke-miterlimit:4;stroke-dasharray:4.07914, 4.07914;stroke-dashoffset:0;stroke-opacity:1"
     d="m 422.05931,268.53437 h -143.745"
     id="path2060-4-0" />
  <path
     style="fill:#ff0000;fill-opacity:1;stroke:#ff0000;stroke-width:0.75;stroke-linecap:butt;stroke-linejoin:miter;stroke-miterlimit:4;stroke-dasharray:none;stroke-opacity:1;marker-end:url(#Arrow1Mend)"
     d="M 344.69134,369.48038 H 275.8395"
     id="path2177" />
  <path
     style="fill:#ff0000;fill-opacity:1;stroke:#ff0000;stroke-width:0.75;stroke-linecap:butt;stroke-linejoin:miter;stroke-miterlimit:4;stroke-dasharray:none;stroke-opacity:1;marker-end:url(#Arrow1Mend-31)"
     d="M 356.28079,371.40039 V 314.39922"
     id="path2177-5" />
  <path
     style="fill:#0000ff;fill-opacity:1;stroke:#0000ff;stroke-width:0.75;stroke-linecap:butt;stroke-linejoin:miter;stroke-miterlimit:4;stroke-dasharray:none;stroke-opacity:1;marker-end:url(#Arrow1Mend-3)"
     d="m 272.25546,354.07755 h 69.01378"
     id="path2177-4" />
  <path
     style="fill:#0000ff;fill-opacity:1;stroke:#0000ff;stroke-width:0.75;stroke-linecap:butt;stroke-linejoin:miter;stroke-miterlimit:4;stroke-dasharray:none;stroke-opacity:1;marker-end:url(#Arrow1Mend-3-9)"
     d="M 356.28079,311.80416 V 270.50662"
     id="path2177-4-2" />
  <path
     style="fill:none;stroke:#00ad00;stroke-width:0.75;stroke-linecap:butt;stroke-linejoin:miter;stroke-miterlimit:4;stroke-dasharray:none;stroke-opacity:1;marker-end:url(#Arrow1Mend-3)"
     d="m 271.91337,332.31777 h 14.25528"
     id="path2628" />
  <path
     style="fill:none;stroke:#00ad00;stroke-width:0.75;stroke-linecap:butt;stroke-linejoin:miter;stroke-miterlimit:4;stroke-dasharray:none;stroke-opacity:1;marker-end:url(#Arrow1Mend-3-1)"
     d="M 374.54762,372.87882 V 270.45597"
     id="path2628-8" />
  <circle
     style="fill:#0000ff;fill-opacity:1;stroke:none;stroke-width:0.336381;stroke-linecap:butt;stroke-linejoin:round;stroke-miterlimit:4;stroke-dasharray:none;stroke-dashoffset:0;stroke-opacity:1"
     id="path46007"
     cx="346.52551"
     cy="311.94409"
     r="2.8301384" />
  <circle
     style="fill:#ff0000;fill-opacity:1;stroke:none;stroke-width:0.336381;stroke-linecap:butt;stroke-linejoin:round;stroke-miterlimit:4;stroke-dasharray:none;stroke-dashoffset:0;stroke-opacity:1"
     id="path46007-7"
     cx="271.04224"
     cy="369.31586"
     r="2.8301384" />
  <circle
     style="fill:#00ad00;fill-opacity:1;stroke:none;stroke-width:0.336381;stroke-linecap:butt;stroke-linejoin:round;stroke-miterlimit:4;stroke-dasharray:none;stroke-dashoffset:0;stroke-opacity:1"
     id="path46007-6"
     cx="287.37946"
     cy="269.44131"
     r="2.8301384" />
  <g
     inkscape:label=""
     transform="translate(217.55424,284.03324)"
     id="g46712"
     style="fill:#ff0000;fill-opacity:1;stroke-linecap:butt;stroke-linejoin:round">
    <g
       id="g5843"
       style="fill:#ff0000;fill-opacity:1">
      <g
         style="fill:#ff0000;fill-opacity:1"
         id="g47233">
        <g
           id="use3081"
           style="fill:#ff0000;fill-opacity:1"
           transform="translate(91.925003,81.962997)">
          <path
             style="stroke:none"
             d="m 2.859375,-6.8125 c 0,0 0,-0.109375 -0.125,-0.109375 -0.234375,0 -0.953125,0.078125 -1.21875,0.109375 -0.078125,0 -0.1875,0.015625 -0.1875,0.1875 0,0.125 0.09375,0.125 0.234375,0.125 0.484375,0 0.5,0.0625 0.5,0.171875 L 2.03125,-6.125 0.59375,-0.390625 c -0.046875,0.140625 -0.046875,0.15625 -0.046875,0.21875 0,0.234375 0.203125,0.28125 0.296875,0.28125 0.125,0 0.265625,-0.09375 0.328125,-0.203125 0.046875,-0.09375 0.5,-1.9375 0.5625,-2.1875 0.34375,0.03125 1.15625,0.1875 1.15625,0.84375 0,0.078125 0,0.109375 -0.03125,0.21875 -0.015625,0.109375 -0.03125,0.234375 -0.03125,0.34375 0,0.578125 0.390625,0.984375 0.90625,0.984375 0.296875,0 0.578125,-0.15625 0.796875,-0.53125 0.25,-0.4375 0.359375,-0.984375 0.359375,-1 0,-0.109375 -0.09375,-0.109375 -0.125,-0.109375 -0.09375,0 -0.109375,0.046875 -0.140625,0.1875 -0.203125,0.71875 -0.421875,1.234375 -0.859375,1.234375 -0.203125,0 -0.328125,-0.109375 -0.328125,-0.46875 0,-0.171875 0.046875,-0.40625 0.078125,-0.5625 C 3.5625,-1.3125 3.5625,-1.34375 3.5625,-1.453125 3.5625,-2.09375 2.9375,-2.375 2.078125,-2.5 2.390625,-2.671875 2.71875,-2.984375 2.9375,-3.234375 3.421875,-3.765625 3.875,-4.1875 4.359375,-4.1875 c 0.0625,0 0.078125,0 0.09375,0.015625 0.125,0.015625 0.125,0.015625 0.21875,0.078125 0.015625,0 0.015625,0.015625 0.03125,0.03125 -0.46875,0.03125 -0.5625,0.421875 -0.5625,0.546875 0,0.15625 0.109375,0.34375 0.375,0.34375 0.265625,0 0.546875,-0.21875 0.546875,-0.609375 0,-0.296875 -0.234375,-0.625 -0.671875,-0.625 -0.28125,0 -0.734375,0.078125 -1.453125,0.875 -0.34375,0.375 -0.734375,0.78125 -1.109375,0.921875 z m 0,0"
             id="path2065" />
        </g>
      </g>
      <g
         style="fill:#ff0000;fill-opacity:1"
         id="g2945">
        <g
           id="use6008"
           style="fill:#ff0000;fill-opacity:1"
           transform="translate(97.112,83.457001)">
          <path
             style="stroke:none"
             d="m 2.328125,-4.4375 c 0,-0.1875 0,-0.1875 -0.203125,-0.1875 -0.453125,0.4375 -1.078125,0.4375 -1.359375,0.4375 v 0.25 c 0.15625,0 0.625,0 1,-0.1875 v 3.546875 c 0,0.234375 0,0.328125 -0.6875,0.328125 H 0.8125 V 0 c 0.125,0 0.984375,-0.03125 1.234375,-0.03125 0.21875,0 1.09375,0.03125 1.25,0.03125 V -0.25 H 3.03125 c -0.703125,0 -0.703125,-0.09375 -0.703125,-0.328125 z m 0,0"
             id="path2061" />
        </g>
      </g>
    </g>
  </g>
  <g
     inkscape:label=""
     transform="translate(218.9148,268.67174)"
     id="g46863"
     style="fill:#0000ff;fill-opacity:1;stroke-linecap:butt;stroke-linejoin:round">
    <g
       id="g5533"
       style="fill:#0000ff;fill-opacity:1">
      <g
         style="fill:#0000ff;fill-opacity:1"
         id="g5716">
        <g
           id="use8464"
           style="fill:#0000ff;fill-opacity:1"
           transform="translate(91.925003,81.962997)">
          <path
             style="stroke:none"
             d="m 2.859375,-6.8125 c 0,0 0,-0.109375 -0.125,-0.109375 -0.234375,0 -0.953125,0.078125 -1.21875,0.109375 -0.078125,0 -0.1875,0.015625 -0.1875,0.1875 0,0.125 0.09375,0.125 0.234375,0.125 0.484375,0 0.5,0.0625 0.5,0.171875 L 2.03125,-6.125 0.59375,-0.390625 c -0.046875,0.140625 -0.046875,0.15625 -0.046875,0.21875 0,0.234375 0.203125,0.28125 0.296875,0.28125 0.125,0 0.265625,-0.09375 0.328125,-0.203125 0.046875,-0.09375 0.5,-1.9375 0.5625,-2.1875 0.34375,0.03125 1.15625,0.1875 1.15625,0.84375 0,0.078125 0,0.109375 -0.03125,0.21875 -0.015625,0.109375 -0.03125,0.234375 -0.03125,0.34375 0,0.578125 0.390625,0.984375 0.90625,0.984375 0.296875,0 0.578125,-0.15625 0.796875,-0.53125 0.25,-0.4375 0.359375,-0.984375 0.359375,-1 0,-0.109375 -0.09375,-0.109375 -0.125,-0.109375 -0.09375,0 -0.109375,0.046875 -0.140625,0.1875 -0.203125,0.71875 -0.421875,1.234375 -0.859375,1.234375 -0.203125,0 -0.328125,-0.109375 -0.328125,-0.46875 0,-0.171875 0.046875,-0.40625 0.078125,-0.5625 C 3.5625,-1.3125 3.5625,-1.34375 3.5625,-1.453125 3.5625,-2.09375 2.9375,-2.375 2.078125,-2.5 2.390625,-2.671875 2.71875,-2.984375 2.9375,-3.234375 3.421875,-3.765625 3.875,-4.1875 4.359375,-4.1875 c 0.0625,0 0.078125,0 0.09375,0.015625 0.125,0.015625 0.125,0.015625 0.21875,0.078125 0.015625,0 0.015625,0.015625 0.03125,0.03125 -0.46875,0.03125 -0.5625,0.421875 -0.5625,0.546875 0,0.15625 0.109375,0.34375 0.375,0.34375 0.265625,0 0.546875,-0.21875 0.546875,-0.609375 0,-0.296875 -0.234375,-0.625 -0.671875,-0.625 -0.28125,0 -0.734375,0.078125 -1.453125,0.875 -0.34375,0.375 -0.734375,0.78125 -1.109375,0.921875 z m 0,0"
             id="path2081" />
        </g>
      </g>
      <g
         style="fill:#0000ff;fill-opacity:1"
         id="g1510">
        <g
           id="use6017"
           style="fill:#0000ff;fill-opacity:1"
           transform="translate(97.112,83.457001)">
          <path
             style="stroke:none"
             d="M 3.515625,-1.265625 H 3.28125 c -0.015625,0.15625 -0.09375,0.5625 -0.1875,0.625 C 3.046875,-0.59375 2.515625,-0.59375 2.40625,-0.59375 H 1.125 c 0.734375,-0.640625 0.984375,-0.84375 1.390625,-1.171875 0.515625,-0.40625 1,-0.84375 1,-1.5 0,-0.84375 -0.734375,-1.359375 -1.625,-1.359375 -0.859375,0 -1.453125,0.609375 -1.453125,1.25 0,0.34375 0.296875,0.390625 0.375,0.390625 0.15625,0 0.359375,-0.125 0.359375,-0.375 0,-0.125 -0.046875,-0.375 -0.40625,-0.375 C 0.984375,-4.21875 1.453125,-4.375 1.78125,-4.375 c 0.703125,0 1.0625,0.546875 1.0625,1.109375 0,0.609375 -0.4375,1.078125 -0.65625,1.328125 L 0.515625,-0.265625 C 0.4375,-0.203125 0.4375,-0.1875 0.4375,0 h 2.875 z m 0,0"
             id="path2077" />
        </g>
      </g>
    </g>
  </g>
  <g
     inkscape:label=""
     transform="translate(183.26011,243.04142)"
     id="g47044"
     style="fill:#00ad00;fill-opacity:1;stroke-linecap:butt;stroke-linejoin:round">
    <g
       id="g1437"
       style="fill:#00ad00;fill-opacity:1">
      <g
         style="fill:#00ad00;fill-opacity:1"
         id="g3180">
        <g
           id="use2986"
           style="fill:#00ad00;fill-opacity:1"
           transform="translate(91.925003,81.962997)">
          <path
             style="stroke:none"
             d="m 2.859375,-6.8125 c 0,0 0,-0.109375 -0.125,-0.109375 -0.234375,0 -0.953125,0.078125 -1.21875,0.109375 -0.078125,0 -0.1875,0.015625 -0.1875,0.1875 0,0.125 0.09375,0.125 0.234375,0.125 0.484375,0 0.5,0.0625 0.5,0.171875 L 2.03125,-6.125 0.59375,-0.390625 c -0.046875,0.140625 -0.046875,0.15625 -0.046875,0.21875 0,0.234375 0.203125,0.28125 0.296875,0.28125 0.125,0 0.265625,-0.09375 0.328125,-0.203125 0.046875,-0.09375 0.5,-1.9375 0.5625,-2.1875 0.34375,0.03125 1.15625,0.1875 1.15625,0.84375 0,0.078125 0,0.109375 -0.03125,0.21875 -0.015625,0.109375 -0.03125,0.234375 -0.03125,0.34375 0,0.578125 0.390625,0.984375 0.90625,0.984375 0.296875,0 0.578125,-0.15625 0.796875,-0.53125 0.25,-0.4375 0.359375,-0.984375 0.359375,-1 0,-0.109375 -0.09375,-0.109375 -0.125,-0.109375 -0.09375,0 -0.109375,0.046875 -0.140625,0.1875 -0.203125,0.71875 -0.421875,1.234375 -0.859375,1.234375 -0.203125,0 -0.328125,-0.109375 -0.328125,-0.46875 0,-0.171875 0.046875,-0.40625 0.078125,-0.5625 C 3.5625,-1.3125 3.5625,-1.34375 3.5625,-1.453125 3.5625,-2.09375 2.9375,-2.375 2.078125,-2.5 2.390625,-2.671875 2.71875,-2.984375 2.9375,-3.234375 3.421875,-3.765625 3.875,-4.1875 4.359375,-4.1875 c 0.0625,0 0.078125,0 0.09375,0.015625 0.125,0.015625 0.125,0.015625 0.21875,0.078125 0.015625,0 0.015625,0.015625 0.03125,0.03125 -0.46875,0.03125 -0.5625,0.421875 -0.5625,0.546875 0,0.15625 0.109375,0.34375 0.375,0.34375 0.265625,0 0.546875,-0.21875 0.546875,-0.609375 0,-0.296875 -0.234375,-0.625 -0.671875,-0.625 -0.28125,0 -0.734375,0.078125 -1.453125,0.875 -0.34375,0.375 -0.734375,0.78125 -1.109375,0.921875 z m 0,0"
             id="path2073" />
        </g>
      </g>
      <g
         style="fill:#00ad00;fill-opacity:1"
         id="g8680">
        <g
           id="use4104"
           style="fill:#00ad00;fill-opacity:1"
           transform="translate(97.112,83.457001)">
          <path
             style="stroke:none"
             d="m 1.90625,-2.328125 c 0.546875,0 0.9375,0.375 0.9375,1.125 0,0.859375 -0.515625,1.125 -0.90625,1.125 -0.28125,0 -0.90625,-0.078125 -1.1875,-0.5 0.328125,0 0.40625,-0.234375 0.40625,-0.390625 0,-0.21875 -0.171875,-0.375 -0.390625,-0.375 -0.1875,0 -0.390625,0.125 -0.390625,0.40625 0,0.65625 0.71875,1.078125 1.5625,1.078125 0.96875,0 1.640625,-0.65625 1.640625,-1.34375 0,-0.546875 -0.4375,-1.09375 -1.203125,-1.25 0.71875,-0.265625 0.984375,-0.78125 0.984375,-1.21875 0,-0.546875 -0.625,-0.953125 -1.40625,-0.953125 -0.765625,0 -1.359375,0.375 -1.359375,0.9375 0,0.234375 0.15625,0.359375 0.359375,0.359375 0.21875,0 0.359375,-0.15625 0.359375,-0.34375 0,-0.203125 -0.140625,-0.359375 -0.359375,-0.375 0.25,-0.296875 0.71875,-0.375 0.984375,-0.375 0.3125,0 0.75,0.15625 0.75,0.75 0,0.296875 -0.09375,0.625 -0.28125,0.828125 -0.21875,0.265625 -0.421875,0.28125 -0.765625,0.3125 -0.171875,0.015625 -0.1875,0.015625 -0.21875,0.015625 -0.015625,0 -0.078125,0.015625 -0.078125,0.09375 0,0.09375 0.0625,0.09375 0.1875,0.09375 z m 0,0"
             id="path2069" />
        </g>
      </g>
    </g>
  </g>
  <g
     inkscape:label=""
     transform="translate(284.52326,247.28874)"
     id="g47256"
     style="fill:#00ad00;fill-opacity:1;stroke:#00ad00;stroke-linecap:butt;stroke-linejoin:round;stroke-opacity:1">
    <g
       id="g1403"
       style="fill:#00ad00;fill-opacity:1;stroke:#00ad00;stroke-opacity:1">
      <g
         style="fill:#00ad00;fill-opacity:1;stroke:#00ad00;stroke-opacity:1"
         id="g8586">
        <g
           id="use5414"
           style="fill:#00ad00;fill-opacity:1;stroke:#00ad00;stroke-opacity:1"
           transform="translate(91.925003,81.962997)">
          <path
             style="stroke:none"
             d="m 6.03125,-3.703125 c 0,-0.453125 -0.171875,-0.703125 -0.40625,-0.703125 -0.25,0 -0.515625,0.234375 -0.515625,0.46875 0,0.09375 0.046875,0.203125 0.140625,0.296875 0.171875,0.15625 0.359375,0.421875 0.359375,0.84375 0,0.390625 -0.203125,0.96875 -0.5,1.421875 C 4.8125,-0.953125 4.4375,-0.609375 3.96875,-0.609375 3.40625,-0.609375 3.09375,-0.96875 3,-1.5 c 0.109375,-0.265625 0.34375,-0.90625 0.34375,-1.1875 0,-0.109375 -0.046875,-0.21875 -0.1875,-0.21875 -0.078125,0 -0.1875,0.03125 -0.265625,0.171875 C 2.78125,-2.53125 2.65625,-1.890625 2.65625,-1.53125 2.328125,-1.0625 1.9375,-0.609375 1.3125,-0.609375 c -0.671875,0 -0.875,-0.59375 -0.875,-1.140625 0,-1.25 1.015625,-2.296875 1.015625,-2.421875 0,-0.109375 -0.078125,-0.1875 -0.1875,-0.1875 -0.125,0 -0.203125,0.125 -0.265625,0.21875 -0.5,0.734375 -0.875,1.921875 -0.875,2.828125 0,0.6875 0.21875,1.421875 1.046875,1.421875 0.703125,0 1.171875,-0.5 1.53125,-1.046875 0.09375,0.578125 0.484375,1.046875 1.09375,1.046875 0.78125,0 1.25,-0.609375 1.609375,-1.359375 0.25,-0.484375 0.625,-1.84375 0.625,-2.453125 z m 0,0"
             id="path2057" />
        </g>
      </g>
      <g
         style="fill:#00ad00;fill-opacity:1;stroke:#00ad00;stroke-opacity:1"
         id="g4578">
        <g
           id="use1779"
           style="fill:#00ad00;fill-opacity:1;stroke:#00ad00;stroke-opacity:1"
           transform="translate(98.126999,83.457001)">
          <path
             style="stroke:none"
             d="m 1.90625,-2.328125 c 0.546875,0 0.9375,0.375 0.9375,1.125 0,0.859375 -0.515625,1.125 -0.90625,1.125 -0.28125,0 -0.90625,-0.078125 -1.1875,-0.5 0.328125,0 0.40625,-0.234375 0.40625,-0.390625 0,-0.21875 -0.171875,-0.375 -0.390625,-0.375 -0.1875,0 -0.390625,0.125 -0.390625,0.40625 0,0.65625 0.71875,1.078125 1.5625,1.078125 0.96875,0 1.640625,-0.65625 1.640625,-1.34375 0,-0.546875 -0.4375,-1.09375 -1.203125,-1.25 0.71875,-0.265625 0.984375,-0.78125 0.984375,-1.21875 0,-0.546875 -0.625,-0.953125 -1.40625,-0.953125 -0.765625,0 -1.359375,0.375 -1.359375,0.9375 0,0.234375 0.15625,0.359375 0.359375,0.359375 0.21875,0 0.359375,-0.15625 0.359375,-0.34375 0,-0.203125 -0.140625,-0.359375 -0.359375,-0.375 0.25,-0.296875 0.71875,-0.375 0.984375,-0.375 0.3125,0 0.75,0.15625 0.75,0.75 0,0.296875 -0.09375,0.625 -0.28125,0.828125 -0.21875,0.265625 -0.421875,0.28125 -0.765625,0.3125 -0.171875,0.015625 -0.1875,0.015625 -0.21875,0.015625 -0.015625,0 -0.078125,0.015625 -0.078125,0.09375 0,0.09375 0.0625,0.09375 0.1875,0.09375 z m 0,0"
             id="path2053" />
        </g>
      </g>
    </g>
  </g>
  <g
     inkscape:label=""
     transform="translate(267.02366,200.84172)"
     id="g47499"
     style="fill:#0000ff;fill-opacity:1;stroke-linecap:butt;stroke-linejoin:round">
    <g
       id="g8358"
       style="fill:#0000ff;fill-opacity:1">
      <g
         style="fill:#0000ff;fill-opacity:1"
         id="g6057">
        <g
           id="use3042"
           style="fill:#0000ff;fill-opacity:1"
           transform="translate(91.925003,81.962997)">
          <path
             style="stroke:none"
             d="m 6.03125,-3.703125 c 0,-0.453125 -0.171875,-0.703125 -0.40625,-0.703125 -0.25,0 -0.515625,0.234375 -0.515625,0.46875 0,0.09375 0.046875,0.203125 0.140625,0.296875 0.171875,0.15625 0.359375,0.421875 0.359375,0.84375 0,0.390625 -0.203125,0.96875 -0.5,1.421875 C 4.8125,-0.953125 4.4375,-0.609375 3.96875,-0.609375 3.40625,-0.609375 3.09375,-0.96875 3,-1.5 c 0.109375,-0.265625 0.34375,-0.90625 0.34375,-1.1875 0,-0.109375 -0.046875,-0.21875 -0.1875,-0.21875 -0.078125,0 -0.1875,0.03125 -0.265625,0.171875 C 2.78125,-2.53125 2.65625,-1.890625 2.65625,-1.53125 2.328125,-1.0625 1.9375,-0.609375 1.3125,-0.609375 c -0.671875,0 -0.875,-0.59375 -0.875,-1.140625 0,-1.25 1.015625,-2.296875 1.015625,-2.421875 0,-0.109375 -0.078125,-0.1875 -0.1875,-0.1875 -0.125,0 -0.203125,0.125 -0.265625,0.21875 -0.5,0.734375 -0.875,1.921875 -0.875,2.828125 0,0.6875 0.21875,1.421875 1.046875,1.421875 0.703125,0 1.171875,-0.5 1.53125,-1.046875 0.09375,0.578125 0.484375,1.046875 1.09375,1.046875 0.78125,0 1.25,-0.609375 1.609375,-1.359375 0.25,-0.484375 0.625,-1.84375 0.625,-2.453125 z m 0,0"
             id="path2089" />
        </g>
      </g>
      <g
         style="fill:#0000ff;fill-opacity:1"
         id="g1473">
        <g
           id="use2746"
           style="fill:#0000ff;fill-opacity:1"
           transform="translate(98.126999,83.457001)">
          <path
             style="stroke:none"
             d="M 3.515625,-1.265625 H 3.28125 c -0.015625,0.15625 -0.09375,0.5625 -0.1875,0.625 C 3.046875,-0.59375 2.515625,-0.59375 2.40625,-0.59375 H 1.125 c 0.734375,-0.640625 0.984375,-0.84375 1.390625,-1.171875 0.515625,-0.40625 1,-0.84375 1,-1.5 0,-0.84375 -0.734375,-1.359375 -1.625,-1.359375 -0.859375,0 -1.453125,0.609375 -1.453125,1.25 0,0.34375 0.296875,0.390625 0.375,0.390625 0.15625,0 0.359375,-0.125 0.359375,-0.375 0,-0.125 -0.046875,-0.375 -0.40625,-0.375 C 0.984375,-4.21875 1.453125,-4.375 1.78125,-4.375 c 0.703125,0 1.0625,0.546875 1.0625,1.109375 0,0.609375 -0.4375,1.078125 -0.65625,1.328125 L 0.515625,-0.265625 C 0.4375,-0.203125 0.4375,-0.1875 0.4375,0 h 2.875 z m 0,0"
             id="path2085" />
        </g>
      </g>
    </g>
  </g>
  <g
     inkscape:label=""
     transform="translate(267.29467,265.36653)"
     id="g47770"
     style="fill:#ff0000;fill-opacity:1;stroke-linecap:butt;stroke-linejoin:round">
    <g
       id="g4790"
       style="fill:#ff0000;fill-opacity:1">
      <g
         style="fill:#ff0000;fill-opacity:1"
         id="g198">
        <g
           id="use8360"
           style="fill:#ff0000;fill-opacity:1"
           transform="translate(91.925003,81.962997)">
          <path
             style="stroke:none"
             d="m 6.03125,-3.703125 c 0,-0.453125 -0.171875,-0.703125 -0.40625,-0.703125 -0.25,0 -0.515625,0.234375 -0.515625,0.46875 0,0.09375 0.046875,0.203125 0.140625,0.296875 0.171875,0.15625 0.359375,0.421875 0.359375,0.84375 0,0.390625 -0.203125,0.96875 -0.5,1.421875 C 4.8125,-0.953125 4.4375,-0.609375 3.96875,-0.609375 3.40625,-0.609375 3.09375,-0.96875 3,-1.5 c 0.109375,-0.265625 0.34375,-0.90625 0.34375,-1.1875 0,-0.109375 -0.046875,-0.21875 -0.1875,-0.21875 -0.078125,0 -0.1875,0.03125 -0.265625,0.171875 C 2.78125,-2.53125 2.65625,-1.890625 2.65625,-1.53125 2.328125,-1.0625 1.9375,-0.609375 1.3125,-0.609375 c -0.671875,0 -0.875,-0.59375 -0.875,-1.140625 0,-1.25 1.015625,-2.296875 1.015625,-2.421875 0,-0.109375 -0.078125,-0.1875 -0.1875,-0.1875 -0.125,0 -0.203125,0.125 -0.265625,0.21875 -0.5,0.734375 -0.875,1.921875 -0.875,2.828125 0,0.6875 0.21875,1.421875 1.046875,1.421875 0.703125,0 1.171875,-0.5 1.53125,-1.046875 0.09375,0.578125 0.484375,1.046875 1.09375,1.046875 0.78125,0 1.25,-0.609375 1.609375,-1.359375 0.25,-0.484375 0.625,-1.84375 0.625,-2.453125 z m 0,0"
             id="path2049" />
        </g>
      </g>
      <g
         style="fill:#ff0000;fill-opacity:1"
         id="g3593">
        <g
           id="use4261"
           style="fill:#ff0000;fill-opacity:1"
           transform="translate(98.126999,83.457001)">
          <path
             style="stroke:none"
             d="m 2.328125,-4.4375 c 0,-0.1875 0,-0.1875 -0.203125,-0.1875 -0.453125,0.4375 -1.078125,0.4375 -1.359375,0.4375 v 0.25 c 0.15625,0 0.625,0 1,-0.1875 v 3.546875 c 0,0.234375 0,0.328125 -0.6875,0.328125 H 0.8125 V 0 c 0.125,0 0.984375,-0.03125 1.234375,-0.03125 0.21875,0 1.09375,0.03125 1.25,0.03125 V -0.25 H 3.03125 c -0.703125,0 -0.703125,-0.09375 -0.703125,-0.328125 z m 0,0"
             id="path2045" />
        </g>
      </g>
    </g>
  </g>
</svg>
