<?xml version="1.0" encoding="utf-8" ?>
<svg baseProfile="full" height="800px" version="1.1" width="800px" xmlns="http://www.w3.org/2000/svg" xmlns:ev="http://www.w3.org/2001/xml-events" xmlns:xlink="http://www.w3.org/1999/xlink"><defs><clipPath id="border_clip"><rect height="800" width="800" x="0" y="0" /></clipPath></defs><polyline clip-path="url(#border_clip)" fill="none" points="310.88005063388334,471.36994936611666 310.88005063388334,468.24494936611666 314.00505063388334,468.24494936611666 317.13005063388334,468.24494936611666 317.13005063388334,465.11994936611666 314.00505063388334,465.11994936611666 314.00505063388334,461.99494936611666 310.88005063388334,461.99494936611666 310.88005063388334,465.11994936611666 307.75505063388334,465.11994936611666 307.75505063388334,461.99494936611666 307.75505063388334,458.86994936611666 304.63005063388334,458.86994936611666 304.63005063388334,461.99494936611666 301.50505063388334,461.99494936611666 301.50505063388334,458.86994936611666 298.38005063388334,458.86994936611666 298.38005063388334,455.74494936611666 301.50505063388334,455.74494936611666 304.63005063388334,455.74494936611666 304.63005063388334,452.61994936611666 301.50505063388334,452.61994936611666 301.50505063388334,449.49494936611666 298.38005063388334,449.49494936611666 298.38005063388334,452.61994936611666 295.25505063388334,452.61994936611666 295.25505063388334,449.49494936611666 295.25505063388334,446.36994936611666 292.13005063388334,446.36994936611666 292.13005063388334,449.49494936611666 289.00505063388334,449.49494936611666 289.00505063388334,452.61994936611666 292.13005063388334,452.61994936611666 292.13005063388334,455.74494936611666 289.00505063388334,455.74494936611666 285.88005063388334,455.74494936611666 285.88005063388334,458.86994936611666 289.00505063388334,458.86994936611666 289.00505063388334,461.99494936611666 285.88005063388334,461.99494936611666 285.88005063388334,465.11994936611666 282.75505063388334,465.11994936611666 282.75505063388334,461.99494936611666" stroke="black" stroke-linecap="round" stroke-width="1" /><polyline clip-path="url(#border_clip)" fill="none" points="282.75505063388334,461.99494936611666 282.75505063388334,458.86994936611666 279.63005063388334,458.86994936611666 279.63005063388334,461.99494936611666 276.50505063388334,461.99494936611666 276.50505063388334,458.86994936611666 273.38005063388334,458.86994936611666 273.38005063388334,455.74494936611666 276.50505063388334,455.74494936611666 279.63005063388334,455.74494936611666 279.63005063388334,452.61994936611666 276.50505063388334,452.61994936611666 276.50505063388334,449.49494936611666 276.50505063388334,446.36994936611666 273.38005063388334,446.36994936611666 273.38005063388334,443.24494936611666 276.50505063388334,443.24494936611666 279.63005063388334,443.24494936611666 279.63005063388334,440.11994936611666 276.50505063388334,440.11994936611666 276.50505063388334,436.99494936611666 273.38005063388334,436.99494936611666 273.38005063388334,440.11994936611666 270.25505063388334,440.11994936611666 270.25505063388334,436.99494936611666 270.25505063388334,433.86994936611666 267.13005063388334,433.86994936611666 267.13005063388334,436.99494936611666 264.00505063388334,436.99494936611666 264.00505063388334,440.11994936611666 267.13005063388334,440.11994936611666 267.13005063388334,443.24494936611666 264.00505063388334,443.24494936611666 260.88005063388334,443.24494936611666 260.88005063388334,446.36994936611666 264.00505063388334,446.36994936611666 264.00505063388334,449.49494936611666 260.88005063388334,449.49494936611666 260.88005063388334,452.61994936611666 257.75505063388334,452.61994936611666 257.75505063388334,449.49494936611666 257.75505063388334,446.36994936611666 254.63005063388334,446.36994936611666" stroke="black" stroke-linecap="round" stroke-width="1" /><polyline clip-path="url(#border_clip)" fill="none" points="254.63005063388334,446.36994936611666 254.63005063388334,449.49494936611666 251.50505063388334,449.49494936611666 251.50505063388334,446.36994936611666 248.38005063388334,446.36994936611666 248.38005063388334,443.24494936611666 251.50505063388334,443.24494936611666 254.63005063388334,443.24494936611666 254.63005063388334,440.11994936611666 251.50505063388334,440.11994936611666 251.50505063388334,436.99494936611666 248.38005063388334,436.99494936611666 248.38005063388334,440.11994936611666 245.25505063388334,440.11994936611666 245.25505063388334,436.99494936611666 245.25505063388334,433.86994936611666 242.13005063388334,433.86994936611666 242.13005063388334,436.99494936611666 239.00505063388334,436.99494936611666 239.00505063388334,433.86994936611666 235.88005063388334,433.86994936611666 235.88005063388334,430.74494936611666 239.00505063388334,430.74494936611666 242.13005063388334,430.74494936611666 242.13005063388334,427.61994936611666 239.00505063388334,427.61994936611666 239.00505063388334,424.49494936611666 242.13005063388334,424.49494936611666 242.13005063388334,421.36994936611666 245.25505063388334,421.36994936611666 245.25505063388334,424.49494936611666 245.25505063388334,427.61994936611666 248.38005063388334,427.61994936611666 248.38005063388334,424.49494936611666 251.50505063388334,424.49494936611666 254.63005063388334,424.49494936611666 254.63005063388334,421.36994936611666 257.75505063388334,421.36994936611666 257.75505063388334,424.49494936611666 257.75505063388334,427.61994936611666 260.88005063388334,427.61994936611666 260.88005063388334,424.49494936611666 264.00505063388334,424.49494936611666" stroke="black" stroke-linecap="round" stroke-width="1" /><polyline clip-path="url(#border_clip)" fill="none" points="264.00505063388334,424.49494936611666 264.00505063388334,421.36994936611666 260.88005063388334,421.36994936611666 260.88005063388334,418.24494936611666 264.00505063388334,418.24494936611666 267.13005063388334,418.24494936611666 267.13005063388334,415.11994936611666 264.00505063388334,415.11994936611666 264.00505063388334,411.99494936611666 260.88005063388334,411.99494936611666 260.88005063388334,415.11994936611666 257.75505063388334,415.11994936611666 257.75505063388334,411.99494936611666 257.75505063388334,408.86994936611666 254.63005063388334,408.86994936611666 254.63005063388334,411.99494936611666 251.50505063388334,411.99494936611666 251.50505063388334,408.86994936611666 248.38005063388334,408.86994936611666 248.38005063388334,405.74494936611666 251.50505063388334,405.74494936611666 254.63005063388334,405.74494936611666 254.63005063388334,402.61994936611666 251.50505063388334,402.61994936611666 251.50505063388334,399.49494936611666 254.63005063388334,399.49494936611666 254.63005063388334,396.36994936611666 257.75505063388334,396.36994936611666 257.75505063388334,399.49494936611666 257.75505063388334,402.61994936611666 260.88005063388334,402.61994936611666 260.88005063388334,399.49494936611666 264.00505063388334,399.49494936611666 264.00505063388334,396.36994936611666 260.88005063388334,396.36994936611666 260.88005063388334,393.24494936611666 264.00505063388334,393.24494936611666 267.13005063388334,393.24494936611666 267.13005063388334,390.11994936611666 264.00505063388334,390.11994936611666 264.00505063388334,386.99494936611666 267.13005063388334,386.99494936611666 267.13005063388334,383.86994936611666" stroke="black" stroke-linecap="round" stroke-width="1" /><polyline clip-path="url(#border_clip)" fill="none" points="267.13005063388334,383.86994936611666 270.25505063388334,383.86994936611666 270.25505063388334,386.99494936611666 270.25505063388334,390.11994936611666 273.38005063388334,390.11994936611666 273.38005063388334,386.99494936611666 276.50505063388334,386.99494936611666 276.50505063388334,390.11994936611666 279.63005063388334,390.11994936611666 279.63005063388334,393.24494936611666 276.50505063388334,393.24494936611666 273.38005063388334,393.24494936611666 273.38005063388334,396.36994936611666 276.50505063388334,396.36994936611666 276.50505063388334,399.49494936611666 276.50505063388334,402.61994936611666 279.63005063388334,402.61994936611666 279.63005063388334,405.74494936611666 276.50505063388334,405.74494936611666 273.38005063388334,405.74494936611666 273.38005063388334,408.86994936611666 276.50505063388334,408.86994936611666 276.50505063388334,411.99494936611666 279.63005063388334,411.99494936611666 279.63005063388334,408.86994936611666 282.75505063388334,408.86994936611666 282.75505063388334,411.99494936611666 282.75505063388334,415.11994936611666 285.88005063388334,415.11994936611666 285.88005063388334,411.99494936611666 289.00505063388334,411.99494936611666 289.00505063388334,408.86994936611666 285.88005063388334,408.86994936611666 285.88005063388334,405.74494936611666 289.00505063388334,405.74494936611666 292.13005063388334,405.74494936611666 292.13005063388334,402.61994936611666 289.00505063388334,402.61994936611666 289.00505063388334,399.49494936611666 292.13005063388334,399.49494936611666 292.13005063388334,396.36994936611666 295.25505063388334,396.36994936611666 295.25505063388334,399.49494936611666" stroke="black" stroke-linecap="round" stroke-width="1" /><polyline clip-path="url(#border_clip)" fill="none" points="295.25505063388334,399.49494936611666 295.25505063388334,402.61994936611666 298.38005063388334,402.61994936611666 298.38005063388334,399.49494936611666 301.50505063388334,399.49494936611666 304.63005063388334,399.49494936611666 304.63005063388334,396.36994936611666 307.75505063388334,396.36994936611666 307.75505063388334,399.49494936611666 307.75505063388334,402.61994936611666 310.88005063388334,402.61994936611666 310.88005063388334,399.49494936611666 314.00505063388334,399.49494936611666 314.00505063388334,396.36994936611666 310.88005063388334,396.36994936611666 310.88005063388334,393.24494936611666 314.00505063388334,393.24494936611666 317.13005063388334,393.24494936611666 317.13005063388334,390.11994936611666 314.00505063388334,390.11994936611666 314.00505063388334,386.99494936611666 317.13005063388334,386.99494936611666 317.13005063388334,383.86994936611666 320.25505063388334,383.86994936611666 320.25505063388334,386.99494936611666 320.25505063388334,390.11994936611666 323.38005063388334,390.11994936611666 323.38005063388334,386.99494936611666 326.50505063388334,386.99494936611666 326.50505063388334,390.11994936611666 329.63005063388334,390.11994936611666 329.63005063388334,393.24494936611666 326.50505063388334,393.24494936611666 323.38005063388334,393.24494936611666 323.38005063388334,396.36994936611666 326.50505063388334,396.36994936611666 326.50505063388334,399.49494936611666 326.50505063388334,402.61994936611666 329.63005063388334,402.61994936611666 329.63005063388334,405.74494936611666 326.50505063388334,405.74494936611666 323.38005063388334,405.74494936611666 323.38005063388334,408.86994936611666" stroke="black" stroke-linecap="round" stroke-width="1" /><polyline clip-path="url(#border_clip)" fill="none" points="323.38005063388334,408.86994936611666 326.50505063388334,408.86994936611666 326.50505063388334,411.99494936611666 329.63005063388334,411.99494936611666 329.63005063388334,408.86994936611666 332.75505063388334,408.86994936611666 332.75505063388334,411.99494936611666 332.75505063388334,415.11994936611666 335.88005063388334,415.11994936611666 335.88005063388334,411.99494936611666 339.00505063388334,411.99494936611666 339.00505063388334,408.86994936611666 335.88005063388334,408.86994936611666 335.88005063388334,405.74494936611666 339.00505063388334,405.74494936611666 342.13005063388334,405.74494936611666 342.13005063388334,402.61994936611666 339.00505063388334,402.61994936611666 339.00505063388334,399.49494936611666 342.13005063388334,399.49494936611666 342.13005063388334,396.36994936611666 345.25505063388334,396.36994936611666 345.25505063388334,399.49494936611666 345.25505063388334,402.61994936611666 348.38005063388334,402.61994936611666 348.38005063388334,399.49494936611666 351.50505063388334,399.49494936611666 351.50505063388334,396.36994936611666 348.38005063388334,396.36994936611666 348.38005063388334,393.24494936611666 351.50505063388334,393.24494936611666 354.63005063388334,393.24494936611666 354.63005063388334,390.11994936611666 351.50505063388334,390.11994936611666 351.50505063388334,386.99494936611666 348.38005063388334,386.99494936611666 348.38005063388334,390.11994936611666 345.25505063388334,390.11994936611666 345.25505063388334,386.99494936611666 345.25505063388334,383.86994936611666 342.13005063388334,383.86994936611666 342.13005063388334,386.99494936611666 339.00505063388334,386.99494936611666" stroke="black" stroke-linecap="round" stroke-width="1" /><polyline clip-path="url(#border_clip)" fill="none" points="339.00505063388334,386.99494936611666 339.00505063388334,383.86994936611666 335.88005063388334,383.86994936611666 335.88005063388334,380.74494936611666 339.00505063388334,380.74494936611666 342.13005063388334,380.74494936611666 342.13005063388334,377.61994936611666 339.00505063388334,377.61994936611666 339.00505063388334,374.49494936611666 342.13005063388334,374.49494936611666 342.13005063388334,371.36994936611666 345.25505063388334,371.36994936611666 345.25505063388334,374.49494936611666 345.25505063388334,377.61994936611666 348.38005063388334,377.61994936611666 348.38005063388334,374.49494936611666 351.50505063388334,374.49494936611666 354.63005063388334,374.49494936611666 354.63005063388334,371.36994936611666 357.75505063388334,371.36994936611666 357.75505063388334,374.49494936611666 357.75505063388334,377.61994936611666 360.88005063388334,377.61994936611666 360.88005063388334,374.49494936611666 364.00505063388334,374.49494936611666 364.00505063388334,371.36994936611666 360.88005063388334,371.36994936611666 360.88005063388334,368.24494936611666 364.00505063388334,368.24494936611666 367.13005063388334,368.24494936611666 367.13005063388334,365.11994936611666 364.00505063388334,365.11994936611666 364.00505063388334,361.99494936611666 360.88005063388334,361.99494936611666 360.88005063388334,365.11994936611666 357.75505063388334,365.11994936611666 357.75505063388334,361.99494936611666 357.75505063388334,358.86994936611666 354.63005063388334,358.86994936611666 354.63005063388334,361.99494936611666 351.50505063388334,361.99494936611666 351.50505063388334,358.86994936611666 348.38005063388334,358.86994936611666" stroke="black" stroke-linecap="round" stroke-width="1" /><polyline clip-path="url(#border_clip)" fill="none" points="348.38005063388334,358.86994936611666 348.38005063388334,355.74494936611666 351.50505063388334,355.74494936611666 354.63005063388334,355.74494936611666 354.63005063388334,352.61994936611666 351.50505063388334,352.61994936611666 351.50505063388334,349.49494936611666 348.38005063388334,349.49494936611666 348.38005063388334,352.61994936611666 345.25505063388334,352.61994936611666 345.25505063388334,349.49494936611666 345.25505063388334,346.36994936611666 342.13005063388334,346.36994936611666 342.13005063388334,349.49494936611666 339.00505063388334,349.49494936611666 339.00505063388334,352.61994936611666 342.13005063388334,352.61994936611666 342.13005063388334,355.74494936611666 339.00505063388334,355.74494936611666 335.88005063388334,355.74494936611666 335.88005063388334,358.86994936611666 339.00505063388334,358.86994936611666 339.00505063388334,361.99494936611666 335.88005063388334,361.99494936611666 335.88005063388334,365.11994936611666 332.75505063388334,365.11994936611666 332.75505063388334,361.99494936611666 332.75505063388334,358.86994936611666 329.63005063388334,358.86994936611666 329.63005063388334,361.99494936611666 326.50505063388334,361.99494936611666 326.50505063388334,358.86994936611666 323.38005063388334,358.86994936611666 323.38005063388334,355.74494936611666 326.50505063388334,355.74494936611666 329.63005063388334,355.74494936611666 329.63005063388334,352.61994936611666 326.50505063388334,352.61994936611666 326.50505063388334,349.49494936611666 326.50505063388334,346.36994936611666 323.38005063388334,346.36994936611666 323.38005063388334,343.24494936611666 326.50505063388334,343.24494936611666" stroke="black" stroke-linecap="round" stroke-width="1" /><polyline clip-path="url(#border_clip)" fill="none" points="326.50505063388334,343.24494936611666 329.63005063388334,343.24494936611666 329.63005063388334,340.11994936611666 326.50505063388334,340.11994936611666 326.50505063388334,336.99494936611666 323.38005063388334,336.99494936611666 323.38005063388334,340.11994936611666 320.25505063388334,340.11994936611666 320.25505063388334,336.99494936611666 320.25505063388334,333.86994936611666 317.13005063388334,333.86994936611666 317.13005063388334,336.99494936611666 314.00505063388334,336.99494936611666 314.00505063388334,340.11994936611666 317.13005063388334,340.11994936611666 317.13005063388334,343.24494936611666 314.00505063388334,343.24494936611666 310.88005063388334,343.24494936611666 310.88005063388334,346.36994936611666 314.00505063388334,346.36994936611666 314.00505063388334,349.49494936611666 310.88005063388334,349.49494936611666 310.88005063388334,352.61994936611666 307.75505063388334,352.61994936611666 307.75505063388334,349.49494936611666 307.75505063388334,346.36994936611666 304.63005063388334,346.36994936611666 304.63005063388334,349.49494936611666 301.50505063388334,349.49494936611666 301.50505063388334,346.36994936611666 298.38005063388334,346.36994936611666 298.38005063388334,343.24494936611666 301.50505063388334,343.24494936611666 304.63005063388334,343.24494936611666 304.63005063388334,340.11994936611666 301.50505063388334,340.11994936611666 301.50505063388334,336.99494936611666 298.38005063388334,336.99494936611666 298.38005063388334,340.11994936611666 295.25505063388334,340.11994936611666 295.25505063388334,336.99494936611666 295.25505063388334,333.86994936611666 292.13005063388334,333.86994936611666" stroke="black" stroke-linecap="round" stroke-width="1" /><polyline clip-path="url(#border_clip)" fill="none" points="292.13005063388334,333.86994936611666 292.13005063388334,336.99494936611666 289.00505063388334,336.99494936611666 289.00505063388334,333.86994936611666 285.88005063388334,333.86994936611666 285.88005063388334,330.74494936611666 289.00505063388334,330.74494936611666 292.13005063388334,330.74494936611666 292.13005063388334,327.61994936611666 289.00505063388334,327.61994936611666 289.00505063388334,324.49494936611666 292.13005063388334,324.49494936611666 292.13005063388334,321.36994936611666 295.25505063388334,321.36994936611666 295.25505063388334,324.49494936611666 295.25505063388334,327.61994936611666 298.38005063388334,327.61994936611666 298.38005063388334,324.49494936611666 301.50505063388334,324.49494936611666 304.63005063388334,324.49494936611666 304.63005063388334,321.36994936611666 307.75505063388334,321.36994936611666 307.75505063388334,324.49494936611666 307.75505063388334,327.61994936611666 310.88005063388334,327.61994936611666 310.88005063388334,324.49494936611666 314.00505063388334,324.49494936611666 314.00505063388334,321.36994936611666 310.88005063388334,321.36994936611666 310.88005063388334,318.24494936611666 314.00505063388334,318.24494936611666 317.13005063388334,318.24494936611666 317.13005063388334,315.11994936611666 314.00505063388334,315.11994936611666 314.00505063388334,311.99494936611666 310.88005063388334,311.99494936611666 310.88005063388334,315.11994936611666 307.75505063388334,315.11994936611666 307.75505063388334,311.99494936611666 307.75505063388334,308.86994936611666 304.63005063388334,308.86994936611666 304.63005063388334,311.99494936611666 301.50505063388334,311.99494936611666" stroke="black" stroke-linecap="round" stroke-width="1" /><polyline clip-path="url(#border_clip)" fill="none" points="301.50505063388334,311.99494936611666 301.50505063388334,308.86994936611666 298.38005063388334,308.86994936611666 298.38005063388334,305.74494936611666 301.50505063388334,305.74494936611666 304.63005063388334,305.74494936611666 304.63005063388334,302.61994936611666 301.50505063388334,302.61994936611666 301.50505063388334,299.49494936611666 304.63005063388334,299.49494936611666 304.63005063388334,296.36994936611666 307.75505063388334,296.36994936611666 307.75505063388334,299.49494936611666 307.75505063388334,302.61994936611666 310.88005063388334,302.61994936611666 310.88005063388334,299.49494936611666 314.00505063388334,299.49494936611666 314.00505063388334,296.36994936611666 310.88005063388334,296.36994936611666 310.88005063388334,293.24494936611666 314.00505063388334,293.24494936611666 317.13005063388334,293.24494936611666 317.13005063388334,290.11994936611666 314.00505063388334,290.11994936611666 314.00505063388334,286.99494936611666 317.13005063388334,286.99494936611666 317.13005063388334,283.86994936611666 320.25505063388334,283.86994936611666 320.25505063388334,286.99494936611666 320.25505063388334,290.11994936611666 323.38005063388334,290.11994936611666 323.38005063388334,286.99494936611666 326.50505063388334,286.99494936611666 326.50505063388334,290.11994936611666 329.63005063388334,290.11994936611666 329.63005063388334,293.24494936611666 326.50505063388334,293.24494936611666 323.38005063388334,293.24494936611666 323.38005063388334,296.36994936611666 326.50505063388334,296.36994936611666 326.50505063388334,299.49494936611666 326.50505063388334,302.61994936611666 329.63005063388334,302.61994936611666" stroke="black" stroke-linecap="round" stroke-width="1" /><polyline clip-path="url(#border_clip)" fill="none" points="329.63005063388334,302.61994936611666 329.63005063388334,305.74494936611666 326.50505063388334,305.74494936611666 323.38005063388334,305.74494936611666 323.38005063388334,308.86994936611666 326.50505063388334,308.86994936611666 326.50505063388334,311.99494936611666 329.63005063388334,311.99494936611666 329.63005063388334,308.86994936611666 332.75505063388334,308.86994936611666 332.75505063388334,311.99494936611666 332.75505063388334,315.11994936611666 335.88005063388334,315.11994936611666 335.88005063388334,311.99494936611666 339.00505063388334,311.99494936611666 339.00505063388334,308.86994936611666 335.88005063388334,308.86994936611666 335.88005063388334,305.74494936611666 339.00505063388334,305.74494936611666 342.13005063388334,305.74494936611666 342.13005063388334,302.61994936611666 339.00505063388334,302.61994936611666 339.00505063388334,299.49494936611666 342.13005063388334,299.49494936611666 342.13005063388334,296.36994936611666 345.25505063388334,296.36994936611666 345.25505063388334,299.49494936611666 345.25505063388334,302.61994936611666 348.38005063388334,302.61994936611666 348.38005063388334,299.49494936611666 351.50505063388334,299.49494936611666 351.50505063388334,296.36994936611666 348.38005063388334,296.36994936611666 348.38005063388334,293.24494936611666 351.50505063388334,293.24494936611666 354.63005063388334,293.24494936611666 354.63005063388334,290.11994936611666 351.50505063388334,290.11994936611666 351.50505063388334,286.99494936611666 348.38005063388334,286.99494936611666 348.38005063388334,290.11994936611666 345.25505063388334,290.11994936611666 345.25505063388334,286.99494936611666" stroke="black" stroke-linecap="round" stroke-width="1" /><polyline clip-path="url(#border_clip)" fill="none" points="345.25505063388334,286.99494936611666 345.25505063388334,283.86994936611666 342.13005063388334,283.86994936611666 342.13005063388334,286.99494936611666 339.00505063388334,286.99494936611666 339.00505063388334,283.86994936611666 335.88005063388334,283.86994936611666 335.88005063388334,280.74494936611666 339.00505063388334,280.74494936611666 342.13005063388334,280.74494936611666 342.13005063388334,277.61994936611666 339.00505063388334,277.61994936611666 339.00505063388334,274.49494936611666 342.13005063388334,274.49494936611666 342.13005063388334,271.36994936611666 345.25505063388334,271.36994936611666 345.25505063388334,274.49494936611666 345.25505063388334,277.61994936611666 348.38005063388334,277.61994936611666 348.38005063388334,274.49494936611666 351.50505063388334,274.49494936611666 354.63005063388334,274.49494936611666 354.63005063388334,271.36994936611666 357.75505063388334,271.36994936611666 357.75505063388334,274.49494936611666 357.75505063388334,277.61994936611666 360.88005063388334,277.61994936611666 360.88005063388334,274.49494936611666 364.00505063388334,274.49494936611666 364.00505063388334,271.36994936611666 360.88005063388334,271.36994936611666 360.88005063388334,268.24494936611666 364.00505063388334,268.24494936611666 367.13005063388334,268.24494936611666 367.13005063388334,265.11994936611666 364.00505063388334,265.11994936611666 364.00505063388334,261.99494936611666 360.88005063388334,261.99494936611666 360.88005063388334,265.11994936611666 357.75505063388334,265.11994936611666 357.75505063388334,261.99494936611666 357.75505063388334,258.86994936611666 354.63005063388334,258.86994936611666" stroke="black" stroke-linecap="round" stroke-width="1" /><polyline clip-path="url(#border_clip)" fill="none" points="354.63005063388334,258.86994936611666 354.63005063388334,261.99494936611666 351.50505063388334,261.99494936611666 351.50505063388334,258.86994936611666 348.38005063388334,258.86994936611666 348.38005063388334,255.74494936611666 351.50505063388334,255.74494936611666 354.63005063388334,255.74494936611666 354.63005063388334,252.61994936611666 351.50505063388334,252.61994936611666 351.50505063388334,249.49494936611666 354.63005063388334,249.49494936611666 354.63005063388334,246.36994936611666 357.75505063388334,246.36994936611666 357.75505063388334,249.49494936611666 357.75505063388334,252.61994936611666 360.88005063388334,252.61994936611666 360.88005063388334,249.49494936611666 364.00505063388334,249.49494936611666 364.00505063388334,246.36994936611666 360.88005063388334,246.36994936611666 360.88005063388334,243.24494936611666 364.00505063388334,243.24494936611666 367.13005063388334,243.24494936611666 367.13005063388334,240.11994936611666 364.00505063388334,240.11994936611666 364.00505063388334,236.99494936611666 367.13005063388334,236.99494936611666 367.13005063388334,233.86994936611666 370.25505063388334,233.86994936611666 370.25505063388334,236.99494936611666 370.25505063388334,240.11994936611666 373.38005063388334,240.11994936611666 373.38005063388334,236.99494936611666 376.50505063388334,236.99494936611666 376.50505063388334,240.11994936611666 379.63005063388334,240.11994936611666 379.63005063388334,243.24494936611666 376.50505063388334,243.24494936611666 373.38005063388334,243.24494936611666 373.38005063388334,246.36994936611666 376.50505063388334,246.36994936611666 376.50505063388334,249.49494936611666" stroke="black" stroke-linecap="round" stroke-width="1" /><polyline clip-path="url(#border_clip)" fill="none" points="376.50505063388334,249.49494936611666 376.50505063388334,252.61994936611666 379.63005063388334,252.61994936611666 379.63005063388334,255.74494936611666 376.50505063388334,255.74494936611666 373.38005063388334,255.74494936611666 373.38005063388334,258.86994936611666 376.50505063388334,258.86994936611666 376.50505063388334,261.99494936611666 379.63005063388334,261.99494936611666 379.63005063388334,258.86994936611666 382.75505063388334,258.86994936611666 382.75505063388334,261.99494936611666 382.75505063388334,265.11994936611666 385.88005063388334,265.11994936611666 385.88005063388334,261.99494936611666 389.00505063388334,261.99494936611666 389.00505063388334,258.86994936611666 385.88005063388334,258.86994936611666 385.88005063388334,255.74494936611666 389.00505063388334,255.74494936611666 392.13005063388334,255.74494936611666 392.13005063388334,252.61994936611666 389.00505063388334,252.61994936611666 389.00505063388334,249.49494936611666 392.13005063388334,249.49494936611666 392.13005063388334,246.36994936611666 395.25505063388334,246.36994936611666 395.25505063388334,249.49494936611666 395.25505063388334,252.61994936611666 398.38005063388334,252.61994936611666 398.38005063388334,249.49494936611666 401.50505063388334,249.49494936611666 401.50505063388334,252.61994936611666 404.63005063388334,252.61994936611666 404.63005063388334,255.74494936611666 401.50505063388334,255.74494936611666 398.38005063388334,255.74494936611666 398.38005063388334,258.86994936611666 401.50505063388334,258.86994936611666 401.50505063388334,261.99494936611666 404.63005063388334,261.99494936611666 404.63005063388334,258.86994936611666" stroke="black" stroke-linecap="round" stroke-width="1" /><polyline clip-path="url(#border_clip)" fill="none" points="404.63005063388334,258.86994936611666 407.75505063388334,258.86994936611666 407.75505063388334,261.99494936611666 407.75505063388334,265.11994936611666 410.88005063388334,265.11994936611666 410.88005063388334,261.99494936611666 414.00505063388334,261.99494936611666 414.00505063388334,265.11994936611666 417.13005063388334,265.11994936611666 417.13005063388334,268.24494936611666 414.00505063388334,268.24494936611666 410.88005063388334,268.24494936611666 410.88005063388334,271.36994936611666 414.00505063388334,271.36994936611666 414.00505063388334,274.49494936611666 410.88005063388334,274.49494936611666 410.88005063388334,277.61994936611666 407.75505063388334,277.61994936611666 407.75505063388334,274.49494936611666 407.75505063388334,271.36994936611666 404.63005063388334,271.36994936611666 404.63005063388334,274.49494936611666 401.50505063388334,274.49494936611666 398.38005063388334,274.49494936611666 398.38005063388334,277.61994936611666 395.25505063388334,277.61994936611666 395.25505063388334,274.49494936611666 395.25505063388334,271.36994936611666 392.13005063388334,271.36994936611666 392.13005063388334,274.49494936611666 389.00505063388334,274.49494936611666 389.00505063388334,277.61994936611666 392.13005063388334,277.61994936611666 392.13005063388334,280.74494936611666 389.00505063388334,280.74494936611666 385.88005063388334,280.74494936611666 385.88005063388334,283.86994936611666 389.00505063388334,283.86994936611666 389.00505063388334,286.99494936611666 392.13005063388334,286.99494936611666 392.13005063388334,283.86994936611666 395.25505063388334,283.86994936611666 395.25505063388334,286.99494936611666" stroke="black" stroke-linecap="round" stroke-width="1" /><polyline clip-path="url(#border_clip)" fill="none" points="395.25505063388334,286.99494936611666 395.25505063388334,290.11994936611666 398.38005063388334,290.11994936611666 398.38005063388334,286.99494936611666 401.50505063388334,286.99494936611666 401.50505063388334,290.11994936611666 404.63005063388334,290.11994936611666 404.63005063388334,293.24494936611666 401.50505063388334,293.24494936611666 398.38005063388334,293.24494936611666 398.38005063388334,296.36994936611666 401.50505063388334,296.36994936611666 401.50505063388334,299.49494936611666 401.50505063388334,302.61994936611666 404.63005063388334,302.61994936611666 404.63005063388334,305.74494936611666 401.50505063388334,305.74494936611666 398.38005063388334,305.74494936611666 398.38005063388334,308.86994936611666 401.50505063388334,308.86994936611666 401.50505063388334,311.99494936611666 404.63005063388334,311.99494936611666 404.63005063388334,308.86994936611666 407.75505063388334,308.86994936611666 407.75505063388334,311.99494936611666 407.75505063388334,315.11994936611666 410.88005063388334,315.11994936611666 410.88005063388334,311.99494936611666 414.00505063388334,311.99494936611666 414.00505063388334,315.11994936611666 417.13005063388334,315.11994936611666 417.13005063388334,318.24494936611666 414.00505063388334,318.24494936611666 410.88005063388334,318.24494936611666 410.88005063388334,321.36994936611666 414.00505063388334,321.36994936611666 414.00505063388334,324.49494936611666 410.88005063388334,324.49494936611666 410.88005063388334,327.61994936611666 407.75505063388334,327.61994936611666 407.75505063388334,324.49494936611666 407.75505063388334,321.36994936611666 404.63005063388334,321.36994936611666" stroke="black" stroke-linecap="round" stroke-width="1" /><polyline clip-path="url(#border_clip)" fill="none" points="404.63005063388334,321.36994936611666 404.63005063388334,324.49494936611666 401.50505063388334,324.49494936611666 398.38005063388334,324.49494936611666 398.38005063388334,327.61994936611666 395.25505063388334,327.61994936611666 395.25505063388334,324.49494936611666 395.25505063388334,321.36994936611666 392.13005063388334,321.36994936611666 392.13005063388334,324.49494936611666 389.00505063388334,324.49494936611666 389.00505063388334,327.61994936611666 392.13005063388334,327.61994936611666 392.13005063388334,330.74494936611666 389.00505063388334,330.74494936611666 385.88005063388334,330.74494936611666 385.88005063388334,333.86994936611666 389.00505063388334,333.86994936611666 389.00505063388334,336.99494936611666 392.13005063388334,336.99494936611666 392.13005063388334,333.86994936611666 395.25505063388334,333.86994936611666 395.25505063388334,336.99494936611666 395.25505063388334,340.11994936611666 398.38005063388334,340.11994936611666 398.38005063388334,336.99494936611666 401.50505063388334,336.99494936611666 401.50505063388334,340.11994936611666 404.63005063388334,340.11994936611666 404.63005063388334,343.24494936611666 401.50505063388334,343.24494936611666 398.38005063388334,343.24494936611666 398.38005063388334,346.36994936611666 401.50505063388334,346.36994936611666 401.50505063388334,349.49494936611666 404.63005063388334,349.49494936611666 404.63005063388334,346.36994936611666 407.75505063388334,346.36994936611666 407.75505063388334,349.49494936611666 407.75505063388334,352.61994936611666 410.88005063388334,352.61994936611666 410.88005063388334,349.49494936611666 414.00505063388334,349.49494936611666" stroke="black" stroke-linecap="round" stroke-width="1" /><polyline clip-path="url(#border_clip)" fill="none" points="414.00505063388334,349.49494936611666 414.00505063388334,346.36994936611666 410.88005063388334,346.36994936611666 410.88005063388334,343.24494936611666 414.00505063388334,343.24494936611666 417.13005063388334,343.24494936611666 417.13005063388334,340.11994936611666 414.00505063388334,340.11994936611666 414.00505063388334,336.99494936611666 417.13005063388334,336.99494936611666 417.13005063388334,333.86994936611666 420.25505063388334,333.86994936611666 420.25505063388334,336.99494936611666 420.25505063388334,340.11994936611666 423.38005063388334,340.11994936611666 423.38005063388334,336.99494936611666 426.50505063388334,336.99494936611666 426.50505063388334,340.11994936611666 429.63005063388334,340.11994936611666 429.63005063388334,343.24494936611666 426.50505063388334,343.24494936611666 423.38005063388334,343.24494936611666 423.38005063388334,346.36994936611666 426.50505063388334,346.36994936611666 426.50505063388334,349.49494936611666 426.50505063388334,352.61994936611666 429.63005063388334,352.61994936611666 429.63005063388334,355.74494936611666 426.50505063388334,355.74494936611666 423.38005063388334,355.74494936611666 423.38005063388334,358.86994936611666 426.50505063388334,358.86994936611666 426.50505063388334,361.99494936611666 429.63005063388334,361.99494936611666 429.63005063388334,358.86994936611666 432.75505063388334,358.86994936611666 432.75505063388334,361.99494936611666 432.75505063388334,365.11994936611666 435.88005063388334,365.11994936611666 435.88005063388334,361.99494936611666 439.00505063388334,361.99494936611666 439.00505063388334,358.86994936611666 435.88005063388334,358.86994936611666" stroke="black" stroke-linecap="round" stroke-width="1" /><polyline clip-path="url(#border_clip)" fill="none" points="435.88005063388334,358.86994936611666 435.88005063388334,355.74494936611666 439.00505063388334,355.74494936611666 442.13005063388334,355.74494936611666 442.13005063388334,352.61994936611666 439.00505063388334,352.61994936611666 439.00505063388334,349.49494936611666 442.13005063388334,349.49494936611666 442.13005063388334,346.36994936611666 445.25505063388334,346.36994936611666 445.25505063388334,349.49494936611666 445.25505063388334,352.61994936611666 448.38005063388334,352.61994936611666 448.38005063388334,349.49494936611666 451.50505063388334,349.49494936611666 451.50505063388334,346.36994936611666 448.38005063388334,346.36994936611666 448.38005063388334,343.24494936611666 451.50505063388334,343.24494936611666 454.63005063388334,343.24494936611666 454.63005063388334,340.11994936611666 451.50505063388334,340.11994936611666 451.50505063388334,336.99494936611666 448.38005063388334,336.99494936611666 448.38005063388334,340.11994936611666 445.25505063388334,340.11994936611666 445.25505063388334,336.99494936611666 445.25505063388334,333.86994936611666 442.13005063388334,333.86994936611666 442.13005063388334,336.99494936611666 439.00505063388334,336.99494936611666 439.00505063388334,333.86994936611666 435.88005063388334,333.86994936611666 435.88005063388334,330.74494936611666 439.00505063388334,330.74494936611666 442.13005063388334,330.74494936611666 442.13005063388334,327.61994936611666 439.00505063388334,327.61994936611666 439.00505063388334,324.49494936611666 442.13005063388334,324.49494936611666 442.13005063388334,321.36994936611666 445.25505063388334,321.36994936611666 445.25505063388334,324.49494936611666" stroke="black" stroke-linecap="round" stroke-width="1" /><polyline clip-path="url(#border_clip)" fill="none" points="445.25505063388334,324.49494936611666 445.25505063388334,327.61994936611666 448.38005063388334,327.61994936611666 448.38005063388334,324.49494936611666 451.50505063388334,324.49494936611666 454.63005063388334,324.49494936611666 454.63005063388334,321.36994936611666 457.75505063388334,321.36994936611666 457.75505063388334,324.49494936611666 457.75505063388334,327.61994936611666 460.88005063388334,327.61994936611666 460.88005063388334,324.49494936611666 464.00505063388334,324.49494936611666 464.00505063388334,321.36994936611666 460.88005063388334,321.36994936611666 460.88005063388334,318.24494936611666 464.00505063388334,318.24494936611666 467.13005063388334,318.24494936611666 467.13005063388334,315.11994936611666 464.00505063388334,315.11994936611666 464.00505063388334,311.99494936611666 460.88005063388334,311.99494936611666 460.88005063388334,315.11994936611666 457.75505063388334,315.11994936611666 457.75505063388334,311.99494936611666 457.75505063388334,308.86994936611666 454.63005063388334,308.86994936611666 454.63005063388334,311.99494936611666 451.50505063388334,311.99494936611666 451.50505063388334,308.86994936611666 448.38005063388334,308.86994936611666 448.38005063388334,305.74494936611666 451.50505063388334,305.74494936611666 454.63005063388334,305.74494936611666 454.63005063388334,302.61994936611666 451.50505063388334,302.61994936611666 451.50505063388334,299.49494936611666 454.63005063388334,299.49494936611666 454.63005063388334,296.36994936611666 457.75505063388334,296.36994936611666 457.75505063388334,299.49494936611666 457.75505063388334,302.61994936611666 460.88005063388334,302.61994936611666" stroke="black" stroke-linecap="round" stroke-width="1" /><polyline clip-path="url(#border_clip)" fill="none" points="460.88005063388334,302.61994936611666 460.88005063388334,299.49494936611666 464.00505063388334,299.49494936611666 464.00505063388334,296.36994936611666 460.88005063388334,296.36994936611666 460.88005063388334,293.24494936611666 464.00505063388334,293.24494936611666 467.13005063388334,293.24494936611666 467.13005063388334,290.11994936611666 464.00505063388334,290.11994936611666 464.00505063388334,286.99494936611666 467.13005063388334,286.99494936611666 467.13005063388334,283.86994936611666 470.25505063388334,283.86994936611666 470.25505063388334,286.99494936611666 470.25505063388334,290.11994936611666 473.38005063388334,290.11994936611666 473.38005063388334,286.99494936611666 476.50505063388334,286.99494936611666 476.50505063388334,290.11994936611666 479.63005063388334,290.11994936611666 479.63005063388334,293.24494936611666 476.50505063388334,293.24494936611666 473.38005063388334,293.24494936611666 473.38005063388334,296.36994936611666 476.50505063388334,296.36994936611666 476.50505063388334,299.49494936611666 476.50505063388334,302.61994936611666 479.63005063388334,302.61994936611666 479.63005063388334,305.74494936611666 476.50505063388334,305.74494936611666 473.38005063388334,305.74494936611666 473.38005063388334,308.86994936611666 476.50505063388334,308.86994936611666 476.50505063388334,311.99494936611666 479.63005063388334,311.99494936611666 479.63005063388334,308.86994936611666 482.75505063388334,308.86994936611666 482.75505063388334,311.99494936611666 482.75505063388334,315.11994936611666 485.88005063388334,315.11994936611666 485.88005063388334,311.99494936611666 489.00505063388334,311.99494936611666" stroke="black" stroke-linecap="round" stroke-width="1" /><polyline clip-path="url(#border_clip)" fill="none" points="489.00505063388334,311.99494936611666 489.00505063388334,308.86994936611666 485.88005063388334,308.86994936611666 485.88005063388334,305.74494936611666 489.00505063388334,305.74494936611666 492.13005063388334,305.74494936611666 492.13005063388334,302.61994936611666 489.00505063388334,302.61994936611666 489.00505063388334,299.49494936611666 492.13005063388334,299.49494936611666 492.13005063388334,296.36994936611666 495.25505063388334,296.36994936611666 495.25505063388334,299.49494936611666 495.25505063388334,302.61994936611666 498.38005063388334,302.61994936611666 498.38005063388334,299.49494936611666 501.50505063388334,299.49494936611666 501.50505063388334,302.61994936611666 504.63005063388334,302.61994936611666 504.63005063388334,305.74494936611666 501.50505063388334,305.74494936611666 498.38005063388334,305.74494936611666 498.38005063388334,308.86994936611666 501.50505063388334,308.86994936611666 501.50505063388334,311.99494936611666 504.63005063388334,311.99494936611666 504.63005063388334,308.86994936611666 507.75505063388334,308.86994936611666 507.75505063388334,311.99494936611666 507.75505063388334,315.11994936611666 510.88005063388334,315.11994936611666 510.88005063388334,311.99494936611666 514.0050506338833,311.99494936611666 514.0050506338833,315.11994936611666 517.1300506338833,315.11994936611666 517.1300506338833,318.24494936611666 514.0050506338833,318.24494936611666 510.88005063388334,318.24494936611666 510.88005063388334,321.36994936611666 514.0050506338833,321.36994936611666 514.0050506338833,324.49494936611666 510.88005063388334,324.49494936611666 510.88005063388334,327.61994936611666" stroke="black" stroke-linecap="round" stroke-width="1" /><polyline clip-path="url(#border_clip)" fill="none" points="510.88005063388334,327.61994936611666 507.75505063388334,327.61994936611666 507.75505063388334,324.49494936611666 507.75505063388334,321.36994936611666 504.63005063388334,321.36994936611666 504.63005063388334,324.49494936611666 501.50505063388334,324.49494936611666 498.38005063388334,324.49494936611666 498.38005063388334,327.61994936611666 495.25505063388334,327.61994936611666 495.25505063388334,324.49494936611666 495.25505063388334,321.36994936611666 492.13005063388334,321.36994936611666 492.13005063388334,324.49494936611666 489.00505063388334,324.49494936611666 489.00505063388334,327.61994936611666 492.13005063388334,327.61994936611666 492.13005063388334,330.74494936611666 489.00505063388334,330.74494936611666 485.88005063388334,330.74494936611666 485.88005063388334,333.86994936611666 489.00505063388334,333.86994936611666 489.00505063388334,336.99494936611666 492.13005063388334,336.99494936611666 492.13005063388334,333.86994936611666 495.25505063388334,333.86994936611666 495.25505063388334,336.99494936611666 495.25505063388334,340.11994936611666 498.38005063388334,340.11994936611666 498.38005063388334,336.99494936611666 501.50505063388334,336.99494936611666 501.50505063388334,340.11994936611666 504.63005063388334,340.11994936611666 504.63005063388334,343.24494936611666 501.50505063388334,343.24494936611666 498.38005063388334,343.24494936611666 498.38005063388334,346.36994936611666 501.50505063388334,346.36994936611666 501.50505063388334,349.49494936611666 504.63005063388334,349.49494936611666 504.63005063388334,346.36994936611666 507.75505063388334,346.36994936611666 507.75505063388334,349.49494936611666" stroke="black" stroke-linecap="round" stroke-width="1" /><polyline clip-path="url(#border_clip)" fill="none" points="507.75505063388334,349.49494936611666 507.75505063388334,352.61994936611666 510.88005063388334,352.61994936611666 510.88005063388334,349.49494936611666 514.0050506338833,349.49494936611666 514.0050506338833,346.36994936611666 510.88005063388334,346.36994936611666 510.88005063388334,343.24494936611666 514.0050506338833,343.24494936611666 517.1300506338833,343.24494936611666 517.1300506338833,340.11994936611666 514.0050506338833,340.11994936611666 514.0050506338833,336.99494936611666 517.1300506338833,336.99494936611666 517.1300506338833,333.86994936611666 520.2550506338833,333.86994936611666 520.2550506338833,336.99494936611666 520.2550506338833,340.11994936611666 523.3800506338833,340.11994936611666 523.3800506338833,336.99494936611666 526.5050506338833,336.99494936611666 526.5050506338833,340.11994936611666 529.6300506338833,340.11994936611666 529.6300506338833,343.24494936611666 526.5050506338833,343.24494936611666 523.3800506338833,343.24494936611666 523.3800506338833,346.36994936611666 526.5050506338833,346.36994936611666 526.5050506338833,349.49494936611666 526.5050506338833,352.61994936611666 529.6300506338833,352.61994936611666 529.6300506338833,355.74494936611666 526.5050506338833,355.74494936611666 523.3800506338833,355.74494936611666 523.3800506338833,358.86994936611666 526.5050506338833,358.86994936611666 526.5050506338833,361.99494936611666 529.6300506338833,361.99494936611666 529.6300506338833,358.86994936611666 532.7550506338833,358.86994936611666 532.7550506338833,361.99494936611666 532.7550506338833,365.11994936611666 535.8800506338833,365.11994936611666" stroke="black" stroke-linecap="round" stroke-width="1" /><polyline clip-path="url(#border_clip)" fill="none" points="535.8800506338833,365.11994936611666 535.8800506338833,361.99494936611666 539.0050506338833,361.99494936611666 539.0050506338833,358.86994936611666 535.8800506338833,358.86994936611666 535.8800506338833,355.74494936611666 539.0050506338833,355.74494936611666 542.1300506338833,355.74494936611666 542.1300506338833,352.61994936611666 539.0050506338833,352.61994936611666 539.0050506338833,349.49494936611666 542.1300506338833,349.49494936611666 542.1300506338833,346.36994936611666 545.2550506338833,346.36994936611666 545.2550506338833,349.49494936611666 545.2550506338833,352.61994936611666 548.3800506338833,352.61994936611666 548.3800506338833,349.49494936611666 551.5050506338833,349.49494936611666 551.5050506338833,352.61994936611666 554.6300506338833,352.61994936611666 554.6300506338833,355.74494936611666 551.5050506338833,355.74494936611666 548.3800506338833,355.74494936611666 548.3800506338833,358.86994936611666 551.5050506338833,358.86994936611666 551.5050506338833,361.99494936611666 554.6300506338833,361.99494936611666 554.6300506338833,358.86994936611666 557.7550506338833,358.86994936611666 557.7550506338833,361.99494936611666 557.7550506338833,365.11994936611666 560.8800506338833,365.11994936611666 560.8800506338833,361.99494936611666 564.0050506338833,361.99494936611666 564.0050506338833,365.11994936611666 567.1300506338833,365.11994936611666 567.1300506338833,368.24494936611666 564.0050506338833,368.24494936611666 560.8800506338833,368.24494936611666 560.8800506338833,371.36994936611666 564.0050506338833,371.36994936611666 564.0050506338833,374.49494936611666" stroke="black" stroke-linecap="round" stroke-width="1" /><polyline clip-path="url(#border_clip)" fill="none" points="564.0050506338833,374.49494936611666 560.8800506338833,374.49494936611666 560.8800506338833,377.61994936611666 557.7550506338833,377.61994936611666 557.7550506338833,374.49494936611666 557.7550506338833,371.36994936611666 554.6300506338833,371.36994936611666 554.6300506338833,374.49494936611666 551.5050506338833,374.49494936611666 548.3800506338833,374.49494936611666 548.3800506338833,377.61994936611666 545.2550506338833,377.61994936611666 545.2550506338833,374.49494936611666 545.2550506338833,371.36994936611666 542.1300506338833,371.36994936611666 542.1300506338833,374.49494936611666 539.0050506338833,374.49494936611666 539.0050506338833,377.61994936611666 542.1300506338833,377.61994936611666 542.1300506338833,380.74494936611666 539.0050506338833,380.74494936611666 535.8800506338833,380.74494936611666 535.8800506338833,383.86994936611666 539.0050506338833,383.86994936611666 539.0050506338833,386.99494936611666 542.1300506338833,386.99494936611666 542.1300506338833,383.86994936611666 545.2550506338833,383.86994936611666 545.2550506338833,386.99494936611666 545.2550506338833,390.11994936611666 548.3800506338833,390.11994936611666 548.3800506338833,386.99494936611666 551.5050506338833,386.99494936611666 551.5050506338833,390.11994936611666 554.6300506338833,390.11994936611666 554.6300506338833,393.24494936611666 551.5050506338833,393.24494936611666 548.3800506338833,393.24494936611666 548.3800506338833,396.36994936611666 551.5050506338833,396.36994936611666 551.5050506338833,399.49494936611666 548.3800506338833,399.49494936611666 548.3800506338833,402.61994936611666" stroke="black" stroke-linecap="round" stroke-width="1" /><polyline clip-path="url(#border_clip)" fill="none" points="548.3800506338833,402.61994936611666 545.2550506338833,402.61994936611666 545.2550506338833,399.49494936611666 545.2550506338833,396.36994936611666 542.1300506338833,396.36994936611666 542.1300506338833,399.49494936611666 539.0050506338833,399.49494936611666 539.0050506338833,402.61994936611666 542.1300506338833,402.61994936611666 542.1300506338833,405.74494936611666 539.0050506338833,405.74494936611666 535.8800506338833,405.74494936611666 535.8800506338833,408.86994936611666 539.0050506338833,408.86994936611666 539.0050506338833,411.99494936611666 535.8800506338833,411.99494936611666 535.8800506338833,415.11994936611666 532.7550506338833,415.11994936611666 532.7550506338833,411.99494936611666 532.7550506338833,408.86994936611666 529.6300506338833,408.86994936611666 529.6300506338833,411.99494936611666 526.5050506338833,411.99494936611666 526.5050506338833,408.86994936611666 523.3800506338833,408.86994936611666 523.3800506338833,405.74494936611666 526.5050506338833,405.74494936611666 529.6300506338833,405.74494936611666 529.6300506338833,402.61994936611666 526.5050506338833,402.61994936611666 526.5050506338833,399.49494936611666 526.5050506338833,396.36994936611666 523.3800506338833,396.36994936611666 523.3800506338833,393.24494936611666 526.5050506338833,393.24494936611666 529.6300506338833,393.24494936611666 529.6300506338833,390.11994936611666 526.5050506338833,390.11994936611666 526.5050506338833,386.99494936611666 523.3800506338833,386.99494936611666 523.3800506338833,390.11994936611666 520.2550506338833,390.11994936611666 520.2550506338833,386.99494936611666" stroke="black" stroke-linecap="round" stroke-width="1" /><polyline clip-path="url(#border_clip)" fill="none" points="520.2550506338833,386.99494936611666 520.2550506338833,383.86994936611666 517.1300506338833,383.86994936611666 517.1300506338833,386.99494936611666 514.0050506338833,386.99494936611666 514.0050506338833,390.11994936611666 517.1300506338833,390.11994936611666 517.1300506338833,393.24494936611666 514.0050506338833,393.24494936611666 510.88005063388334,393.24494936611666 510.88005063388334,396.36994936611666 514.0050506338833,396.36994936611666 514.0050506338833,399.49494936611666 510.88005063388334,399.49494936611666 510.88005063388334,402.61994936611666 507.75505063388334,402.61994936611666 507.75505063388334,399.49494936611666 507.75505063388334,396.36994936611666 504.63005063388334,396.36994936611666 504.63005063388334,399.49494936611666 501.50505063388334,399.49494936611666 498.38005063388334,399.49494936611666 498.38005063388334,402.61994936611666 495.25505063388334,402.61994936611666 495.25505063388334,399.49494936611666 495.25505063388334,396.36994936611666 492.13005063388334,396.36994936611666 492.13005063388334,399.49494936611666 489.00505063388334,399.49494936611666 489.00505063388334,402.61994936611666 492.13005063388334,402.61994936611666 492.13005063388334,405.74494936611666 489.00505063388334,405.74494936611666 485.88005063388334,405.74494936611666 485.88005063388334,408.86994936611666 489.00505063388334,408.86994936611666 489.00505063388334,411.99494936611666 485.88005063388334,411.99494936611666 485.88005063388334,415.11994936611666 482.75505063388334,415.11994936611666 482.75505063388334,411.99494936611666 482.75505063388334,408.86994936611666 479.63005063388334,408.86994936611666" stroke="black" stroke-linecap="round" stroke-width="1" /><polyline clip-path="url(#border_clip)" fill="none" points="479.63005063388334,408.86994936611666 479.63005063388334,411.99494936611666 476.50505063388334,411.99494936611666 476.50505063388334,408.86994936611666 473.38005063388334,408.86994936611666 473.38005063388334,405.74494936611666 476.50505063388334,405.74494936611666 479.63005063388334,405.74494936611666 479.63005063388334,402.61994936611666 476.50505063388334,402.61994936611666 476.50505063388334,399.49494936611666 476.50505063388334,396.36994936611666 473.38005063388334,396.36994936611666 473.38005063388334,393.24494936611666 476.50505063388334,393.24494936611666 479.63005063388334,393.24494936611666 479.63005063388334,390.11994936611666 476.50505063388334,390.11994936611666 476.50505063388334,386.99494936611666 473.38005063388334,386.99494936611666 473.38005063388334,390.11994936611666 470.25505063388334,390.11994936611666 470.25505063388334,386.99494936611666 470.25505063388334,383.86994936611666 467.13005063388334,383.86994936611666 467.13005063388334,386.99494936611666 464.00505063388334,386.99494936611666 464.00505063388334,390.11994936611666 467.13005063388334,390.11994936611666 467.13005063388334,393.24494936611666 464.00505063388334,393.24494936611666 460.88005063388334,393.24494936611666 460.88005063388334,396.36994936611666 464.00505063388334,396.36994936611666 464.00505063388334,399.49494936611666 460.88005063388334,399.49494936611666 460.88005063388334,402.61994936611666 457.75505063388334,402.61994936611666 457.75505063388334,399.49494936611666 457.75505063388334,396.36994936611666 454.63005063388334,396.36994936611666 454.63005063388334,399.49494936611666 451.50505063388334,399.49494936611666" stroke="black" stroke-linecap="round" stroke-width="1" /><polyline clip-path="url(#border_clip)" fill="none" points="451.50505063388334,399.49494936611666 451.50505063388334,402.61994936611666 454.63005063388334,402.61994936611666 454.63005063388334,405.74494936611666 451.50505063388334,405.74494936611666 448.38005063388334,405.74494936611666 448.38005063388334,408.86994936611666 451.50505063388334,408.86994936611666 451.50505063388334,411.99494936611666 454.63005063388334,411.99494936611666 454.63005063388334,408.86994936611666 457.75505063388334,408.86994936611666 457.75505063388334,411.99494936611666 457.75505063388334,415.11994936611666 460.88005063388334,415.11994936611666 460.88005063388334,411.99494936611666 464.00505063388334,411.99494936611666 464.00505063388334,415.11994936611666 467.13005063388334,415.11994936611666 467.13005063388334,418.24494936611666 464.00505063388334,418.24494936611666 460.88005063388334,418.24494936611666 460.88005063388334,421.36994936611666 464.00505063388334,421.36994936611666 464.00505063388334,424.49494936611666 460.88005063388334,424.49494936611666 460.88005063388334,427.61994936611666 457.75505063388334,427.61994936611666 457.75505063388334,424.49494936611666 457.75505063388334,421.36994936611666 454.63005063388334,421.36994936611666 454.63005063388334,424.49494936611666 451.50505063388334,424.49494936611666 448.38005063388334,424.49494936611666 448.38005063388334,427.61994936611666 445.25505063388334,427.61994936611666 445.25505063388334,424.49494936611666 445.25505063388334,421.36994936611666 442.13005063388334,421.36994936611666 442.13005063388334,424.49494936611666 439.00505063388334,424.49494936611666 439.00505063388334,427.61994936611666 442.13005063388334,427.61994936611666" stroke="black" stroke-linecap="round" stroke-width="1" /><polyline clip-path="url(#border_clip)" fill="none" points="442.13005063388334,427.61994936611666 442.13005063388334,430.74494936611666 439.00505063388334,430.74494936611666 435.88005063388334,430.74494936611666 435.88005063388334,433.86994936611666 439.00505063388334,433.86994936611666 439.00505063388334,436.99494936611666 442.13005063388334,436.99494936611666 442.13005063388334,433.86994936611666 445.25505063388334,433.86994936611666 445.25505063388334,436.99494936611666 445.25505063388334,440.11994936611666 448.38005063388334,440.11994936611666 448.38005063388334,436.99494936611666 451.50505063388334,436.99494936611666 451.50505063388334,440.11994936611666 454.63005063388334,440.11994936611666 454.63005063388334,443.24494936611666 451.50505063388334,443.24494936611666 448.38005063388334,443.24494936611666 448.38005063388334,446.36994936611666 451.50505063388334,446.36994936611666 451.50505063388334,449.49494936611666 454.63005063388334,449.49494936611666 454.63005063388334,446.36994936611666 457.75505063388334,446.36994936611666 457.75505063388334,449.49494936611666 457.75505063388334,452.61994936611666 460.88005063388334,452.61994936611666 460.88005063388334,449.49494936611666 464.00505063388334,449.49494936611666 464.00505063388334,446.36994936611666 460.88005063388334,446.36994936611666 460.88005063388334,443.24494936611666 464.00505063388334,443.24494936611666 467.13005063388334,443.24494936611666 467.13005063388334,440.11994936611666 464.00505063388334,440.11994936611666 464.00505063388334,436.99494936611666 467.13005063388334,436.99494936611666 467.13005063388334,433.86994936611666 470.25505063388334,433.86994936611666 470.25505063388334,436.99494936611666" stroke="black" stroke-linecap="round" stroke-width="1" /><polyline clip-path="url(#border_clip)" fill="none" points="470.25505063388334,436.99494936611666 470.25505063388334,440.11994936611666 473.38005063388334,440.11994936611666 473.38005063388334,436.99494936611666 476.50505063388334,436.99494936611666 476.50505063388334,440.11994936611666 479.63005063388334,440.11994936611666 479.63005063388334,443.24494936611666 476.50505063388334,443.24494936611666 473.38005063388334,443.24494936611666 473.38005063388334,446.36994936611666 476.50505063388334,446.36994936611666 476.50505063388334,449.49494936611666 476.50505063388334,452.61994936611666 479.63005063388334,452.61994936611666 479.63005063388334,455.74494936611666 476.50505063388334,455.74494936611666 473.38005063388334,455.74494936611666 473.38005063388334,458.86994936611666 476.50505063388334,458.86994936611666 476.50505063388334,461.99494936611666 479.63005063388334,461.99494936611666 479.63005063388334,458.86994936611666 482.75505063388334,458.86994936611666 482.75505063388334,461.99494936611666 482.75505063388334,465.11994936611666 485.88005063388334,465.11994936611666 485.88005063388334,461.99494936611666 489.00505063388334,461.99494936611666 489.00505063388334,458.86994936611666 485.88005063388334,458.86994936611666 485.88005063388334,455.74494936611666 489.00505063388334,455.74494936611666 492.13005063388334,455.74494936611666 492.13005063388334,452.61994936611666 489.00505063388334,452.61994936611666 489.00505063388334,449.49494936611666 492.13005063388334,449.49494936611666 492.13005063388334,446.36994936611666 495.25505063388334,446.36994936611666 495.25505063388334,449.49494936611666 495.25505063388334,452.61994936611666 498.38005063388334,452.61994936611666" stroke="black" stroke-linecap="round" stroke-width="1" /><polyline clip-path="url(#border_clip)" fill="none" points="498.38005063388334,452.61994936611666 498.38005063388334,449.49494936611666 501.50505063388334,449.49494936611666 501.50505063388334,452.61994936611666 504.63005063388334,452.61994936611666 504.63005063388334,455.74494936611666 501.50505063388334,455.74494936611666 498.38005063388334,455.74494936611666 498.38005063388334,458.86994936611666 501.50505063388334,458.86994936611666 501.50505063388334,461.99494936611666 504.63005063388334,461.99494936611666 504.63005063388334,458.86994936611666 507.75505063388334,458.86994936611666 507.75505063388334,461.99494936611666 507.75505063388334,465.11994936611666 510.88005063388334,465.11994936611666 510.88005063388334,461.99494936611666 514.0050506338833,461.99494936611666 514.0050506338833,465.11994936611666 517.1300506338833,465.11994936611666 517.1300506338833,468.24494936611666 514.0050506338833,468.24494936611666 510.88005063388334,468.24494936611666 510.88005063388334,471.36994936611666 514.0050506338833,471.36994936611666 514.0050506338833,474.49494936611666 510.88005063388334,474.49494936611666 510.88005063388334,477.61994936611666 507.75505063388334,477.61994936611666 507.75505063388334,474.49494936611666 507.75505063388334,471.36994936611666 504.63005063388334,471.36994936611666 504.63005063388334,474.49494936611666 501.50505063388334,474.49494936611666 498.38005063388334,474.49494936611666 498.38005063388334,477.61994936611666 495.25505063388334,477.61994936611666 495.25505063388334,474.49494936611666 495.25505063388334,471.36994936611666 492.13005063388334,471.36994936611666 492.13005063388334,474.49494936611666 489.00505063388334,474.49494936611666" stroke="black" stroke-linecap="round" stroke-width="1" /><polyline clip-path="url(#border_clip)" fill="none" points="489.00505063388334,474.49494936611666 489.00505063388334,477.61994936611666 492.13005063388334,477.61994936611666 492.13005063388334,480.74494936611666 489.00505063388334,480.74494936611666 485.88005063388334,480.74494936611666 485.88005063388334,483.86994936611666 489.00505063388334,483.86994936611666 489.00505063388334,486.99494936611666 492.13005063388334,486.99494936611666 492.13005063388334,483.86994936611666 495.25505063388334,483.86994936611666 495.25505063388334,486.99494936611666 495.25505063388334,490.11994936611666 498.38005063388334,490.11994936611666 498.38005063388334,486.99494936611666 501.50505063388334,486.99494936611666 501.50505063388334,490.11994936611666 504.63005063388334,490.11994936611666 504.63005063388334,493.24494936611666 501.50505063388334,493.24494936611666 498.38005063388334,493.24494936611666 498.38005063388334,496.36994936611666 501.50505063388334,496.36994936611666 501.50505063388334,499.49494936611666 498.38005063388334,499.49494936611666 498.38005063388334,502.61994936611666 495.25505063388334,502.61994936611666 495.25505063388334,499.49494936611666 495.25505063388334,496.36994936611666 492.13005063388334,496.36994936611666 492.13005063388334,499.49494936611666 489.00505063388334,499.49494936611666 489.00505063388334,502.61994936611666 492.13005063388334,502.61994936611666 492.13005063388334,505.74494936611666 489.00505063388334,505.74494936611666 485.88005063388334,505.74494936611666 485.88005063388334,508.86994936611666 489.00505063388334,508.86994936611666 489.00505063388334,511.99494936611666 485.88005063388334,511.99494936611666 485.88005063388334,515.1199493661167" stroke="black" stroke-linecap="round" stroke-width="1" /><polyline clip-path="url(#border_clip)" fill="none" points="485.88005063388334,515.1199493661167 482.75505063388334,515.1199493661167 482.75505063388334,511.99494936611666 482.75505063388334,508.86994936611666 479.63005063388334,508.86994936611666 479.63005063388334,511.99494936611666 476.50505063388334,511.99494936611666 476.50505063388334,508.86994936611666 473.38005063388334,508.86994936611666 473.38005063388334,505.74494936611666 476.50505063388334,505.74494936611666 479.63005063388334,505.74494936611666 479.63005063388334,502.61994936611666 476.50505063388334,502.61994936611666 476.50505063388334,499.49494936611666 476.50505063388334,496.36994936611666 473.38005063388334,496.36994936611666 473.38005063388334,493.24494936611666 476.50505063388334,493.24494936611666 479.63005063388334,493.24494936611666 479.63005063388334,490.11994936611666 476.50505063388334,490.11994936611666 476.50505063388334,486.99494936611666 473.38005063388334,486.99494936611666 473.38005063388334,490.11994936611666 470.25505063388334,490.11994936611666 470.25505063388334,486.99494936611666 470.25505063388334,483.86994936611666 467.13005063388334,483.86994936611666 467.13005063388334,486.99494936611666 464.00505063388334,486.99494936611666 464.00505063388334,490.11994936611666 467.13005063388334,490.11994936611666 467.13005063388334,493.24494936611666 464.00505063388334,493.24494936611666 460.88005063388334,493.24494936611666 460.88005063388334,496.36994936611666 464.00505063388334,496.36994936611666 464.00505063388334,499.49494936611666 460.88005063388334,499.49494936611666 460.88005063388334,502.61994936611666 457.75505063388334,502.61994936611666 457.75505063388334,499.49494936611666" stroke="black" stroke-linecap="round" stroke-width="1" /><polyline clip-path="url(#border_clip)" fill="none" points="457.75505063388334,499.49494936611666 457.75505063388334,496.36994936611666 454.63005063388334,496.36994936611666 454.63005063388334,499.49494936611666 451.50505063388334,499.49494936611666 451.50505063388334,502.61994936611666 454.63005063388334,502.61994936611666 454.63005063388334,505.74494936611666 451.50505063388334,505.74494936611666 448.38005063388334,505.74494936611666 448.38005063388334,508.86994936611666 451.50505063388334,508.86994936611666 451.50505063388334,511.99494936611666 454.63005063388334,511.99494936611666 454.63005063388334,508.86994936611666 457.75505063388334,508.86994936611666 457.75505063388334,511.99494936611666 457.75505063388334,515.1199493661167 460.88005063388334,515.1199493661167 460.88005063388334,511.99494936611666 464.00505063388334,511.99494936611666 464.00505063388334,515.1199493661167 467.13005063388334,515.1199493661167 467.13005063388334,518.2449493661167 464.00505063388334,518.2449493661167 460.88005063388334,518.2449493661167 460.88005063388334,521.3699493661167 464.00505063388334,521.3699493661167 464.00505063388334,524.4949493661167 460.88005063388334,524.4949493661167 460.88005063388334,527.6199493661167 457.75505063388334,527.6199493661167 457.75505063388334,524.4949493661167 457.75505063388334,521.3699493661167 454.63005063388334,521.3699493661167 454.63005063388334,524.4949493661167 451.50505063388334,524.4949493661167 448.38005063388334,524.4949493661167 448.38005063388334,527.6199493661167 445.25505063388334,527.6199493661167 445.25505063388334,524.4949493661167 445.25505063388334,521.3699493661167 442.13005063388334,521.3699493661167" stroke="black" stroke-linecap="round" stroke-width="1" /><polyline clip-path="url(#border_clip)" fill="none" points="442.13005063388334,521.3699493661167 442.13005063388334,524.4949493661167 439.00505063388334,524.4949493661167 439.00505063388334,527.6199493661167 442.13005063388334,527.6199493661167 442.13005063388334,530.7449493661167 439.00505063388334,530.7449493661167 435.88005063388334,530.7449493661167 435.88005063388334,533.8699493661167 439.00505063388334,533.8699493661167 439.00505063388334,536.9949493661167 442.13005063388334,536.9949493661167 442.13005063388334,533.8699493661167 445.25505063388334,533.8699493661167 445.25505063388334,536.9949493661167 445.25505063388334,540.1199493661167 448.38005063388334,540.1199493661167 448.38005063388334,536.9949493661167 451.50505063388334,536.9949493661167 451.50505063388334,540.1199493661167 454.63005063388334,540.1199493661167 454.63005063388334,543.2449493661167 451.50505063388334,543.2449493661167 448.38005063388334,543.2449493661167 448.38005063388334,546.3699493661167 451.50505063388334,546.3699493661167 451.50505063388334,549.4949493661167 448.38005063388334,549.4949493661167 448.38005063388334,552.6199493661167 445.25505063388334,552.6199493661167 445.25505063388334,549.4949493661167 445.25505063388334,546.3699493661167 442.13005063388334,546.3699493661167 442.13005063388334,549.4949493661167 439.00505063388334,549.4949493661167 439.00505063388334,552.6199493661167 442.13005063388334,552.6199493661167 442.13005063388334,555.7449493661167 439.00505063388334,555.7449493661167 435.88005063388334,555.7449493661167 435.88005063388334,558.8699493661167 439.00505063388334,558.8699493661167 439.00505063388334,561.9949493661167" stroke="black" stroke-linecap="round" stroke-width="1" /><polyline clip-path="url(#border_clip)" fill="none" points="439.00505063388334,561.9949493661167 435.88005063388334,561.9949493661167 435.88005063388334,565.1199493661167 432.75505063388334,565.1199493661167 432.75505063388334,561.9949493661167 432.75505063388334,558.8699493661167 429.63005063388334,558.8699493661167 429.63005063388334,561.9949493661167 426.50505063388334,561.9949493661167 426.50505063388334,558.8699493661167 423.38005063388334,558.8699493661167 423.38005063388334,555.7449493661167 426.50505063388334,555.7449493661167 429.63005063388334,555.7449493661167 429.63005063388334,552.6199493661167 426.50505063388334,552.6199493661167 426.50505063388334,549.4949493661167 426.50505063388334,546.3699493661167 423.38005063388334,546.3699493661167 423.38005063388334,543.2449493661167 426.50505063388334,543.2449493661167 429.63005063388334,543.2449493661167 429.63005063388334,540.1199493661167 426.50505063388334,540.1199493661167 426.50505063388334,536.9949493661167 423.38005063388334,536.9949493661167 423.38005063388334,540.1199493661167 420.25505063388334,540.1199493661167 420.25505063388334,536.9949493661167 420.25505063388334,533.8699493661167 417.13005063388334,533.8699493661167 417.13005063388334,536.9949493661167 414.00505063388334,536.9949493661167 414.00505063388334,540.1199493661167 417.13005063388334,540.1199493661167 417.13005063388334,543.2449493661167 414.00505063388334,543.2449493661167 410.88005063388334,543.2449493661167 410.88005063388334,546.3699493661167 414.00505063388334,546.3699493661167 414.00505063388334,549.4949493661167 410.88005063388334,549.4949493661167 410.88005063388334,552.6199493661167" stroke="black" stroke-linecap="round" stroke-width="1" /><polyline clip-path="url(#border_clip)" fill="none" points="410.88005063388334,552.6199493661167 407.75505063388334,552.6199493661167 407.75505063388334,549.4949493661167 407.75505063388334,546.3699493661167 404.63005063388334,546.3699493661167 404.63005063388334,549.4949493661167 401.50505063388334,549.4949493661167 401.50505063388334,546.3699493661167 398.38005063388334,546.3699493661167 398.38005063388334,543.2449493661167 401.50505063388334,543.2449493661167 404.63005063388334,543.2449493661167 404.63005063388334,540.1199493661167 401.50505063388334,540.1199493661167 401.50505063388334,536.9949493661167 398.38005063388334,536.9949493661167 398.38005063388334,540.1199493661167 395.25505063388334,540.1199493661167 395.25505063388334,536.9949493661167 395.25505063388334,533.8699493661167 392.13005063388334,533.8699493661167 392.13005063388334,536.9949493661167 389.00505063388334,536.9949493661167 389.00505063388334,533.8699493661167 385.88005063388334,533.8699493661167 385.88005063388334,530.7449493661167 389.00505063388334,530.7449493661167 392.13005063388334,530.7449493661167 392.13005063388334,527.6199493661167 389.00505063388334,527.6199493661167 389.00505063388334,524.4949493661167 392.13005063388334,524.4949493661167 392.13005063388334,521.3699493661167 395.25505063388334,521.3699493661167 395.25505063388334,524.4949493661167 395.25505063388334,527.6199493661167 398.38005063388334,527.6199493661167 398.38005063388334,524.4949493661167 401.50505063388334,524.4949493661167 404.63005063388334,524.4949493661167 404.63005063388334,521.3699493661167 407.75505063388334,521.3699493661167 407.75505063388334,524.4949493661167" stroke="black" stroke-linecap="round" stroke-width="1" /><polyline clip-path="url(#border_clip)" fill="none" points="407.75505063388334,524.4949493661167 407.75505063388334,527.6199493661167 410.88005063388334,527.6199493661167 410.88005063388334,524.4949493661167 414.00505063388334,524.4949493661167 414.00505063388334,521.3699493661167 410.88005063388334,521.3699493661167 410.88005063388334,518.2449493661167 414.00505063388334,518.2449493661167 417.13005063388334,518.2449493661167 417.13005063388334,515.1199493661167 414.00505063388334,515.1199493661167 414.00505063388334,511.99494936611666 410.88005063388334,511.99494936611666 410.88005063388334,515.1199493661167 407.75505063388334,515.1199493661167 407.75505063388334,511.99494936611666 407.75505063388334,508.86994936611666 404.63005063388334,508.86994936611666 404.63005063388334,511.99494936611666 401.50505063388334,511.99494936611666 401.50505063388334,508.86994936611666 398.38005063388334,508.86994936611666 398.38005063388334,505.74494936611666 401.50505063388334,505.74494936611666 404.63005063388334,505.74494936611666 404.63005063388334,502.61994936611666 401.50505063388334,502.61994936611666 401.50505063388334,499.49494936611666 401.50505063388334,496.36994936611666 398.38005063388334,496.36994936611666 398.38005063388334,493.24494936611666 401.50505063388334,493.24494936611666 404.63005063388334,493.24494936611666 404.63005063388334,490.11994936611666 401.50505063388334,490.11994936611666 401.50505063388334,486.99494936611666 398.38005063388334,486.99494936611666 398.38005063388334,490.11994936611666 395.25505063388334,490.11994936611666 395.25505063388334,486.99494936611666 395.25505063388334,483.86994936611666 392.13005063388334,483.86994936611666" stroke="black" stroke-linecap="round" stroke-width="1" /><polyline clip-path="url(#border_clip)" fill="none" points="392.13005063388334,483.86994936611666 392.13005063388334,486.99494936611666 389.00505063388334,486.99494936611666 389.00505063388334,483.86994936611666 385.88005063388334,483.86994936611666 385.88005063388334,480.74494936611666 389.00505063388334,480.74494936611666 392.13005063388334,480.74494936611666 392.13005063388334,477.61994936611666 389.00505063388334,477.61994936611666 389.00505063388334,474.49494936611666 392.13005063388334,474.49494936611666 392.13005063388334,471.36994936611666 395.25505063388334,471.36994936611666 395.25505063388334,474.49494936611666 395.25505063388334,477.61994936611666 398.38005063388334,477.61994936611666 398.38005063388334,474.49494936611666 401.50505063388334,474.49494936611666 404.63005063388334,474.49494936611666 404.63005063388334,471.36994936611666 407.75505063388334,471.36994936611666 407.75505063388334,474.49494936611666 407.75505063388334,477.61994936611666 410.88005063388334,477.61994936611666 410.88005063388334,474.49494936611666 414.00505063388334,474.49494936611666 414.00505063388334,471.36994936611666 410.88005063388334,471.36994936611666 410.88005063388334,468.24494936611666 414.00505063388334,468.24494936611666 417.13005063388334,468.24494936611666 417.13005063388334,465.11994936611666 414.00505063388334,465.11994936611666 414.00505063388334,461.99494936611666 410.88005063388334,461.99494936611666 410.88005063388334,465.11994936611666 407.75505063388334,465.11994936611666 407.75505063388334,461.99494936611666 407.75505063388334,458.86994936611666 404.63005063388334,458.86994936611666 404.63005063388334,461.99494936611666 401.50505063388334,461.99494936611666" stroke="black" stroke-linecap="round" stroke-width="1" /><polyline clip-path="url(#border_clip)" fill="none" points="401.50505063388334,461.99494936611666 401.50505063388334,458.86994936611666 398.38005063388334,458.86994936611666 398.38005063388334,455.74494936611666 401.50505063388334,455.74494936611666 404.63005063388334,455.74494936611666 404.63005063388334,452.61994936611666 401.50505063388334,452.61994936611666 401.50505063388334,449.49494936611666 398.38005063388334,449.49494936611666 398.38005063388334,452.61994936611666 395.25505063388334,452.61994936611666 395.25505063388334,449.49494936611666 395.25505063388334,446.36994936611666 392.13005063388334,446.36994936611666 392.13005063388334,449.49494936611666 389.00505063388334,449.49494936611666 389.00505063388334,452.61994936611666 392.13005063388334,452.61994936611666 392.13005063388334,455.74494936611666 389.00505063388334,455.74494936611666 385.88005063388334,455.74494936611666 385.88005063388334,458.86994936611666 389.00505063388334,458.86994936611666 389.00505063388334,461.99494936611666 385.88005063388334,461.99494936611666 385.88005063388334,465.11994936611666 382.75505063388334,465.11994936611666 382.75505063388334,461.99494936611666 382.75505063388334,458.86994936611666 379.63005063388334,458.86994936611666 379.63005063388334,461.99494936611666 376.50505063388334,461.99494936611666 376.50505063388334,458.86994936611666 373.38005063388334,458.86994936611666 373.38005063388334,455.74494936611666 376.50505063388334,455.74494936611666 379.63005063388334,455.74494936611666 379.63005063388334,452.61994936611666 376.50505063388334,452.61994936611666 376.50505063388334,449.49494936611666 376.50505063388334,446.36994936611666 373.38005063388334,446.36994936611666" stroke="black" stroke-linecap="round" stroke-width="1" /><polyline clip-path="url(#border_clip)" fill="none" points="373.38005063388334,446.36994936611666 373.38005063388334,443.24494936611666 376.50505063388334,443.24494936611666 379.63005063388334,443.24494936611666 379.63005063388334,440.11994936611666 376.50505063388334,440.11994936611666 376.50505063388334,436.99494936611666 373.38005063388334,436.99494936611666 373.38005063388334,440.11994936611666 370.25505063388334,440.11994936611666 370.25505063388334,436.99494936611666 370.25505063388334,433.86994936611666 367.13005063388334,433.86994936611666 367.13005063388334,436.99494936611666 364.00505063388334,436.99494936611666 364.00505063388334,440.11994936611666 367.13005063388334,440.11994936611666 367.13005063388334,443.24494936611666 364.00505063388334,443.24494936611666 360.88005063388334,443.24494936611666 360.88005063388334,446.36994936611666 364.00505063388334,446.36994936611666 364.00505063388334,449.49494936611666 360.88005063388334,449.49494936611666 360.88005063388334,452.61994936611666 357.75505063388334,452.61994936611666 357.75505063388334,449.49494936611666 357.75505063388334,446.36994936611666 354.63005063388334,446.36994936611666 354.63005063388334,449.49494936611666 351.50505063388334,449.49494936611666 351.50505063388334,452.61994936611666 354.63005063388334,452.61994936611666 354.63005063388334,455.74494936611666 351.50505063388334,455.74494936611666 348.38005063388334,455.74494936611666 348.38005063388334,458.86994936611666 351.50505063388334,458.86994936611666 351.50505063388334,461.99494936611666 354.63005063388334,461.99494936611666 354.63005063388334,458.86994936611666 357.75505063388334,458.86994936611666 357.75505063388334,461.99494936611666" stroke="black" stroke-linecap="round" stroke-width="1" /><polyline clip-path="url(#border_clip)" fill="none" points="357.75505063388334,461.99494936611666 357.75505063388334,465.11994936611666 360.88005063388334,465.11994936611666 360.88005063388334,461.99494936611666 364.00505063388334,461.99494936611666 364.00505063388334,465.11994936611666 367.13005063388334,465.11994936611666 367.13005063388334,468.24494936611666 364.00505063388334,468.24494936611666 360.88005063388334,468.24494936611666 360.88005063388334,471.36994936611666 364.00505063388334,471.36994936611666 364.00505063388334,474.49494936611666 360.88005063388334,474.49494936611666 360.88005063388334,477.61994936611666 357.75505063388334,477.61994936611666 357.75505063388334,474.49494936611666 357.75505063388334,471.36994936611666 354.63005063388334,471.36994936611666 354.63005063388334,474.49494936611666 351.50505063388334,474.49494936611666 348.38005063388334,474.49494936611666 348.38005063388334,477.61994936611666 345.25505063388334,477.61994936611666 345.25505063388334,474.49494936611666 345.25505063388334,471.36994936611666 342.13005063388334,471.36994936611666 342.13005063388334,474.49494936611666 339.00505063388334,474.49494936611666 339.00505063388334,477.61994936611666 342.13005063388334,477.61994936611666 342.13005063388334,480.74494936611666 339.00505063388334,480.74494936611666 335.88005063388334,480.74494936611666 335.88005063388334,483.86994936611666 339.00505063388334,483.86994936611666 339.00505063388334,486.99494936611666 342.13005063388334,486.99494936611666 342.13005063388334,483.86994936611666 345.25505063388334,483.86994936611666 345.25505063388334,486.99494936611666 345.25505063388334,490.11994936611666 348.38005063388334,490.11994936611666" stroke="black" stroke-linecap="round" stroke-width="1" /><polyline clip-path="url(#border_clip)" fill="none" points="348.38005063388334,490.11994936611666 348.38005063388334,486.99494936611666 351.50505063388334,486.99494936611666 351.50505063388334,490.11994936611666 354.63005063388334,490.11994936611666 354.63005063388334,493.24494936611666 351.50505063388334,493.24494936611666 348.38005063388334,493.24494936611666 348.38005063388334,496.36994936611666 351.50505063388334,496.36994936611666 351.50505063388334,499.49494936611666 348.38005063388334,499.49494936611666 348.38005063388334,502.61994936611666 345.25505063388334,502.61994936611666 345.25505063388334,499.49494936611666 345.25505063388334,496.36994936611666 342.13005063388334,496.36994936611666 342.13005063388334,499.49494936611666 339.00505063388334,499.49494936611666 339.00505063388334,502.61994936611666 342.13005063388334,502.61994936611666 342.13005063388334,505.74494936611666 339.00505063388334,505.74494936611666 335.88005063388334,505.74494936611666 335.88005063388334,508.86994936611666 339.00505063388334,508.86994936611666 339.00505063388334,511.99494936611666 335.88005063388334,511.99494936611666 335.88005063388334,515.1199493661167 332.75505063388334,515.1199493661167 332.75505063388334,511.99494936611666 332.75505063388334,508.86994936611666 329.63005063388334,508.86994936611666 329.63005063388334,511.99494936611666 326.50505063388334,511.99494936611666 326.50505063388334,508.86994936611666 323.38005063388334,508.86994936611666 323.38005063388334,505.74494936611666 326.50505063388334,505.74494936611666 329.63005063388334,505.74494936611666 329.63005063388334,502.61994936611666 326.50505063388334,502.61994936611666 326.50505063388334,499.49494936611666" stroke="black" stroke-linecap="round" stroke-width="1" /><polyline clip-path="url(#border_clip)" fill="none" points="326.50505063388334,499.49494936611666 326.50505063388334,496.36994936611666 323.38005063388334,496.36994936611666 323.38005063388334,493.24494936611666 326.50505063388334,493.24494936611666 329.63005063388334,493.24494936611666 329.63005063388334,490.11994936611666 326.50505063388334,490.11994936611666 326.50505063388334,486.99494936611666 323.38005063388334,486.99494936611666 323.38005063388334,490.11994936611666 320.25505063388334,490.11994936611666 320.25505063388334,486.99494936611666 320.25505063388334,483.86994936611666 317.13005063388334,483.86994936611666 317.13005063388334,486.99494936611666 314.00505063388334,486.99494936611666 314.00505063388334,490.11994936611666 317.13005063388334,490.11994936611666 317.13005063388334,493.24494936611666 314.00505063388334,493.24494936611666 310.88005063388334,493.24494936611666 310.88005063388334,496.36994936611666 314.00505063388334,496.36994936611666 314.00505063388334,499.49494936611666 310.88005063388334,499.49494936611666 310.88005063388334,502.61994936611666 307.75505063388334,502.61994936611666 307.75505063388334,499.49494936611666 307.75505063388334,496.36994936611666 304.63005063388334,496.36994936611666 304.63005063388334,499.49494936611666 301.50505063388334,499.49494936611666" stroke="black" stroke-linecap="round" stroke-width="1" /><polyline clip-path="url(#border_clip)" fill="none" points="301.50505063388334,499.49494936611666 301.50505063388334,496.36994936611666 298.38005063388334,496.36994936611666 298.38005063388334,493.24494936611666 301.50505063388334,493.24494936611666 304.63005063388334,493.24494936611666 304.63005063388334,490.11994936611666 301.50505063388334,490.11994936611666 301.50505063388334,486.99494936611666 298.38005063388334,486.99494936611666 298.38005063388334,490.11994936611666 295.25505063388334,490.11994936611666 295.25505063388334,486.99494936611666 295.25505063388334,483.86994936611666 292.13005063388334,483.86994936611666 292.13005063388334,486.99494936611666 289.00505063388334,486.99494936611666 289.00505063388334,483.86994936611666 285.88005063388334,483.86994936611666 285.88005063388334,480.74494936611666 289.00505063388334,480.74494936611666 292.13005063388334,480.74494936611666 292.13005063388334,477.61994936611666 289.00505063388334,477.61994936611666 289.00505063388334,474.49494936611666 292.13005063388334,474.49494936611666 292.13005063388334,471.36994936611666 295.25505063388334,471.36994936611666 295.25505063388334,474.49494936611666 295.25505063388334,477.61994936611666 298.38005063388334,477.61994936611666 298.38005063388334,474.49494936611666 301.50505063388334,474.49494936611666 304.63005063388334,474.49494936611666 304.63005063388334,471.36994936611666 307.75505063388334,471.36994936611666 307.75505063388334,474.49494936611666 307.75505063388334,477.61994936611666 310.88005063388334,477.61994936611666 310.88005063388334,474.49494936611666 314.00505063388334,474.49494936611666 314.00505063388334,471.36994936611666 310.88005063388334,471.36994936611666" stroke="black" stroke-linecap="round" stroke-width="1" /></svg>