999
"DXF R12 Output" (www.mydxf.blogspot.com)
 0 
SECTION
 2 
HEADER
 9 
$ACADVER
 1 
AC1009
 9 
$EXTMIN
 10 
 0 
 20 
 0 
 9 
$EXTMAX
 10 
 8.5 
 20 
 11 
 0 
ENDSEC
 0 
SECTION
 2 
ENTITIES
0
LINE
8
Layer 1
10
13.401600
20
256.998000
11
210.598000
21
256.998000
0
LINE
8
Layer 1
10
210.598000
20
256.998000
11
210.598000
21
59.801800
0
LINE
8
Layer 1
10
210.598000
20
59.801800
11
13.401600
21
59.801800
0
LINE
8
Layer 1
10
13.401600
20
59.801800
11
13.401600
21
256.998000
0
LINE
8
Layer 1
10
40.211800
20
227.640000
11
40.115588
21
227.156307
0
LINE
8
Layer 1
10
40.115588
20
227.156307
11
39.841598
21
226.746252
0
LINE
8
Layer 1
10
39.841598
20
226.746252
11
39.431543
21
226.472262
0
LINE
8
Layer 1
10
39.431543
20
226.472262
11
38.947850
21
226.376050
0
LINE
8
Layer 1
10
38.947850
20
226.376050
11
38.464157
21
226.472262
0
LINE
8
Layer 1
10
38.464157
20
226.472262
11
38.054102
21
226.746252
0
LINE
8
Layer 1
10
38.054102
20
226.746252
11
37.780112
21
227.156307
0
LINE
8
Layer 1
10
37.780112
20
227.156307
11
37.683900
21
227.640000
0
LINE
8
Layer 1
10
37.683900
20
227.640000
11
37.780112
21
228.123693
0
LINE
8
Layer 1
10
37.780112
20
228.123693
11
38.054102
21
228.533748
0
LINE
8
Layer 1
10
38.054102
20
228.533748
11
38.464157
21
228.807738
0
LINE
8
Layer 1
10
38.464157
20
228.807738
11
38.947850
21
228.903950
0
LINE
8
Layer 1
10
38.947850
20
228.903950
11
39.431543
21
228.807738
0
LINE
8
Layer 1
10
39.431543
20
228.807738
11
39.841598
21
228.533748
0
LINE
8
Layer 1
10
39.841598
20
228.533748
11
40.115588
21
228.123693
0
LINE
8
Layer 1
10
40.115588
20
228.123693
11
40.211800
21
227.640000
0
LINE
8
Layer 1
10
40.211800
20
227.640000
11
40.211800
21
227.640000
0
LINE
8
Layer 1
10
40.211800
20
89.205800
11
40.115588
21
88.722107
0
LINE
8
Layer 1
10
40.115588
20
88.722107
11
39.841598
21
88.312052
0
LINE
8
Layer 1
10
39.841598
20
88.312052
11
39.431543
21
88.038062
0
LINE
8
Layer 1
10
39.431543
20
88.038062
11
38.947850
21
87.941850
0
LINE
8
Layer 1
10
38.947850
20
87.941850
11
38.464157
21
88.038062
0
LINE
8
Layer 1
10
38.464157
20
88.038062
11
38.054102
21
88.312052
0
LINE
8
Layer 1
10
38.054102
20
88.312052
11
37.780112
21
88.722107
0
LINE
8
Layer 1
10
37.780112
20
88.722107
11
37.683900
21
89.205800
0
LINE
8
Layer 1
10
37.683900
20
89.205800
11
37.780112
21
89.689493
0
LINE
8
Layer 1
10
37.780112
20
89.689493
11
38.054102
21
90.099548
0
LINE
8
Layer 1
10
38.054102
20
90.099548
11
38.464157
21
90.373538
0
LINE
8
Layer 1
10
38.464157
20
90.373538
11
38.947850
21
90.469750
0
LINE
8
Layer 1
10
38.947850
20
90.469750
11
39.431543
21
90.373538
0
LINE
8
Layer 1
10
39.431543
20
90.373538
11
39.841598
21
90.099548
0
LINE
8
Layer 1
10
39.841598
20
90.099548
11
40.115588
21
89.689493
0
LINE
8
Layer 1
10
40.115588
20
89.689493
11
40.211800
21
89.205800
0
LINE
8
Layer 1
10
40.211800
20
89.205800
11
40.211800
21
89.205800
0
LINE
8
Layer 1
10
186.271000
20
89.205800
11
186.174788
21
88.722107
0
LINE
8
Layer 1
10
186.174788
20
88.722107
11
185.900798
21
88.312052
0
LINE
8
Layer 1
10
185.900798
20
88.312052
11
185.490743
21
88.038062
0
LINE
8
Layer 1
10
185.490743
20
88.038062
11
185.007050
21
87.941850
0
LINE
8
Layer 1
10
185.007050
20
87.941850
11
184.523357
21
88.038062
0
LINE
8
Layer 1
10
184.523357
20
88.038062
11
184.113302
21
88.312052
0
LINE
8
Layer 1
10
184.113302
20
88.312052
11
183.839312
21
88.722107
0
LINE
8
Layer 1
10
183.839312
20
88.722107
11
183.743100
21
89.205800
0
LINE
8
Layer 1
10
183.743100
20
89.205800
11
183.839312
21
89.689493
0
LINE
8
Layer 1
10
183.839312
20
89.689493
11
184.113302
21
90.099548
0
LINE
8
Layer 1
10
184.113302
20
90.099548
11
184.523357
21
90.373538
0
LINE
8
Layer 1
10
184.523357
20
90.373538
11
185.007050
21
90.469750
0
LINE
8
Layer 1
10
185.007050
20
90.469750
11
185.490743
21
90.373538
0
LINE
8
Layer 1
10
185.490743
20
90.373538
11
185.900798
21
90.099548
0
LINE
8
Layer 1
10
185.900798
20
90.099548
11
186.174788
21
89.689493
0
LINE
8
Layer 1
10
186.174788
20
89.689493
11
186.271000
21
89.205800
0
LINE
8
Layer 1
10
186.271000
20
89.205800
11
186.271000
21
89.205800
0
LINE
8
Layer 1
10
186.271000
20
227.640000
11
186.174788
21
227.156307
0
LINE
8
Layer 1
10
186.174788
20
227.156307
11
185.900798
21
226.746252
0
LINE
8
Layer 1
10
185.900798
20
226.746252
11
185.490743
21
226.472262
0
LINE
8
Layer 1
10
185.490743
20
226.472262
11
185.007050
21
226.376050
0
LINE
8
Layer 1
10
185.007050
20
226.376050
11
184.523357
21
226.472262
0
LINE
8
Layer 1
10
184.523357
20
226.472262
11
184.113302
21
226.746252
0
LINE
8
Layer 1
10
184.113302
20
226.746252
11
183.839312
21
227.156307
0
LINE
8
Layer 1
10
183.839312
20
227.156307
11
183.743100
21
227.640000
0
LINE
8
Layer 1
10
183.743100
20
227.640000
11
183.839312
21
228.123693
0
LINE
8
Layer 1
10
183.839312
20
228.123693
11
184.113302
21
228.533748
0
LINE
8
Layer 1
10
184.113302
20
228.533748
11
184.523357
21
228.807738
0
LINE
8
Layer 1
10
184.523357
20
228.807738
11
185.007050
21
228.903950
0
LINE
8
Layer 1
10
185.007050
20
228.903950
11
185.490743
21
228.807738
0
LINE
8
Layer 1
10
185.490743
20
228.807738
11
185.900798
21
228.533748
0
LINE
8
Layer 1
10
185.900798
20
228.533748
11
186.174788
21
228.123693
0
LINE
8
Layer 1
10
186.174788
20
228.123693
11
186.271000
21
227.640000
0
LINE
8
Layer 1
10
186.271000
20
227.640000
11
186.271000
21
227.640000
0
LINE
8
Layer 1
10
-404.475000
20
151.250000
11
-404.475000
21
153.056000
0
LINE
8
Layer 1
10
-404.475000
20
153.056000
11
-406.281000
21
153.056000
0
LINE
8
Layer 1
10
-406.281000
20
153.056000
11
-406.281000
21
154.862000
0
LINE
8
Layer 1
10
-406.281000
20
154.862000
11
-404.475000
21
154.862000
0
LINE
8
Layer 1
10
-404.475000
20
154.862000
11
-402.669000
21
154.862000
0
LINE
8
Layer 1
10
-402.669000
20
154.862000
11
-402.669000
21
156.667000
0
LINE
8
Layer 1
10
-402.669000
20
156.667000
11
-404.475000
21
156.667000
0
LINE
8
Layer 1
10
-404.475000
20
156.667000
11
-404.475000
21
158.473000
0
LINE
8
Layer 1
10
-404.475000
20
158.473000
11
-406.281000
21
158.473000
0
LINE
8
Layer 1
10
-406.281000
20
158.473000
11
-406.281000
21
156.667000
0
LINE
8
Layer 1
10
-406.281000
20
156.667000
11
-408.087000
21
156.667000
0
LINE
8
Layer 1
10
-408.087000
20
156.667000
11
-408.087000
21
158.473000
0
LINE
8
Layer 1
10
-408.087000
20
158.473000
11
-408.087000
21
160.279000
0
LINE
8
Layer 1
10
-408.087000
20
160.279000
11
-409.892000
21
160.279000
0
LINE
8
Layer 1
10
-409.892000
20
160.279000
11
-409.892000
21
158.473000
0
LINE
8
Layer 1
10
-409.892000
20
158.473000
11
-411.698000
21
158.473000
0
LINE
8
Layer 1
10
-411.698000
20
158.473000
11
-411.698000
21
160.279000
0
LINE
8
Layer 1
10
-411.698000
20
160.279000
11
-413.504000
21
160.279000
0
LINE
8
Layer 1
10
-413.504000
20
160.279000
11
-413.504000
21
162.085000
0
LINE
8
Layer 1
10
-413.504000
20
162.085000
11
-411.698000
21
162.085000
0
LINE
8
Layer 1
10
-411.698000
20
162.085000
11
-409.892000
21
162.085000
0
LINE
8
Layer 1
10
-409.892000
20
162.085000
11
-409.892000
21
163.891000
0
LINE
8
Layer 1
10
-409.892000
20
163.891000
11
-411.698000
21
163.891000
0
LINE
8
Layer 1
10
-411.698000
20
163.891000
11
-411.698000
21
165.697000
0
LINE
8
Layer 1
10
-411.698000
20
165.697000
11
-409.892000
21
165.697000
0
LINE
8
Layer 1
10
-409.892000
20
165.697000
11
-409.892000
21
167.503000
0
LINE
8
Layer 1
10
-409.892000
20
167.503000
11
-408.087000
21
167.503000
0
LINE
8
Layer 1
10
-408.087000
20
167.503000
11
-408.087000
21
165.697000
0
LINE
8
Layer 1
10
-408.087000
20
165.697000
11
-408.087000
21
163.891000
0
LINE
8
Layer 1
10
-408.087000
20
163.891000
11
-406.281000
21
163.891000
0
LINE
8
Layer 1
10
-406.281000
20
163.891000
11
-406.281000
21
165.697000
0
LINE
8
Layer 1
10
-406.281000
20
165.697000
11
-404.475000
21
165.697000
0
LINE
8
Layer 1
10
-404.475000
20
165.697000
11
-402.669000
21
165.697000
0
LINE
8
Layer 1
10
-402.669000
20
165.697000
11
-402.669000
21
167.503000
0
LINE
8
Layer 1
10
-402.669000
20
167.503000
11
-400.863000
21
167.503000
0
LINE
8
Layer 1
10
-400.863000
20
167.503000
11
-400.863000
21
165.697000
0
LINE
8
Layer 1
10
-400.863000
20
165.697000
11
-400.863000
21
163.891000
0
LINE
8
Layer 1
10
-400.863000
20
163.891000
11
-399.057000
21
163.891000
0
LINE
8
Layer 1
10
-399.057000
20
163.891000
11
-399.057000
21
165.697000
0
LINE
8
Layer 1
10
-399.057000
20
165.697000
11
-397.251000
21
165.697000
0
LINE
8
Layer 1
10
-397.251000
20
165.697000
11
-397.251000
21
167.503000
0
LINE
8
Layer 1
10
-397.251000
20
167.503000
11
-399.057000
21
167.503000
0
LINE
8
Layer 1
10
-399.057000
20
167.503000
11
-399.057000
21
169.309000
0
LINE
8
Layer 1
10
-399.057000
20
169.309000
11
-397.251000
21
169.309000
0
LINE
8
Layer 1
10
-397.251000
20
169.309000
11
-395.446000
21
169.309000
0
LINE
8
Layer 1
10
-395.446000
20
169.309000
11
-395.446000
21
171.114000
0
LINE
8
Layer 1
10
-395.446000
20
171.114000
11
-397.251000
21
171.114000
0
LINE
8
Layer 1
10
-397.251000
20
171.114000
11
-397.251000
21
172.920000
0
LINE
8
Layer 1
10
-397.251000
20
172.920000
11
-399.057000
21
172.920000
0
LINE
8
Layer 1
10
-399.057000
20
172.920000
11
-399.057000
21
171.114000
0
LINE
8
Layer 1
10
-399.057000
20
171.114000
11
-400.863000
21
171.114000
0
LINE
8
Layer 1
10
-400.863000
20
171.114000
11
-400.863000
21
172.920000
0
LINE
8
Layer 1
10
-400.863000
20
172.920000
11
-400.863000
21
174.726000
0
LINE
8
Layer 1
10
-400.863000
20
174.726000
11
-402.669000
21
174.726000
0
LINE
8
Layer 1
10
-402.669000
20
174.726000
11
-402.669000
21
172.920000
0
LINE
8
Layer 1
10
-402.669000
20
172.920000
11
-404.475000
21
172.920000
0
LINE
8
Layer 1
10
-404.475000
20
172.920000
11
-404.475000
21
174.726000
0
LINE
8
Layer 1
10
-404.475000
20
174.726000
11
-406.281000
21
174.726000
0
LINE
8
Layer 1
10
-406.281000
20
174.726000
11
-406.281000
21
176.532000
0
LINE
8
Layer 1
10
-406.281000
20
176.532000
11
-404.475000
21
176.532000
0
LINE
8
Layer 1
10
-404.475000
20
176.532000
11
-402.669000
21
176.532000
0
LINE
8
Layer 1
10
-402.669000
20
176.532000
11
-402.669000
21
178.338000
0
LINE
8
Layer 1
10
-402.669000
20
178.338000
11
-404.475000
21
178.338000
0
LINE
8
Layer 1
10
-404.475000
20
178.338000
11
-404.475000
21
180.144000
0
LINE
8
Layer 1
10
-404.475000
20
180.144000
11
-406.281000
21
180.144000
0
LINE
8
Layer 1
10
-406.281000
20
180.144000
11
-406.281000
21
178.338000
0
LINE
8
Layer 1
10
-406.281000
20
178.338000
11
-408.087000
21
178.338000
0
LINE
8
Layer 1
10
-408.087000
20
178.338000
11
-408.087000
21
180.144000
0
LINE
8
Layer 1
10
-408.087000
20
180.144000
11
-408.087000
21
181.950000
0
LINE
8
Layer 1
10
-408.087000
20
181.950000
11
-409.892000
21
181.950000
0
LINE
8
Layer 1
10
-409.892000
20
181.950000
11
-409.892000
21
180.144000
0
LINE
8
Layer 1
10
-409.892000
20
180.144000
11
-411.698000
21
180.144000
0
LINE
8
Layer 1
10
-411.698000
20
180.144000
11
-411.698000
21
178.338000
0
LINE
8
Layer 1
10
-411.698000
20
178.338000
11
-409.892000
21
178.338000
0
LINE
8
Layer 1
10
-409.892000
20
178.338000
11
-409.892000
21
176.532000
0
LINE
8
Layer 1
10
-409.892000
20
176.532000
11
-411.698000
21
176.532000
0
LINE
8
Layer 1
10
-411.698000
20
176.532000
11
-413.504000
21
176.532000
0
LINE
8
Layer 1
10
-413.504000
20
176.532000
11
-413.504000
21
174.726000
0
LINE
8
Layer 1
10
-413.504000
20
174.726000
11
-411.698000
21
174.726000
0
LINE
8
Layer 1
10
-411.698000
20
174.726000
11
-411.698000
21
172.920000
0
LINE
8
Layer 1
10
-411.698000
20
172.920000
11
-413.504000
21
172.920000
0
LINE
8
Layer 1
10
-413.504000
20
172.920000
11
-413.504000
21
171.114000
0
LINE
8
Layer 1
10
-413.504000
20
171.114000
11
-415.310000
21
171.114000
0
LINE
8
Layer 1
10
-415.310000
20
171.114000
11
-415.310000
21
172.920000
0
LINE
8
Layer 1
10
-415.310000
20
172.920000
11
-415.310000
21
174.726000
0
LINE
8
Layer 1
10
-415.310000
20
174.726000
11
-417.116000
21
174.726000
0
LINE
8
Layer 1
10
-417.116000
20
174.726000
11
-417.116000
21
172.920000
0
LINE
8
Layer 1
10
-417.116000
20
172.920000
11
-418.922000
21
172.920000
0
LINE
8
Layer 1
10
-418.922000
20
172.920000
11
-418.922000
21
174.726000
0
LINE
8
Layer 1
10
-418.922000
20
174.726000
11
-420.728000
21
174.726000
0
LINE
8
Layer 1
10
-420.728000
20
174.726000
11
-420.728000
21
176.532000
0
LINE
8
Layer 1
10
-420.728000
20
176.532000
11
-418.922000
21
176.532000
0
LINE
8
Layer 1
10
-418.922000
20
176.532000
11
-417.116000
21
176.532000
0
LINE
8
Layer 1
10
-417.116000
20
176.532000
11
-417.116000
21
178.338000
0
LINE
8
Layer 1
10
-417.116000
20
178.338000
11
-418.922000
21
178.338000
0
LINE
8
Layer 1
10
-418.922000
20
178.338000
11
-418.922000
21
180.144000
0
LINE
8
Layer 1
10
-418.922000
20
180.144000
11
-418.922000
21
181.950000
0
LINE
8
Layer 1
10
-418.922000
20
181.950000
11
-420.728000
21
181.950000
0
LINE
8
Layer 1
10
-420.728000
20
181.950000
11
-420.728000
21
183.755000
0
LINE
8
Layer 1
10
-420.728000
20
183.755000
11
-418.922000
21
183.755000
0
LINE
8
Layer 1
10
-418.922000
20
183.755000
11
-417.116000
21
183.755000
0
LINE
8
Layer 1
10
-417.116000
20
183.755000
11
-417.116000
21
185.561000
0
LINE
8
Layer 1
10
-417.116000
20
185.561000
11
-418.922000
21
185.561000
0
LINE
8
Layer 1
10
-418.922000
20
185.561000
11
-418.922000
21
187.367000
0
LINE
8
Layer 1
10
-418.922000
20
187.367000
11
-420.728000
21
187.367000
0
LINE
8
Layer 1
10
-420.728000
20
187.367000
11
-420.728000
21
185.561000
0
LINE
8
Layer 1
10
-420.728000
20
185.561000
11
-422.534000
21
185.561000
0
LINE
8
Layer 1
10
-422.534000
20
185.561000
11
-422.534000
21
187.367000
0
LINE
8
Layer 1
10
-422.534000
20
187.367000
11
-422.534000
21
189.173000
0
LINE
8
Layer 1
10
-422.534000
20
189.173000
11
-424.339000
21
189.173000
0
LINE
8
Layer 1
10
-424.339000
20
189.173000
11
-424.339000
21
187.367000
0
LINE
8
Layer 1
10
-424.339000
20
187.367000
11
-426.145000
21
187.367000
0
LINE
8
Layer 1
10
-426.145000
20
187.367000
11
-426.145000
21
185.561000
0
LINE
8
Layer 1
10
-426.145000
20
185.561000
11
-424.339000
21
185.561000
0
LINE
8
Layer 1
10
-424.339000
20
185.561000
11
-424.339000
21
183.755000
0
LINE
8
Layer 1
10
-424.339000
20
183.755000
11
-426.145000
21
183.755000
0
LINE
8
Layer 1
10
-426.145000
20
183.755000
11
-427.951000
21
183.755000
0
LINE
8
Layer 1
10
-427.951000
20
183.755000
11
-427.951000
21
181.950000
0
LINE
8
Layer 1
10
-427.951000
20
181.950000
11
-426.145000
21
181.950000
0
LINE
8
Layer 1
10
-426.145000
20
181.950000
11
-426.145000
21
180.144000
0
LINE
8
Layer 1
10
-426.145000
20
180.144000
11
-427.951000
21
180.144000
0
LINE
8
Layer 1
10
-427.951000
20
180.144000
11
-427.951000
21
178.338000
0
LINE
8
Layer 1
10
-427.951000
20
178.338000
11
-429.757000
21
178.338000
0
LINE
8
Layer 1
10
-429.757000
20
178.338000
11
-429.757000
21
180.144000
0
LINE
8
Layer 1
10
-429.757000
20
180.144000
11
-429.757000
21
181.950000
0
LINE
8
Layer 1
10
-429.757000
20
181.950000
11
-431.563000
21
181.950000
0
LINE
8
Layer 1
10
-431.563000
20
181.950000
11
-431.563000
21
180.144000
0
LINE
8
Layer 1
10
-431.563000
20
180.144000
11
-433.369000
21
180.144000
0
LINE
8
Layer 1
10
-433.369000
20
180.144000
11
-433.369000
21
181.950000
0
LINE
8
Layer 1
10
-433.369000
20
181.950000
11
-435.175000
21
181.950000
0
LINE
8
Layer 1
10
-435.175000
20
181.950000
11
-435.175000
21
183.755000
0
LINE
8
Layer 1
10
-435.175000
20
183.755000
11
-433.369000
21
183.755000
0
LINE
8
Layer 1
10
-433.369000
20
183.755000
11
-431.563000
21
183.755000
0
LINE
8
Layer 1
10
-431.563000
20
183.755000
11
-431.563000
21
185.561000
0
LINE
8
Layer 1
10
-431.563000
20
185.561000
11
-433.369000
21
185.561000
0
LINE
8
Layer 1
10
-433.369000
20
185.561000
11
-433.369000
21
187.367000
0
LINE
8
Layer 1
10
-433.369000
20
187.367000
11
-435.175000
21
187.367000
0
LINE
8
Layer 1
10
-435.175000
20
187.367000
11
-435.175000
21
185.561000
0
LINE
8
Layer 1
10
-435.175000
20
185.561000
11
-436.980000
21
185.561000
0
LINE
8
Layer 1
10
-436.980000
20
185.561000
11
-436.980000
21
187.367000
0
LINE
8
Layer 1
10
-436.980000
20
187.367000
11
-436.980000
21
189.173000
0
LINE
8
Layer 1
10
-436.980000
20
189.173000
11
-438.786000
21
189.173000
0
LINE
8
Layer 1
10
-438.786000
20
189.173000
11
-438.786000
21
187.367000
0
LINE
8
Layer 1
10
-438.786000
20
187.367000
11
-440.592000
21
187.367000
0
LINE
8
Layer 1
10
-440.592000
20
187.367000
11
-440.592000
21
189.173000
0
LINE
8
Layer 1
10
-440.592000
20
189.173000
11
-442.398000
21
189.173000
0
LINE
8
Layer 1
10
-442.398000
20
189.173000
11
-442.398000
21
190.979000
0
LINE
8
Layer 1
10
-442.398000
20
190.979000
11
-440.592000
21
190.979000
0
LINE
8
Layer 1
10
-440.592000
20
190.979000
11
-438.786000
21
190.979000
0
LINE
8
Layer 1
10
-438.786000
20
190.979000
11
-438.786000
21
192.785000
0
LINE
8
Layer 1
10
-438.786000
20
192.785000
11
-440.592000
21
192.785000
0
LINE
8
Layer 1
10
-440.592000
20
192.785000
11
-440.592000
21
194.591000
0
LINE
8
Layer 1
10
-440.592000
20
194.591000
11
-438.786000
21
194.591000
0
LINE
8
Layer 1
10
-438.786000
20
194.591000
11
-438.786000
21
196.397000
0
LINE
8
Layer 1
10
-438.786000
20
196.397000
11
-436.980000
21
196.397000
0
LINE
8
Layer 1
10
-436.980000
20
196.397000
11
-436.980000
21
194.591000
0
LINE
8
Layer 1
10
-436.980000
20
194.591000
11
-436.980000
21
192.785000
0
LINE
8
Layer 1
10
-436.980000
20
192.785000
11
-435.175000
21
192.785000
0
LINE
8
Layer 1
10
-435.175000
20
192.785000
11
-435.175000
21
194.591000
0
LINE
8
Layer 1
10
-435.175000
20
194.591000
11
-433.369000
21
194.591000
0
LINE
8
Layer 1
10
-433.369000
20
194.591000
11
-431.563000
21
194.591000
0
LINE
8
Layer 1
10
-431.563000
20
194.591000
11
-431.563000
21
196.397000
0
LINE
8
Layer 1
10
-431.563000
20
196.397000
11
-429.757000
21
196.397000
0
LINE
8
Layer 1
10
-429.757000
20
196.397000
11
-429.757000
21
194.591000
0
LINE
8
Layer 1
10
-429.757000
20
194.591000
11
-429.757000
21
192.785000
0
LINE
8
Layer 1
10
-429.757000
20
192.785000
11
-427.951000
21
192.785000
0
LINE
8
Layer 1
10
-427.951000
20
192.785000
11
-427.951000
21
194.591000
0
LINE
8
Layer 1
10
-427.951000
20
194.591000
11
-426.145000
21
194.591000
0
LINE
8
Layer 1
10
-426.145000
20
194.591000
11
-426.145000
21
196.397000
0
LINE
8
Layer 1
10
-426.145000
20
196.397000
11
-427.951000
21
196.397000
0
LINE
8
Layer 1
10
-427.951000
20
196.397000
11
-427.951000
21
198.202000
0
LINE
8
Layer 1
10
-427.951000
20
198.202000
11
-426.145000
21
198.202000
0
LINE
8
Layer 1
10
-426.145000
20
198.202000
11
-424.339000
21
198.202000
0
LINE
8
Layer 1
10
-424.339000
20
198.202000
11
-424.339000
21
200.008000
0
LINE
8
Layer 1
10
-424.339000
20
200.008000
11
-426.145000
21
200.008000
0
LINE
8
Layer 1
10
-426.145000
20
200.008000
11
-426.145000
21
201.814000
0
LINE
8
Layer 1
10
-426.145000
20
201.814000
11
-427.951000
21
201.814000
0
LINE
8
Layer 1
10
-427.951000
20
201.814000
11
-427.951000
21
200.008000
0
LINE
8
Layer 1
10
-427.951000
20
200.008000
11
-429.757000
21
200.008000
0
LINE
8
Layer 1
10
-429.757000
20
200.008000
11
-429.757000
21
201.814000
0
LINE
8
Layer 1
10
-429.757000
20
201.814000
11
-429.757000
21
203.620000
0
LINE
8
Layer 1
10
-429.757000
20
203.620000
11
-431.563000
21
203.620000
0
LINE
8
Layer 1
10
-431.563000
20
203.620000
11
-431.563000
21
201.814000
0
LINE
8
Layer 1
10
-431.563000
20
201.814000
11
-433.369000
21
201.814000
0
LINE
8
Layer 1
10
-433.369000
20
201.814000
11
-433.369000
21
203.620000
0
LINE
8
Layer 1
10
-433.369000
20
203.620000
11
-435.175000
21
203.620000
0
LINE
8
Layer 1
10
-435.175000
20
203.620000
11
-435.175000
21
205.426000
0
LINE
8
Layer 1
10
-435.175000
20
205.426000
11
-433.369000
21
205.426000
0
LINE
8
Layer 1
10
-433.369000
20
205.426000
11
-431.563000
21
205.426000
0
LINE
8
Layer 1
10
-431.563000
20
205.426000
11
-431.563000
21
207.232000
0
LINE
8
Layer 1
10
-431.563000
20
207.232000
11
-433.369000
21
207.232000
0
LINE
8
Layer 1
10
-433.369000
20
207.232000
11
-433.369000
21
209.038000
0
LINE
8
Layer 1
10
-433.369000
20
209.038000
11
-431.563000
21
209.038000
0
LINE
8
Layer 1
10
-431.563000
20
209.038000
11
-431.563000
21
210.844000
0
LINE
8
Layer 1
10
-431.563000
20
210.844000
11
-429.757000
21
210.844000
0
LINE
8
Layer 1
10
-429.757000
20
210.844000
11
-429.757000
21
209.038000
0
LINE
8
Layer 1
10
-429.757000
20
209.038000
11
-429.757000
21
207.232000
0
LINE
8
Layer 1
10
-429.757000
20
207.232000
11
-427.951000
21
207.232000
0
LINE
8
Layer 1
10
-427.951000
20
207.232000
11
-427.951000
21
209.038000
0
LINE
8
Layer 1
10
-427.951000
20
209.038000
11
-426.145000
21
209.038000
0
LINE
8
Layer 1
10
-426.145000
20
209.038000
11
-426.145000
21
210.844000
0
LINE
8
Layer 1
10
-426.145000
20
210.844000
11
-427.951000
21
210.844000
0
LINE
8
Layer 1
10
-427.951000
20
210.844000
11
-427.951000
21
212.649000
0
LINE
8
Layer 1
10
-427.951000
20
212.649000
11
-426.145000
21
212.649000
0
LINE
8
Layer 1
10
-426.145000
20
212.649000
11
-424.339000
21
212.649000
0
LINE
8
Layer 1
10
-424.339000
20
212.649000
11
-424.339000
21
214.455000
0
LINE
8
Layer 1
10
-424.339000
20
214.455000
11
-426.145000
21
214.455000
0
LINE
8
Layer 1
10
-426.145000
20
214.455000
11
-426.145000
21
216.261000
0
LINE
8
Layer 1
10
-426.145000
20
216.261000
11
-424.339000
21
216.261000
0
LINE
8
Layer 1
10
-424.339000
20
216.261000
11
-424.339000
21
218.067000
0
LINE
8
Layer 1
10
-424.339000
20
218.067000
11
-422.534000
21
218.067000
0
LINE
8
Layer 1
10
-422.534000
20
218.067000
11
-422.534000
21
216.261000
0
LINE
8
Layer 1
10
-422.534000
20
216.261000
11
-422.534000
21
214.455000
0
LINE
8
Layer 1
10
-422.534000
20
214.455000
11
-420.728000
21
214.455000
0
LINE
8
Layer 1
10
-420.728000
20
214.455000
11
-420.728000
21
216.261000
0
LINE
8
Layer 1
10
-420.728000
20
216.261000
11
-418.922000
21
216.261000
0
LINE
8
Layer 1
10
-418.922000
20
216.261000
11
-418.922000
21
214.455000
0
LINE
8
Layer 1
10
-418.922000
20
214.455000
11
-417.116000
21
214.455000
0
LINE
8
Layer 1
10
-417.116000
20
214.455000
11
-417.116000
21
212.649000
0
LINE
8
Layer 1
10
-417.116000
20
212.649000
11
-418.922000
21
212.649000
0
LINE
8
Layer 1
10
-418.922000
20
212.649000
11
-420.728000
21
212.649000
0
LINE
8
Layer 1
10
-420.728000
20
212.649000
11
-420.728000
21
210.844000
0
LINE
8
Layer 1
10
-420.728000
20
210.844000
11
-418.922000
21
210.844000
0
LINE
8
Layer 1
10
-418.922000
20
210.844000
11
-418.922000
21
209.038000
0
LINE
8
Layer 1
10
-418.922000
20
209.038000
11
-418.922000
21
207.232000
0
LINE
8
Layer 1
10
-418.922000
20
207.232000
11
-417.116000
21
207.232000
0
LINE
8
Layer 1
10
-417.116000
20
207.232000
11
-417.116000
21
205.426000
0
LINE
8
Layer 1
10
-417.116000
20
205.426000
11
-418.922000
21
205.426000
0
LINE
8
Layer 1
10
-418.922000
20
205.426000
11
-420.728000
21
205.426000
0
LINE
8
Layer 1
10
-420.728000
20
205.426000
11
-420.728000
21
203.620000
0
LINE
8
Layer 1
10
-420.728000
20
203.620000
11
-418.922000
21
203.620000
0
LINE
8
Layer 1
10
-418.922000
20
203.620000
11
-418.922000
21
201.814000
0
LINE
8
Layer 1
10
-418.922000
20
201.814000
11
-417.116000
21
201.814000
0
LINE
8
Layer 1
10
-417.116000
20
201.814000
11
-417.116000
21
203.620000
0
LINE
8
Layer 1
10
-417.116000
20
203.620000
11
-415.310000
21
203.620000
0
LINE
8
Layer 1
10
-415.310000
20
203.620000
11
-415.310000
21
201.814000
0
LINE
8
Layer 1
10
-415.310000
20
201.814000
11
-415.310000
21
200.008000
0
LINE
8
Layer 1
10
-415.310000
20
200.008000
11
-413.504000
21
200.008000
0
LINE
8
Layer 1
10
-413.504000
20
200.008000
11
-413.504000
21
201.814000
0
LINE
8
Layer 1
10
-413.504000
20
201.814000
11
-411.698000
21
201.814000
0
LINE
8
Layer 1
10
-411.698000
20
201.814000
11
-411.698000
21
203.620000
0
LINE
8
Layer 1
10
-411.698000
20
203.620000
11
-413.504000
21
203.620000
0
LINE
8
Layer 1
10
-413.504000
20
203.620000
11
-413.504000
21
205.426000
0
LINE
8
Layer 1
10
-413.504000
20
205.426000
11
-411.698000
21
205.426000
0
LINE
8
Layer 1
10
-411.698000
20
205.426000
11
-409.892000
21
205.426000
0
LINE
8
Layer 1
10
-409.892000
20
205.426000
11
-409.892000
21
207.232000
0
LINE
8
Layer 1
10
-409.892000
20
207.232000
11
-411.698000
21
207.232000
0
LINE
8
Layer 1
10
-411.698000
20
207.232000
11
-411.698000
21
209.038000
0
LINE
8
Layer 1
10
-411.698000
20
209.038000
11
-409.892000
21
209.038000
0
LINE
8
Layer 1
10
-409.892000
20
209.038000
11
-409.892000
21
210.844000
0
LINE
8
Layer 1
10
-409.892000
20
210.844000
11
-408.087000
21
210.844000
0
LINE
8
Layer 1
10
-408.087000
20
210.844000
11
-408.087000
21
209.038000
0
LINE
8
Layer 1
10
-408.087000
20
209.038000
11
-408.087000
21
207.232000
0
LINE
8
Layer 1
10
-408.087000
20
207.232000
11
-406.281000
21
207.232000
0
LINE
8
Layer 1
10
-406.281000
20
207.232000
11
-406.281000
21
209.038000
0
LINE
8
Layer 1
10
-406.281000
20
209.038000
11
-404.475000
21
209.038000
0
LINE
8
Layer 1
10
-404.475000
20
209.038000
11
-402.669000
21
209.038000
0
LINE
8
Layer 1
10
-402.669000
20
209.038000
11
-402.669000
21
210.844000
0
LINE
8
Layer 1
10
-402.669000
20
210.844000
11
-400.863000
21
210.844000
0
LINE
8
Layer 1
10
-400.863000
20
210.844000
11
-400.863000
21
209.038000
0
LINE
8
Layer 1
10
-400.863000
20
209.038000
11
-400.863000
21
207.232000
0
LINE
8
Layer 1
10
-400.863000
20
207.232000
11
-399.057000
21
207.232000
0
LINE
8
Layer 1
10
-399.057000
20
207.232000
11
-399.057000
21
209.038000
0
LINE
8
Layer 1
10
-399.057000
20
209.038000
11
-397.251000
21
209.038000
0
LINE
8
Layer 1
10
-397.251000
20
209.038000
11
-397.251000
21
210.844000
0
LINE
8
Layer 1
10
-397.251000
20
210.844000
11
-399.057000
21
210.844000
0
LINE
8
Layer 1
10
-399.057000
20
210.844000
11
-399.057000
21
212.649000
0
LINE
8
Layer 1
10
-399.057000
20
212.649000
11
-397.251000
21
212.649000
0
LINE
8
Layer 1
10
-397.251000
20
212.649000
11
-395.446000
21
212.649000
0
LINE
8
Layer 1
10
-395.446000
20
212.649000
11
-395.446000
21
214.455000
0
LINE
8
Layer 1
10
-395.446000
20
214.455000
11
-397.251000
21
214.455000
0
LINE
8
Layer 1
10
-397.251000
20
214.455000
11
-397.251000
21
216.261000
0
LINE
8
Layer 1
10
-397.251000
20
216.261000
11
-395.446000
21
216.261000
0
LINE
8
Layer 1
10
-395.446000
20
216.261000
11
-395.446000
21
218.067000
0
LINE
8
Layer 1
10
-395.446000
20
218.067000
11
-393.640000
21
218.067000
0
LINE
8
Layer 1
10
-393.640000
20
218.067000
11
-393.640000
21
216.261000
0
LINE
8
Layer 1
10
-393.640000
20
216.261000
11
-393.640000
21
214.455000
0
LINE
8
Layer 1
10
-393.640000
20
214.455000
11
-391.834000
21
214.455000
0
LINE
8
Layer 1
10
-391.834000
20
214.455000
11
-391.834000
21
216.261000
0
LINE
8
Layer 1
10
-391.834000
20
216.261000
11
-390.028000
21
216.261000
0
LINE
8
Layer 1
10
-390.028000
20
216.261000
11
-390.028000
21
214.455000
0
LINE
8
Layer 1
10
-390.028000
20
214.455000
11
-388.222000
21
214.455000
0
LINE
8
Layer 1
10
-388.222000
20
214.455000
11
-388.222000
21
212.649000
0
LINE
8
Layer 1
10
-388.222000
20
212.649000
11
-390.028000
21
212.649000
0
LINE
8
Layer 1
10
-390.028000
20
212.649000
11
-391.834000
21
212.649000
0
LINE
8
Layer 1
10
-391.834000
20
212.649000
11
-391.834000
21
210.844000
0
LINE
8
Layer 1
10
-391.834000
20
210.844000
11
-390.028000
21
210.844000
0
LINE
8
Layer 1
10
-390.028000
20
210.844000
11
-390.028000
21
209.038000
0
LINE
8
Layer 1
10
-390.028000
20
209.038000
11
-390.028000
21
207.232000
0
LINE
8
Layer 1
10
-390.028000
20
207.232000
11
-388.222000
21
207.232000
0
LINE
8
Layer 1
10
-388.222000
20
207.232000
11
-388.222000
21
205.426000
0
LINE
8
Layer 1
10
-388.222000
20
205.426000
11
-390.028000
21
205.426000
0
LINE
8
Layer 1
10
-390.028000
20
205.426000
11
-391.834000
21
205.426000
0
LINE
8
Layer 1
10
-391.834000
20
205.426000
11
-391.834000
21
203.620000
0
LINE
8
Layer 1
10
-391.834000
20
203.620000
11
-390.028000
21
203.620000
0
LINE
8
Layer 1
10
-390.028000
20
203.620000
11
-390.028000
21
201.814000
0
LINE
8
Layer 1
10
-390.028000
20
201.814000
11
-388.222000
21
201.814000
0
LINE
8
Layer 1
10
-388.222000
20
201.814000
11
-388.222000
21
203.620000
0
LINE
8
Layer 1
10
-388.222000
20
203.620000
11
-386.416000
21
203.620000
0
LINE
8
Layer 1
10
-386.416000
20
203.620000
11
-386.416000
21
201.814000
0
LINE
8
Layer 1
10
-386.416000
20
201.814000
11
-386.416000
21
200.008000
0
LINE
8
Layer 1
10
-386.416000
20
200.008000
11
-384.610000
21
200.008000
0
LINE
8
Layer 1
10
-384.610000
20
200.008000
11
-384.610000
21
201.814000
0
LINE
8
Layer 1
10
-384.610000
20
201.814000
11
-382.804000
21
201.814000
0
LINE
8
Layer 1
10
-382.804000
20
201.814000
11
-382.804000
21
203.620000
0
LINE
8
Layer 1
10
-382.804000
20
203.620000
11
-384.610000
21
203.620000
0
LINE
8
Layer 1
10
-384.610000
20
203.620000
11
-384.610000
21
205.426000
0
LINE
8
Layer 1
10
-384.610000
20
205.426000
11
-382.804000
21
205.426000
0
LINE
8
Layer 1
10
-382.804000
20
205.426000
11
-380.999000
21
205.426000
0
LINE
8
Layer 1
10
-380.999000
20
205.426000
11
-380.999000
21
207.232000
0
LINE
8
Layer 1
10
-380.999000
20
207.232000
11
-382.804000
21
207.232000
0
LINE
8
Layer 1
10
-382.804000
20
207.232000
11
-382.804000
21
209.038000
0
LINE
8
Layer 1
10
-382.804000
20
209.038000
11
-380.999000
21
209.038000
0
LINE
8
Layer 1
10
-380.999000
20
209.038000
11
-380.999000
21
210.844000
0
LINE
8
Layer 1
10
-380.999000
20
210.844000
11
-379.193000
21
210.844000
0
LINE
8
Layer 1
10
-379.193000
20
210.844000
11
-379.193000
21
209.038000
0
LINE
8
Layer 1
10
-379.193000
20
209.038000
11
-379.193000
21
207.232000
0
LINE
8
Layer 1
10
-379.193000
20
207.232000
11
-377.387000
21
207.232000
0
LINE
8
Layer 1
10
-377.387000
20
207.232000
11
-377.387000
21
209.038000
0
LINE
8
Layer 1
10
-377.387000
20
209.038000
11
-375.581000
21
209.038000
0
LINE
8
Layer 1
10
-375.581000
20
209.038000
11
-375.581000
21
210.844000
0
LINE
8
Layer 1
10
-375.581000
20
210.844000
11
-377.387000
21
210.844000
0
LINE
8
Layer 1
10
-377.387000
20
210.844000
11
-377.387000
21
212.649000
0
LINE
8
Layer 1
10
-377.387000
20
212.649000
11
-375.581000
21
212.649000
0
LINE
8
Layer 1
10
-375.581000
20
212.649000
11
-373.775000
21
212.649000
0
LINE
8
Layer 1
10
-373.775000
20
212.649000
11
-373.775000
21
214.455000
0
LINE
8
Layer 1
10
-373.775000
20
214.455000
11
-375.581000
21
214.455000
0
LINE
8
Layer 1
10
-375.581000
20
214.455000
11
-375.581000
21
216.261000
0
LINE
8
Layer 1
10
-375.581000
20
216.261000
11
-377.387000
21
216.261000
0
LINE
8
Layer 1
10
-377.387000
20
216.261000
11
-377.387000
21
214.455000
0
LINE
8
Layer 1
10
-377.387000
20
214.455000
11
-379.193000
21
214.455000
0
LINE
8
Layer 1
10
-379.193000
20
214.455000
11
-379.193000
21
216.261000
0
LINE
8
Layer 1
10
-379.193000
20
216.261000
11
-379.193000
21
218.067000
0
LINE
8
Layer 1
10
-379.193000
20
218.067000
11
-380.999000
21
218.067000
0
LINE
8
Layer 1
10
-380.999000
20
218.067000
11
-380.999000
21
216.261000
0
LINE
8
Layer 1
10
-380.999000
20
216.261000
11
-382.804000
21
216.261000
0
LINE
8
Layer 1
10
-382.804000
20
216.261000
11
-382.804000
21
218.067000
0
LINE
8
Layer 1
10
-382.804000
20
218.067000
11
-384.610000
21
218.067000
0
LINE
8
Layer 1
10
-384.610000
20
218.067000
11
-384.610000
21
219.873000
0
LINE
8
Layer 1
10
-384.610000
20
219.873000
11
-382.804000
21
219.873000
0
LINE
8
Layer 1
10
-382.804000
20
219.873000
11
-380.999000
21
219.873000
0
LINE
8
Layer 1
10
-380.999000
20
219.873000
11
-380.999000
21
221.679000
0
LINE
8
Layer 1
10
-380.999000
20
221.679000
11
-382.804000
21
221.679000
0
LINE
8
Layer 1
10
-382.804000
20
221.679000
11
-382.804000
21
223.485000
0
LINE
8
Layer 1
10
-382.804000
20
223.485000
11
-380.999000
21
223.485000
0
LINE
8
Layer 1
10
-380.999000
20
223.485000
11
-380.999000
21
225.290000
0
LINE
8
Layer 1
10
-380.999000
20
225.290000
11
-379.193000
21
225.290000
0
LINE
8
Layer 1
10
-379.193000
20
225.290000
11
-379.193000
21
223.485000
0
LINE
8
Layer 1
10
-379.193000
20
223.485000
11
-379.193000
21
221.679000
0
LINE
8
Layer 1
10
-379.193000
20
221.679000
11
-377.387000
21
221.679000
0
LINE
8
Layer 1
10
-377.387000
20
221.679000
11
-377.387000
21
223.485000
0
LINE
8
Layer 1
10
-377.387000
20
223.485000
11
-375.581000
21
223.485000
0
LINE
8
Layer 1
10
-375.581000
20
223.485000
11
-373.775000
21
223.485000
0
LINE
8
Layer 1
10
-373.775000
20
223.485000
11
-373.775000
21
225.290000
0
LINE
8
Layer 1
10
-373.775000
20
225.290000
11
-371.969000
21
225.290000
0
LINE
8
Layer 1
10
-371.969000
20
225.290000
11
-371.969000
21
223.485000
0
LINE
8
Layer 1
10
-371.969000
20
223.485000
11
-371.969000
21
221.679000
0
LINE
8
Layer 1
10
-371.969000
20
221.679000
11
-370.163000
21
221.679000
0
LINE
8
Layer 1
10
-370.163000
20
221.679000
11
-370.163000
21
223.485000
0
LINE
8
Layer 1
10
-370.163000
20
223.485000
11
-368.357000
21
223.485000
0
LINE
8
Layer 1
10
-368.357000
20
223.485000
11
-368.357000
21
225.290000
0
LINE
8
Layer 1
10
-368.357000
20
225.290000
11
-370.163000
21
225.290000
0
LINE
8
Layer 1
10
-370.163000
20
225.290000
11
-370.163000
21
227.096000
0
LINE
8
Layer 1
10
-370.163000
20
227.096000
11
-368.357000
21
227.096000
0
LINE
8
Layer 1
10
-368.357000
20
227.096000
11
-366.552000
21
227.096000
0
LINE
8
Layer 1
10
-366.552000
20
227.096000
11
-366.552000
21
228.902000
0
LINE
8
Layer 1
10
-366.552000
20
228.902000
11
-368.357000
21
228.902000
0
LINE
8
Layer 1
10
-368.357000
20
228.902000
11
-368.357000
21
230.708000
0
LINE
8
Layer 1
10
-368.357000
20
230.708000
11
-370.163000
21
230.708000
0
LINE
8
Layer 1
10
-370.163000
20
230.708000
11
-370.163000
21
228.902000
0
LINE
8
Layer 1
10
-370.163000
20
228.902000
11
-371.969000
21
228.902000
0
LINE
8
Layer 1
10
-371.969000
20
228.902000
11
-371.969000
21
230.708000
0
LINE
8
Layer 1
10
-371.969000
20
230.708000
11
-371.969000
21
232.514000
0
LINE
8
Layer 1
10
-371.969000
20
232.514000
11
-373.775000
21
232.514000
0
LINE
8
Layer 1
10
-373.775000
20
232.514000
11
-373.775000
21
230.708000
0
LINE
8
Layer 1
10
-373.775000
20
230.708000
11
-375.581000
21
230.708000
0
LINE
8
Layer 1
10
-375.581000
20
230.708000
11
-375.581000
21
232.514000
0
LINE
8
Layer 1
10
-375.581000
20
232.514000
11
-377.387000
21
232.514000
0
LINE
8
Layer 1
10
-377.387000
20
232.514000
11
-377.387000
21
234.320000
0
LINE
8
Layer 1
10
-377.387000
20
234.320000
11
-375.581000
21
234.320000
0
LINE
8
Layer 1
10
-375.581000
20
234.320000
11
-373.775000
21
234.320000
0
LINE
8
Layer 1
10
-373.775000
20
234.320000
11
-373.775000
21
236.126000
0
LINE
8
Layer 1
10
-373.775000
20
236.126000
11
-375.581000
21
236.126000
0
LINE
8
Layer 1
10
-375.581000
20
236.126000
11
-375.581000
21
237.932000
0
LINE
8
Layer 1
10
-375.581000
20
237.932000
11
-377.387000
21
237.932000
0
LINE
8
Layer 1
10
-377.387000
20
237.932000
11
-377.387000
21
236.126000
0
LINE
8
Layer 1
10
-377.387000
20
236.126000
11
-379.193000
21
236.126000
0
LINE
8
Layer 1
10
-379.193000
20
236.126000
11
-379.193000
21
237.932000
0
LINE
8
Layer 1
10
-379.193000
20
237.932000
11
-379.193000
21
239.737000
0
LINE
8
Layer 1
10
-379.193000
20
239.737000
11
-380.999000
21
239.737000
0
LINE
8
Layer 1
10
-380.999000
20
239.737000
11
-380.999000
21
237.932000
0
LINE
8
Layer 1
10
-380.999000
20
237.932000
11
-382.804000
21
237.932000
0
LINE
8
Layer 1
10
-382.804000
20
237.932000
11
-382.804000
21
236.126000
0
LINE
8
Layer 1
10
-382.804000
20
236.126000
11
-380.999000
21
236.126000
0
LINE
8
Layer 1
10
-380.999000
20
236.126000
11
-380.999000
21
234.320000
0
LINE
8
Layer 1
10
-380.999000
20
234.320000
11
-382.804000
21
234.320000
0
LINE
8
Layer 1
10
-382.804000
20
234.320000
11
-384.610000
21
234.320000
0
LINE
8
Layer 1
10
-384.610000
20
234.320000
11
-384.610000
21
232.514000
0
LINE
8
Layer 1
10
-384.610000
20
232.514000
11
-382.804000
21
232.514000
0
LINE
8
Layer 1
10
-382.804000
20
232.514000
11
-382.804000
21
230.708000
0
LINE
8
Layer 1
10
-382.804000
20
230.708000
11
-384.610000
21
230.708000
0
LINE
8
Layer 1
10
-384.610000
20
230.708000
11
-384.610000
21
228.902000
0
LINE
8
Layer 1
10
-384.610000
20
228.902000
11
-386.416000
21
228.902000
0
LINE
8
Layer 1
10
-386.416000
20
228.902000
11
-386.416000
21
230.708000
0
LINE
8
Layer 1
10
-386.416000
20
230.708000
11
-386.416000
21
232.514000
0
LINE
8
Layer 1
10
-386.416000
20
232.514000
11
-388.222000
21
232.514000
0
LINE
8
Layer 1
10
-388.222000
20
232.514000
11
-388.222000
21
230.708000
0
LINE
8
Layer 1
10
-388.222000
20
230.708000
11
-390.028000
21
230.708000
0
LINE
8
Layer 1
10
-390.028000
20
230.708000
11
-390.028000
21
232.514000
0
LINE
8
Layer 1
10
-390.028000
20
232.514000
11
-391.834000
21
232.514000
0
LINE
8
Layer 1
10
-391.834000
20
232.514000
11
-391.834000
21
234.320000
0
LINE
8
Layer 1
10
-391.834000
20
234.320000
11
-390.028000
21
234.320000
0
LINE
8
Layer 1
10
-390.028000
20
234.320000
11
-388.222000
21
234.320000
0
LINE
8
Layer 1
10
-388.222000
20
234.320000
11
-388.222000
21
236.126000
0
LINE
8
Layer 1
10
-388.222000
20
236.126000
11
-390.028000
21
236.126000
0
LINE
8
Layer 1
10
-390.028000
20
236.126000
11
-390.028000
21
237.932000
0
LINE
8
Layer 1
10
-390.028000
20
237.932000
11
-390.028000
21
239.737000
0
LINE
8
Layer 1
10
-390.028000
20
239.737000
11
-391.834000
21
239.737000
0
LINE
8
Layer 1
10
-391.834000
20
239.737000
11
-391.834000
21
241.543000
0
LINE
8
Layer 1
10
-391.834000
20
241.543000
11
-390.028000
21
241.543000
0
LINE
8
Layer 1
10
-390.028000
20
241.543000
11
-388.222000
21
241.543000
0
LINE
8
Layer 1
10
-388.222000
20
241.543000
11
-388.222000
21
243.349000
0
LINE
8
Layer 1
10
-388.222000
20
243.349000
11
-390.028000
21
243.349000
0
LINE
8
Layer 1
10
-390.028000
20
243.349000
11
-390.028000
21
245.155000
0
LINE
8
Layer 1
10
-390.028000
20
245.155000
11
-391.834000
21
245.155000
0
LINE
8
Layer 1
10
-391.834000
20
245.155000
11
-391.834000
21
243.349000
0
LINE
8
Layer 1
10
-391.834000
20
243.349000
11
-393.640000
21
243.349000
0
LINE
8
Layer 1
10
-393.640000
20
243.349000
11
-393.640000
21
245.155000
0
LINE
8
Layer 1
10
-393.640000
20
245.155000
11
-393.640000
21
246.961000
0
LINE
8
Layer 1
10
-393.640000
20
246.961000
11
-395.446000
21
246.961000
0
LINE
8
Layer 1
10
-395.446000
20
246.961000
11
-395.446000
21
245.155000
0
LINE
8
Layer 1
10
-395.446000
20
245.155000
11
-397.251000
21
245.155000
0
LINE
8
Layer 1
10
-397.251000
20
245.155000
11
-397.251000
21
243.349000
0
LINE
8
Layer 1
10
-397.251000
20
243.349000
11
-395.446000
21
243.349000
0
LINE
8
Layer 1
10
-395.446000
20
243.349000
11
-395.446000
21
241.543000
0
LINE
8
Layer 1
10
-395.446000
20
241.543000
11
-397.251000
21
241.543000
0
LINE
8
Layer 1
10
-397.251000
20
241.543000
11
-399.057000
21
241.543000
0
LINE
8
Layer 1
10
-399.057000
20
241.543000
11
-399.057000
21
239.737000
0
LINE
8
Layer 1
10
-399.057000
20
239.737000
11
-397.251000
21
239.737000
0
LINE
8
Layer 1
10
-397.251000
20
239.737000
11
-397.251000
21
237.932000
0
LINE
8
Layer 1
10
-397.251000
20
237.932000
11
-399.057000
21
237.932000
0
LINE
8
Layer 1
10
-399.057000
20
237.932000
11
-399.057000
21
236.126000
0
LINE
8
Layer 1
10
-399.057000
20
236.126000
11
-400.863000
21
236.126000
0
LINE
8
Layer 1
10
-400.863000
20
236.126000
11
-400.863000
21
237.932000
0
LINE
8
Layer 1
10
-400.863000
20
237.932000
11
-400.863000
21
239.737000
0
LINE
8
Layer 1
10
-400.863000
20
239.737000
11
-402.669000
21
239.737000
0
LINE
8
Layer 1
10
-402.669000
20
239.737000
11
-402.669000
21
237.932000
0
LINE
8
Layer 1
10
-402.669000
20
237.932000
11
-404.475000
21
237.932000
0
LINE
8
Layer 1
10
-404.475000
20
237.932000
11
-404.475000
21
239.737000
0
LINE
8
Layer 1
10
-404.475000
20
239.737000
11
-406.281000
21
239.737000
0
LINE
8
Layer 1
10
-406.281000
20
239.737000
11
-406.281000
21
241.543000
0
LINE
8
Layer 1
10
-406.281000
20
241.543000
11
-404.475000
21
241.543000
0
LINE
8
Layer 1
10
-404.475000
20
241.543000
11
-402.669000
21
241.543000
0
LINE
8
Layer 1
10
-402.669000
20
241.543000
11
-402.669000
21
243.349000
0
LINE
8
Layer 1
10
-402.669000
20
243.349000
11
-404.475000
21
243.349000
0
LINE
8
Layer 1
10
-404.475000
20
243.349000
11
-404.475000
21
245.155000
0
LINE
8
Layer 1
10
-404.475000
20
245.155000
11
-406.281000
21
245.155000
0
LINE
8
Layer 1
10
-406.281000
20
245.155000
11
-406.281000
21
243.349000
0
LINE
8
Layer 1
10
-406.281000
20
243.349000
11
-408.087000
21
243.349000
0
LINE
8
Layer 1
10
-408.087000
20
243.349000
11
-408.087000
21
245.155000
0
LINE
8
Layer 1
10
-408.087000
20
245.155000
11
-408.087000
21
246.961000
0
LINE
8
Layer 1
10
-408.087000
20
246.961000
11
-409.892000
21
246.961000
0
LINE
8
Layer 1
10
-409.892000
20
246.961000
11
-409.892000
21
245.155000
0
LINE
8
Layer 1
10
-409.892000
20
245.155000
11
-411.698000
21
245.155000
0
LINE
8
Layer 1
10
-411.698000
20
245.155000
11
-411.698000
21
246.961000
0
LINE
8
Layer 1
10
-411.698000
20
246.961000
11
-413.504000
21
246.961000
0
LINE
8
Layer 1
10
-413.504000
20
246.961000
11
-413.504000
21
248.767000
0
LINE
8
Layer 1
10
-413.504000
20
248.767000
11
-411.698000
21
248.767000
0
LINE
8
Layer 1
10
-411.698000
20
248.767000
11
-409.892000
21
248.767000
0
LINE
8
Layer 1
10
-409.892000
20
248.767000
11
-409.892000
21
250.573000
0
LINE
8
Layer 1
10
-409.892000
20
250.573000
11
-411.698000
21
250.573000
0
LINE
8
Layer 1
10
-411.698000
20
250.573000
11
-411.698000
21
252.379000
0
LINE
8
Layer 1
10
-411.698000
20
252.379000
11
-409.892000
21
252.379000
0
LINE
8
Layer 1
10
-409.892000
20
252.379000
11
-409.892000
21
254.184000
0
LINE
8
Layer 1
10
-409.892000
20
254.184000
11
-408.087000
21
254.184000
0
LINE
8
Layer 1
10
-408.087000
20
254.184000
11
-408.087000
21
252.379000
0
LINE
8
Layer 1
10
-408.087000
20
252.379000
11
-408.087000
21
250.573000
0
LINE
8
Layer 1
10
-408.087000
20
250.573000
11
-406.281000
21
250.573000
0
LINE
8
Layer 1
10
-406.281000
20
250.573000
11
-406.281000
21
252.379000
0
LINE
8
Layer 1
10
-406.281000
20
252.379000
11
-404.475000
21
252.379000
0
LINE
8
Layer 1
10
-404.475000
20
252.379000
11
-402.669000
21
252.379000
0
LINE
8
Layer 1
10
-402.669000
20
252.379000
11
-402.669000
21
254.184000
0
LINE
8
Layer 1
10
-402.669000
20
254.184000
11
-400.863000
21
254.184000
0
LINE
8
Layer 1
10
-400.863000
20
254.184000
11
-400.863000
21
252.379000
0
LINE
8
Layer 1
10
-400.863000
20
252.379000
11
-400.863000
21
250.573000
0
LINE
8
Layer 1
10
-400.863000
20
250.573000
11
-399.057000
21
250.573000
0
LINE
8
Layer 1
10
-399.057000
20
250.573000
11
-399.057000
21
252.379000
0
LINE
8
Layer 1
10
-399.057000
20
252.379000
11
-397.251000
21
252.379000
0
LINE
8
Layer 1
10
-397.251000
20
252.379000
11
-397.251000
21
254.184000
0
LINE
8
Layer 1
10
-397.251000
20
254.184000
11
-399.057000
21
254.184000
0
LINE
8
Layer 1
10
-399.057000
20
254.184000
11
-399.057000
21
255.990000
0
LINE
8
Layer 1
10
-399.057000
20
255.990000
11
-397.251000
21
255.990000
0
LINE
8
Layer 1
10
-397.251000
20
255.990000
11
-395.446000
21
255.990000
0
LINE
8
Layer 1
10
-395.446000
20
255.990000
11
-395.446000
21
257.796000
0
LINE
8
Layer 1
10
-395.446000
20
257.796000
11
-397.251000
21
257.796000
0
LINE
8
Layer 1
10
-397.251000
20
257.796000
11
-397.251000
21
259.602000
0
LINE
8
Layer 1
10
-397.251000
20
259.602000
11
-399.057000
21
259.602000
0
LINE
8
Layer 1
10
-399.057000
20
259.602000
11
-399.057000
21
257.796000
0
LINE
8
Layer 1
10
-399.057000
20
257.796000
11
-400.863000
21
257.796000
0
LINE
8
Layer 1
10
-400.863000
20
257.796000
11
-400.863000
21
259.602000
0
LINE
8
Layer 1
10
-400.863000
20
259.602000
11
-400.863000
21
261.408000
0
LINE
8
Layer 1
10
-400.863000
20
261.408000
11
-402.669000
21
261.408000
0
LINE
8
Layer 1
10
-402.669000
20
261.408000
11
-402.669000
21
259.602000
0
LINE
8
Layer 1
10
-402.669000
20
259.602000
11
-404.475000
21
259.602000
0
LINE
8
Layer 1
10
-404.475000
20
259.602000
11
-404.475000
21
261.408000
0
LINE
8
Layer 1
10
-404.475000
20
261.408000
11
-406.281000
21
261.408000
0
LINE
8
Layer 1
10
-406.281000
20
261.408000
11
-406.281000
21
263.214000
0
LINE
8
Layer 1
10
-406.281000
20
263.214000
11
-404.475000
21
263.214000
0
LINE
8
Layer 1
10
-404.475000
20
263.214000
11
-402.669000
21
263.214000
0
LINE
8
Layer 1
10
-402.669000
20
263.214000
11
-402.669000
21
265.020000
0
LINE
8
Layer 1
10
-402.669000
20
265.020000
11
-404.475000
21
265.020000
0
LINE
8
Layer 1
10
-404.475000
20
265.020000
11
-404.475000
21
266.825000
0
LINE
8
Layer 1
10
-404.475000
20
266.825000
11
-402.669000
21
266.825000
0
LINE
8
Layer 1
10
-402.669000
20
266.825000
11
-402.669000
21
268.631000
0
LINE
8
Layer 1
10
-402.669000
20
268.631000
11
-400.863000
21
268.631000
0
LINE
8
Layer 1
10
-400.863000
20
268.631000
11
-400.863000
21
266.825000
0
LINE
8
Layer 1
10
-400.863000
20
266.825000
11
-400.863000
21
265.020000
0
LINE
8
Layer 1
10
-400.863000
20
265.020000
11
-399.057000
21
265.020000
0
LINE
8
Layer 1
10
-399.057000
20
265.020000
11
-399.057000
21
266.825000
0
LINE
8
Layer 1
10
-399.057000
20
266.825000
11
-397.251000
21
266.825000
0
LINE
8
Layer 1
10
-397.251000
20
266.825000
11
-397.251000
21
268.631000
0
LINE
8
Layer 1
10
-397.251000
20
268.631000
11
-399.057000
21
268.631000
0
LINE
8
Layer 1
10
-399.057000
20
268.631000
11
-399.057000
21
270.437000
0
LINE
8
Layer 1
10
-399.057000
20
270.437000
11
-397.251000
21
270.437000
0
LINE
8
Layer 1
10
-397.251000
20
270.437000
11
-395.446000
21
270.437000
0
LINE
8
Layer 1
10
-395.446000
20
270.437000
11
-395.446000
21
272.243000
0
LINE
8
Layer 1
10
-395.446000
20
272.243000
11
-397.251000
21
272.243000
0
LINE
8
Layer 1
10
-397.251000
20
272.243000
11
-397.251000
21
274.049000
0
LINE
8
Layer 1
10
-397.251000
20
274.049000
11
-395.446000
21
274.049000
0
LINE
8
Layer 1
10
-395.446000
20
274.049000
11
-395.446000
21
275.855000
0
LINE
8
Layer 1
10
-395.446000
20
275.855000
11
-393.640000
21
275.855000
0
LINE
8
Layer 1
10
-393.640000
20
275.855000
11
-393.640000
21
274.049000
0
LINE
8
Layer 1
10
-393.640000
20
274.049000
11
-393.640000
21
272.243000
0
LINE
8
Layer 1
10
-393.640000
20
272.243000
11
-391.834000
21
272.243000
0
LINE
8
Layer 1
10
-391.834000
20
272.243000
11
-391.834000
21
274.049000
0
LINE
8
Layer 1
10
-391.834000
20
274.049000
11
-390.028000
21
274.049000
0
LINE
8
Layer 1
10
-390.028000
20
274.049000
11
-390.028000
21
272.243000
0
LINE
8
Layer 1
10
-390.028000
20
272.243000
11
-388.222000
21
272.243000
0
LINE
8
Layer 1
10
-388.222000
20
272.243000
11
-388.222000
21
270.437000
0
LINE
8
Layer 1
10
-388.222000
20
270.437000
11
-390.028000
21
270.437000
0
LINE
8
Layer 1
10
-390.028000
20
270.437000
11
-391.834000
21
270.437000
0
LINE
8
Layer 1
10
-391.834000
20
270.437000
11
-391.834000
21
268.631000
0
LINE
8
Layer 1
10
-391.834000
20
268.631000
11
-390.028000
21
268.631000
0
LINE
8
Layer 1
10
-390.028000
20
268.631000
11
-390.028000
21
266.825000
0
LINE
8
Layer 1
10
-390.028000
20
266.825000
11
-390.028000
21
265.020000
0
LINE
8
Layer 1
10
-390.028000
20
265.020000
11
-388.222000
21
265.020000
0
LINE
8
Layer 1
10
-388.222000
20
265.020000
11
-388.222000
21
263.214000
0
LINE
8
Layer 1
10
-388.222000
20
263.214000
11
-390.028000
21
263.214000
0
LINE
8
Layer 1
10
-390.028000
20
263.214000
11
-391.834000
21
263.214000
0
LINE
8
Layer 1
10
-391.834000
20
263.214000
11
-391.834000
21
261.408000
0
LINE
8
Layer 1
10
-391.834000
20
261.408000
11
-390.028000
21
261.408000
0
LINE
8
Layer 1
10
-390.028000
20
261.408000
11
-390.028000
21
259.602000
0
LINE
8
Layer 1
10
-390.028000
20
259.602000
11
-388.222000
21
259.602000
0
LINE
8
Layer 1
10
-388.222000
20
259.602000
11
-388.222000
21
261.408000
0
LINE
8
Layer 1
10
-388.222000
20
261.408000
11
-386.416000
21
261.408000
0
LINE
8
Layer 1
10
-386.416000
20
261.408000
11
-386.416000
21
259.602000
0
LINE
8
Layer 1
10
-386.416000
20
259.602000
11
-386.416000
21
257.796000
0
LINE
8
Layer 1
10
-386.416000
20
257.796000
11
-384.610000
21
257.796000
0
LINE
8
Layer 1
10
-384.610000
20
257.796000
11
-384.610000
21
259.602000
0
LINE
8
Layer 1
10
-384.610000
20
259.602000
11
-382.804000
21
259.602000
0
LINE
8
Layer 1
10
-382.804000
20
259.602000
11
-382.804000
21
261.408000
0
LINE
8
Layer 1
10
-382.804000
20
261.408000
11
-384.610000
21
261.408000
0
LINE
8
Layer 1
10
-384.610000
20
261.408000
11
-384.610000
21
263.214000
0
LINE
8
Layer 1
10
-384.610000
20
263.214000
11
-382.804000
21
263.214000
0
LINE
8
Layer 1
10
-382.804000
20
263.214000
11
-380.999000
21
263.214000
0
LINE
8
Layer 1
10
-380.999000
20
263.214000
11
-380.999000
21
265.020000
0
LINE
8
Layer 1
10
-380.999000
20
265.020000
11
-382.804000
21
265.020000
0
LINE
8
Layer 1
10
-382.804000
20
265.020000
11
-382.804000
21
266.825000
0
LINE
8
Layer 1
10
-382.804000
20
266.825000
11
-380.999000
21
266.825000
0
LINE
8
Layer 1
10
-380.999000
20
266.825000
11
-380.999000
21
268.631000
0
LINE
8
Layer 1
10
-380.999000
20
268.631000
11
-379.193000
21
268.631000
0
LINE
8
Layer 1
10
-379.193000
20
268.631000
11
-379.193000
21
266.825000
0
LINE
8
Layer 1
10
-379.193000
20
266.825000
11
-379.193000
21
265.020000
0
LINE
8
Layer 1
10
-379.193000
20
265.020000
11
-377.387000
21
265.020000
0
LINE
8
Layer 1
10
-377.387000
20
265.020000
11
-377.387000
21
266.825000
0
LINE
8
Layer 1
10
-377.387000
20
266.825000
11
-375.581000
21
266.825000
0
LINE
8
Layer 1
10
-375.581000
20
266.825000
11
-375.581000
21
268.631000
0
LINE
8
Layer 1
10
-375.581000
20
268.631000
11
-377.387000
21
268.631000
0
LINE
8
Layer 1
10
-377.387000
20
268.631000
11
-377.387000
21
270.437000
0
LINE
8
Layer 1
10
-377.387000
20
270.437000
11
-375.581000
21
270.437000
0
LINE
8
Layer 1
10
-375.581000
20
270.437000
11
-373.775000
21
270.437000
0
LINE
8
Layer 1
10
-373.775000
20
270.437000
11
-373.775000
21
272.243000
0
LINE
8
Layer 1
10
-373.775000
20
272.243000
11
-375.581000
21
272.243000
0
LINE
8
Layer 1
10
-375.581000
20
272.243000
11
-375.581000
21
274.049000
0
LINE
8
Layer 1
10
-375.581000
20
274.049000
11
-377.387000
21
274.049000
0
LINE
8
Layer 1
10
-377.387000
20
274.049000
11
-377.387000
21
272.243000
0
LINE
8
Layer 1
10
-377.387000
20
272.243000
11
-379.193000
21
272.243000
0
LINE
8
Layer 1
10
-379.193000
20
272.243000
11
-379.193000
21
274.049000
0
LINE
8
Layer 1
10
-379.193000
20
274.049000
11
-379.193000
21
275.855000
0
LINE
8
Layer 1
10
-379.193000
20
275.855000
11
-380.999000
21
275.855000
0
LINE
8
Layer 1
10
-380.999000
20
275.855000
11
-380.999000
21
274.049000
0
LINE
8
Layer 1
10
-380.999000
20
274.049000
11
-382.804000
21
274.049000
0
LINE
8
Layer 1
10
-382.804000
20
274.049000
11
-382.804000
21
275.855000
0
LINE
8
Layer 1
10
-382.804000
20
275.855000
11
-384.610000
21
275.855000
0
LINE
8
Layer 1
10
-384.610000
20
275.855000
11
-384.610000
21
277.661000
0
LINE
8
Layer 1
10
-384.610000
20
277.661000
11
-382.804000
21
277.661000
0
LINE
8
Layer 1
10
-382.804000
20
277.661000
11
-380.999000
21
277.661000
0
LINE
8
Layer 1
10
-380.999000
20
277.661000
11
-380.999000
21
279.467000
0
LINE
8
Layer 1
10
-380.999000
20
279.467000
11
-382.804000
21
279.467000
0
LINE
8
Layer 1
10
-382.804000
20
279.467000
11
-382.804000
21
281.272000
0
LINE
8
Layer 1
10
-382.804000
20
281.272000
11
-380.999000
21
281.272000
0
LINE
8
Layer 1
10
-380.999000
20
281.272000
11
-380.999000
21
283.078000
0
LINE
8
Layer 1
10
-380.999000
20
283.078000
11
-379.193000
21
283.078000
0
LINE
8
Layer 1
10
-379.193000
20
283.078000
11
-379.193000
21
281.272000
0
LINE
8
Layer 1
10
-379.193000
20
281.272000
11
-379.193000
21
279.467000
0
LINE
8
Layer 1
10
-379.193000
20
279.467000
11
-377.387000
21
279.467000
0
LINE
8
Layer 1
10
-377.387000
20
279.467000
11
-377.387000
21
281.272000
0
LINE
8
Layer 1
10
-377.387000
20
281.272000
11
-375.581000
21
281.272000
0
LINE
8
Layer 1
10
-375.581000
20
281.272000
11
-373.775000
21
281.272000
0
LINE
8
Layer 1
10
-373.775000
20
281.272000
11
-373.775000
21
283.078000
0
LINE
8
Layer 1
10
-373.775000
20
283.078000
11
-371.969000
21
283.078000
0
LINE
8
Layer 1
10
-371.969000
20
283.078000
11
-371.969000
21
281.272000
0
LINE
8
Layer 1
10
-371.969000
20
281.272000
11
-371.969000
21
279.467000
0
LINE
8
Layer 1
10
-371.969000
20
279.467000
11
-370.163000
21
279.467000
0
LINE
8
Layer 1
10
-370.163000
20
279.467000
11
-370.163000
21
281.272000
0
LINE
8
Layer 1
10
-370.163000
20
281.272000
11
-368.357000
21
281.272000
0
LINE
8
Layer 1
10
-368.357000
20
281.272000
11
-368.357000
21
283.078000
0
LINE
8
Layer 1
10
-368.357000
20
283.078000
11
-370.163000
21
283.078000
0
LINE
8
Layer 1
10
-370.163000
20
283.078000
11
-370.163000
21
284.884000
0
LINE
8
Layer 1
10
-370.163000
20
284.884000
11
-368.357000
21
284.884000
0
LINE
8
Layer 1
10
-368.357000
20
284.884000
11
-366.552000
21
284.884000
0
LINE
8
Layer 1
10
-366.552000
20
284.884000
11
-366.552000
21
286.690000
0
LINE
8
Layer 1
10
-366.552000
20
286.690000
11
-368.357000
21
286.690000
0
LINE
8
Layer 1
10
-368.357000
20
286.690000
11
-368.357000
21
288.496000
0
LINE
8
Layer 1
10
-368.357000
20
288.496000
11
-370.163000
21
288.496000
0
LINE
8
Layer 1
10
-370.163000
20
288.496000
11
-370.163000
21
286.690000
0
LINE
8
Layer 1
10
-370.163000
20
286.690000
11
-371.969000
21
286.690000
0
LINE
8
Layer 1
10
-371.969000
20
286.690000
11
-371.969000
21
288.496000
0
LINE
8
Layer 1
10
-371.969000
20
288.496000
11
-371.969000
21
290.302000
0
LINE
8
Layer 1
10
-371.969000
20
290.302000
11
-373.775000
21
290.302000
0
LINE
8
Layer 1
10
-373.775000
20
290.302000
11
-373.775000
21
288.496000
0
LINE
8
Layer 1
10
-373.775000
20
288.496000
11
-375.581000
21
288.496000
0
LINE
8
Layer 1
10
-375.581000
20
288.496000
11
-375.581000
21
290.302000
0
LINE
8
Layer 1
10
-375.581000
20
290.302000
11
-377.387000
21
290.302000
0
LINE
8
Layer 1
10
-377.387000
20
290.302000
11
-377.387000
21
292.108000
0
LINE
8
Layer 1
10
-377.387000
20
292.108000
11
-375.581000
21
292.108000
0
LINE
8
Layer 1
10
-375.581000
20
292.108000
11
-373.775000
21
292.108000
0
LINE
8
Layer 1
10
-373.775000
20
292.108000
11
-373.775000
21
293.913000
0
LINE
8
Layer 1
10
-373.775000
20
293.913000
11
-375.581000
21
293.913000
0
LINE
8
Layer 1
10
-375.581000
20
293.913000
11
-375.581000
21
295.719000
0
LINE
8
Layer 1
10
-375.581000
20
295.719000
11
-373.775000
21
295.719000
0
LINE
8
Layer 1
10
-373.775000
20
295.719000
11
-373.775000
21
297.525000
0
LINE
8
Layer 1
10
-373.775000
20
297.525000
11
-371.969000
21
297.525000
0
LINE
8
Layer 1
10
-371.969000
20
297.525000
11
-371.969000
21
295.719000
0
LINE
8
Layer 1
10
-371.969000
20
295.719000
11
-371.969000
21
293.913000
0
LINE
8
Layer 1
10
-371.969000
20
293.913000
11
-370.163000
21
293.913000
0
LINE
8
Layer 1
10
-370.163000
20
293.913000
11
-370.163000
21
295.719000
0
LINE
8
Layer 1
10
-370.163000
20
295.719000
11
-368.357000
21
295.719000
0
LINE
8
Layer 1
10
-368.357000
20
295.719000
11
-368.357000
21
297.525000
0
LINE
8
Layer 1
10
-368.357000
20
297.525000
11
-370.163000
21
297.525000
0
LINE
8
Layer 1
10
-370.163000
20
297.525000
11
-370.163000
21
299.331000
0
LINE
8
Layer 1
10
-370.163000
20
299.331000
11
-368.357000
21
299.331000
0
LINE
8
Layer 1
10
-368.357000
20
299.331000
11
-366.552000
21
299.331000
0
LINE
8
Layer 1
10
-366.552000
20
299.331000
11
-366.552000
21
301.137000
0
LINE
8
Layer 1
10
-366.552000
20
301.137000
11
-368.357000
21
301.137000
0
LINE
8
Layer 1
10
-368.357000
20
301.137000
11
-368.357000
21
302.943000
0
LINE
8
Layer 1
10
-368.357000
20
302.943000
11
-366.552000
21
302.943000
0
LINE
8
Layer 1
10
-366.552000
20
302.943000
11
-366.552000
21
304.749000
0
LINE
8
Layer 1
10
-366.552000
20
304.749000
11
-364.746000
21
304.749000
0
LINE
8
Layer 1
10
-364.746000
20
304.749000
11
-364.746000
21
302.943000
0
LINE
8
Layer 1
10
-364.746000
20
302.943000
11
-364.746000
21
301.137000
0
LINE
8
Layer 1
10
-364.746000
20
301.137000
11
-362.940000
21
301.137000
0
LINE
8
Layer 1
10
-362.940000
20
301.137000
11
-362.940000
21
302.943000
0
LINE
8
Layer 1
10
-362.940000
20
302.943000
11
-361.134000
21
302.943000
0
LINE
8
Layer 1
10
-361.134000
20
302.943000
11
-361.134000
21
301.137000
0
LINE
8
Layer 1
10
-361.134000
20
301.137000
11
-359.328000
21
301.137000
0
LINE
8
Layer 1
10
-359.328000
20
301.137000
11
-359.328000
21
299.331000
0
LINE
8
Layer 1
10
-359.328000
20
299.331000
11
-361.134000
21
299.331000
0
LINE
8
Layer 1
10
-361.134000
20
299.331000
11
-362.940000
21
299.331000
0
LINE
8
Layer 1
10
-362.940000
20
299.331000
11
-362.940000
21
297.525000
0
LINE
8
Layer 1
10
-362.940000
20
297.525000
11
-361.134000
21
297.525000
0
LINE
8
Layer 1
10
-361.134000
20
297.525000
11
-361.134000
21
295.719000
0
LINE
8
Layer 1
10
-361.134000
20
295.719000
11
-361.134000
21
293.913000
0
LINE
8
Layer 1
10
-361.134000
20
293.913000
11
-359.328000
21
293.913000
0
LINE
8
Layer 1
10
-359.328000
20
293.913000
11
-359.328000
21
292.108000
0
LINE
8
Layer 1
10
-359.328000
20
292.108000
11
-361.134000
21
292.108000
0
LINE
8
Layer 1
10
-361.134000
20
292.108000
11
-362.940000
21
292.108000
0
LINE
8
Layer 1
10
-362.940000
20
292.108000
11
-362.940000
21
290.302000
0
LINE
8
Layer 1
10
-362.940000
20
290.302000
11
-361.134000
21
290.302000
0
LINE
8
Layer 1
10
-361.134000
20
290.302000
11
-361.134000
21
288.496000
0
LINE
8
Layer 1
10
-361.134000
20
288.496000
11
-359.328000
21
288.496000
0
LINE
8
Layer 1
10
-359.328000
20
288.496000
11
-359.328000
21
290.302000
0
LINE
8
Layer 1
10
-359.328000
20
290.302000
11
-357.522000
21
290.302000
0
LINE
8
Layer 1
10
-357.522000
20
290.302000
11
-357.522000
21
288.496000
0
LINE
8
Layer 1
10
-357.522000
20
288.496000
11
-357.522000
21
286.690000
0
LINE
8
Layer 1
10
-357.522000
20
286.690000
11
-355.716000
21
286.690000
0
LINE
8
Layer 1
10
-355.716000
20
286.690000
11
-355.716000
21
288.496000
0
LINE
8
Layer 1
10
-355.716000
20
288.496000
11
-353.911000
21
288.496000
0
LINE
8
Layer 1
10
-353.911000
20
288.496000
11
-353.911000
21
290.302000
0
LINE
8
Layer 1
10
-353.911000
20
290.302000
11
-355.716000
21
290.302000
0
LINE
8
Layer 1
10
-355.716000
20
290.302000
11
-355.716000
21
292.108000
0
LINE
8
Layer 1
10
-355.716000
20
292.108000
11
-353.911000
21
292.108000
0
LINE
8
Layer 1
10
-353.911000
20
292.108000
11
-352.105000
21
292.108000
0
LINE
8
Layer 1
10
-352.105000
20
292.108000
11
-352.105000
21
293.913000
0
LINE
8
Layer 1
10
-352.105000
20
293.913000
11
-353.911000
21
293.913000
0
LINE
8
Layer 1
10
-353.911000
20
293.913000
11
-353.911000
21
295.719000
0
LINE
8
Layer 1
10
-353.911000
20
295.719000
11
-352.105000
21
295.719000
0
LINE
8
Layer 1
10
-352.105000
20
295.719000
11
-352.105000
21
297.525000
0
LINE
8
Layer 1
10
-352.105000
20
297.525000
11
-350.299000
21
297.525000
0
LINE
8
Layer 1
10
-350.299000
20
297.525000
11
-350.299000
21
295.719000
0
LINE
8
Layer 1
10
-350.299000
20
295.719000
11
-350.299000
21
293.913000
0
LINE
8
Layer 1
10
-350.299000
20
293.913000
11
-348.493000
21
293.913000
0
LINE
8
Layer 1
10
-348.493000
20
293.913000
11
-348.493000
21
295.719000
0
LINE
8
Layer 1
10
-348.493000
20
295.719000
11
-346.687000
21
295.719000
0
LINE
8
Layer 1
10
-346.687000
20
295.719000
11
-346.687000
21
293.913000
0
LINE
8
Layer 1
10
-346.687000
20
293.913000
11
-344.881000
21
293.913000
0
LINE
8
Layer 1
10
-344.881000
20
293.913000
11
-344.881000
21
292.108000
0
LINE
8
Layer 1
10
-344.881000
20
292.108000
11
-346.687000
21
292.108000
0
LINE
8
Layer 1
10
-346.687000
20
292.108000
11
-348.493000
21
292.108000
0
LINE
8
Layer 1
10
-348.493000
20
292.108000
11
-348.493000
21
290.302000
0
LINE
8
Layer 1
10
-348.493000
20
290.302000
11
-346.687000
21
290.302000
0
LINE
8
Layer 1
10
-346.687000
20
290.302000
11
-346.687000
21
288.496000
0
LINE
8
Layer 1
10
-346.687000
20
288.496000
11
-344.881000
21
288.496000
0
LINE
8
Layer 1
10
-344.881000
20
288.496000
11
-344.881000
21
290.302000
0
LINE
8
Layer 1
10
-344.881000
20
290.302000
11
-343.075000
21
290.302000
0
LINE
8
Layer 1
10
-343.075000
20
290.302000
11
-343.075000
21
288.496000
0
LINE
8
Layer 1
10
-343.075000
20
288.496000
11
-343.075000
21
286.690000
0
LINE
8
Layer 1
10
-343.075000
20
286.690000
11
-341.269000
21
286.690000
0
LINE
8
Layer 1
10
-341.269000
20
286.690000
11
-341.269000
21
288.496000
0
LINE
8
Layer 1
10
-341.269000
20
288.496000
11
-339.464000
21
288.496000
0
LINE
8
Layer 1
10
-339.464000
20
288.496000
11
-339.464000
21
286.690000
0
LINE
8
Layer 1
10
-339.464000
20
286.690000
11
-337.658000
21
286.690000
0
LINE
8
Layer 1
10
-337.658000
20
286.690000
11
-337.658000
21
284.884000
0
LINE
8
Layer 1
10
-337.658000
20
284.884000
11
-339.464000
21
284.884000
0
LINE
8
Layer 1
10
-339.464000
20
284.884000
11
-341.269000
21
284.884000
0
LINE
8
Layer 1
10
-341.269000
20
284.884000
11
-341.269000
21
283.078000
0
LINE
8
Layer 1
10
-341.269000
20
283.078000
11
-339.464000
21
283.078000
0
LINE
8
Layer 1
10
-339.464000
20
283.078000
11
-339.464000
21
281.272000
0
LINE
8
Layer 1
10
-339.464000
20
281.272000
11
-341.269000
21
281.272000
0
LINE
8
Layer 1
10
-341.269000
20
281.272000
11
-341.269000
21
279.467000
0
LINE
8
Layer 1
10
-341.269000
20
279.467000
11
-343.075000
21
279.467000
0
LINE
8
Layer 1
10
-343.075000
20
279.467000
11
-343.075000
21
281.272000
0
LINE
8
Layer 1
10
-343.075000
20
281.272000
11
-343.075000
21
283.078000
0
LINE
8
Layer 1
10
-343.075000
20
283.078000
11
-344.881000
21
283.078000
0
LINE
8
Layer 1
10
-344.881000
20
283.078000
11
-344.881000
21
281.272000
0
LINE
8
Layer 1
10
-344.881000
20
281.272000
11
-346.687000
21
281.272000
0
LINE
8
Layer 1
10
-346.687000
20
281.272000
11
-348.493000
21
281.272000
0
LINE
8
Layer 1
10
-348.493000
20
281.272000
11
-348.493000
21
279.467000
0
LINE
8
Layer 1
10
-348.493000
20
279.467000
11
-350.299000
21
279.467000
0
LINE
8
Layer 1
10
-350.299000
20
279.467000
11
-350.299000
21
281.272000
0
LINE
8
Layer 1
10
-350.299000
20
281.272000
11
-350.299000
21
283.078000
0
LINE
8
Layer 1
10
-350.299000
20
283.078000
11
-352.105000
21
283.078000
0
LINE
8
Layer 1
10
-352.105000
20
283.078000
11
-352.105000
21
281.272000
0
LINE
8
Layer 1
10
-352.105000
20
281.272000
11
-353.911000
21
281.272000
0
LINE
8
Layer 1
10
-353.911000
20
281.272000
11
-353.911000
21
279.467000
0
LINE
8
Layer 1
10
-353.911000
20
279.467000
11
-352.105000
21
279.467000
0
LINE
8
Layer 1
10
-352.105000
20
279.467000
11
-352.105000
21
277.661000
0
LINE
8
Layer 1
10
-352.105000
20
277.661000
11
-353.911000
21
277.661000
0
LINE
8
Layer 1
10
-353.911000
20
277.661000
11
-355.716000
21
277.661000
0
LINE
8
Layer 1
10
-355.716000
20
277.661000
11
-355.716000
21
275.855000
0
LINE
8
Layer 1
10
-355.716000
20
275.855000
11
-353.911000
21
275.855000
0
LINE
8
Layer 1
10
-353.911000
20
275.855000
11
-353.911000
21
274.049000
0
LINE
8
Layer 1
10
-353.911000
20
274.049000
11
-352.105000
21
274.049000
0
LINE
8
Layer 1
10
-352.105000
20
274.049000
11
-352.105000
21
275.855000
0
LINE
8
Layer 1
10
-352.105000
20
275.855000
11
-350.299000
21
275.855000
0
LINE
8
Layer 1
10
-350.299000
20
275.855000
11
-350.299000
21
274.049000
0
LINE
8
Layer 1
10
-350.299000
20
274.049000
11
-350.299000
21
272.243000
0
LINE
8
Layer 1
10
-350.299000
20
272.243000
11
-348.493000
21
272.243000
0
LINE
8
Layer 1
10
-348.493000
20
272.243000
11
-348.493000
21
274.049000
0
LINE
8
Layer 1
10
-348.493000
20
274.049000
11
-346.687000
21
274.049000
0
LINE
8
Layer 1
10
-346.687000
20
274.049000
11
-346.687000
21
272.243000
0
LINE
8
Layer 1
10
-346.687000
20
272.243000
11
-344.881000
21
272.243000
0
LINE
8
Layer 1
10
-344.881000
20
272.243000
11
-344.881000
21
270.437000
0
LINE
8
Layer 1
10
-344.881000
20
270.437000
11
-346.687000
21
270.437000
0
LINE
8
Layer 1
10
-346.687000
20
270.437000
11
-348.493000
21
270.437000
0
LINE
8
Layer 1
10
-348.493000
20
270.437000
11
-348.493000
21
268.631000
0
LINE
8
Layer 1
10
-348.493000
20
268.631000
11
-346.687000
21
268.631000
0
LINE
8
Layer 1
10
-346.687000
20
268.631000
11
-346.687000
21
266.825000
0
LINE
8
Layer 1
10
-346.687000
20
266.825000
11
-346.687000
21
265.020000
0
LINE
8
Layer 1
10
-346.687000
20
265.020000
11
-344.881000
21
265.020000
0
LINE
8
Layer 1
10
-344.881000
20
265.020000
11
-344.881000
21
263.214000
0
LINE
8
Layer 1
10
-344.881000
20
263.214000
11
-346.687000
21
263.214000
0
LINE
8
Layer 1
10
-346.687000
20
263.214000
11
-348.493000
21
263.214000
0
LINE
8
Layer 1
10
-348.493000
20
263.214000
11
-348.493000
21
261.408000
0
LINE
8
Layer 1
10
-348.493000
20
261.408000
11
-346.687000
21
261.408000
0
LINE
8
Layer 1
10
-346.687000
20
261.408000
11
-346.687000
21
259.602000
0
LINE
8
Layer 1
10
-346.687000
20
259.602000
11
-344.881000
21
259.602000
0
LINE
8
Layer 1
10
-344.881000
20
259.602000
11
-344.881000
21
261.408000
0
LINE
8
Layer 1
10
-344.881000
20
261.408000
11
-343.075000
21
261.408000
0
LINE
8
Layer 1
10
-343.075000
20
261.408000
11
-343.075000
21
259.602000
0
LINE
8
Layer 1
10
-343.075000
20
259.602000
11
-343.075000
21
257.796000
0
LINE
8
Layer 1
10
-343.075000
20
257.796000
11
-341.269000
21
257.796000
0
LINE
8
Layer 1
10
-341.269000
20
257.796000
11
-341.269000
21
259.602000
0
LINE
8
Layer 1
10
-341.269000
20
259.602000
11
-339.464000
21
259.602000
0
LINE
8
Layer 1
10
-339.464000
20
259.602000
11
-339.464000
21
257.796000
0
LINE
8
Layer 1
10
-339.464000
20
257.796000
11
-337.658000
21
257.796000
0
LINE
8
Layer 1
10
-337.658000
20
257.796000
11
-337.658000
21
255.990000
0
LINE
8
Layer 1
10
-337.658000
20
255.990000
11
-339.464000
21
255.990000
0
LINE
8
Layer 1
10
-339.464000
20
255.990000
11
-341.269000
21
255.990000
0
LINE
8
Layer 1
10
-341.269000
20
255.990000
11
-341.269000
21
254.184000
0
LINE
8
Layer 1
10
-341.269000
20
254.184000
11
-339.464000
21
254.184000
0
LINE
8
Layer 1
10
-339.464000
20
254.184000
11
-339.464000
21
252.379000
0
LINE
8
Layer 1
10
-339.464000
20
252.379000
11
-341.269000
21
252.379000
0
LINE
8
Layer 1
10
-341.269000
20
252.379000
11
-341.269000
21
250.573000
0
LINE
8
Layer 1
10
-341.269000
20
250.573000
11
-343.075000
21
250.573000
0
LINE
8
Layer 1
10
-343.075000
20
250.573000
11
-343.075000
21
252.379000
0
LINE
8
Layer 1
10
-343.075000
20
252.379000
11
-343.075000
21
254.184000
0
LINE
8
Layer 1
10
-343.075000
20
254.184000
11
-344.881000
21
254.184000
0
LINE
8
Layer 1
10
-344.881000
20
254.184000
11
-344.881000
21
252.379000
0
LINE
8
Layer 1
10
-344.881000
20
252.379000
11
-346.687000
21
252.379000
0
LINE
8
Layer 1
10
-346.687000
20
252.379000
11
-348.493000
21
252.379000
0
LINE
8
Layer 1
10
-348.493000
20
252.379000
11
-348.493000
21
250.573000
0
LINE
8
Layer 1
10
-348.493000
20
250.573000
11
-350.299000
21
250.573000
0
LINE
8
Layer 1
10
-350.299000
20
250.573000
11
-350.299000
21
252.379000
0
LINE
8
Layer 1
10
-350.299000
20
252.379000
11
-350.299000
21
254.184000
0
LINE
8
Layer 1
10
-350.299000
20
254.184000
11
-352.105000
21
254.184000
0
LINE
8
Layer 1
10
-352.105000
20
254.184000
11
-352.105000
21
252.379000
0
LINE
8
Layer 1
10
-352.105000
20
252.379000
11
-353.911000
21
252.379000
0
LINE
8
Layer 1
10
-353.911000
20
252.379000
11
-353.911000
21
250.573000
0
LINE
8
Layer 1
10
-353.911000
20
250.573000
11
-352.105000
21
250.573000
0
LINE
8
Layer 1
10
-352.105000
20
250.573000
11
-352.105000
21
248.767000
0
LINE
8
Layer 1
10
-352.105000
20
248.767000
11
-353.911000
21
248.767000
0
LINE
8
Layer 1
10
-353.911000
20
248.767000
11
-355.716000
21
248.767000
0
LINE
8
Layer 1
10
-355.716000
20
248.767000
11
-355.716000
21
246.961000
0
LINE
8
Layer 1
10
-355.716000
20
246.961000
11
-353.911000
21
246.961000
0
LINE
8
Layer 1
10
-353.911000
20
246.961000
11
-353.911000
21
245.155000
0
LINE
8
Layer 1
10
-353.911000
20
245.155000
11
-352.105000
21
245.155000
0
LINE
8
Layer 1
10
-352.105000
20
245.155000
11
-352.105000
21
246.961000
0
LINE
8
Layer 1
10
-352.105000
20
246.961000
11
-350.299000
21
246.961000
0
LINE
8
Layer 1
10
-350.299000
20
246.961000
11
-350.299000
21
245.155000
0
LINE
8
Layer 1
10
-350.299000
20
245.155000
11
-350.299000
21
243.349000
0
LINE
8
Layer 1
10
-350.299000
20
243.349000
11
-348.493000
21
243.349000
0
LINE
8
Layer 1
10
-348.493000
20
243.349000
11
-348.493000
21
245.155000
0
LINE
8
Layer 1
10
-348.493000
20
245.155000
11
-346.687000
21
245.155000
0
LINE
8
Layer 1
10
-346.687000
20
245.155000
11
-346.687000
21
243.349000
0
LINE
8
Layer 1
10
-346.687000
20
243.349000
11
-344.881000
21
243.349000
0
LINE
8
Layer 1
10
-344.881000
20
243.349000
11
-344.881000
21
241.543000
0
LINE
8
Layer 1
10
-344.881000
20
241.543000
11
-346.687000
21
241.543000
0
LINE
8
Layer 1
10
-346.687000
20
241.543000
11
-348.493000
21
241.543000
0
LINE
8
Layer 1
10
-348.493000
20
241.543000
11
-348.493000
21
239.737000
0
LINE
8
Layer 1
10
-348.493000
20
239.737000
11
-346.687000
21
239.737000
0
LINE
8
Layer 1
10
-346.687000
20
239.737000
11
-346.687000
21
237.932000
0
LINE
8
Layer 1
10
-346.687000
20
237.932000
11
-344.881000
21
237.932000
0
LINE
8
Layer 1
10
-344.881000
20
237.932000
11
-344.881000
21
239.737000
0
LINE
8
Layer 1
10
-344.881000
20
239.737000
11
-343.075000
21
239.737000
0
LINE
8
Layer 1
10
-343.075000
20
239.737000
11
-343.075000
21
237.932000
0
LINE
8
Layer 1
10
-343.075000
20
237.932000
11
-343.075000
21
236.126000
0
LINE
8
Layer 1
10
-343.075000
20
236.126000
11
-341.269000
21
236.126000
0
LINE
8
Layer 1
10
-341.269000
20
236.126000
11
-341.269000
21
237.932000
0
LINE
8
Layer 1
10
-341.269000
20
237.932000
11
-339.464000
21
237.932000
0
LINE
8
Layer 1
10
-339.464000
20
237.932000
11
-339.464000
21
239.737000
0
LINE
8
Layer 1
10
-339.464000
20
239.737000
11
-341.269000
21
239.737000
0
LINE
8
Layer 1
10
-341.269000
20
239.737000
11
-341.269000
21
241.543000
0
LINE
8
Layer 1
10
-341.269000
20
241.543000
11
-339.464000
21
241.543000
0
LINE
8
Layer 1
10
-339.464000
20
241.543000
11
-337.658000
21
241.543000
0
LINE
8
Layer 1
10
-337.658000
20
241.543000
11
-337.658000
21
243.349000
0
LINE
8
Layer 1
10
-337.658000
20
243.349000
11
-339.464000
21
243.349000
0
LINE
8
Layer 1
10
-339.464000
20
243.349000
11
-339.464000
21
245.155000
0
LINE
8
Layer 1
10
-339.464000
20
245.155000
11
-337.658000
21
245.155000
0
LINE
8
Layer 1
10
-337.658000
20
245.155000
11
-337.658000
21
246.961000
0
LINE
8
Layer 1
10
-337.658000
20
246.961000
11
-335.852000
21
246.961000
0
LINE
8
Layer 1
10
-335.852000
20
246.961000
11
-335.852000
21
245.155000
0
LINE
8
Layer 1
10
-335.852000
20
245.155000
11
-335.852000
21
243.349000
0
LINE
8
Layer 1
10
-335.852000
20
243.349000
11
-334.046000
21
243.349000
0
LINE
8
Layer 1
10
-334.046000
20
243.349000
11
-334.046000
21
245.155000
0
LINE
8
Layer 1
10
-334.046000
20
245.155000
11
-332.240000
21
245.155000
0
LINE
8
Layer 1
10
-332.240000
20
245.155000
11
-332.240000
21
243.349000
0
LINE
8
Layer 1
10
-332.240000
20
243.349000
11
-330.434000
21
243.349000
0
LINE
8
Layer 1
10
-330.434000
20
243.349000
11
-330.434000
21
241.543000
0
LINE
8
Layer 1
10
-330.434000
20
241.543000
11
-332.240000
21
241.543000
0
LINE
8
Layer 1
10
-332.240000
20
241.543000
11
-334.046000
21
241.543000
0
LINE
8
Layer 1
10
-334.046000
20
241.543000
11
-334.046000
21
239.737000
0
LINE
8
Layer 1
10
-334.046000
20
239.737000
11
-332.240000
21
239.737000
0
LINE
8
Layer 1
10
-332.240000
20
239.737000
11
-332.240000
21
237.932000
0
LINE
8
Layer 1
10
-332.240000
20
237.932000
11
-332.240000
21
236.126000
0
LINE
8
Layer 1
10
-332.240000
20
236.126000
11
-330.434000
21
236.126000
0
LINE
8
Layer 1
10
-330.434000
20
236.126000
11
-330.434000
21
234.320000
0
LINE
8
Layer 1
10
-330.434000
20
234.320000
11
-332.240000
21
234.320000
0
LINE
8
Layer 1
10
-332.240000
20
234.320000
11
-334.046000
21
234.320000
0
LINE
8
Layer 1
10
-334.046000
20
234.320000
11
-334.046000
21
232.514000
0
LINE
8
Layer 1
10
-334.046000
20
232.514000
11
-332.240000
21
232.514000
0
LINE
8
Layer 1
10
-332.240000
20
232.514000
11
-332.240000
21
230.708000
0
LINE
8
Layer 1
10
-332.240000
20
230.708000
11
-330.434000
21
230.708000
0
LINE
8
Layer 1
10
-330.434000
20
230.708000
11
-330.434000
21
232.514000
0
LINE
8
Layer 1
10
-330.434000
20
232.514000
11
-328.628000
21
232.514000
0
LINE
8
Layer 1
10
-328.628000
20
232.514000
11
-328.628000
21
230.708000
0
LINE
8
Layer 1
10
-328.628000
20
230.708000
11
-328.628000
21
228.902000
0
LINE
8
Layer 1
10
-328.628000
20
228.902000
11
-326.823000
21
228.902000
0
LINE
8
Layer 1
10
-326.823000
20
228.902000
11
-326.823000
21
230.708000
0
LINE
8
Layer 1
10
-326.823000
20
230.708000
11
-325.017000
21
230.708000
0
LINE
8
Layer 1
10
-325.017000
20
230.708000
11
-325.017000
21
232.514000
0
LINE
8
Layer 1
10
-325.017000
20
232.514000
11
-326.823000
21
232.514000
0
LINE
8
Layer 1
10
-326.823000
20
232.514000
11
-326.823000
21
234.320000
0
LINE
8
Layer 1
10
-326.823000
20
234.320000
11
-325.017000
21
234.320000
0
LINE
8
Layer 1
10
-325.017000
20
234.320000
11
-323.211000
21
234.320000
0
LINE
8
Layer 1
10
-323.211000
20
234.320000
11
-323.211000
21
236.126000
0
LINE
8
Layer 1
10
-323.211000
20
236.126000
11
-325.017000
21
236.126000
0
LINE
8
Layer 1
10
-325.017000
20
236.126000
11
-325.017000
21
237.932000
0
LINE
8
Layer 1
10
-325.017000
20
237.932000
11
-323.211000
21
237.932000
0
LINE
8
Layer 1
10
-323.211000
20
237.932000
11
-323.211000
21
239.737000
0
LINE
8
Layer 1
10
-323.211000
20
239.737000
11
-321.405000
21
239.737000
0
LINE
8
Layer 1
10
-321.405000
20
239.737000
11
-321.405000
21
237.932000
0
LINE
8
Layer 1
10
-321.405000
20
237.932000
11
-321.405000
21
236.126000
0
LINE
8
Layer 1
10
-321.405000
20
236.126000
11
-319.599000
21
236.126000
0
LINE
8
Layer 1
10
-319.599000
20
236.126000
11
-319.599000
21
237.932000
0
LINE
8
Layer 1
10
-319.599000
20
237.932000
11
-317.793000
21
237.932000
0
LINE
8
Layer 1
10
-317.793000
20
237.932000
11
-317.793000
21
239.737000
0
LINE
8
Layer 1
10
-317.793000
20
239.737000
11
-319.599000
21
239.737000
0
LINE
8
Layer 1
10
-319.599000
20
239.737000
11
-319.599000
21
241.543000
0
LINE
8
Layer 1
10
-319.599000
20
241.543000
11
-317.793000
21
241.543000
0
LINE
8
Layer 1
10
-317.793000
20
241.543000
11
-315.987000
21
241.543000
0
LINE
8
Layer 1
10
-315.987000
20
241.543000
11
-315.987000
21
243.349000
0
LINE
8
Layer 1
10
-315.987000
20
243.349000
11
-317.793000
21
243.349000
0
LINE
8
Layer 1
10
-317.793000
20
243.349000
11
-317.793000
21
245.155000
0
LINE
8
Layer 1
10
-317.793000
20
245.155000
11
-319.599000
21
245.155000
0
LINE
8
Layer 1
10
-319.599000
20
245.155000
11
-319.599000
21
243.349000
0
LINE
8
Layer 1
10
-319.599000
20
243.349000
11
-321.405000
21
243.349000
0
LINE
8
Layer 1
10
-321.405000
20
243.349000
11
-321.405000
21
245.155000
0
LINE
8
Layer 1
10
-321.405000
20
245.155000
11
-321.405000
21
246.961000
0
LINE
8
Layer 1
10
-321.405000
20
246.961000
11
-323.211000
21
246.961000
0
LINE
8
Layer 1
10
-323.211000
20
246.961000
11
-323.211000
21
245.155000
0
LINE
8
Layer 1
10
-323.211000
20
245.155000
11
-325.017000
21
245.155000
0
LINE
8
Layer 1
10
-325.017000
20
245.155000
11
-325.017000
21
246.961000
0
LINE
8
Layer 1
10
-325.017000
20
246.961000
11
-326.823000
21
246.961000
0
LINE
8
Layer 1
10
-326.823000
20
246.961000
11
-326.823000
21
248.767000
0
LINE
8
Layer 1
10
-326.823000
20
248.767000
11
-325.017000
21
248.767000
0
LINE
8
Layer 1
10
-325.017000
20
248.767000
11
-323.211000
21
248.767000
0
LINE
8
Layer 1
10
-323.211000
20
248.767000
11
-323.211000
21
250.573000
0
LINE
8
Layer 1
10
-323.211000
20
250.573000
11
-325.017000
21
250.573000
0
LINE
8
Layer 1
10
-325.017000
20
250.573000
11
-325.017000
21
252.379000
0
LINE
8
Layer 1
10
-325.017000
20
252.379000
11
-323.211000
21
252.379000
0
LINE
8
Layer 1
10
-323.211000
20
252.379000
11
-323.211000
21
254.184000
0
LINE
8
Layer 1
10
-323.211000
20
254.184000
11
-321.405000
21
254.184000
0
LINE
8
Layer 1
10
-321.405000
20
254.184000
11
-321.405000
21
252.379000
0
LINE
8
Layer 1
10
-321.405000
20
252.379000
11
-321.405000
21
250.573000
0
LINE
8
Layer 1
10
-321.405000
20
250.573000
11
-319.599000
21
250.573000
0
LINE
8
Layer 1
10
-319.599000
20
250.573000
11
-319.599000
21
252.379000
0
LINE
8
Layer 1
10
-319.599000
20
252.379000
11
-317.793000
21
252.379000
0
LINE
8
Layer 1
10
-317.793000
20
252.379000
11
-315.987000
21
252.379000
0
LINE
8
Layer 1
10
-315.987000
20
252.379000
11
-315.987000
21
254.184000
0
LINE
8
Layer 1
10
-315.987000
20
254.184000
11
-314.181000
21
254.184000
0
LINE
8
Layer 1
10
-314.181000
20
254.184000
11
-314.181000
21
252.379000
0
LINE
8
Layer 1
10
-314.181000
20
252.379000
11
-314.181000
21
250.573000
0
LINE
8
Layer 1
10
-314.181000
20
250.573000
11
-312.376000
21
250.573000
0
LINE
8
Layer 1
10
-312.376000
20
250.573000
11
-312.376000
21
252.379000
0
LINE
8
Layer 1
10
-312.376000
20
252.379000
11
-310.570000
21
252.379000
0
LINE
8
Layer 1
10
-310.570000
20
252.379000
11
-310.570000
21
254.184000
0
LINE
8
Layer 1
10
-310.570000
20
254.184000
11
-312.376000
21
254.184000
0
LINE
8
Layer 1
10
-312.376000
20
254.184000
11
-312.376000
21
255.990000
0
LINE
8
Layer 1
10
-312.376000
20
255.990000
11
-310.570000
21
255.990000
0
LINE
8
Layer 1
10
-310.570000
20
255.990000
11
-308.764000
21
255.990000
0
LINE
8
Layer 1
10
-308.764000
20
255.990000
11
-308.764000
21
257.796000
0
LINE
8
Layer 1
10
-308.764000
20
257.796000
11
-310.570000
21
257.796000
0
LINE
8
Layer 1
10
-310.570000
20
257.796000
11
-310.570000
21
259.602000
0
LINE
8
Layer 1
10
-310.570000
20
259.602000
11
-312.376000
21
259.602000
0
LINE
8
Layer 1
10
-312.376000
20
259.602000
11
-312.376000
21
257.796000
0
LINE
8
Layer 1
10
-312.376000
20
257.796000
11
-314.181000
21
257.796000
0
LINE
8
Layer 1
10
-314.181000
20
257.796000
11
-314.181000
21
259.602000
0
LINE
8
Layer 1
10
-314.181000
20
259.602000
11
-314.181000
21
261.408000
0
LINE
8
Layer 1
10
-314.181000
20
261.408000
11
-315.987000
21
261.408000
0
LINE
8
Layer 1
10
-315.987000
20
261.408000
11
-315.987000
21
259.602000
0
LINE
8
Layer 1
10
-315.987000
20
259.602000
11
-317.793000
21
259.602000
0
LINE
8
Layer 1
10
-317.793000
20
259.602000
11
-317.793000
21
261.408000
0
LINE
8
Layer 1
10
-317.793000
20
261.408000
11
-319.599000
21
261.408000
0
LINE
8
Layer 1
10
-319.599000
20
261.408000
11
-319.599000
21
263.214000
0
LINE
8
Layer 1
10
-319.599000
20
263.214000
11
-317.793000
21
263.214000
0
LINE
8
Layer 1
10
-317.793000
20
263.214000
11
-315.987000
21
263.214000
0
LINE
8
Layer 1
10
-315.987000
20
263.214000
11
-315.987000
21
265.020000
0
LINE
8
Layer 1
10
-315.987000
20
265.020000
11
-317.793000
21
265.020000
0
LINE
8
Layer 1
10
-317.793000
20
265.020000
11
-317.793000
21
266.825000
0
LINE
8
Layer 1
10
-317.793000
20
266.825000
11
-315.987000
21
266.825000
0
LINE
8
Layer 1
10
-315.987000
20
266.825000
11
-315.987000
21
268.631000
0
LINE
8
Layer 1
10
-315.987000
20
268.631000
11
-314.181000
21
268.631000
0
LINE
8
Layer 1
10
-314.181000
20
268.631000
11
-314.181000
21
266.825000
0
LINE
8
Layer 1
10
-314.181000
20
266.825000
11
-314.181000
21
265.020000
0
LINE
8
Layer 1
10
-314.181000
20
265.020000
11
-312.376000
21
265.020000
0
LINE
8
Layer 1
10
-312.376000
20
265.020000
11
-312.376000
21
266.825000
0
LINE
8
Layer 1
10
-312.376000
20
266.825000
11
-310.570000
21
266.825000
0
LINE
8
Layer 1
10
-310.570000
20
266.825000
11
-310.570000
21
268.631000
0
LINE
8
Layer 1
10
-310.570000
20
268.631000
11
-312.376000
21
268.631000
0
LINE
8
Layer 1
10
-312.376000
20
268.631000
11
-312.376000
21
270.437000
0
LINE
8
Layer 1
10
-312.376000
20
270.437000
11
-310.570000
21
270.437000
0
LINE
8
Layer 1
10
-310.570000
20
270.437000
11
-308.764000
21
270.437000
0
LINE
8
Layer 1
10
-308.764000
20
270.437000
11
-308.764000
21
272.243000
0
LINE
8
Layer 1
10
-308.764000
20
272.243000
11
-310.570000
21
272.243000
0
LINE
8
Layer 1
10
-310.570000
20
272.243000
11
-310.570000
21
274.049000
0
LINE
8
Layer 1
10
-310.570000
20
274.049000
11
-308.764000
21
274.049000
0
LINE
8
Layer 1
10
-308.764000
20
274.049000
11
-308.764000
21
275.855000
0
LINE
8
Layer 1
10
-308.764000
20
275.855000
11
-306.958000
21
275.855000
0
LINE
8
Layer 1
10
-306.958000
20
275.855000
11
-306.958000
21
274.049000
0
LINE
8
Layer 1
10
-306.958000
20
274.049000
11
-306.958000
21
272.243000
0
LINE
8
Layer 1
10
-306.958000
20
272.243000
11
-305.152000
21
272.243000
0
LINE
8
Layer 1
10
-305.152000
20
272.243000
11
-305.152000
21
274.049000
0
LINE
8
Layer 1
10
-305.152000
20
274.049000
11
-303.346000
21
274.049000
0
LINE
8
Layer 1
10
-303.346000
20
274.049000
11
-303.346000
21
272.243000
0
LINE
8
Layer 1
10
-303.346000
20
272.243000
11
-301.540000
21
272.243000
0
LINE
8
Layer 1
10
-301.540000
20
272.243000
11
-301.540000
21
270.437000
0
LINE
8
Layer 1
10
-301.540000
20
270.437000
11
-303.346000
21
270.437000
0
LINE
8
Layer 1
10
-303.346000
20
270.437000
11
-305.152000
21
270.437000
0
LINE
8
Layer 1
10
-305.152000
20
270.437000
11
-305.152000
21
268.631000
0
LINE
8
Layer 1
10
-305.152000
20
268.631000
11
-303.346000
21
268.631000
0
LINE
8
Layer 1
10
-303.346000
20
268.631000
11
-303.346000
21
266.825000
0
LINE
8
Layer 1
10
-303.346000
20
266.825000
11
-303.346000
21
265.020000
0
LINE
8
Layer 1
10
-303.346000
20
265.020000
11
-301.540000
21
265.020000
0
LINE
8
Layer 1
10
-301.540000
20
265.020000
11
-301.540000
21
263.214000
0
LINE
8
Layer 1
10
-301.540000
20
263.214000
11
-303.346000
21
263.214000
0
LINE
8
Layer 1
10
-303.346000
20
263.214000
11
-305.152000
21
263.214000
0
LINE
8
Layer 1
10
-305.152000
20
263.214000
11
-305.152000
21
261.408000
0
LINE
8
Layer 1
10
-305.152000
20
261.408000
11
-303.346000
21
261.408000
0
LINE
8
Layer 1
10
-303.346000
20
261.408000
11
-303.346000
21
259.602000
0
LINE
8
Layer 1
10
-303.346000
20
259.602000
11
-301.540000
21
259.602000
0
LINE
8
Layer 1
10
-301.540000
20
259.602000
11
-301.540000
21
261.408000
0
LINE
8
Layer 1
10
-301.540000
20
261.408000
11
-299.734000
21
261.408000
0
LINE
8
Layer 1
10
-299.734000
20
261.408000
11
-299.734000
21
259.602000
0
LINE
8
Layer 1
10
-299.734000
20
259.602000
11
-299.734000
21
257.796000
0
LINE
8
Layer 1
10
-299.734000
20
257.796000
11
-297.929000
21
257.796000
0
LINE
8
Layer 1
10
-297.929000
20
257.796000
11
-297.929000
21
259.602000
0
LINE
8
Layer 1
10
-297.929000
20
259.602000
11
-296.123000
21
259.602000
0
LINE
8
Layer 1
10
-296.123000
20
259.602000
11
-296.123000
21
261.408000
0
LINE
8
Layer 1
10
-296.123000
20
261.408000
11
-297.929000
21
261.408000
0
LINE
8
Layer 1
10
-297.929000
20
261.408000
11
-297.929000
21
263.214000
0
LINE
8
Layer 1
10
-297.929000
20
263.214000
11
-296.123000
21
263.214000
0
LINE
8
Layer 1
10
-296.123000
20
263.214000
11
-294.317000
21
263.214000
0
LINE
8
Layer 1
10
-294.317000
20
263.214000
11
-294.317000
21
265.020000
0
LINE
8
Layer 1
10
-294.317000
20
265.020000
11
-296.123000
21
265.020000
0
LINE
8
Layer 1
10
-296.123000
20
265.020000
11
-296.123000
21
266.825000
0
LINE
8
Layer 1
10
-296.123000
20
266.825000
11
-294.317000
21
266.825000
0
LINE
8
Layer 1
10
-294.317000
20
266.825000
11
-294.317000
21
268.631000
0
LINE
8
Layer 1
10
-294.317000
20
268.631000
11
-292.511000
21
268.631000
0
LINE
8
Layer 1
10
-292.511000
20
268.631000
11
-292.511000
21
266.825000
0
LINE
8
Layer 1
10
-292.511000
20
266.825000
11
-292.511000
21
265.020000
0
LINE
8
Layer 1
10
-292.511000
20
265.020000
11
-290.705000
21
265.020000
0
LINE
8
Layer 1
10
-290.705000
20
265.020000
11
-290.705000
21
266.825000
0
LINE
8
Layer 1
10
-290.705000
20
266.825000
11
-288.899000
21
266.825000
0
LINE
8
Layer 1
10
-288.899000
20
266.825000
11
-288.899000
21
265.020000
0
LINE
8
Layer 1
10
-288.899000
20
265.020000
11
-287.093000
21
265.020000
0
LINE
8
Layer 1
10
-287.093000
20
265.020000
11
-287.093000
21
263.214000
0
LINE
8
Layer 1
10
-287.093000
20
263.214000
11
-288.899000
21
263.214000
0
LINE
8
Layer 1
10
-288.899000
20
263.214000
11
-290.705000
21
263.214000
0
LINE
8
Layer 1
10
-290.705000
20
263.214000
11
-290.705000
21
261.408000
0
LINE
8
Layer 1
10
-290.705000
20
261.408000
11
-288.899000
21
261.408000
0
LINE
8
Layer 1
10
-288.899000
20
261.408000
11
-288.899000
21
259.602000
0
LINE
8
Layer 1
10
-288.899000
20
259.602000
11
-287.093000
21
259.602000
0
LINE
8
Layer 1
10
-287.093000
20
259.602000
11
-287.093000
21
261.408000
0
LINE
8
Layer 1
10
-287.093000
20
261.408000
11
-285.288000
21
261.408000
0
LINE
8
Layer 1
10
-285.288000
20
261.408000
11
-285.288000
21
259.602000
0
LINE
8
Layer 1
10
-285.288000
20
259.602000
11
-285.288000
21
257.796000
0
LINE
8
Layer 1
10
-285.288000
20
257.796000
11
-283.482000
21
257.796000
0
LINE
8
Layer 1
10
-283.482000
20
257.796000
11
-283.482000
21
259.602000
0
LINE
8
Layer 1
10
-283.482000
20
259.602000
11
-281.676000
21
259.602000
0
LINE
8
Layer 1
10
-281.676000
20
259.602000
11
-281.676000
21
257.796000
0
LINE
8
Layer 1
10
-281.676000
20
257.796000
11
-279.870000
21
257.796000
0
LINE
8
Layer 1
10
-279.870000
20
257.796000
11
-279.870000
21
255.990000
0
LINE
8
Layer 1
10
-279.870000
20
255.990000
11
-281.676000
21
255.990000
0
LINE
8
Layer 1
10
-281.676000
20
255.990000
11
-283.482000
21
255.990000
0
LINE
8
Layer 1
10
-283.482000
20
255.990000
11
-283.482000
21
254.184000
0
LINE
8
Layer 1
10
-283.482000
20
254.184000
11
-281.676000
21
254.184000
0
LINE
8
Layer 1
10
-281.676000
20
254.184000
11
-281.676000
21
252.379000
0
LINE
8
Layer 1
10
-281.676000
20
252.379000
11
-283.482000
21
252.379000
0
LINE
8
Layer 1
10
-283.482000
20
252.379000
11
-283.482000
21
250.573000
0
LINE
8
Layer 1
10
-283.482000
20
250.573000
11
-285.288000
21
250.573000
0
LINE
8
Layer 1
10
-285.288000
20
250.573000
11
-285.288000
21
252.379000
0
LINE
8
Layer 1
10
-285.288000
20
252.379000
11
-285.288000
21
254.184000
0
LINE
8
Layer 1
10
-285.288000
20
254.184000
11
-287.093000
21
254.184000
0
LINE
8
Layer 1
10
-287.093000
20
254.184000
11
-287.093000
21
252.379000
0
LINE
8
Layer 1
10
-287.093000
20
252.379000
11
-288.899000
21
252.379000
0
LINE
8
Layer 1
10
-288.899000
20
252.379000
11
-290.705000
21
252.379000
0
LINE
8
Layer 1
10
-290.705000
20
252.379000
11
-290.705000
21
250.573000
0
LINE
8
Layer 1
10
-290.705000
20
250.573000
11
-292.511000
21
250.573000
0
LINE
8
Layer 1
10
-292.511000
20
250.573000
11
-292.511000
21
252.379000
0
LINE
8
Layer 1
10
-292.511000
20
252.379000
11
-292.511000
21
254.184000
0
LINE
8
Layer 1
10
-292.511000
20
254.184000
11
-294.317000
21
254.184000
0
LINE
8
Layer 1
10
-294.317000
20
254.184000
11
-294.317000
21
252.379000
0
LINE
8
Layer 1
10
-294.317000
20
252.379000
11
-296.123000
21
252.379000
0
LINE
8
Layer 1
10
-296.123000
20
252.379000
11
-296.123000
21
250.573000
0
LINE
8
Layer 1
10
-296.123000
20
250.573000
11
-294.317000
21
250.573000
0
LINE
8
Layer 1
10
-294.317000
20
250.573000
11
-294.317000
21
248.767000
0
LINE
8
Layer 1
10
-294.317000
20
248.767000
11
-296.123000
21
248.767000
0
LINE
8
Layer 1
10
-296.123000
20
248.767000
11
-297.929000
21
248.767000
0
LINE
8
Layer 1
10
-297.929000
20
248.767000
11
-297.929000
21
246.961000
0
LINE
8
Layer 1
10
-297.929000
20
246.961000
11
-296.123000
21
246.961000
0
LINE
8
Layer 1
10
-296.123000
20
246.961000
11
-296.123000
21
245.155000
0
LINE
8
Layer 1
10
-296.123000
20
245.155000
11
-294.317000
21
245.155000
0
LINE
8
Layer 1
10
-294.317000
20
245.155000
11
-294.317000
21
246.961000
0
LINE
8
Layer 1
10
-294.317000
20
246.961000
11
-292.511000
21
246.961000
0
LINE
8
Layer 1
10
-292.511000
20
246.961000
11
-292.511000
21
245.155000
0
LINE
8
Layer 1
10
-292.511000
20
245.155000
11
-292.511000
21
243.349000
0
LINE
8
Layer 1
10
-292.511000
20
243.349000
11
-290.705000
21
243.349000
0
LINE
8
Layer 1
10
-290.705000
20
243.349000
11
-290.705000
21
245.155000
0
LINE
8
Layer 1
10
-290.705000
20
245.155000
11
-288.899000
21
245.155000
0
LINE
8
Layer 1
10
-288.899000
20
245.155000
11
-288.899000
21
243.349000
0
LINE
8
Layer 1
10
-288.899000
20
243.349000
11
-287.093000
21
243.349000
0
LINE
8
Layer 1
10
-287.093000
20
243.349000
11
-287.093000
21
241.543000
0
LINE
8
Layer 1
10
-287.093000
20
241.543000
11
-288.899000
21
241.543000
0
LINE
8
Layer 1
10
-288.899000
20
241.543000
11
-290.705000
21
241.543000
0
LINE
8
Layer 1
10
-290.705000
20
241.543000
11
-290.705000
21
239.737000
0
LINE
8
Layer 1
10
-290.705000
20
239.737000
11
-288.899000
21
239.737000
0
LINE
8
Layer 1
10
-288.899000
20
239.737000
11
-288.899000
21
237.932000
0
LINE
8
Layer 1
10
-288.899000
20
237.932000
11
-287.093000
21
237.932000
0
LINE
8
Layer 1
10
-287.093000
20
237.932000
11
-287.093000
21
239.737000
0
LINE
8
Layer 1
10
-287.093000
20
239.737000
11
-285.288000
21
239.737000
0
LINE
8
Layer 1
10
-285.288000
20
239.737000
11
-285.288000
21
237.932000
0
LINE
8
Layer 1
10
-285.288000
20
237.932000
11
-285.288000
21
236.126000
0
LINE
8
Layer 1
10
-285.288000
20
236.126000
11
-283.482000
21
236.126000
0
LINE
8
Layer 1
10
-283.482000
20
236.126000
11
-283.482000
21
237.932000
0
LINE
8
Layer 1
10
-283.482000
20
237.932000
11
-281.676000
21
237.932000
0
LINE
8
Layer 1
10
-281.676000
20
237.932000
11
-281.676000
21
239.737000
0
LINE
8
Layer 1
10
-281.676000
20
239.737000
11
-283.482000
21
239.737000
0
LINE
8
Layer 1
10
-283.482000
20
239.737000
11
-283.482000
21
241.543000
0
LINE
8
Layer 1
10
-283.482000
20
241.543000
11
-281.676000
21
241.543000
0
LINE
8
Layer 1
10
-281.676000
20
241.543000
11
-279.870000
21
241.543000
0
LINE
8
Layer 1
10
-279.870000
20
241.543000
11
-279.870000
21
243.349000
0
LINE
8
Layer 1
10
-279.870000
20
243.349000
11
-281.676000
21
243.349000
0
LINE
8
Layer 1
10
-281.676000
20
243.349000
11
-281.676000
21
245.155000
0
LINE
8
Layer 1
10
-281.676000
20
245.155000
11
-279.870000
21
245.155000
0
LINE
8
Layer 1
10
-279.870000
20
245.155000
11
-279.870000
21
246.961000
0
LINE
8
Layer 1
10
-279.870000
20
246.961000
11
-278.064000
21
246.961000
0
LINE
8
Layer 1
10
-278.064000
20
246.961000
11
-278.064000
21
245.155000
0
LINE
8
Layer 1
10
-278.064000
20
245.155000
11
-278.064000
21
243.349000
0
LINE
8
Layer 1
10
-278.064000
20
243.349000
11
-276.258000
21
243.349000
0
LINE
8
Layer 1
10
-276.258000
20
243.349000
11
-276.258000
21
245.155000
0
LINE
8
Layer 1
10
-276.258000
20
245.155000
11
-274.452000
21
245.155000
0
LINE
8
Layer 1
10
-274.452000
20
245.155000
11
-274.452000
21
243.349000
0
LINE
8
Layer 1
10
-274.452000
20
243.349000
11
-272.646000
21
243.349000
0
LINE
8
Layer 1
10
-272.646000
20
243.349000
11
-272.646000
21
241.543000
0
LINE
8
Layer 1
10
-272.646000
20
241.543000
11
-274.452000
21
241.543000
0
LINE
8
Layer 1
10
-274.452000
20
241.543000
11
-276.258000
21
241.543000
0
LINE
8
Layer 1
10
-276.258000
20
241.543000
11
-276.258000
21
239.737000
0
LINE
8
Layer 1
10
-276.258000
20
239.737000
11
-274.452000
21
239.737000
0
LINE
8
Layer 1
10
-274.452000
20
239.737000
11
-274.452000
21
237.932000
0
LINE
8
Layer 1
10
-274.452000
20
237.932000
11
-274.452000
21
236.126000
0
LINE
8
Layer 1
10
-274.452000
20
236.126000
11
-272.646000
21
236.126000
0
LINE
8
Layer 1
10
-272.646000
20
236.126000
11
-272.646000
21
234.320000
0
LINE
8
Layer 1
10
-272.646000
20
234.320000
11
-274.452000
21
234.320000
0
LINE
8
Layer 1
10
-274.452000
20
234.320000
11
-276.258000
21
234.320000
0
LINE
8
Layer 1
10
-276.258000
20
234.320000
11
-276.258000
21
232.514000
0
LINE
8
Layer 1
10
-276.258000
20
232.514000
11
-274.452000
21
232.514000
0
LINE
8
Layer 1
10
-274.452000
20
232.514000
11
-274.452000
21
230.708000
0
LINE
8
Layer 1
10
-274.452000
20
230.708000
11
-272.646000
21
230.708000
0
LINE
8
Layer 1
10
-272.646000
20
230.708000
11
-272.646000
21
232.514000
0
LINE
8
Layer 1
10
-272.646000
20
232.514000
11
-270.841000
21
232.514000
0
LINE
8
Layer 1
10
-270.841000
20
232.514000
11
-270.841000
21
230.708000
0
LINE
8
Layer 1
10
-270.841000
20
230.708000
11
-270.841000
21
228.902000
0
LINE
8
Layer 1
10
-270.841000
20
228.902000
11
-269.035000
21
228.902000
0
LINE
8
Layer 1
10
-269.035000
20
228.902000
11
-269.035000
21
230.708000
0
LINE
8
Layer 1
10
-269.035000
20
230.708000
11
-267.229000
21
230.708000
0
LINE
8
Layer 1
10
-267.229000
20
230.708000
11
-267.229000
21
232.514000
0
LINE
8
Layer 1
10
-267.229000
20
232.514000
11
-269.035000
21
232.514000
0
LINE
8
Layer 1
10
-269.035000
20
232.514000
11
-269.035000
21
234.320000
0
LINE
8
Layer 1
10
-269.035000
20
234.320000
11
-267.229000
21
234.320000
0
LINE
8
Layer 1
10
-267.229000
20
234.320000
11
-265.423000
21
234.320000
0
LINE
8
Layer 1
10
-265.423000
20
234.320000
11
-265.423000
21
236.126000
0
LINE
8
Layer 1
10
-265.423000
20
236.126000
11
-267.229000
21
236.126000
0
LINE
8
Layer 1
10
-267.229000
20
236.126000
11
-267.229000
21
237.932000
0
LINE
8
Layer 1
10
-267.229000
20
237.932000
11
-265.423000
21
237.932000
0
LINE
8
Layer 1
10
-265.423000
20
237.932000
11
-265.423000
21
239.737000
0
LINE
8
Layer 1
10
-265.423000
20
239.737000
11
-263.617000
21
239.737000
0
LINE
8
Layer 1
10
-263.617000
20
239.737000
11
-263.617000
21
237.932000
0
LINE
8
Layer 1
10
-263.617000
20
237.932000
11
-263.617000
21
236.126000
0
LINE
8
Layer 1
10
-263.617000
20
236.126000
11
-261.811000
21
236.126000
0
LINE
8
Layer 1
10
-261.811000
20
236.126000
11
-261.811000
21
237.932000
0
LINE
8
Layer 1
10
-261.811000
20
237.932000
11
-260.005000
21
237.932000
0
LINE
8
Layer 1
10
-260.005000
20
237.932000
11
-260.005000
21
236.126000
0
LINE
8
Layer 1
10
-260.005000
20
236.126000
11
-258.199000
21
236.126000
0
LINE
8
Layer 1
10
-258.199000
20
236.126000
11
-258.199000
21
234.320000
0
LINE
8
Layer 1
10
-258.199000
20
234.320000
11
-260.005000
21
234.320000
0
LINE
8
Layer 1
10
-260.005000
20
234.320000
11
-261.811000
21
234.320000
0
LINE
8
Layer 1
10
-261.811000
20
234.320000
11
-261.811000
21
232.514000
0
LINE
8
Layer 1
10
-261.811000
20
232.514000
11
-260.005000
21
232.514000
0
LINE
8
Layer 1
10
-260.005000
20
232.514000
11
-260.005000
21
230.708000
0
LINE
8
Layer 1
10
-260.005000
20
230.708000
11
-258.199000
21
230.708000
0
LINE
8
Layer 1
10
-258.199000
20
230.708000
11
-258.199000
21
232.514000
0
LINE
8
Layer 1
10
-258.199000
20
232.514000
11
-256.394000
21
232.514000
0
LINE
8
Layer 1
10
-256.394000
20
232.514000
11
-256.394000
21
230.708000
0
LINE
8
Layer 1
10
-256.394000
20
230.708000
11
-256.394000
21
228.902000
0
LINE
8
Layer 1
10
-256.394000
20
228.902000
11
-254.588000
21
228.902000
0
LINE
8
Layer 1
10
-254.588000
20
228.902000
11
-254.588000
21
230.708000
0
LINE
8
Layer 1
10
-254.588000
20
230.708000
11
-252.782000
21
230.708000
0
LINE
8
Layer 1
10
-252.782000
20
230.708000
11
-252.782000
21
228.902000
0
LINE
8
Layer 1
10
-252.782000
20
228.902000
11
-250.976000
21
228.902000
0
LINE
8
Layer 1
10
-250.976000
20
228.902000
11
-250.976000
21
227.096000
0
LINE
8
Layer 1
10
-250.976000
20
227.096000
11
-252.782000
21
227.096000
0
LINE
8
Layer 1
10
-252.782000
20
227.096000
11
-254.588000
21
227.096000
0
LINE
8
Layer 1
10
-254.588000
20
227.096000
11
-254.588000
21
225.290000
0
LINE
8
Layer 1
10
-254.588000
20
225.290000
11
-252.782000
21
225.290000
0
LINE
8
Layer 1
10
-252.782000
20
225.290000
11
-252.782000
21
223.485000
0
LINE
8
Layer 1
10
-252.782000
20
223.485000
11
-254.588000
21
223.485000
0
LINE
8
Layer 1
10
-254.588000
20
223.485000
11
-254.588000
21
221.679000
0
LINE
8
Layer 1
10
-254.588000
20
221.679000
11
-256.394000
21
221.679000
0
LINE
8
Layer 1
10
-256.394000
20
221.679000
11
-256.394000
21
223.485000
0
LINE
8
Layer 1
10
-256.394000
20
223.485000
11
-256.394000
21
225.290000
0
LINE
8
Layer 1
10
-256.394000
20
225.290000
11
-258.199000
21
225.290000
0
LINE
8
Layer 1
10
-258.199000
20
225.290000
11
-258.199000
21
223.485000
0
LINE
8
Layer 1
10
-258.199000
20
223.485000
11
-260.005000
21
223.485000
0
LINE
8
Layer 1
10
-260.005000
20
223.485000
11
-261.811000
21
223.485000
0
LINE
8
Layer 1
10
-261.811000
20
223.485000
11
-261.811000
21
221.679000
0
LINE
8
Layer 1
10
-261.811000
20
221.679000
11
-263.617000
21
221.679000
0
LINE
8
Layer 1
10
-263.617000
20
221.679000
11
-263.617000
21
223.485000
0
LINE
8
Layer 1
10
-263.617000
20
223.485000
11
-263.617000
21
225.290000
0
LINE
8
Layer 1
10
-263.617000
20
225.290000
11
-265.423000
21
225.290000
0
LINE
8
Layer 1
10
-265.423000
20
225.290000
11
-265.423000
21
223.485000
0
LINE
8
Layer 1
10
-265.423000
20
223.485000
11
-267.229000
21
223.485000
0
LINE
8
Layer 1
10
-267.229000
20
223.485000
11
-267.229000
21
221.679000
0
LINE
8
Layer 1
10
-267.229000
20
221.679000
11
-265.423000
21
221.679000
0
LINE
8
Layer 1
10
-265.423000
20
221.679000
11
-265.423000
21
219.873000
0
LINE
8
Layer 1
10
-265.423000
20
219.873000
11
-267.229000
21
219.873000
0
LINE
8
Layer 1
10
-267.229000
20
219.873000
11
-269.035000
21
219.873000
0
LINE
8
Layer 1
10
-269.035000
20
219.873000
11
-269.035000
21
218.067000
0
LINE
8
Layer 1
10
-269.035000
20
218.067000
11
-267.229000
21
218.067000
0
LINE
8
Layer 1
10
-267.229000
20
218.067000
11
-267.229000
21
216.261000
0
LINE
8
Layer 1
10
-267.229000
20
216.261000
11
-265.423000
21
216.261000
0
LINE
8
Layer 1
10
-265.423000
20
216.261000
11
-265.423000
21
218.067000
0
LINE
8
Layer 1
10
-265.423000
20
218.067000
11
-263.617000
21
218.067000
0
LINE
8
Layer 1
10
-263.617000
20
218.067000
11
-263.617000
21
216.261000
0
LINE
8
Layer 1
10
-263.617000
20
216.261000
11
-263.617000
21
214.455000
0
LINE
8
Layer 1
10
-263.617000
20
214.455000
11
-261.811000
21
214.455000
0
LINE
8
Layer 1
10
-261.811000
20
214.455000
11
-261.811000
21
216.261000
0
LINE
8
Layer 1
10
-261.811000
20
216.261000
11
-260.005000
21
216.261000
0
LINE
8
Layer 1
10
-260.005000
20
216.261000
11
-260.005000
21
214.455000
0
LINE
8
Layer 1
10
-260.005000
20
214.455000
11
-258.199000
21
214.455000
0
LINE
8
Layer 1
10
-258.199000
20
214.455000
11
-258.199000
21
212.649000
0
LINE
8
Layer 1
10
-258.199000
20
212.649000
11
-260.005000
21
212.649000
0
LINE
8
Layer 1
10
-260.005000
20
212.649000
11
-261.811000
21
212.649000
0
LINE
8
Layer 1
10
-261.811000
20
212.649000
11
-261.811000
21
210.844000
0
LINE
8
Layer 1
10
-261.811000
20
210.844000
11
-260.005000
21
210.844000
0
LINE
8
Layer 1
10
-260.005000
20
210.844000
11
-260.005000
21
209.038000
0
LINE
8
Layer 1
10
-260.005000
20
209.038000
11
-261.811000
21
209.038000
0
LINE
8
Layer 1
10
-261.811000
20
209.038000
11
-261.811000
21
207.232000
0
LINE
8
Layer 1
10
-261.811000
20
207.232000
11
-263.617000
21
207.232000
0
LINE
8
Layer 1
10
-263.617000
20
207.232000
11
-263.617000
21
209.038000
0
LINE
8
Layer 1
10
-263.617000
20
209.038000
11
-263.617000
21
210.844000
0
LINE
8
Layer 1
10
-263.617000
20
210.844000
11
-265.423000
21
210.844000
0
LINE
8
Layer 1
10
-265.423000
20
210.844000
11
-265.423000
21
209.038000
0
LINE
8
Layer 1
10
-265.423000
20
209.038000
11
-267.229000
21
209.038000
0
LINE
8
Layer 1
10
-267.229000
20
209.038000
11
-267.229000
21
207.232000
0
LINE
8
Layer 1
10
-267.229000
20
207.232000
11
-265.423000
21
207.232000
0
LINE
8
Layer 1
10
-265.423000
20
207.232000
11
-265.423000
21
205.426000
0
LINE
8
Layer 1
10
-265.423000
20
205.426000
11
-267.229000
21
205.426000
0
LINE
8
Layer 1
10
-267.229000
20
205.426000
11
-269.035000
21
205.426000
0
LINE
8
Layer 1
10
-269.035000
20
205.426000
11
-269.035000
21
203.620000
0
LINE
8
Layer 1
10
-269.035000
20
203.620000
11
-267.229000
21
203.620000
0
LINE
8
Layer 1
10
-267.229000
20
203.620000
11
-267.229000
21
201.814000
0
LINE
8
Layer 1
10
-267.229000
20
201.814000
11
-269.035000
21
201.814000
0
LINE
8
Layer 1
10
-269.035000
20
201.814000
11
-269.035000
21
200.008000
0
LINE
8
Layer 1
10
-269.035000
20
200.008000
11
-270.841000
21
200.008000
0
LINE
8
Layer 1
10
-270.841000
20
200.008000
11
-270.841000
21
201.814000
0
LINE
8
Layer 1
10
-270.841000
20
201.814000
11
-270.841000
21
203.620000
0
LINE
8
Layer 1
10
-270.841000
20
203.620000
11
-272.646000
21
203.620000
0
LINE
8
Layer 1
10
-272.646000
20
203.620000
11
-272.646000
21
201.814000
0
LINE
8
Layer 1
10
-272.646000
20
201.814000
11
-274.452000
21
201.814000
0
LINE
8
Layer 1
10
-274.452000
20
201.814000
11
-274.452000
21
203.620000
0
LINE
8
Layer 1
10
-274.452000
20
203.620000
11
-276.258000
21
203.620000
0
LINE
8
Layer 1
10
-276.258000
20
203.620000
11
-276.258000
21
205.426000
0
LINE
8
Layer 1
10
-276.258000
20
205.426000
11
-274.452000
21
205.426000
0
LINE
8
Layer 1
10
-274.452000
20
205.426000
11
-272.646000
21
205.426000
0
LINE
8
Layer 1
10
-272.646000
20
205.426000
11
-272.646000
21
207.232000
0
LINE
8
Layer 1
10
-272.646000
20
207.232000
11
-274.452000
21
207.232000
0
LINE
8
Layer 1
10
-274.452000
20
207.232000
11
-274.452000
21
209.038000
0
LINE
8
Layer 1
10
-274.452000
20
209.038000
11
-274.452000
21
210.844000
0
LINE
8
Layer 1
10
-274.452000
20
210.844000
11
-276.258000
21
210.844000
0
LINE
8
Layer 1
10
-276.258000
20
210.844000
11
-276.258000
21
212.649000
0
LINE
8
Layer 1
10
-276.258000
20
212.649000
11
-274.452000
21
212.649000
0
LINE
8
Layer 1
10
-274.452000
20
212.649000
11
-272.646000
21
212.649000
0
LINE
8
Layer 1
10
-272.646000
20
212.649000
11
-272.646000
21
214.455000
0
LINE
8
Layer 1
10
-272.646000
20
214.455000
11
-274.452000
21
214.455000
0
LINE
8
Layer 1
10
-274.452000
20
214.455000
11
-274.452000
21
216.261000
0
LINE
8
Layer 1
10
-274.452000
20
216.261000
11
-276.258000
21
216.261000
0
LINE
8
Layer 1
10
-276.258000
20
216.261000
11
-276.258000
21
214.455000
0
LINE
8
Layer 1
10
-276.258000
20
214.455000
11
-278.064000
21
214.455000
0
LINE
8
Layer 1
10
-278.064000
20
214.455000
11
-278.064000
21
216.261000
0
LINE
8
Layer 1
10
-278.064000
20
216.261000
11
-278.064000
21
218.067000
0
LINE
8
Layer 1
10
-278.064000
20
218.067000
11
-279.870000
21
218.067000
0
LINE
8
Layer 1
10
-279.870000
20
218.067000
11
-279.870000
21
216.261000
0
LINE
8
Layer 1
10
-279.870000
20
216.261000
11
-281.676000
21
216.261000
0
LINE
8
Layer 1
10
-281.676000
20
216.261000
11
-281.676000
21
214.455000
0
LINE
8
Layer 1
10
-281.676000
20
214.455000
11
-279.870000
21
214.455000
0
LINE
8
Layer 1
10
-279.870000
20
214.455000
11
-279.870000
21
212.649000
0
LINE
8
Layer 1
10
-279.870000
20
212.649000
11
-281.676000
21
212.649000
0
LINE
8
Layer 1
10
-281.676000
20
212.649000
11
-283.482000
21
212.649000
0
LINE
8
Layer 1
10
-283.482000
20
212.649000
11
-283.482000
21
210.844000
0
LINE
8
Layer 1
10
-283.482000
20
210.844000
11
-281.676000
21
210.844000
0
LINE
8
Layer 1
10
-281.676000
20
210.844000
11
-281.676000
21
209.038000
0
LINE
8
Layer 1
10
-281.676000
20
209.038000
11
-283.482000
21
209.038000
0
LINE
8
Layer 1
10
-283.482000
20
209.038000
11
-283.482000
21
207.232000
0
LINE
8
Layer 1
10
-283.482000
20
207.232000
11
-285.288000
21
207.232000
0
LINE
8
Layer 1
10
-285.288000
20
207.232000
11
-285.288000
21
209.038000
0
LINE
8
Layer 1
10
-285.288000
20
209.038000
11
-285.288000
21
210.844000
0
LINE
8
Layer 1
10
-285.288000
20
210.844000
11
-287.093000
21
210.844000
0
LINE
8
Layer 1
10
-287.093000
20
210.844000
11
-287.093000
21
209.038000
0
LINE
8
Layer 1
10
-287.093000
20
209.038000
11
-288.899000
21
209.038000
0
LINE
8
Layer 1
10
-288.899000
20
209.038000
11
-290.705000
21
209.038000
0
LINE
8
Layer 1
10
-290.705000
20
209.038000
11
-290.705000
21
207.232000
0
LINE
8
Layer 1
10
-290.705000
20
207.232000
11
-292.511000
21
207.232000
0
LINE
8
Layer 1
10
-292.511000
20
207.232000
11
-292.511000
21
209.038000
0
LINE
8
Layer 1
10
-292.511000
20
209.038000
11
-292.511000
21
210.844000
0
LINE
8
Layer 1
10
-292.511000
20
210.844000
11
-294.317000
21
210.844000
0
LINE
8
Layer 1
10
-294.317000
20
210.844000
11
-294.317000
21
209.038000
0
LINE
8
Layer 1
10
-294.317000
20
209.038000
11
-296.123000
21
209.038000
0
LINE
8
Layer 1
10
-296.123000
20
209.038000
11
-296.123000
21
207.232000
0
LINE
8
Layer 1
10
-296.123000
20
207.232000
11
-294.317000
21
207.232000
0
LINE
8
Layer 1
10
-294.317000
20
207.232000
11
-294.317000
21
205.426000
0
LINE
8
Layer 1
10
-294.317000
20
205.426000
11
-296.123000
21
205.426000
0
LINE
8
Layer 1
10
-296.123000
20
205.426000
11
-297.929000
21
205.426000
0
LINE
8
Layer 1
10
-297.929000
20
205.426000
11
-297.929000
21
203.620000
0
LINE
8
Layer 1
10
-297.929000
20
203.620000
11
-296.123000
21
203.620000
0
LINE
8
Layer 1
10
-296.123000
20
203.620000
11
-296.123000
21
201.814000
0
LINE
8
Layer 1
10
-296.123000
20
201.814000
11
-297.929000
21
201.814000
0
LINE
8
Layer 1
10
-297.929000
20
201.814000
11
-297.929000
21
200.008000
0
LINE
8
Layer 1
10
-297.929000
20
200.008000
11
-299.734000
21
200.008000
0
LINE
8
Layer 1
10
-299.734000
20
200.008000
11
-299.734000
21
201.814000
0
LINE
8
Layer 1
10
-299.734000
20
201.814000
11
-299.734000
21
203.620000
0
LINE
8
Layer 1
10
-299.734000
20
203.620000
11
-301.540000
21
203.620000
0
LINE
8
Layer 1
10
-301.540000
20
203.620000
11
-301.540000
21
201.814000
0
LINE
8
Layer 1
10
-301.540000
20
201.814000
11
-303.346000
21
201.814000
0
LINE
8
Layer 1
10
-303.346000
20
201.814000
11
-303.346000
21
203.620000
0
LINE
8
Layer 1
10
-303.346000
20
203.620000
11
-305.152000
21
203.620000
0
LINE
8
Layer 1
10
-305.152000
20
203.620000
11
-305.152000
21
205.426000
0
LINE
8
Layer 1
10
-305.152000
20
205.426000
11
-303.346000
21
205.426000
0
LINE
8
Layer 1
10
-303.346000
20
205.426000
11
-301.540000
21
205.426000
0
LINE
8
Layer 1
10
-301.540000
20
205.426000
11
-301.540000
21
207.232000
0
LINE
8
Layer 1
10
-301.540000
20
207.232000
11
-303.346000
21
207.232000
0
LINE
8
Layer 1
10
-303.346000
20
207.232000
11
-303.346000
21
209.038000
0
LINE
8
Layer 1
10
-303.346000
20
209.038000
11
-303.346000
21
210.844000
0
LINE
8
Layer 1
10
-303.346000
20
210.844000
11
-305.152000
21
210.844000
0
LINE
8
Layer 1
10
-305.152000
20
210.844000
11
-305.152000
21
212.649000
0
LINE
8
Layer 1
10
-305.152000
20
212.649000
11
-303.346000
21
212.649000
0
LINE
8
Layer 1
10
-303.346000
20
212.649000
11
-301.540000
21
212.649000
0
LINE
8
Layer 1
10
-301.540000
20
212.649000
11
-301.540000
21
214.455000
0
LINE
8
Layer 1
10
-301.540000
20
214.455000
11
-303.346000
21
214.455000
0
LINE
8
Layer 1
10
-303.346000
20
214.455000
11
-303.346000
21
216.261000
0
LINE
8
Layer 1
10
-303.346000
20
216.261000
11
-305.152000
21
216.261000
0
LINE
8
Layer 1
10
-305.152000
20
216.261000
11
-305.152000
21
214.455000
0
LINE
8
Layer 1
10
-305.152000
20
214.455000
11
-306.958000
21
214.455000
0
LINE
8
Layer 1
10
-306.958000
20
214.455000
11
-306.958000
21
216.261000
0
LINE
8
Layer 1
10
-306.958000
20
216.261000
11
-306.958000
21
218.067000
0
LINE
8
Layer 1
10
-306.958000
20
218.067000
11
-308.764000
21
218.067000
0
LINE
8
Layer 1
10
-308.764000
20
218.067000
11
-308.764000
21
216.261000
0
LINE
8
Layer 1
10
-308.764000
20
216.261000
11
-310.570000
21
216.261000
0
LINE
8
Layer 1
10
-310.570000
20
216.261000
11
-310.570000
21
214.455000
0
LINE
8
Layer 1
10
-310.570000
20
214.455000
11
-308.764000
21
214.455000
0
LINE
8
Layer 1
10
-308.764000
20
214.455000
11
-308.764000
21
212.649000
0
LINE
8
Layer 1
10
-308.764000
20
212.649000
11
-310.570000
21
212.649000
0
LINE
8
Layer 1
10
-310.570000
20
212.649000
11
-312.376000
21
212.649000
0
LINE
8
Layer 1
10
-312.376000
20
212.649000
11
-312.376000
21
210.844000
0
LINE
8
Layer 1
10
-312.376000
20
210.844000
11
-310.570000
21
210.844000
0
LINE
8
Layer 1
10
-310.570000
20
210.844000
11
-310.570000
21
209.038000
0
LINE
8
Layer 1
10
-310.570000
20
209.038000
11
-312.376000
21
209.038000
0
LINE
8
Layer 1
10
-312.376000
20
209.038000
11
-312.376000
21
207.232000
0
LINE
8
Layer 1
10
-312.376000
20
207.232000
11
-314.181000
21
207.232000
0
LINE
8
Layer 1
10
-314.181000
20
207.232000
11
-314.181000
21
209.038000
0
LINE
8
Layer 1
10
-314.181000
20
209.038000
11
-314.181000
21
210.844000
0
LINE
8
Layer 1
10
-314.181000
20
210.844000
11
-315.987000
21
210.844000
0
LINE
8
Layer 1
10
-315.987000
20
210.844000
11
-315.987000
21
209.038000
0
LINE
8
Layer 1
10
-315.987000
20
209.038000
11
-317.793000
21
209.038000
0
LINE
8
Layer 1
10
-317.793000
20
209.038000
11
-317.793000
21
207.232000
0
LINE
8
Layer 1
10
-317.793000
20
207.232000
11
-315.987000
21
207.232000
0
LINE
8
Layer 1
10
-315.987000
20
207.232000
11
-315.987000
21
205.426000
0
LINE
8
Layer 1
10
-315.987000
20
205.426000
11
-317.793000
21
205.426000
0
LINE
8
Layer 1
10
-317.793000
20
205.426000
11
-319.599000
21
205.426000
0
LINE
8
Layer 1
10
-319.599000
20
205.426000
11
-319.599000
21
203.620000
0
LINE
8
Layer 1
10
-319.599000
20
203.620000
11
-317.793000
21
203.620000
0
LINE
8
Layer 1
10
-317.793000
20
203.620000
11
-317.793000
21
201.814000
0
LINE
8
Layer 1
10
-317.793000
20
201.814000
11
-315.987000
21
201.814000
0
LINE
8
Layer 1
10
-315.987000
20
201.814000
11
-315.987000
21
203.620000
0
LINE
8
Layer 1
10
-315.987000
20
203.620000
11
-314.181000
21
203.620000
0
LINE
8
Layer 1
10
-314.181000
20
203.620000
11
-314.181000
21
201.814000
0
LINE
8
Layer 1
10
-314.181000
20
201.814000
11
-314.181000
21
200.008000
0
LINE
8
Layer 1
10
-314.181000
20
200.008000
11
-312.376000
21
200.008000
0
LINE
8
Layer 1
10
-312.376000
20
200.008000
11
-312.376000
21
201.814000
0
LINE
8
Layer 1
10
-312.376000
20
201.814000
11
-310.570000
21
201.814000
0
LINE
8
Layer 1
10
-310.570000
20
201.814000
11
-310.570000
21
200.008000
0
LINE
8
Layer 1
10
-310.570000
20
200.008000
11
-308.764000
21
200.008000
0
LINE
8
Layer 1
10
-308.764000
20
200.008000
11
-308.764000
21
198.202000
0
LINE
8
Layer 1
10
-308.764000
20
198.202000
11
-310.570000
21
198.202000
0
LINE
8
Layer 1
10
-310.570000
20
198.202000
11
-312.376000
21
198.202000
0
LINE
8
Layer 1
10
-312.376000
20
198.202000
11
-312.376000
21
196.397000
0
LINE
8
Layer 1
10
-312.376000
20
196.397000
11
-310.570000
21
196.397000
0
LINE
8
Layer 1
10
-310.570000
20
196.397000
11
-310.570000
21
194.591000
0
LINE
8
Layer 1
10
-310.570000
20
194.591000
11
-312.376000
21
194.591000
0
LINE
8
Layer 1
10
-312.376000
20
194.591000
11
-312.376000
21
192.785000
0
LINE
8
Layer 1
10
-312.376000
20
192.785000
11
-314.181000
21
192.785000
0
LINE
8
Layer 1
10
-314.181000
20
192.785000
11
-314.181000
21
194.591000
0
LINE
8
Layer 1
10
-314.181000
20
194.591000
11
-314.181000
21
196.397000
0
LINE
8
Layer 1
10
-314.181000
20
196.397000
11
-315.987000
21
196.397000
0
LINE
8
Layer 1
10
-315.987000
20
196.397000
11
-315.987000
21
194.591000
0
LINE
8
Layer 1
10
-315.987000
20
194.591000
11
-317.793000
21
194.591000
0
LINE
8
Layer 1
10
-317.793000
20
194.591000
11
-319.599000
21
194.591000
0
LINE
8
Layer 1
10
-319.599000
20
194.591000
11
-319.599000
21
192.785000
0
LINE
8
Layer 1
10
-319.599000
20
192.785000
11
-321.405000
21
192.785000
0
LINE
8
Layer 1
10
-321.405000
20
192.785000
11
-321.405000
21
194.591000
0
LINE
8
Layer 1
10
-321.405000
20
194.591000
11
-321.405000
21
196.397000
0
LINE
8
Layer 1
10
-321.405000
20
196.397000
11
-323.211000
21
196.397000
0
LINE
8
Layer 1
10
-323.211000
20
196.397000
11
-323.211000
21
194.591000
0
LINE
8
Layer 1
10
-323.211000
20
194.591000
11
-325.017000
21
194.591000
0
LINE
8
Layer 1
10
-325.017000
20
194.591000
11
-325.017000
21
192.785000
0
LINE
8
Layer 1
10
-325.017000
20
192.785000
11
-323.211000
21
192.785000
0
LINE
8
Layer 1
10
-323.211000
20
192.785000
11
-323.211000
21
190.979000
0
LINE
8
Layer 1
10
-323.211000
20
190.979000
11
-325.017000
21
190.979000
0
LINE
8
Layer 1
10
-325.017000
20
190.979000
11
-326.823000
21
190.979000
0
LINE
8
Layer 1
10
-326.823000
20
190.979000
11
-326.823000
21
189.173000
0
LINE
8
Layer 1
10
-326.823000
20
189.173000
11
-325.017000
21
189.173000
0
LINE
8
Layer 1
10
-325.017000
20
189.173000
11
-325.017000
21
187.367000
0
LINE
8
Layer 1
10
-325.017000
20
187.367000
11
-323.211000
21
187.367000
0
LINE
8
Layer 1
10
-323.211000
20
187.367000
11
-323.211000
21
189.173000
0
LINE
8
Layer 1
10
-323.211000
20
189.173000
11
-321.405000
21
189.173000
0
LINE
8
Layer 1
10
-321.405000
20
189.173000
11
-321.405000
21
187.367000
0
LINE
8
Layer 1
10
-321.405000
20
187.367000
11
-321.405000
21
185.561000
0
LINE
8
Layer 1
10
-321.405000
20
185.561000
11
-319.599000
21
185.561000
0
LINE
8
Layer 1
10
-319.599000
20
185.561000
11
-319.599000
21
187.367000
0
LINE
8
Layer 1
10
-319.599000
20
187.367000
11
-317.793000
21
187.367000
0
LINE
8
Layer 1
10
-317.793000
20
187.367000
11
-317.793000
21
185.561000
0
LINE
8
Layer 1
10
-317.793000
20
185.561000
11
-315.987000
21
185.561000
0
LINE
8
Layer 1
10
-315.987000
20
185.561000
11
-315.987000
21
183.755000
0
LINE
8
Layer 1
10
-315.987000
20
183.755000
11
-317.793000
21
183.755000
0
LINE
8
Layer 1
10
-317.793000
20
183.755000
11
-319.599000
21
183.755000
0
LINE
8
Layer 1
10
-319.599000
20
183.755000
11
-319.599000
21
181.950000
0
LINE
8
Layer 1
10
-319.599000
20
181.950000
11
-317.793000
21
181.950000
0
LINE
8
Layer 1
10
-317.793000
20
181.950000
11
-317.793000
21
180.144000
0
LINE
8
Layer 1
10
-317.793000
20
180.144000
11
-315.987000
21
180.144000
0
LINE
8
Layer 1
10
-315.987000
20
180.144000
11
-315.987000
21
181.950000
0
LINE
8
Layer 1
10
-315.987000
20
181.950000
11
-314.181000
21
181.950000
0
LINE
8
Layer 1
10
-314.181000
20
181.950000
11
-314.181000
21
180.144000
0
LINE
8
Layer 1
10
-314.181000
20
180.144000
11
-314.181000
21
178.338000
0
LINE
8
Layer 1
10
-314.181000
20
178.338000
11
-312.376000
21
178.338000
0
LINE
8
Layer 1
10
-312.376000
20
178.338000
11
-312.376000
21
180.144000
0
LINE
8
Layer 1
10
-312.376000
20
180.144000
11
-310.570000
21
180.144000
0
LINE
8
Layer 1
10
-310.570000
20
180.144000
11
-310.570000
21
181.950000
0
LINE
8
Layer 1
10
-310.570000
20
181.950000
11
-312.376000
21
181.950000
0
LINE
8
Layer 1
10
-312.376000
20
181.950000
11
-312.376000
21
183.755000
0
LINE
8
Layer 1
10
-312.376000
20
183.755000
11
-310.570000
21
183.755000
0
LINE
8
Layer 1
10
-310.570000
20
183.755000
11
-308.764000
21
183.755000
0
LINE
8
Layer 1
10
-308.764000
20
183.755000
11
-308.764000
21
185.561000
0
LINE
8
Layer 1
10
-308.764000
20
185.561000
11
-310.570000
21
185.561000
0
LINE
8
Layer 1
10
-310.570000
20
185.561000
11
-310.570000
21
187.367000
0
LINE
8
Layer 1
10
-310.570000
20
187.367000
11
-308.764000
21
187.367000
0
LINE
8
Layer 1
10
-308.764000
20
187.367000
11
-308.764000
21
189.173000
0
LINE
8
Layer 1
10
-308.764000
20
189.173000
11
-306.958000
21
189.173000
0
LINE
8
Layer 1
10
-306.958000
20
189.173000
11
-306.958000
21
187.367000
0
LINE
8
Layer 1
10
-306.958000
20
187.367000
11
-306.958000
21
185.561000
0
LINE
8
Layer 1
10
-306.958000
20
185.561000
11
-305.152000
21
185.561000
0
LINE
8
Layer 1
10
-305.152000
20
185.561000
11
-305.152000
21
187.367000
0
LINE
8
Layer 1
10
-305.152000
20
187.367000
11
-303.346000
21
187.367000
0
LINE
8
Layer 1
10
-303.346000
20
187.367000
11
-303.346000
21
185.561000
0
LINE
8
Layer 1
10
-303.346000
20
185.561000
11
-301.540000
21
185.561000
0
LINE
8
Layer 1
10
-301.540000
20
185.561000
11
-301.540000
21
183.755000
0
LINE
8
Layer 1
10
-301.540000
20
183.755000
11
-303.346000
21
183.755000
0
LINE
8
Layer 1
10
-303.346000
20
183.755000
11
-305.152000
21
183.755000
0
LINE
8
Layer 1
10
-305.152000
20
183.755000
11
-305.152000
21
181.950000
0
LINE
8
Layer 1
10
-305.152000
20
181.950000
11
-303.346000
21
181.950000
0
LINE
8
Layer 1
10
-303.346000
20
181.950000
11
-303.346000
21
180.144000
0
LINE
8
Layer 1
10
-303.346000
20
180.144000
11
-303.346000
21
178.338000
0
LINE
8
Layer 1
10
-303.346000
20
178.338000
11
-301.540000
21
178.338000
0
LINE
8
Layer 1
10
-301.540000
20
178.338000
11
-301.540000
21
176.532000
0
LINE
8
Layer 1
10
-301.540000
20
176.532000
11
-303.346000
21
176.532000
0
LINE
8
Layer 1
10
-303.346000
20
176.532000
11
-305.152000
21
176.532000
0
LINE
8
Layer 1
10
-305.152000
20
176.532000
11
-305.152000
21
174.726000
0
LINE
8
Layer 1
10
-305.152000
20
174.726000
11
-303.346000
21
174.726000
0
LINE
8
Layer 1
10
-303.346000
20
174.726000
11
-303.346000
21
172.920000
0
LINE
8
Layer 1
10
-303.346000
20
172.920000
11
-301.540000
21
172.920000
0
LINE
8
Layer 1
10
-301.540000
20
172.920000
11
-301.540000
21
174.726000
0
LINE
8
Layer 1
10
-301.540000
20
174.726000
11
-299.734000
21
174.726000
0
LINE
8
Layer 1
10
-299.734000
20
174.726000
11
-299.734000
21
172.920000
0
LINE
8
Layer 1
10
-299.734000
20
172.920000
11
-299.734000
21
171.114000
0
LINE
8
Layer 1
10
-299.734000
20
171.114000
11
-297.929000
21
171.114000
0
LINE
8
Layer 1
10
-297.929000
20
171.114000
11
-297.929000
21
172.920000
0
LINE
8
Layer 1
10
-297.929000
20
172.920000
11
-296.123000
21
172.920000
0
LINE
8
Layer 1
10
-296.123000
20
172.920000
11
-296.123000
21
174.726000
0
LINE
8
Layer 1
10
-296.123000
20
174.726000
11
-297.929000
21
174.726000
0
LINE
8
Layer 1
10
-297.929000
20
174.726000
11
-297.929000
21
176.532000
0
LINE
8
Layer 1
10
-297.929000
20
176.532000
11
-296.123000
21
176.532000
0
LINE
8
Layer 1
10
-296.123000
20
176.532000
11
-294.317000
21
176.532000
0
LINE
8
Layer 1
10
-294.317000
20
176.532000
11
-294.317000
21
178.338000
0
LINE
8
Layer 1
10
-294.317000
20
178.338000
11
-296.123000
21
178.338000
0
LINE
8
Layer 1
10
-296.123000
20
178.338000
11
-296.123000
21
180.144000
0
LINE
8
Layer 1
10
-296.123000
20
180.144000
11
-294.317000
21
180.144000
0
LINE
8
Layer 1
10
-294.317000
20
180.144000
11
-294.317000
21
181.950000
0
LINE
8
Layer 1
10
-294.317000
20
181.950000
11
-292.511000
21
181.950000
0
LINE
8
Layer 1
10
-292.511000
20
181.950000
11
-292.511000
21
180.144000
0
LINE
8
Layer 1
10
-292.511000
20
180.144000
11
-292.511000
21
178.338000
0
LINE
8
Layer 1
10
-292.511000
20
178.338000
11
-290.705000
21
178.338000
0
LINE
8
Layer 1
10
-290.705000
20
178.338000
11
-290.705000
21
180.144000
0
LINE
8
Layer 1
10
-290.705000
20
180.144000
11
-288.899000
21
180.144000
0
LINE
8
Layer 1
10
-288.899000
20
180.144000
11
-288.899000
21
178.338000
0
LINE
8
Layer 1
10
-288.899000
20
178.338000
11
-287.093000
21
178.338000
0
LINE
8
Layer 1
10
-287.093000
20
178.338000
11
-287.093000
21
176.532000
0
LINE
8
Layer 1
10
-287.093000
20
176.532000
11
-288.899000
21
176.532000
0
LINE
8
Layer 1
10
-288.899000
20
176.532000
11
-290.705000
21
176.532000
0
LINE
8
Layer 1
10
-290.705000
20
176.532000
11
-290.705000
21
174.726000
0
LINE
8
Layer 1
10
-290.705000
20
174.726000
11
-288.899000
21
174.726000
0
LINE
8
Layer 1
10
-288.899000
20
174.726000
11
-288.899000
21
172.920000
0
LINE
8
Layer 1
10
-288.899000
20
172.920000
11
-287.093000
21
172.920000
0
LINE
8
Layer 1
10
-287.093000
20
172.920000
11
-287.093000
21
174.726000
0
LINE
8
Layer 1
10
-287.093000
20
174.726000
11
-285.288000
21
174.726000
0
LINE
8
Layer 1
10
-285.288000
20
174.726000
11
-285.288000
21
172.920000
0
LINE
8
Layer 1
10
-285.288000
20
172.920000
11
-285.288000
21
171.114000
0
LINE
8
Layer 1
10
-285.288000
20
171.114000
11
-283.482000
21
171.114000
0
LINE
8
Layer 1
10
-283.482000
20
171.114000
11
-283.482000
21
172.920000
0
LINE
8
Layer 1
10
-283.482000
20
172.920000
11
-281.676000
21
172.920000
0
LINE
8
Layer 1
10
-281.676000
20
172.920000
11
-281.676000
21
171.114000
0
LINE
8
Layer 1
10
-281.676000
20
171.114000
11
-279.870000
21
171.114000
0
LINE
8
Layer 1
10
-279.870000
20
171.114000
11
-279.870000
21
169.309000
0
LINE
8
Layer 1
10
-279.870000
20
169.309000
11
-281.676000
21
169.309000
0
LINE
8
Layer 1
10
-281.676000
20
169.309000
11
-283.482000
21
169.309000
0
LINE
8
Layer 1
10
-283.482000
20
169.309000
11
-283.482000
21
167.503000
0
LINE
8
Layer 1
10
-283.482000
20
167.503000
11
-281.676000
21
167.503000
0
LINE
8
Layer 1
10
-281.676000
20
167.503000
11
-281.676000
21
165.697000
0
LINE
8
Layer 1
10
-281.676000
20
165.697000
11
-283.482000
21
165.697000
0
LINE
8
Layer 1
10
-283.482000
20
165.697000
11
-283.482000
21
163.891000
0
LINE
8
Layer 1
10
-283.482000
20
163.891000
11
-285.288000
21
163.891000
0
LINE
8
Layer 1
10
-285.288000
20
163.891000
11
-285.288000
21
165.697000
0
LINE
8
Layer 1
10
-285.288000
20
165.697000
11
-285.288000
21
167.503000
0
LINE
8
Layer 1
10
-285.288000
20
167.503000
11
-287.093000
21
167.503000
0
LINE
8
Layer 1
10
-287.093000
20
167.503000
11
-287.093000
21
165.697000
0
LINE
8
Layer 1
10
-287.093000
20
165.697000
11
-288.899000
21
165.697000
0
LINE
8
Layer 1
10
-288.899000
20
165.697000
11
-290.705000
21
165.697000
0
LINE
8
Layer 1
10
-290.705000
20
165.697000
11
-290.705000
21
163.891000
0
LINE
8
Layer 1
10
-290.705000
20
163.891000
11
-292.511000
21
163.891000
0
LINE
8
Layer 1
10
-292.511000
20
163.891000
11
-292.511000
21
165.697000
0
LINE
8
Layer 1
10
-292.511000
20
165.697000
11
-292.511000
21
167.503000
0
LINE
8
Layer 1
10
-292.511000
20
167.503000
11
-294.317000
21
167.503000
0
LINE
8
Layer 1
10
-294.317000
20
167.503000
11
-294.317000
21
165.697000
0
LINE
8
Layer 1
10
-294.317000
20
165.697000
11
-296.123000
21
165.697000
0
LINE
8
Layer 1
10
-296.123000
20
165.697000
11
-296.123000
21
163.891000
0
LINE
8
Layer 1
10
-296.123000
20
163.891000
11
-294.317000
21
163.891000
0
LINE
8
Layer 1
10
-294.317000
20
163.891000
11
-294.317000
21
162.085000
0
LINE
8
Layer 1
10
-294.317000
20
162.085000
11
-296.123000
21
162.085000
0
LINE
8
Layer 1
10
-296.123000
20
162.085000
11
-297.929000
21
162.085000
0
LINE
8
Layer 1
10
-297.929000
20
162.085000
11
-297.929000
21
160.279000
0
LINE
8
Layer 1
10
-297.929000
20
160.279000
11
-296.123000
21
160.279000
0
LINE
8
Layer 1
10
-296.123000
20
160.279000
11
-296.123000
21
158.473000
0
LINE
8
Layer 1
10
-296.123000
20
158.473000
11
-294.317000
21
158.473000
0
LINE
8
Layer 1
10
-294.317000
20
158.473000
11
-294.317000
21
160.279000
0
LINE
8
Layer 1
10
-294.317000
20
160.279000
11
-292.511000
21
160.279000
0
LINE
8
Layer 1
10
-292.511000
20
160.279000
11
-292.511000
21
158.473000
0
LINE
8
Layer 1
10
-292.511000
20
158.473000
11
-292.511000
21
156.667000
0
LINE
8
Layer 1
10
-292.511000
20
156.667000
11
-290.705000
21
156.667000
0
LINE
8
Layer 1
10
-290.705000
20
156.667000
11
-290.705000
21
158.473000
0
LINE
8
Layer 1
10
-290.705000
20
158.473000
11
-288.899000
21
158.473000
0
LINE
8
Layer 1
10
-288.899000
20
158.473000
11
-288.899000
21
156.667000
0
LINE
8
Layer 1
10
-288.899000
20
156.667000
11
-287.093000
21
156.667000
0
LINE
8
Layer 1
10
-287.093000
20
156.667000
11
-287.093000
21
154.862000
0
LINE
8
Layer 1
10
-287.093000
20
154.862000
11
-288.899000
21
154.862000
0
LINE
8
Layer 1
10
-288.899000
20
154.862000
11
-290.705000
21
154.862000
0
LINE
8
Layer 1
10
-290.705000
20
154.862000
11
-290.705000
21
153.056000
0
LINE
8
Layer 1
10
-290.705000
20
153.056000
11
-288.899000
21
153.056000
0
LINE
8
Layer 1
10
-288.899000
20
153.056000
11
-288.899000
21
151.250000
0
LINE
8
Layer 1
10
-288.899000
20
151.250000
11
-290.705000
21
151.250000
0
LINE
8
Layer 1
10
-290.705000
20
151.250000
11
-290.705000
21
149.444000
0
LINE
8
Layer 1
10
-290.705000
20
149.444000
11
-292.511000
21
149.444000
0
LINE
8
Layer 1
10
-292.511000
20
149.444000
11
-292.511000
21
151.250000
0
LINE
8
Layer 1
10
-292.511000
20
151.250000
11
-292.511000
21
153.056000
0
LINE
8
Layer 1
10
-292.511000
20
153.056000
11
-294.317000
21
153.056000
0
LINE
8
Layer 1
10
-294.317000
20
153.056000
11
-294.317000
21
151.250000
0
LINE
8
Layer 1
10
-294.317000
20
151.250000
11
-296.123000
21
151.250000
0
LINE
8
Layer 1
10
-296.123000
20
151.250000
11
-296.123000
21
149.444000
0
LINE
8
Layer 1
10
-296.123000
20
149.444000
11
-294.317000
21
149.444000
0
LINE
8
Layer 1
10
-294.317000
20
149.444000
11
-294.317000
21
147.638000
0
LINE
8
Layer 1
10
-294.317000
20
147.638000
11
-296.123000
21
147.638000
0
LINE
8
Layer 1
10
-296.123000
20
147.638000
11
-297.929000
21
147.638000
0
LINE
8
Layer 1
10
-297.929000
20
147.638000
11
-297.929000
21
145.832000
0
LINE
8
Layer 1
10
-297.929000
20
145.832000
11
-296.123000
21
145.832000
0
LINE
8
Layer 1
10
-296.123000
20
145.832000
11
-296.123000
21
144.026000
0
LINE
8
Layer 1
10
-296.123000
20
144.026000
11
-297.929000
21
144.026000
0
LINE
8
Layer 1
10
-297.929000
20
144.026000
11
-297.929000
21
142.221000
0
LINE
8
Layer 1
10
-297.929000
20
142.221000
11
-299.734000
21
142.221000
0
LINE
8
Layer 1
10
-299.734000
20
142.221000
11
-299.734000
21
144.026000
0
LINE
8
Layer 1
10
-299.734000
20
144.026000
11
-299.734000
21
145.832000
0
LINE
8
Layer 1
10
-299.734000
20
145.832000
11
-301.540000
21
145.832000
0
LINE
8
Layer 1
10
-301.540000
20
145.832000
11
-301.540000
21
144.026000
0
LINE
8
Layer 1
10
-301.540000
20
144.026000
11
-303.346000
21
144.026000
0
LINE
8
Layer 1
10
-303.346000
20
144.026000
11
-303.346000
21
145.832000
0
LINE
8
Layer 1
10
-303.346000
20
145.832000
11
-305.152000
21
145.832000
0
LINE
8
Layer 1
10
-305.152000
20
145.832000
11
-305.152000
21
147.638000
0
LINE
8
Layer 1
10
-305.152000
20
147.638000
11
-303.346000
21
147.638000
0
LINE
8
Layer 1
10
-303.346000
20
147.638000
11
-301.540000
21
147.638000
0
LINE
8
Layer 1
10
-301.540000
20
147.638000
11
-301.540000
21
149.444000
0
LINE
8
Layer 1
10
-301.540000
20
149.444000
11
-303.346000
21
149.444000
0
LINE
8
Layer 1
10
-303.346000
20
149.444000
11
-303.346000
21
151.250000
0
LINE
8
Layer 1
10
-303.346000
20
151.250000
11
-303.346000
21
153.056000
0
LINE
8
Layer 1
10
-303.346000
20
153.056000
11
-305.152000
21
153.056000
0
LINE
8
Layer 1
10
-305.152000
20
153.056000
11
-305.152000
21
154.862000
0
LINE
8
Layer 1
10
-305.152000
20
154.862000
11
-303.346000
21
154.862000
0
LINE
8
Layer 1
10
-303.346000
20
154.862000
11
-301.540000
21
154.862000
0
LINE
8
Layer 1
10
-301.540000
20
154.862000
11
-301.540000
21
156.667000
0
LINE
8
Layer 1
10
-301.540000
20
156.667000
11
-303.346000
21
156.667000
0
LINE
8
Layer 1
10
-303.346000
20
156.667000
11
-303.346000
21
158.473000
0
LINE
8
Layer 1
10
-303.346000
20
158.473000
11
-305.152000
21
158.473000
0
LINE
8
Layer 1
10
-305.152000
20
158.473000
11
-305.152000
21
156.667000
0
LINE
8
Layer 1
10
-305.152000
20
156.667000
11
-306.958000
21
156.667000
0
LINE
8
Layer 1
10
-306.958000
20
156.667000
11
-306.958000
21
158.473000
0
LINE
8
Layer 1
10
-306.958000
20
158.473000
11
-306.958000
21
160.279000
0
LINE
8
Layer 1
10
-306.958000
20
160.279000
11
-308.764000
21
160.279000
0
LINE
8
Layer 1
10
-308.764000
20
160.279000
11
-308.764000
21
158.473000
0
LINE
8
Layer 1
10
-308.764000
20
158.473000
11
-310.570000
21
158.473000
0
LINE
8
Layer 1
10
-310.570000
20
158.473000
11
-310.570000
21
156.667000
0
LINE
8
Layer 1
10
-310.570000
20
156.667000
11
-308.764000
21
156.667000
0
LINE
8
Layer 1
10
-308.764000
20
156.667000
11
-308.764000
21
154.862000
0
LINE
8
Layer 1
10
-308.764000
20
154.862000
11
-310.570000
21
154.862000
0
LINE
8
Layer 1
10
-310.570000
20
154.862000
11
-312.376000
21
154.862000
0
LINE
8
Layer 1
10
-312.376000
20
154.862000
11
-312.376000
21
153.056000
0
LINE
8
Layer 1
10
-312.376000
20
153.056000
11
-310.570000
21
153.056000
0
LINE
8
Layer 1
10
-310.570000
20
153.056000
11
-310.570000
21
151.250000
0
LINE
8
Layer 1
10
-310.570000
20
151.250000
11
-312.376000
21
151.250000
0
LINE
8
Layer 1
10
-312.376000
20
151.250000
11
-312.376000
21
149.444000
0
LINE
8
Layer 1
10
-312.376000
20
149.444000
11
-314.181000
21
149.444000
0
LINE
8
Layer 1
10
-314.181000
20
149.444000
11
-314.181000
21
151.250000
0
LINE
8
Layer 1
10
-314.181000
20
151.250000
11
-314.181000
21
153.056000
0
LINE
8
Layer 1
10
-314.181000
20
153.056000
11
-315.987000
21
153.056000
0
LINE
8
Layer 1
10
-315.987000
20
153.056000
11
-315.987000
21
151.250000
0
LINE
8
Layer 1
10
-315.987000
20
151.250000
11
-317.793000
21
151.250000
0
LINE
8
Layer 1
10
-317.793000
20
151.250000
11
-317.793000
21
149.444000
0
LINE
8
Layer 1
10
-317.793000
20
149.444000
11
-315.987000
21
149.444000
0
LINE
8
Layer 1
10
-315.987000
20
149.444000
11
-315.987000
21
147.638000
0
LINE
8
Layer 1
10
-315.987000
20
147.638000
11
-317.793000
21
147.638000
0
LINE
8
Layer 1
10
-317.793000
20
147.638000
11
-319.599000
21
147.638000
0
LINE
8
Layer 1
10
-319.599000
20
147.638000
11
-319.599000
21
145.832000
0
LINE
8
Layer 1
10
-319.599000
20
145.832000
11
-317.793000
21
145.832000
0
LINE
8
Layer 1
10
-317.793000
20
145.832000
11
-317.793000
21
144.026000
0
LINE
8
Layer 1
10
-317.793000
20
144.026000
11
-315.987000
21
144.026000
0
LINE
8
Layer 1
10
-315.987000
20
144.026000
11
-315.987000
21
145.832000
0
LINE
8
Layer 1
10
-315.987000
20
145.832000
11
-314.181000
21
145.832000
0
LINE
8
Layer 1
10
-314.181000
20
145.832000
11
-314.181000
21
144.026000
0
LINE
8
Layer 1
10
-314.181000
20
144.026000
11
-314.181000
21
142.221000
0
LINE
8
Layer 1
10
-314.181000
20
142.221000
11
-312.376000
21
142.221000
0
LINE
8
Layer 1
10
-312.376000
20
142.221000
11
-312.376000
21
144.026000
0
LINE
8
Layer 1
10
-312.376000
20
144.026000
11
-310.570000
21
144.026000
0
LINE
8
Layer 1
10
-310.570000
20
144.026000
11
-310.570000
21
142.221000
0
LINE
8
Layer 1
10
-310.570000
20
142.221000
11
-308.764000
21
142.221000
0
LINE
8
Layer 1
10
-308.764000
20
142.221000
11
-308.764000
21
140.415000
0
LINE
8
Layer 1
10
-308.764000
20
140.415000
11
-310.570000
21
140.415000
0
LINE
8
Layer 1
10
-310.570000
20
140.415000
11
-312.376000
21
140.415000
0
LINE
8
Layer 1
10
-312.376000
20
140.415000
11
-312.376000
21
138.609000
0
LINE
8
Layer 1
10
-312.376000
20
138.609000
11
-310.570000
21
138.609000
0
LINE
8
Layer 1
10
-310.570000
20
138.609000
11
-310.570000
21
136.803000
0
LINE
8
Layer 1
10
-310.570000
20
136.803000
11
-312.376000
21
136.803000
0
LINE
8
Layer 1
10
-312.376000
20
136.803000
11
-312.376000
21
134.997000
0
LINE
8
Layer 1
10
-312.376000
20
134.997000
11
-314.181000
21
134.997000
0
LINE
8
Layer 1
10
-314.181000
20
134.997000
11
-314.181000
21
136.803000
0
LINE
8
Layer 1
10
-314.181000
20
136.803000
11
-314.181000
21
138.609000
0
LINE
8
Layer 1
10
-314.181000
20
138.609000
11
-315.987000
21
138.609000
0
LINE
8
Layer 1
10
-315.987000
20
138.609000
11
-315.987000
21
136.803000
0
LINE
8
Layer 1
10
-315.987000
20
136.803000
11
-317.793000
21
136.803000
0
LINE
8
Layer 1
10
-317.793000
20
136.803000
11
-319.599000
21
136.803000
0
LINE
8
Layer 1
10
-319.599000
20
136.803000
11
-319.599000
21
134.997000
0
LINE
8
Layer 1
10
-319.599000
20
134.997000
11
-321.405000
21
134.997000
0
LINE
8
Layer 1
10
-321.405000
20
134.997000
11
-321.405000
21
136.803000
0
LINE
8
Layer 1
10
-321.405000
20
136.803000
11
-321.405000
21
138.609000
0
LINE
8
Layer 1
10
-321.405000
20
138.609000
11
-323.211000
21
138.609000
0
LINE
8
Layer 1
10
-323.211000
20
138.609000
11
-323.211000
21
136.803000
0
LINE
8
Layer 1
10
-323.211000
20
136.803000
11
-325.017000
21
136.803000
0
LINE
8
Layer 1
10
-325.017000
20
136.803000
11
-325.017000
21
134.997000
0
LINE
8
Layer 1
10
-325.017000
20
134.997000
11
-323.211000
21
134.997000
0
LINE
8
Layer 1
10
-323.211000
20
134.997000
11
-323.211000
21
133.191000
0
LINE
8
Layer 1
10
-323.211000
20
133.191000
11
-325.017000
21
133.191000
0
LINE
8
Layer 1
10
-325.017000
20
133.191000
11
-326.823000
21
133.191000
0
LINE
8
Layer 1
10
-326.823000
20
133.191000
11
-326.823000
21
131.385000
0
LINE
8
Layer 1
10
-326.823000
20
131.385000
11
-325.017000
21
131.385000
0
LINE
8
Layer 1
10
-325.017000
20
131.385000
11
-325.017000
21
129.579000
0
LINE
8
Layer 1
10
-325.017000
20
129.579000
11
-323.211000
21
129.579000
0
LINE
8
Layer 1
10
-323.211000
20
129.579000
11
-323.211000
21
131.385000
0
LINE
8
Layer 1
10
-323.211000
20
131.385000
11
-321.405000
21
131.385000
0
LINE
8
Layer 1
10
-321.405000
20
131.385000
11
-321.405000
21
129.579000
0
LINE
8
Layer 1
10
-321.405000
20
129.579000
11
-321.405000
21
127.774000
0
LINE
8
Layer 1
10
-321.405000
20
127.774000
11
-319.599000
21
127.774000
0
LINE
8
Layer 1
10
-319.599000
20
127.774000
11
-319.599000
21
129.579000
0
LINE
8
Layer 1
10
-319.599000
20
129.579000
11
-317.793000
21
129.579000
0
LINE
8
Layer 1
10
-317.793000
20
129.579000
11
-317.793000
21
127.774000
0
LINE
8
Layer 1
10
-317.793000
20
127.774000
11
-315.987000
21
127.774000
0
LINE
8
Layer 1
10
-315.987000
20
127.774000
11
-315.987000
21
125.968000
0
LINE
8
Layer 1
10
-315.987000
20
125.968000
11
-317.793000
21
125.968000
0
LINE
8
Layer 1
10
-317.793000
20
125.968000
11
-319.599000
21
125.968000
0
LINE
8
Layer 1
10
-319.599000
20
125.968000
11
-319.599000
21
124.162000
0
LINE
8
Layer 1
10
-319.599000
20
124.162000
11
-317.793000
21
124.162000
0
LINE
8
Layer 1
10
-317.793000
20
124.162000
11
-317.793000
21
122.356000
0
LINE
8
Layer 1
10
-317.793000
20
122.356000
11
-319.599000
21
122.356000
0
LINE
8
Layer 1
10
-319.599000
20
122.356000
11
-319.599000
21
120.550000
0
LINE
8
Layer 1
10
-319.599000
20
120.550000
11
-321.405000
21
120.550000
0
LINE
8
Layer 1
10
-321.405000
20
120.550000
11
-321.405000
21
122.356000
0
LINE
8
Layer 1
10
-321.405000
20
122.356000
11
-321.405000
21
124.162000
0
LINE
8
Layer 1
10
-321.405000
20
124.162000
11
-323.211000
21
124.162000
0
LINE
8
Layer 1
10
-323.211000
20
124.162000
11
-323.211000
21
122.356000
0
LINE
8
Layer 1
10
-323.211000
20
122.356000
11
-325.017000
21
122.356000
0
LINE
8
Layer 1
10
-325.017000
20
122.356000
11
-325.017000
21
120.550000
0
LINE
8
Layer 1
10
-325.017000
20
120.550000
11
-323.211000
21
120.550000
0
LINE
8
Layer 1
10
-323.211000
20
120.550000
11
-323.211000
21
118.744000
0
LINE
8
Layer 1
10
-323.211000
20
118.744000
11
-325.017000
21
118.744000
0
LINE
8
Layer 1
10
-325.017000
20
118.744000
11
-326.823000
21
118.744000
0
LINE
8
Layer 1
10
-326.823000
20
118.744000
11
-326.823000
21
116.938000
0
LINE
8
Layer 1
10
-326.823000
20
116.938000
11
-325.017000
21
116.938000
0
LINE
8
Layer 1
10
-325.017000
20
116.938000
11
-325.017000
21
115.132000
0
LINE
8
Layer 1
10
-325.017000
20
115.132000
11
-326.823000
21
115.132000
0
LINE
8
Layer 1
10
-326.823000
20
115.132000
11
-326.823000
21
113.327000
0
LINE
8
Layer 1
10
-326.823000
20
113.327000
11
-328.628000
21
113.327000
0
LINE
8
Layer 1
10
-328.628000
20
113.327000
11
-328.628000
21
115.132000
0
LINE
8
Layer 1
10
-328.628000
20
115.132000
11
-328.628000
21
116.938000
0
LINE
8
Layer 1
10
-328.628000
20
116.938000
11
-330.434000
21
116.938000
0
LINE
8
Layer 1
10
-330.434000
20
116.938000
11
-330.434000
21
115.132000
0
LINE
8
Layer 1
10
-330.434000
20
115.132000
11
-332.240000
21
115.132000
0
LINE
8
Layer 1
10
-332.240000
20
115.132000
11
-332.240000
21
116.938000
0
LINE
8
Layer 1
10
-332.240000
20
116.938000
11
-334.046000
21
116.938000
0
LINE
8
Layer 1
10
-334.046000
20
116.938000
11
-334.046000
21
118.744000
0
LINE
8
Layer 1
10
-334.046000
20
118.744000
11
-332.240000
21
118.744000
0
LINE
8
Layer 1
10
-332.240000
20
118.744000
11
-330.434000
21
118.744000
0
LINE
8
Layer 1
10
-330.434000
20
118.744000
11
-330.434000
21
120.550000
0
LINE
8
Layer 1
10
-330.434000
20
120.550000
11
-332.240000
21
120.550000
0
LINE
8
Layer 1
10
-332.240000
20
120.550000
11
-332.240000
21
122.356000
0
LINE
8
Layer 1
10
-332.240000
20
122.356000
11
-332.240000
21
124.162000
0
LINE
8
Layer 1
10
-332.240000
20
124.162000
11
-334.046000
21
124.162000
0
LINE
8
Layer 1
10
-334.046000
20
124.162000
11
-334.046000
21
125.968000
0
LINE
8
Layer 1
10
-334.046000
20
125.968000
11
-332.240000
21
125.968000
0
LINE
8
Layer 1
10
-332.240000
20
125.968000
11
-330.434000
21
125.968000
0
LINE
8
Layer 1
10
-330.434000
20
125.968000
11
-330.434000
21
127.774000
0
LINE
8
Layer 1
10
-330.434000
20
127.774000
11
-332.240000
21
127.774000
0
LINE
8
Layer 1
10
-332.240000
20
127.774000
11
-332.240000
21
129.579000
0
LINE
8
Layer 1
10
-332.240000
20
129.579000
11
-334.046000
21
129.579000
0
LINE
8
Layer 1
10
-334.046000
20
129.579000
11
-334.046000
21
127.774000
0
LINE
8
Layer 1
10
-334.046000
20
127.774000
11
-335.852000
21
127.774000
0
LINE
8
Layer 1
10
-335.852000
20
127.774000
11
-335.852000
21
129.579000
0
LINE
8
Layer 1
10
-335.852000
20
129.579000
11
-335.852000
21
131.385000
0
LINE
8
Layer 1
10
-335.852000
20
131.385000
11
-337.658000
21
131.385000
0
LINE
8
Layer 1
10
-337.658000
20
131.385000
11
-337.658000
21
129.579000
0
LINE
8
Layer 1
10
-337.658000
20
129.579000
11
-339.464000
21
129.579000
0
LINE
8
Layer 1
10
-339.464000
20
129.579000
11
-339.464000
21
127.774000
0
LINE
8
Layer 1
10
-339.464000
20
127.774000
11
-337.658000
21
127.774000
0
LINE
8
Layer 1
10
-337.658000
20
127.774000
11
-337.658000
21
125.968000
0
LINE
8
Layer 1
10
-337.658000
20
125.968000
11
-339.464000
21
125.968000
0
LINE
8
Layer 1
10
-339.464000
20
125.968000
11
-341.269000
21
125.968000
0
LINE
8
Layer 1
10
-341.269000
20
125.968000
11
-341.269000
21
124.162000
0
LINE
8
Layer 1
10
-341.269000
20
124.162000
11
-339.464000
21
124.162000
0
LINE
8
Layer 1
10
-339.464000
20
124.162000
11
-339.464000
21
122.356000
0
LINE
8
Layer 1
10
-339.464000
20
122.356000
11
-341.269000
21
122.356000
0
LINE
8
Layer 1
10
-341.269000
20
122.356000
11
-341.269000
21
120.550000
0
LINE
8
Layer 1
10
-341.269000
20
120.550000
11
-343.075000
21
120.550000
0
LINE
8
Layer 1
10
-343.075000
20
120.550000
11
-343.075000
21
122.356000
0
LINE
8
Layer 1
10
-343.075000
20
122.356000
11
-343.075000
21
124.162000
0
LINE
8
Layer 1
10
-343.075000
20
124.162000
11
-344.881000
21
124.162000
0
LINE
8
Layer 1
10
-344.881000
20
124.162000
11
-344.881000
21
122.356000
0
LINE
8
Layer 1
10
-344.881000
20
122.356000
11
-346.687000
21
122.356000
0
LINE
8
Layer 1
10
-346.687000
20
122.356000
11
-346.687000
21
124.162000
0
LINE
8
Layer 1
10
-346.687000
20
124.162000
11
-348.493000
21
124.162000
0
LINE
8
Layer 1
10
-348.493000
20
124.162000
11
-348.493000
21
125.968000
0
LINE
8
Layer 1
10
-348.493000
20
125.968000
11
-346.687000
21
125.968000
0
LINE
8
Layer 1
10
-346.687000
20
125.968000
11
-344.881000
21
125.968000
0
LINE
8
Layer 1
10
-344.881000
20
125.968000
11
-344.881000
21
127.774000
0
LINE
8
Layer 1
10
-344.881000
20
127.774000
11
-346.687000
21
127.774000
0
LINE
8
Layer 1
10
-346.687000
20
127.774000
11
-346.687000
21
129.579000
0
LINE
8
Layer 1
10
-346.687000
20
129.579000
11
-348.493000
21
129.579000
0
LINE
8
Layer 1
10
-348.493000
20
129.579000
11
-348.493000
21
127.774000
0
LINE
8
Layer 1
10
-348.493000
20
127.774000
11
-350.299000
21
127.774000
0
LINE
8
Layer 1
10
-350.299000
20
127.774000
11
-350.299000
21
129.579000
0
LINE
8
Layer 1
10
-350.299000
20
129.579000
11
-350.299000
21
131.385000
0
LINE
8
Layer 1
10
-350.299000
20
131.385000
11
-352.105000
21
131.385000
0
LINE
8
Layer 1
10
-352.105000
20
131.385000
11
-352.105000
21
129.579000
0
LINE
8
Layer 1
10
-352.105000
20
129.579000
11
-353.911000
21
129.579000
0
LINE
8
Layer 1
10
-353.911000
20
129.579000
11
-353.911000
21
131.385000
0
LINE
8
Layer 1
10
-353.911000
20
131.385000
11
-355.716000
21
131.385000
0
LINE
8
Layer 1
10
-355.716000
20
131.385000
11
-355.716000
21
133.191000
0
LINE
8
Layer 1
10
-355.716000
20
133.191000
11
-353.911000
21
133.191000
0
LINE
8
Layer 1
10
-353.911000
20
133.191000
11
-352.105000
21
133.191000
0
LINE
8
Layer 1
10
-352.105000
20
133.191000
11
-352.105000
21
134.997000
0
LINE
8
Layer 1
10
-352.105000
20
134.997000
11
-353.911000
21
134.997000
0
LINE
8
Layer 1
10
-353.911000
20
134.997000
11
-353.911000
21
136.803000
0
LINE
8
Layer 1
10
-353.911000
20
136.803000
11
-352.105000
21
136.803000
0
LINE
8
Layer 1
10
-352.105000
20
136.803000
11
-352.105000
21
138.609000
0
LINE
8
Layer 1
10
-352.105000
20
138.609000
11
-350.299000
21
138.609000
0
LINE
8
Layer 1
10
-350.299000
20
138.609000
11
-350.299000
21
136.803000
0
LINE
8
Layer 1
10
-350.299000
20
136.803000
11
-350.299000
21
134.997000
0
LINE
8
Layer 1
10
-350.299000
20
134.997000
11
-348.493000
21
134.997000
0
LINE
8
Layer 1
10
-348.493000
20
134.997000
11
-348.493000
21
136.803000
0
LINE
8
Layer 1
10
-348.493000
20
136.803000
11
-346.687000
21
136.803000
0
LINE
8
Layer 1
10
-346.687000
20
136.803000
11
-344.881000
21
136.803000
0
LINE
8
Layer 1
10
-344.881000
20
136.803000
11
-344.881000
21
138.609000
0
LINE
8
Layer 1
10
-344.881000
20
138.609000
11
-343.075000
21
138.609000
0
LINE
8
Layer 1
10
-343.075000
20
138.609000
11
-343.075000
21
136.803000
0
LINE
8
Layer 1
10
-343.075000
20
136.803000
11
-343.075000
21
134.997000
0
LINE
8
Layer 1
10
-343.075000
20
134.997000
11
-341.269000
21
134.997000
0
LINE
8
Layer 1
10
-341.269000
20
134.997000
11
-341.269000
21
136.803000
0
LINE
8
Layer 1
10
-341.269000
20
136.803000
11
-339.464000
21
136.803000
0
LINE
8
Layer 1
10
-339.464000
20
136.803000
11
-339.464000
21
138.609000
0
LINE
8
Layer 1
10
-339.464000
20
138.609000
11
-341.269000
21
138.609000
0
LINE
8
Layer 1
10
-341.269000
20
138.609000
11
-341.269000
21
140.415000
0
LINE
8
Layer 1
10
-341.269000
20
140.415000
11
-339.464000
21
140.415000
0
LINE
8
Layer 1
10
-339.464000
20
140.415000
11
-337.658000
21
140.415000
0
LINE
8
Layer 1
10
-337.658000
20
140.415000
11
-337.658000
21
142.221000
0
LINE
8
Layer 1
10
-337.658000
20
142.221000
11
-339.464000
21
142.221000
0
LINE
8
Layer 1
10
-339.464000
20
142.221000
11
-339.464000
21
144.026000
0
LINE
8
Layer 1
10
-339.464000
20
144.026000
11
-341.269000
21
144.026000
0
LINE
8
Layer 1
10
-341.269000
20
144.026000
11
-341.269000
21
142.221000
0
LINE
8
Layer 1
10
-341.269000
20
142.221000
11
-343.075000
21
142.221000
0
LINE
8
Layer 1
10
-343.075000
20
142.221000
11
-343.075000
21
144.026000
0
LINE
8
Layer 1
10
-343.075000
20
144.026000
11
-343.075000
21
145.832000
0
LINE
8
Layer 1
10
-343.075000
20
145.832000
11
-344.881000
21
145.832000
0
LINE
8
Layer 1
10
-344.881000
20
145.832000
11
-344.881000
21
144.026000
0
LINE
8
Layer 1
10
-344.881000
20
144.026000
11
-346.687000
21
144.026000
0
LINE
8
Layer 1
10
-346.687000
20
144.026000
11
-346.687000
21
145.832000
0
LINE
8
Layer 1
10
-346.687000
20
145.832000
11
-348.493000
21
145.832000
0
LINE
8
Layer 1
10
-348.493000
20
145.832000
11
-348.493000
21
147.638000
0
LINE
8
Layer 1
10
-348.493000
20
147.638000
11
-346.687000
21
147.638000
0
LINE
8
Layer 1
10
-346.687000
20
147.638000
11
-344.881000
21
147.638000
0
LINE
8
Layer 1
10
-344.881000
20
147.638000
11
-344.881000
21
149.444000
0
LINE
8
Layer 1
10
-344.881000
20
149.444000
11
-346.687000
21
149.444000
0
LINE
8
Layer 1
10
-346.687000
20
149.444000
11
-346.687000
21
151.250000
0
LINE
8
Layer 1
10
-346.687000
20
151.250000
11
-346.687000
21
153.056000
0
LINE
8
Layer 1
10
-346.687000
20
153.056000
11
-348.493000
21
153.056000
0
LINE
8
Layer 1
10
-348.493000
20
153.056000
11
-348.493000
21
154.862000
0
LINE
8
Layer 1
10
-348.493000
20
154.862000
11
-346.687000
21
154.862000
0
LINE
8
Layer 1
10
-346.687000
20
154.862000
11
-344.881000
21
154.862000
0
LINE
8
Layer 1
10
-344.881000
20
154.862000
11
-344.881000
21
156.667000
0
LINE
8
Layer 1
10
-344.881000
20
156.667000
11
-346.687000
21
156.667000
0
LINE
8
Layer 1
10
-346.687000
20
156.667000
11
-346.687000
21
158.473000
0
LINE
8
Layer 1
10
-346.687000
20
158.473000
11
-348.493000
21
158.473000
0
LINE
8
Layer 1
10
-348.493000
20
158.473000
11
-348.493000
21
156.667000
0
LINE
8
Layer 1
10
-348.493000
20
156.667000
11
-350.299000
21
156.667000
0
LINE
8
Layer 1
10
-350.299000
20
156.667000
11
-350.299000
21
158.473000
0
LINE
8
Layer 1
10
-350.299000
20
158.473000
11
-350.299000
21
160.279000
0
LINE
8
Layer 1
10
-350.299000
20
160.279000
11
-352.105000
21
160.279000
0
LINE
8
Layer 1
10
-352.105000
20
160.279000
11
-352.105000
21
158.473000
0
LINE
8
Layer 1
10
-352.105000
20
158.473000
11
-353.911000
21
158.473000
0
LINE
8
Layer 1
10
-353.911000
20
158.473000
11
-353.911000
21
160.279000
0
LINE
8
Layer 1
10
-353.911000
20
160.279000
11
-355.716000
21
160.279000
0
LINE
8
Layer 1
10
-355.716000
20
160.279000
11
-355.716000
21
162.085000
0
LINE
8
Layer 1
10
-355.716000
20
162.085000
11
-353.911000
21
162.085000
0
LINE
8
Layer 1
10
-353.911000
20
162.085000
11
-352.105000
21
162.085000
0
LINE
8
Layer 1
10
-352.105000
20
162.085000
11
-352.105000
21
163.891000
0
LINE
8
Layer 1
10
-352.105000
20
163.891000
11
-353.911000
21
163.891000
0
LINE
8
Layer 1
10
-353.911000
20
163.891000
11
-353.911000
21
165.697000
0
LINE
8
Layer 1
10
-353.911000
20
165.697000
11
-352.105000
21
165.697000
0
LINE
8
Layer 1
10
-352.105000
20
165.697000
11
-352.105000
21
167.503000
0
LINE
8
Layer 1
10
-352.105000
20
167.503000
11
-350.299000
21
167.503000
0
LINE
8
Layer 1
10
-350.299000
20
167.503000
11
-350.299000
21
165.697000
0
LINE
8
Layer 1
10
-350.299000
20
165.697000
11
-350.299000
21
163.891000
0
LINE
8
Layer 1
10
-350.299000
20
163.891000
11
-348.493000
21
163.891000
0
LINE
8
Layer 1
10
-348.493000
20
163.891000
11
-348.493000
21
165.697000
0
LINE
8
Layer 1
10
-348.493000
20
165.697000
11
-346.687000
21
165.697000
0
LINE
8
Layer 1
10
-346.687000
20
165.697000
11
-344.881000
21
165.697000
0
LINE
8
Layer 1
10
-344.881000
20
165.697000
11
-344.881000
21
167.503000
0
LINE
8
Layer 1
10
-344.881000
20
167.503000
11
-343.075000
21
167.503000
0
LINE
8
Layer 1
10
-343.075000
20
167.503000
11
-343.075000
21
165.697000
0
LINE
8
Layer 1
10
-343.075000
20
165.697000
11
-343.075000
21
163.891000
0
LINE
8
Layer 1
10
-343.075000
20
163.891000
11
-341.269000
21
163.891000
0
LINE
8
Layer 1
10
-341.269000
20
163.891000
11
-341.269000
21
165.697000
0
LINE
8
Layer 1
10
-341.269000
20
165.697000
11
-339.464000
21
165.697000
0
LINE
8
Layer 1
10
-339.464000
20
165.697000
11
-339.464000
21
167.503000
0
LINE
8
Layer 1
10
-339.464000
20
167.503000
11
-341.269000
21
167.503000
0
LINE
8
Layer 1
10
-341.269000
20
167.503000
11
-341.269000
21
169.309000
0
LINE
8
Layer 1
10
-341.269000
20
169.309000
11
-339.464000
21
169.309000
0
LINE
8
Layer 1
10
-339.464000
20
169.309000
11
-337.658000
21
169.309000
0
LINE
8
Layer 1
10
-337.658000
20
169.309000
11
-337.658000
21
171.114000
0
LINE
8
Layer 1
10
-337.658000
20
171.114000
11
-339.464000
21
171.114000
0
LINE
8
Layer 1
10
-339.464000
20
171.114000
11
-339.464000
21
172.920000
0
LINE
8
Layer 1
10
-339.464000
20
172.920000
11
-341.269000
21
172.920000
0
LINE
8
Layer 1
10
-341.269000
20
172.920000
11
-341.269000
21
171.114000
0
LINE
8
Layer 1
10
-341.269000
20
171.114000
11
-343.075000
21
171.114000
0
LINE
8
Layer 1
10
-343.075000
20
171.114000
11
-343.075000
21
172.920000
0
LINE
8
Layer 1
10
-343.075000
20
172.920000
11
-343.075000
21
174.726000
0
LINE
8
Layer 1
10
-343.075000
20
174.726000
11
-344.881000
21
174.726000
0
LINE
8
Layer 1
10
-344.881000
20
174.726000
11
-344.881000
21
172.920000
0
LINE
8
Layer 1
10
-344.881000
20
172.920000
11
-346.687000
21
172.920000
0
LINE
8
Layer 1
10
-346.687000
20
172.920000
11
-346.687000
21
174.726000
0
LINE
8
Layer 1
10
-346.687000
20
174.726000
11
-348.493000
21
174.726000
0
LINE
8
Layer 1
10
-348.493000
20
174.726000
11
-348.493000
21
176.532000
0
LINE
8
Layer 1
10
-348.493000
20
176.532000
11
-346.687000
21
176.532000
0
LINE
8
Layer 1
10
-346.687000
20
176.532000
11
-344.881000
21
176.532000
0
LINE
8
Layer 1
10
-344.881000
20
176.532000
11
-344.881000
21
178.338000
0
LINE
8
Layer 1
10
-344.881000
20
178.338000
11
-346.687000
21
178.338000
0
LINE
8
Layer 1
10
-346.687000
20
178.338000
11
-346.687000
21
180.144000
0
LINE
8
Layer 1
10
-346.687000
20
180.144000
11
-348.493000
21
180.144000
0
LINE
8
Layer 1
10
-348.493000
20
180.144000
11
-348.493000
21
178.338000
0
LINE
8
Layer 1
10
-348.493000
20
178.338000
11
-350.299000
21
178.338000
0
LINE
8
Layer 1
10
-350.299000
20
178.338000
11
-350.299000
21
180.144000
0
LINE
8
Layer 1
10
-350.299000
20
180.144000
11
-350.299000
21
181.950000
0
LINE
8
Layer 1
10
-350.299000
20
181.950000
11
-352.105000
21
181.950000
0
LINE
8
Layer 1
10
-352.105000
20
181.950000
11
-352.105000
21
180.144000
0
LINE
8
Layer 1
10
-352.105000
20
180.144000
11
-353.911000
21
180.144000
0
LINE
8
Layer 1
10
-353.911000
20
180.144000
11
-353.911000
21
178.338000
0
LINE
8
Layer 1
10
-353.911000
20
178.338000
11
-352.105000
21
178.338000
0
LINE
8
Layer 1
10
-352.105000
20
178.338000
11
-352.105000
21
176.532000
0
LINE
8
Layer 1
10
-352.105000
20
176.532000
11
-353.911000
21
176.532000
0
LINE
8
Layer 1
10
-353.911000
20
176.532000
11
-355.716000
21
176.532000
0
LINE
8
Layer 1
10
-355.716000
20
176.532000
11
-355.716000
21
174.726000
0
LINE
8
Layer 1
10
-355.716000
20
174.726000
11
-353.911000
21
174.726000
0
LINE
8
Layer 1
10
-353.911000
20
174.726000
11
-353.911000
21
172.920000
0
LINE
8
Layer 1
10
-353.911000
20
172.920000
11
-355.716000
21
172.920000
0
LINE
8
Layer 1
10
-355.716000
20
172.920000
11
-355.716000
21
171.114000
0
LINE
8
Layer 1
10
-355.716000
20
171.114000
11
-357.522000
21
171.114000
0
LINE
8
Layer 1
10
-357.522000
20
171.114000
11
-357.522000
21
172.920000
0
LINE
8
Layer 1
10
-357.522000
20
172.920000
11
-357.522000
21
174.726000
0
LINE
8
Layer 1
10
-357.522000
20
174.726000
11
-359.328000
21
174.726000
0
LINE
8
Layer 1
10
-359.328000
20
174.726000
11
-359.328000
21
172.920000
0
LINE
8
Layer 1
10
-359.328000
20
172.920000
11
-361.134000
21
172.920000
0
LINE
8
Layer 1
10
-361.134000
20
172.920000
11
-361.134000
21
174.726000
0
LINE
8
Layer 1
10
-361.134000
20
174.726000
11
-362.940000
21
174.726000
0
LINE
8
Layer 1
10
-362.940000
20
174.726000
11
-362.940000
21
176.532000
0
LINE
8
Layer 1
10
-362.940000
20
176.532000
11
-361.134000
21
176.532000
0
LINE
8
Layer 1
10
-361.134000
20
176.532000
11
-359.328000
21
176.532000
0
LINE
8
Layer 1
10
-359.328000
20
176.532000
11
-359.328000
21
178.338000
0
LINE
8
Layer 1
10
-359.328000
20
178.338000
11
-361.134000
21
178.338000
0
LINE
8
Layer 1
10
-361.134000
20
178.338000
11
-361.134000
21
180.144000
0
LINE
8
Layer 1
10
-361.134000
20
180.144000
11
-361.134000
21
181.950000
0
LINE
8
Layer 1
10
-361.134000
20
181.950000
11
-362.940000
21
181.950000
0
LINE
8
Layer 1
10
-362.940000
20
181.950000
11
-362.940000
21
183.755000
0
LINE
8
Layer 1
10
-362.940000
20
183.755000
11
-361.134000
21
183.755000
0
LINE
8
Layer 1
10
-361.134000
20
183.755000
11
-359.328000
21
183.755000
0
LINE
8
Layer 1
10
-359.328000
20
183.755000
11
-359.328000
21
185.561000
0
LINE
8
Layer 1
10
-359.328000
20
185.561000
11
-361.134000
21
185.561000
0
LINE
8
Layer 1
10
-361.134000
20
185.561000
11
-361.134000
21
187.367000
0
LINE
8
Layer 1
10
-361.134000
20
187.367000
11
-362.940000
21
187.367000
0
LINE
8
Layer 1
10
-362.940000
20
187.367000
11
-362.940000
21
185.561000
0
LINE
8
Layer 1
10
-362.940000
20
185.561000
11
-364.746000
21
185.561000
0
LINE
8
Layer 1
10
-364.746000
20
185.561000
11
-364.746000
21
187.367000
0
LINE
8
Layer 1
10
-364.746000
20
187.367000
11
-364.746000
21
189.173000
0
LINE
8
Layer 1
10
-364.746000
20
189.173000
11
-366.552000
21
189.173000
0
LINE
8
Layer 1
10
-366.552000
20
189.173000
11
-366.552000
21
187.367000
0
LINE
8
Layer 1
10
-366.552000
20
187.367000
11
-368.357000
21
187.367000
0
LINE
8
Layer 1
10
-368.357000
20
187.367000
11
-368.357000
21
185.561000
0
LINE
8
Layer 1
10
-368.357000
20
185.561000
11
-366.552000
21
185.561000
0
LINE
8
Layer 1
10
-366.552000
20
185.561000
11
-366.552000
21
183.755000
0
LINE
8
Layer 1
10
-366.552000
20
183.755000
11
-368.357000
21
183.755000
0
LINE
8
Layer 1
10
-368.357000
20
183.755000
11
-370.163000
21
183.755000
0
LINE
8
Layer 1
10
-370.163000
20
183.755000
11
-370.163000
21
181.950000
0
LINE
8
Layer 1
10
-370.163000
20
181.950000
11
-368.357000
21
181.950000
0
LINE
8
Layer 1
10
-368.357000
20
181.950000
11
-368.357000
21
180.144000
0
LINE
8
Layer 1
10
-368.357000
20
180.144000
11
-370.163000
21
180.144000
0
LINE
8
Layer 1
10
-370.163000
20
180.144000
11
-370.163000
21
178.338000
0
LINE
8
Layer 1
10
-370.163000
20
178.338000
11
-371.969000
21
178.338000
0
LINE
8
Layer 1
10
-371.969000
20
178.338000
11
-371.969000
21
180.144000
0
LINE
8
Layer 1
10
-371.969000
20
180.144000
11
-371.969000
21
181.950000
0
LINE
8
Layer 1
10
-371.969000
20
181.950000
11
-373.775000
21
181.950000
0
LINE
8
Layer 1
10
-373.775000
20
181.950000
11
-373.775000
21
180.144000
0
LINE
8
Layer 1
10
-373.775000
20
180.144000
11
-375.581000
21
180.144000
0
LINE
8
Layer 1
10
-375.581000
20
180.144000
11
-375.581000
21
178.338000
0
LINE
8
Layer 1
10
-375.581000
20
178.338000
11
-373.775000
21
178.338000
0
LINE
8
Layer 1
10
-373.775000
20
178.338000
11
-373.775000
21
176.532000
0
LINE
8
Layer 1
10
-373.775000
20
176.532000
11
-375.581000
21
176.532000
0
LINE
8
Layer 1
10
-375.581000
20
176.532000
11
-377.387000
21
176.532000
0
LINE
8
Layer 1
10
-377.387000
20
176.532000
11
-377.387000
21
174.726000
0
LINE
8
Layer 1
10
-377.387000
20
174.726000
11
-375.581000
21
174.726000
0
LINE
8
Layer 1
10
-375.581000
20
174.726000
11
-375.581000
21
172.920000
0
LINE
8
Layer 1
10
-375.581000
20
172.920000
11
-373.775000
21
172.920000
0
LINE
8
Layer 1
10
-373.775000
20
172.920000
11
-373.775000
21
174.726000
0
LINE
8
Layer 1
10
-373.775000
20
174.726000
11
-371.969000
21
174.726000
0
LINE
8
Layer 1
10
-371.969000
20
174.726000
11
-371.969000
21
172.920000
0
LINE
8
Layer 1
10
-371.969000
20
172.920000
11
-371.969000
21
171.114000
0
LINE
8
Layer 1
10
-371.969000
20
171.114000
11
-370.163000
21
171.114000
0
LINE
8
Layer 1
10
-370.163000
20
171.114000
11
-370.163000
21
172.920000
0
LINE
8
Layer 1
10
-370.163000
20
172.920000
11
-368.357000
21
172.920000
0
LINE
8
Layer 1
10
-368.357000
20
172.920000
11
-368.357000
21
171.114000
0
LINE
8
Layer 1
10
-368.357000
20
171.114000
11
-366.552000
21
171.114000
0
LINE
8
Layer 1
10
-366.552000
20
171.114000
11
-366.552000
21
169.309000
0
LINE
8
Layer 1
10
-366.552000
20
169.309000
11
-368.357000
21
169.309000
0
LINE
8
Layer 1
10
-368.357000
20
169.309000
11
-370.163000
21
169.309000
0
LINE
8
Layer 1
10
-370.163000
20
169.309000
11
-370.163000
21
167.503000
0
LINE
8
Layer 1
10
-370.163000
20
167.503000
11
-368.357000
21
167.503000
0
LINE
8
Layer 1
10
-368.357000
20
167.503000
11
-368.357000
21
165.697000
0
LINE
8
Layer 1
10
-368.357000
20
165.697000
11
-370.163000
21
165.697000
0
LINE
8
Layer 1
10
-370.163000
20
165.697000
11
-370.163000
21
163.891000
0
LINE
8
Layer 1
10
-370.163000
20
163.891000
11
-371.969000
21
163.891000
0
LINE
8
Layer 1
10
-371.969000
20
163.891000
11
-371.969000
21
165.697000
0
LINE
8
Layer 1
10
-371.969000
20
165.697000
11
-371.969000
21
167.503000
0
LINE
8
Layer 1
10
-371.969000
20
167.503000
11
-373.775000
21
167.503000
0
LINE
8
Layer 1
10
-373.775000
20
167.503000
11
-373.775000
21
165.697000
0
LINE
8
Layer 1
10
-373.775000
20
165.697000
11
-375.581000
21
165.697000
0
LINE
8
Layer 1
10
-375.581000
20
165.697000
11
-377.387000
21
165.697000
0
LINE
8
Layer 1
10
-377.387000
20
165.697000
11
-377.387000
21
163.891000
0
LINE
8
Layer 1
10
-377.387000
20
163.891000
11
-379.193000
21
163.891000
0
LINE
8
Layer 1
10
-379.193000
20
163.891000
11
-379.193000
21
165.697000
0
LINE
8
Layer 1
10
-379.193000
20
165.697000
11
-379.193000
21
167.503000
0
LINE
8
Layer 1
10
-379.193000
20
167.503000
11
-380.999000
21
167.503000
0
LINE
8
Layer 1
10
-380.999000
20
167.503000
11
-380.999000
21
165.697000
0
LINE
8
Layer 1
10
-380.999000
20
165.697000
11
-382.804000
21
165.697000
0
LINE
8
Layer 1
10
-382.804000
20
165.697000
11
-382.804000
21
163.891000
0
LINE
8
Layer 1
10
-382.804000
20
163.891000
11
-380.999000
21
163.891000
0
LINE
8
Layer 1
10
-380.999000
20
163.891000
11
-380.999000
21
162.085000
0
LINE
8
Layer 1
10
-380.999000
20
162.085000
11
-382.804000
21
162.085000
0
LINE
8
Layer 1
10
-382.804000
20
162.085000
11
-384.610000
21
162.085000
0
LINE
8
Layer 1
10
-384.610000
20
162.085000
11
-384.610000
21
160.279000
0
LINE
8
Layer 1
10
-384.610000
20
160.279000
11
-382.804000
21
160.279000
0
LINE
8
Layer 1
10
-382.804000
20
160.279000
11
-382.804000
21
158.473000
0
LINE
8
Layer 1
10
-382.804000
20
158.473000
11
-380.999000
21
158.473000
0
LINE
8
Layer 1
10
-380.999000
20
158.473000
11
-380.999000
21
160.279000
0
LINE
8
Layer 1
10
-380.999000
20
160.279000
11
-379.193000
21
160.279000
0
LINE
8
Layer 1
10
-379.193000
20
160.279000
11
-379.193000
21
158.473000
0
LINE
8
Layer 1
10
-379.193000
20
158.473000
11
-379.193000
21
156.667000
0
LINE
8
Layer 1
10
-379.193000
20
156.667000
11
-377.387000
21
156.667000
0
LINE
8
Layer 1
10
-377.387000
20
156.667000
11
-377.387000
21
158.473000
0
LINE
8
Layer 1
10
-377.387000
20
158.473000
11
-375.581000
21
158.473000
0
LINE
8
Layer 1
10
-375.581000
20
158.473000
11
-375.581000
21
156.667000
0
LINE
8
Layer 1
10
-375.581000
20
156.667000
11
-373.775000
21
156.667000
0
LINE
8
Layer 1
10
-373.775000
20
156.667000
11
-373.775000
21
154.862000
0
LINE
8
Layer 1
10
-373.775000
20
154.862000
11
-375.581000
21
154.862000
0
LINE
8
Layer 1
10
-375.581000
20
154.862000
11
-377.387000
21
154.862000
0
LINE
8
Layer 1
10
-377.387000
20
154.862000
11
-377.387000
21
153.056000
0
LINE
8
Layer 1
10
-377.387000
20
153.056000
11
-375.581000
21
153.056000
0
LINE
8
Layer 1
10
-375.581000
20
153.056000
11
-375.581000
21
151.250000
0
LINE
8
Layer 1
10
-375.581000
20
151.250000
11
-377.387000
21
151.250000
0
LINE
8
Layer 1
10
-377.387000
20
151.250000
11
-377.387000
21
149.444000
0
LINE
8
Layer 1
10
-377.387000
20
149.444000
11
-379.193000
21
149.444000
0
LINE
8
Layer 1
10
-379.193000
20
149.444000
11
-379.193000
21
151.250000
0
LINE
8
Layer 1
10
-379.193000
20
151.250000
11
-379.193000
21
153.056000
0
LINE
8
Layer 1
10
-379.193000
20
153.056000
11
-380.999000
21
153.056000
0
LINE
8
Layer 1
10
-380.999000
20
153.056000
11
-380.999000
21
151.250000
0
LINE
8
Layer 1
10
-380.999000
20
151.250000
11
-382.804000
21
151.250000
0
LINE
8
Layer 1
10
-382.804000
20
151.250000
11
-382.804000
21
149.444000
0
LINE
8
Layer 1
10
-382.804000
20
149.444000
11
-380.999000
21
149.444000
0
LINE
8
Layer 1
10
-380.999000
20
149.444000
11
-380.999000
21
147.638000
0
LINE
8
Layer 1
10
-380.999000
20
147.638000
11
-382.804000
21
147.638000
0
LINE
8
Layer 1
10
-382.804000
20
147.638000
11
-384.610000
21
147.638000
0
LINE
8
Layer 1
10
-384.610000
20
147.638000
11
-384.610000
21
145.832000
0
LINE
8
Layer 1
10
-384.610000
20
145.832000
11
-382.804000
21
145.832000
0
LINE
8
Layer 1
10
-382.804000
20
145.832000
11
-382.804000
21
144.026000
0
LINE
8
Layer 1
10
-382.804000
20
144.026000
11
-384.610000
21
144.026000
0
LINE
8
Layer 1
10
-384.610000
20
144.026000
11
-384.610000
21
142.221000
0
LINE
8
Layer 1
10
-384.610000
20
142.221000
11
-386.416000
21
142.221000
0
LINE
8
Layer 1
10
-386.416000
20
142.221000
11
-386.416000
21
144.026000
0
LINE
8
Layer 1
10
-386.416000
20
144.026000
11
-386.416000
21
145.832000
0
LINE
8
Layer 1
10
-386.416000
20
145.832000
11
-388.222000
21
145.832000
0
LINE
8
Layer 1
10
-388.222000
20
145.832000
11
-388.222000
21
144.026000
0
LINE
8
Layer 1
10
-388.222000
20
144.026000
11
-390.028000
21
144.026000
0
LINE
8
Layer 1
10
-390.028000
20
144.026000
11
-390.028000
21
145.832000
0
LINE
8
Layer 1
10
-390.028000
20
145.832000
11
-391.834000
21
145.832000
0
LINE
8
Layer 1
10
-391.834000
20
145.832000
11
-391.834000
21
147.638000
0
LINE
8
Layer 1
10
-391.834000
20
147.638000
11
-390.028000
21
147.638000
0
LINE
8
Layer 1
10
-390.028000
20
147.638000
11
-388.222000
21
147.638000
0
LINE
8
Layer 1
10
-388.222000
20
147.638000
11
-388.222000
21
149.444000
0
LINE
8
Layer 1
10
-388.222000
20
149.444000
11
-390.028000
21
149.444000
0
LINE
8
Layer 1
10
-390.028000
20
149.444000
11
-390.028000
21
151.250000
0
LINE
8
Layer 1
10
-390.028000
20
151.250000
11
-390.028000
21
153.056000
0
LINE
8
Layer 1
10
-390.028000
20
153.056000
11
-391.834000
21
153.056000
0
LINE
8
Layer 1
10
-391.834000
20
153.056000
11
-391.834000
21
154.862000
0
LINE
8
Layer 1
10
-391.834000
20
154.862000
11
-390.028000
21
154.862000
0
LINE
8
Layer 1
10
-390.028000
20
154.862000
11
-388.222000
21
154.862000
0
LINE
8
Layer 1
10
-388.222000
20
154.862000
11
-388.222000
21
156.667000
0
LINE
8
Layer 1
10
-388.222000
20
156.667000
11
-390.028000
21
156.667000
0
LINE
8
Layer 1
10
-390.028000
20
156.667000
11
-390.028000
21
158.473000
0
LINE
8
Layer 1
10
-390.028000
20
158.473000
11
-391.834000
21
158.473000
0
LINE
8
Layer 1
10
-391.834000
20
158.473000
11
-391.834000
21
156.667000
0
LINE
8
Layer 1
10
-391.834000
20
156.667000
11
-393.640000
21
156.667000
0
LINE
8
Layer 1
10
-393.640000
20
156.667000
11
-393.640000
21
158.473000
0
LINE
8
Layer 1
10
-393.640000
20
158.473000
11
-393.640000
21
160.279000
0
LINE
8
Layer 1
10
-393.640000
20
160.279000
11
-395.446000
21
160.279000
0
LINE
8
Layer 1
10
-395.446000
20
160.279000
11
-395.446000
21
158.473000
0
LINE
8
Layer 1
10
-395.446000
20
158.473000
11
-397.251000
21
158.473000
0
LINE
8
Layer 1
10
-397.251000
20
158.473000
11
-397.251000
21
156.667000
0
LINE
8
Layer 1
10
-397.251000
20
156.667000
11
-395.446000
21
156.667000
0
LINE
8
Layer 1
10
-395.446000
20
156.667000
11
-395.446000
21
154.862000
0
LINE
8
Layer 1
10
-395.446000
20
154.862000
11
-397.251000
21
154.862000
0
LINE
8
Layer 1
10
-397.251000
20
154.862000
11
-399.057000
21
154.862000
0
LINE
8
Layer 1
10
-399.057000
20
154.862000
11
-399.057000
21
153.056000
0
LINE
8
Layer 1
10
-399.057000
20
153.056000
11
-397.251000
21
153.056000
0
LINE
8
Layer 1
10
-397.251000
20
153.056000
11
-397.251000
21
151.250000
0
LINE
8
Layer 1
10
-397.251000
20
151.250000
11
-399.057000
21
151.250000
0
LINE
8
Layer 1
10
-399.057000
20
151.250000
11
-399.057000
21
149.444000
0
LINE
8
Layer 1
10
-399.057000
20
149.444000
11
-400.863000
21
149.444000
0
LINE
8
Layer 1
10
-400.863000
20
149.444000
11
-400.863000
21
151.250000
0
LINE
8
Layer 1
10
-400.863000
20
151.250000
11
-400.863000
21
153.056000
0
LINE
8
Layer 1
10
-400.863000
20
153.056000
11
-402.669000
21
153.056000
0
LINE
8
Layer 1
10
-402.669000
20
153.056000
11
-402.669000
21
151.250000
0
LINE
8
Layer 1
10
-402.669000
20
151.250000
11
-404.475000
21
151.250000
 0 
ENDSEC
 0 
EOF