  0
SECTION
  2
HEADER
  9
$ACADVER
  1
AC1014
  9
$HANDSEED
  5
FFFF
  9
$MEASUREMENT
 70
     1
  0
ENDSEC
  0
SECTION
  2
TABLES
  0
TABLE
  2
VPORT
  5
8
330
0
100
AcDbSymbolTable
 70
     4
  0
VPORT
  5
2E
330
8
100
AcDbSymbolTableRecord
100
AcDbViewportTableRecord
  2
*ACTIVE
 70
     0
 10
0.0
 20
0.0
 11
1.0
 21
1.0
 12
210.0
 22
148.5
 13
0.0
 23
0.0
 14
10.0
 24
10.0
 15
10.0
 25
10.0
 16
0.0
 26
0.0
 36
1.0
 17
0.0
 27
0.0
 37
0.0
 40
341.0
 41
1.24
 42
50.0
 43
0.0
 44
0.0
 50
0.0
 51
0.0
 71
     0
 72
   100
 73
     1
 74
     3
 75
     0
 76
     0
 77
     0
 78
     0
  0
ENDTAB
  0
TABLE
  2
LTYPE
  5
5
330
0
100
AcDbSymbolTable
 70
     1
  0
LTYPE
  5
14
330
5
100
AcDbSymbolTableRecord
100
AcDbLinetypeTableRecord
  2
BYBLOCK
 70
     0
  3

 72
    65
 73
     0
 40
0.0
  0
LTYPE
  5
15
330
5
100
AcDbSymbolTableRecord
100
AcDbLinetypeTableRecord
  2
BYLAYER
 70
     0
  3

 72
    65
 73
     0
 40
0.0
  0
LTYPE
  5
16
330
5
100
AcDbSymbolTableRecord
100
AcDbLinetypeTableRecord
  2
CONTINUOUS
 70
     0
  3
Solid line
 72
    65
 73
     0
 40
0.0
  0
ENDTAB
  0
TABLE
  2
LAYER
  5
2
100
AcDbSymbolTable
 70
1
  0
LAYER
  5
50
100
AcDbSymbolTableRecord
100
AcDbLayerTableRecord
  2
0
 70
0
  6
CONTINUOUS
  0
ENDTAB
  0
TABLE
  2
STYLE
  5
3
330
0
100
AcDbSymbolTable
 70
     1
  0
STYLE
  5
11
330
3
100
AcDbSymbolTableRecord
100
AcDbTextStyleTableRecord
  2
STANDARD
 70
     0
 40
0.0
 41
1.0
 50
0.0
 71
     0
 42
2.5
  3
txt
  4

  0
ENDTAB
  0
TABLE
  2
VIEW
  5
6
330
0
100
AcDbSymbolTable
 70
     0
  0
ENDTAB
  0
TABLE
  2
UCS
  5
7
330
0
100
AcDbSymbolTable
 70
     0
  0
ENDTAB
  0
TABLE
  2
APPID
  5
9
330
0
100
AcDbSymbolTable
 70
     2
  0
APPID
  5
12
330
9
100
AcDbSymbolTableRecord
100
AcDbRegAppTableRecord
  2
ACAD
 70
     0
  0
ENDTAB
  0
TABLE
  2
DIMSTYLE
  5
A
330
0
100
AcDbSymbolTable
 70
     1
  0
DIMSTYLE
105
27
330
A
100
AcDbSymbolTableRecord
100
AcDbDimStyleTableRecord
  2
ISO-25
 70
     0
  3

  4

  5

  6

  7

 40
1.0
 41
2.5
 42
0.625
 43
3.75
 44
1.25
 45
0.0
 46
0.0
 47
0.0
 48
0.0
140
2.5
141
2.5
142
0.0
143
0.03937007874016
144
1.0
145
0.0
146
1.0
147
0.625
 71
     0
 72
     0
 73
     0
 74
     0
 75
     0
 76
     0
 77
     1
 78
     8
170
     0
171
     3
172
     1
173
     0
174
     0
175
     0
176
     0
177
     0
178
     0
270
     2
271
     2
272
     2
273
     2
274
     3
340
11
275
     0
280
     0
281
     0
282
     0
283
     0
284
     8
285
     0
286
     0
287
     3
288
     0
  0
ENDTAB
  0
TABLE
  2
BLOCK_RECORD
  5
1
330
0
100
AcDbSymbolTable
 70
     1
  0
BLOCK_RECORD
  5
1F
330
1
100
AcDbSymbolTableRecord
100
AcDbBlockTableRecord
  2
*MODEL_SPACE
  0
BLOCK_RECORD
  5
1B
330
1
100
AcDbSymbolTableRecord
100
AcDbBlockTableRecord
  2
*PAPER_SPACE
  0
ENDTAB
  0
ENDSEC
  0
SECTION
  2
BLOCKS
  0
BLOCK
  5
20
330
1F
100
AcDbEntity
  8
0
100
AcDbBlockBegin
  2
*MODEL_SPACE
 70
     0
 10
0.0
 20
0.0
 30
0.0
  3
*MODEL_SPACE
  1

  0
ENDBLK
  5
21
330
1F
100
AcDbEntity
  8
0
100
AcDbBlockEnd
  0
BLOCK
  5
1C
330
1B
100
AcDbEntity
 67
     1
  8
0
100
AcDbBlockBegin
  2
*PAPER_SPACE
  1

  0
ENDBLK
  5
1D
330
1B
100
AcDbEntity
 67
     1
  8
0
100
AcDbBlockEnd
  0
ENDSEC
  0
SECTION
  2
ENTITIES
  0
SPLINE
  5
100
100
AcDbEntity
  8
0
 62
5
100
AcDbSpline
 70
8
 71
3
 72
8
 73
4
 74
0
 40
0
 40
0
 40
0
 40
0
 40
1
 40
1
 40
1
 40
1
 10
37.698561
 20
213.412048
 30
0.0
 10
37.698561
 20
213.097778
 30
0.0
 10
37.573718
 20
212.796380
 30
0.0
 10
37.351496
 20
212.574158
 30
0.0
  0
SPLINE
  5
101
100
AcDbEntity
  8
0
 62
5
100
AcDbSpline
 70
8
 71
3
 72
8
 73
4
 74
0
 40
0
 40
0
 40
0
 40
0
 40
1
 40
1
 40
1
 40
1
 10
37.351496
 20
212.574158
 30
0.0
 10
37.129274
 20
212.351936
 30
0.0
 10
36.827876
 20
212.227092
 30
0.0
 10
36.513606
 20
212.227093
 30
0.0
  0
SPLINE
  5
102
100
AcDbEntity
  8
0
 62
5
100
AcDbSpline
 70
8
 71
3
 72
8
 73
4
 74
0
 40
0
 40
0
 40
0
 40
0
 40
1
 40
1
 40
1
 40
1
 10
36.513606
 20
212.227093
 30
0.0
 10
36.199336
 20
212.227092
 30
0.0
 10
35.897938
 20
212.351936
 30
0.0
 10
35.675716
 20
212.574158
 30
0.0
  0
SPLINE
  5
103
100
AcDbEntity
  8
0
 62
5
100
AcDbSpline
 70
8
 71
3
 72
8
 73
4
 74
0
 40
0
 40
0
 40
0
 40
0
 40
1
 40
1
 40
1
 40
1
 10
35.675716
 20
212.574158
 30
0.0
 10
35.453494
 20
212.796380
 30
0.0
 10
35.328651
 20
213.097778
 30
0.0
 10
35.328651
 20
213.412048
 30
0.0
  0
SPLINE
  5
104
100
AcDbEntity
  8
0
 62
5
100
AcDbSpline
 70
8
 71
3
 72
8
 73
4
 74
0
 40
0
 40
0
 40
0
 40
0
 40
1
 40
1
 40
1
 40
1
 10
35.328651
 20
213.412048
 30
0.0
 10
35.328651
 20
213.726317
 30
0.0
 10
35.453494
 20
214.027715
 30
0.0
 10
35.675716
 20
214.249937
 30
0.0
  0
SPLINE
  5
105
100
AcDbEntity
  8
0
 62
5
100
AcDbSpline
 70
8
 71
3
 72
8
 73
4
 74
0
 40
0
 40
0
 40
0
 40
0
 40
1
 40
1
 40
1
 40
1
 10
35.675716
 20
214.249937
 30
0.0
 10
35.897938
 20
214.472159
 30
0.0
 10
36.199336
 20
214.597003
 30
0.0
 10
36.513606
 20
214.597002
 30
0.0
  0
SPLINE
  5
106
100
AcDbEntity
  8
0
 62
5
100
AcDbSpline
 70
8
 71
3
 72
8
 73
4
 74
0
 40
0
 40
0
 40
0
 40
0
 40
1
 40
1
 40
1
 40
1
 10
36.513606
 20
214.597002
 30
0.0
 10
36.827876
 20
214.597003
 30
0.0
 10
37.129274
 20
214.472159
 30
0.0
 10
37.351496
 20
214.249937
 30
0.0
  0
SPLINE
  5
107
100
AcDbEntity
  8
0
 62
5
100
AcDbSpline
 70
8
 71
3
 72
8
 73
4
 74
0
 40
0
 40
0
 40
0
 40
0
 40
1
 40
1
 40
1
 40
1
 10
37.351496
 20
214.249937
 30
0.0
 10
37.573718
 20
214.027715
 30
0.0
 10
37.698561
 20
213.726317
 30
0.0
 10
37.698561
 20
213.412048
 30
0.0
  0
LWPOLYLINE
  5
108
100
AcDbEntity
  8
0
 62
5
100
AcDbPolyline
 90
4
 70
1
 10
12.563976
 20
240.936025
 30
0.0
 10
197.436026
 20
240.936025
 30
0.0
 10
197.436026
 20
56.063977
 30
0.0
 10
12.563976
 20
56.063977
 30
0.0
  0
SPLINE
  5
109
100
AcDbEntity
  8
0
 62
5
100
AcDbSpline
 70
8
 71
3
 72
8
 73
4
 74
0
 40
0
 40
0
 40
0
 40
0
 40
1
 40
1
 40
1
 40
1
 10
37.698561
 20
83.630255
 30
0.0
 10
37.698561
 20
83.315986
 30
0.0
 10
37.573718
 20
83.014588
 30
0.0
 10
37.351496
 20
82.792366
 30
0.0
  0
SPLINE
  5
10a
100
AcDbEntity
  8
0
 62
5
100
AcDbSpline
 70
8
 71
3
 72
8
 73
4
 74
0
 40
0
 40
0
 40
0
 40
0
 40
1
 40
1
 40
1
 40
1
 10
37.351496
 20
82.792366
 30
0.0
 10
37.129274
 20
82.570143
 30
0.0
 10
36.827876
 20
82.445300
 30
0.0
 10
36.513606
 20
82.445300
 30
0.0
  0
SPLINE
  5
10b
100
AcDbEntity
  8
0
 62
5
100
AcDbSpline
 70
8
 71
3
 72
8
 73
4
 74
0
 40
0
 40
0
 40
0
 40
0
 40
1
 40
1
 40
1
 40
1
 10
36.513606
 20
82.445300
 30
0.0
 10
36.199336
 20
82.445300
 30
0.0
 10
35.897938
 20
82.570143
 30
0.0
 10
35.675716
 20
82.792366
 30
0.0
  0
SPLINE
  5
10c
100
AcDbEntity
  8
0
 62
5
100
AcDbSpline
 70
8
 71
3
 72
8
 73
4
 74
0
 40
0
 40
0
 40
0
 40
0
 40
1
 40
1
 40
1
 40
1
 10
35.675716
 20
82.792366
 30
0.0
 10
35.453494
 20
83.014588
 30
0.0
 10
35.328651
 20
83.315986
 30
0.0
 10
35.328651
 20
83.630255
 30
0.0
  0
SPLINE
  5
10d
100
AcDbEntity
  8
0
 62
5
100
AcDbSpline
 70
8
 71
3
 72
8
 73
4
 74
0
 40
0
 40
0
 40
0
 40
0
 40
1
 40
1
 40
1
 40
1
 10
35.328651
 20
83.630255
 30
0.0
 10
35.328651
 20
83.944525
 30
0.0
 10
35.453494
 20
84.245923
 30
0.0
 10
35.675716
 20
84.468145
 30
0.0
  0
SPLINE
  5
10e
100
AcDbEntity
  8
0
 62
5
100
AcDbSpline
 70
8
 71
3
 72
8
 73
4
 74
0
 40
0
 40
0
 40
0
 40
0
 40
1
 40
1
 40
1
 40
1
 10
35.675716
 20
84.468145
 30
0.0
 10
35.897938
 20
84.690367
 30
0.0
 10
36.199336
 20
84.815210
 30
0.0
 10
36.513606
 20
84.815210
 30
0.0
  0
SPLINE
  5
10f
100
AcDbEntity
  8
0
 62
5
100
AcDbSpline
 70
8
 71
3
 72
8
 73
4
 74
0
 40
0
 40
0
 40
0
 40
0
 40
1
 40
1
 40
1
 40
1
 10
36.513606
 20
84.815210
 30
0.0
 10
36.827876
 20
84.815210
 30
0.0
 10
37.129274
 20
84.690367
 30
0.0
 10
37.351496
 20
84.468145
 30
0.0
  0
SPLINE
  5
110
100
AcDbEntity
  8
0
 62
5
100
AcDbSpline
 70
8
 71
3
 72
8
 73
4
 74
0
 40
0
 40
0
 40
0
 40
0
 40
1
 40
1
 40
1
 40
1
 10
37.351496
 20
84.468145
 30
0.0
 10
37.573718
 20
84.245923
 30
0.0
 10
37.698561
 20
83.944525
 30
0.0
 10
37.698561
 20
83.630255
 30
0.0
  0
LWPOLYLINE
  5
111
100
AcDbEntity
  8
0
 62
5
100
AcDbPolyline
 90
1
 70
1
 10
37.698561
 20
213.412048
 30
0.0
  0
SPLINE
  5
112
100
AcDbEntity
  8
0
 62
5
100
AcDbSpline
 70
8
 71
3
 72
8
 73
4
 74
0
 40
0
 40
0
 40
0
 40
0
 40
1
 40
1
 40
1
 40
1
 10
174.629035
 20
83.630255
 30
0.0
 10
174.629035
 20
83.315986
 30
0.0
 10
174.504192
 20
83.014588
 30
0.0
 10
174.281970
 20
82.792366
 30
0.0
  0
SPLINE
  5
113
100
AcDbEntity
  8
0
 62
5
100
AcDbSpline
 70
8
 71
3
 72
8
 73
4
 74
0
 40
0
 40
0
 40
0
 40
0
 40
1
 40
1
 40
1
 40
1
 10
174.281970
 20
82.792366
 30
0.0
 10
174.059748
 20
82.570143
 30
0.0
 10
173.758350
 20
82.445300
 30
0.0
 10
173.444080
 20
82.445300
 30
0.0
  0
SPLINE
  5
114
100
AcDbEntity
  8
0
 62
5
100
AcDbSpline
 70
8
 71
3
 72
8
 73
4
 74
0
 40
0
 40
0
 40
0
 40
0
 40
1
 40
1
 40
1
 40
1
 10
173.444080
 20
82.445300
 30
0.0
 10
173.129810
 20
82.445300
 30
0.0
 10
172.828412
 20
82.570143
 30
0.0
 10
172.606190
 20
82.792366
 30
0.0
  0
SPLINE
  5
115
100
AcDbEntity
  8
0
 62
5
100
AcDbSpline
 70
8
 71
3
 72
8
 73
4
 74
0
 40
0
 40
0
 40
0
 40
0
 40
1
 40
1
 40
1
 40
1
 10
172.606190
 20
82.792366
 30
0.0
 10
172.383968
 20
83.014588
 30
0.0
 10
172.259125
 20
83.315986
 30
0.0
 10
172.259125
 20
83.630255
 30
0.0
  0
SPLINE
  5
116
100
AcDbEntity
  8
0
 62
5
100
AcDbSpline
 70
8
 71
3
 72
8
 73
4
 74
0
 40
0
 40
0
 40
0
 40
0
 40
1
 40
1
 40
1
 40
1
 10
172.259125
 20
83.630255
 30
0.0
 10
172.259125
 20
83.944525
 30
0.0
 10
172.383968
 20
84.245923
 30
0.0
 10
172.606190
 20
84.468145
 30
0.0
  0
SPLINE
  5
117
100
AcDbEntity
  8
0
 62
5
100
AcDbSpline
 70
8
 71
3
 72
8
 73
4
 74
0
 40
0
 40
0
 40
0
 40
0
 40
1
 40
1
 40
1
 40
1
 10
172.606190
 20
84.468145
 30
0.0
 10
172.828412
 20
84.690367
 30
0.0
 10
173.129810
 20
84.815210
 30
0.0
 10
173.444080
 20
84.815210
 30
0.0
  0
SPLINE
  5
118
100
AcDbEntity
  8
0
 62
5
100
AcDbSpline
 70
8
 71
3
 72
8
 73
4
 74
0
 40
0
 40
0
 40
0
 40
0
 40
1
 40
1
 40
1
 40
1
 10
173.444080
 20
84.815210
 30
0.0
 10
173.758350
 20
84.815210
 30
0.0
 10
174.059748
 20
84.690367
 30
0.0
 10
174.281970
 20
84.468145
 30
0.0
  0
SPLINE
  5
119
100
AcDbEntity
  8
0
 62
5
100
AcDbSpline
 70
8
 71
3
 72
8
 73
4
 74
0
 40
0
 40
0
 40
0
 40
0
 40
1
 40
1
 40
1
 40
1
 10
174.281970
 20
84.468145
 30
0.0
 10
174.504192
 20
84.245923
 30
0.0
 10
174.629035
 20
83.944525
 30
0.0
 10
174.629035
 20
83.630255
 30
0.0
  0
LWPOLYLINE
  5
11a
100
AcDbEntity
  8
0
 62
5
100
AcDbPolyline
 90
1
 70
1
 10
37.698561
 20
83.630255
 30
0.0
  0
SPLINE
  5
11b
100
AcDbEntity
  8
0
 62
5
100
AcDbSpline
 70
8
 71
3
 72
8
 73
4
 74
0
 40
0
 40
0
 40
0
 40
0
 40
1
 40
1
 40
1
 40
1
 10
174.629035
 20
213.412048
 30
0.0
 10
174.629035
 20
213.097778
 30
0.0
 10
174.504192
 20
212.796380
 30
0.0
 10
174.281970
 20
212.574158
 30
0.0
  0
SPLINE
  5
11c
100
AcDbEntity
  8
0
 62
5
100
AcDbSpline
 70
8
 71
3
 72
8
 73
4
 74
0
 40
0
 40
0
 40
0
 40
0
 40
1
 40
1
 40
1
 40
1
 10
174.281970
 20
212.574158
 30
0.0
 10
174.059748
 20
212.351936
 30
0.0
 10
173.758350
 20
212.227092
 30
0.0
 10
173.444080
 20
212.227093
 30
0.0
  0
SPLINE
  5
11d
100
AcDbEntity
  8
0
 62
5
100
AcDbSpline
 70
8
 71
3
 72
8
 73
4
 74
0
 40
0
 40
0
 40
0
 40
0
 40
1
 40
1
 40
1
 40
1
 10
173.444080
 20
212.227093
 30
0.0
 10
173.129810
 20
212.227092
 30
0.0
 10
172.828412
 20
212.351936
 30
0.0
 10
172.606190
 20
212.574158
 30
0.0
  0
SPLINE
  5
11e
100
AcDbEntity
  8
0
 62
5
100
AcDbSpline
 70
8
 71
3
 72
8
 73
4
 74
0
 40
0
 40
0
 40
0
 40
0
 40
1
 40
1
 40
1
 40
1
 10
172.606190
 20
212.574158
 30
0.0
 10
172.383968
 20
212.796380
 30
0.0
 10
172.259125
 20
213.097778
 30
0.0
 10
172.259125
 20
213.412048
 30
0.0
  0
SPLINE
  5
11f
100
AcDbEntity
  8
0
 62
5
100
AcDbSpline
 70
8
 71
3
 72
8
 73
4
 74
0
 40
0
 40
0
 40
0
 40
0
 40
1
 40
1
 40
1
 40
1
 10
172.259125
 20
213.412048
 30
0.0
 10
172.259125
 20
213.726317
 30
0.0
 10
172.383968
 20
214.027715
 30
0.0
 10
172.606190
 20
214.249937
 30
0.0
  0
SPLINE
  5
120
100
AcDbEntity
  8
0
 62
5
100
AcDbSpline
 70
8
 71
3
 72
8
 73
4
 74
0
 40
0
 40
0
 40
0
 40
0
 40
1
 40
1
 40
1
 40
1
 10
172.606190
 20
214.249937
 30
0.0
 10
172.828412
 20
214.472159
 30
0.0
 10
173.129810
 20
214.597003
 30
0.0
 10
173.444080
 20
214.597002
 30
0.0
  0
SPLINE
  5
121
100
AcDbEntity
  8
0
 62
5
100
AcDbSpline
 70
8
 71
3
 72
8
 73
4
 74
0
 40
0
 40
0
 40
0
 40
0
 40
1
 40
1
 40
1
 40
1
 10
173.444080
 20
214.597002
 30
0.0
 10
173.758350
 20
214.597003
 30
0.0
 10
174.059748
 20
214.472159
 30
0.0
 10
174.281970
 20
214.249937
 30
0.0
  0
SPLINE
  5
122
100
AcDbEntity
  8
0
 62
5
100
AcDbSpline
 70
8
 71
3
 72
8
 73
4
 74
0
 40
0
 40
0
 40
0
 40
0
 40
1
 40
1
 40
1
 40
1
 10
174.281970
 20
214.249937
 30
0.0
 10
174.504192
 20
214.027715
 30
0.0
 10
174.629035
 20
213.726317
 30
0.0
 10
174.629035
 20
213.412048
 30
0.0
  0
LWPOLYLINE
  5
123
100
AcDbEntity
  8
0
 62
5
100
AcDbPolyline
 90
1
 70
1
 10
174.629035
 20
83.630255
 30
0.0
  0
LWPOLYLINE
  5
124
100
AcDbEntity
  8
0
 62
5
100
AcDbPolyline
 90
1
 70
1
 10
174.629035
 20
213.412048
 30
0.0
  0
LWPOLYLINE
  5
125
100
AcDbEntity
  8
0
 62
7
100
AcDbPolyline
 90
2048
 70
1
 10
25.145936
 20
150.551116
 30
0.0
 10
26.425277
 20
151.766358
 30
0.0
 10
25.210035
 20
153.045699
 30
0.0
 10
26.489376
 20
154.260941
 30
0.0
 10
27.704618
 20
152.981600
 30
0.0
 10
28.919860
 20
151.702259
 30
0.0
 10
30.199201
 20
152.917501
 30
0.0
 10
28.983959
 20
154.196842
 30
0.0
 10
30.263300
 20
155.412084
 30
0.0
 10
29.048058
 20
156.691425
 30
0.0
 10
27.768717
 20
155.476183
 30
0.0
 10
26.553475
 20
156.755524
 30
0.0
 10
27.832816
 20
157.970766
 30
0.0
 10
29.112156
 20
159.186008
 30
0.0
 10
27.896914
 20
160.465349
 30
0.0
 10
26.617573
 20
159.250107
 30
0.0
 10
25.402331
 20
160.529448
 30
0.0
 10
26.681672
 20
161.744690
 30
0.0
 10
25.466430
 20
163.024031
 30
0.0
 10
26.745771
 20
164.239273
 30
0.0
 10
27.961013
 20
162.959932
 30
0.0
 10
29.176255
 20
161.680591
 30
0.0
 10
30.455596
 20
162.895833
 30
0.0
 10
29.240354
 20
164.175174
 30
0.0
 10
30.519695
 20
165.390416
 30
0.0
 10
31.734937
 20
164.111075
 30
0.0
 10
33.014278
 20
165.326317
 30
0.0
 10
34.229520
 20
164.046976
 30
0.0
 10
32.950179
 20
162.831734
 30
0.0
 10
31.670838
 20
161.616492
 30
0.0
 10
32.886080
 20
160.337151
 30
0.0
 10
34.165421
 20
161.552394
 30
0.0
 10
35.380663
 20
160.273053
 30
0.0
 10
36.595905
 20
158.993712
 30
0.0
 10
37.875246
 20
160.208954
 30
0.0
 10
39.090488
 20
158.929613
 30
0.0
 10
37.811147
 20
157.714371
 30
0.0
 10
36.531807
 20
156.499129
 30
0.0
 10
37.747049
 20
155.219788
 30
0.0
 10
39.026390
 20
156.435030
 30
0.0
 10
40.241632
 20
155.155689
 30
0.0
 10
41.520973
 20
156.370931
 30
0.0
 10
40.305730
 20
157.650272
 30
0.0
 10
41.585071
 20
158.865514
 30
0.0
 10
42.800313
 20
157.586173
 30
0.0
 10
44.015556
 20
156.306833
 30
0.0
 10
45.294896
 20
157.522075
 30
0.0
 10
44.079654
 20
158.801415
 30
0.0
 10
45.358995
 20
160.016658
 30
0.0
 10
44.143753
 20
161.295998
 30
0.0
 10
42.864412
 20
160.080756
 30
0.0
 10
41.649170
 20
161.360097
 30
0.0
 10
42.928511
 20
162.575339
 30
0.0
 10
44.207852
 20
163.790581
 30
0.0
 10
42.992610
 20
165.069922
 30
0.0
 10
41.713269
 20
163.854680
 30
0.0
 10
40.498027
 20
165.134021
 30
0.0
 10
41.777368
 20
166.349263
 30
0.0
 10
40.562125
 20
167.628604
 30
0.0
 10
41.841466
 20
168.843846
 30
0.0
 10
43.056708
 20
167.564505
 30
0.0
 10
44.271951
 20
166.285164
 30
0.0
 10
45.551291
 20
167.500407
 30
0.0
 10
44.336049
 20
168.779747
 30
0.0
 10
45.615390
 20
169.994990
 30
0.0
 10
44.400148
 20
171.274330
 30
0.0
 10
43.120807
 20
170.059088
 30
0.0
 10
41.905565
 20
171.338429
 30
0.0
 10
43.184906
 20
172.553671
 30
0.0
 10
44.464247
 20
173.768913
 30
0.0
 10
43.249005
 20
175.048254
 30
0.0
 10
41.969664
 20
173.833012
 30
0.0
 10
40.754422
 20
175.112353
 30
0.0
 10
39.475081
 20
173.897111
 30
0.0
 10
40.690323
 20
172.617770
 30
0.0
 10
39.410982
 20
171.402528
 30
0.0
 10
38.195740
 20
172.681869
 30
0.0
 10
36.980498
 20
173.961210
 30
0.0
 10
35.701157
 20
172.745968
 30
0.0
 10
36.916399
 20
171.466627
 30
0.0
 10
35.637058
 20
170.251385
 30
0.0
 10
34.421816
 20
171.530725
 30
0.0
 10
33.142475
 20
170.315483
 30
0.0
 10
31.927233
 20
171.594824
 30
0.0
 10
33.206574
 20
172.810066
 30
0.0
 10
34.485915
 20
174.025308
 30
0.0
 10
33.270673
 20
175.304649
 30
0.0
 10
31.991332
 20
174.089407
 30
0.0
 10
30.776090
 20
175.368748
 30
0.0
 10
32.055431
 20
176.583990
 30
0.0
 10
30.840189
 20
177.863331
 30
0.0
 10
32.119529
 20
179.078573
 30
0.0
 10
33.334772
 20
177.799232
 30
0.0
 10
34.550014
 20
176.519891
 30
0.0
 10
35.829355
 20
177.735133
 30
0.0
 10
34.614112
 20
179.014474
 30
0.0
 10
35.893453
 20
180.229716
 30
0.0
 10
37.172794
 20
181.444959
 30
0.0
 10
35.957552
 20
182.724299
 30
0.0
 10
37.236893
 20
183.939542
 30
0.0
 10
38.452135
 20
182.660201
 30
0.0
 10
39.667377
 20
181.380860
 30
0.0
 10
40.946718
 20
182.596102
 30
0.0
 10
39.731476
 20
183.875443
 30
0.0
 10
41.010817
 20
185.090685
 30
0.0
 10
39.795575
 20
186.370026
 30
0.0
 10
38.516234
 20
185.154784
 30
0.0
 10
37.300992
 20
186.434125
 30
0.0
 10
38.580333
 20
187.649367
 30
0.0
 10
39.859673
 20
188.864609
 30
0.0
 10
38.644431
 20
190.143950
 30
0.0
 10
37.365090
 20
188.928708
 30
0.0
 10
36.149848
 20
190.208048
 30
0.0
 10
34.870507
 20
188.992806
 30
0.0
 10
36.085750
 20
187.713465
 30
0.0
 10
34.806409
 20
186.498223
 30
0.0
 10
33.591167
 20
187.777564
 30
0.0
 10
32.375924
 20
189.056905
 30
0.0
 10
31.096584
 20
187.841663
 30
0.0
 10
32.311826
 20
186.562322
 30
0.0
 10
31.032485
 20
185.347080
 30
0.0
 10
29.817243
 20
186.626421
 30
0.0
 10
28.537902
 20
185.411179
 30
0.0
 10
27.322660
 20
186.690520
 30
0.0
 10
28.602001
 20
187.905762
 30
0.0
 10
29.881342
 20
189.121004
 30
0.0
 10
28.666099
 20
190.400345
 30
0.0
 10
27.386759
 20
189.185103
 30
0.0
 10
26.171516
 20
190.464443
 30
0.0
 10
27.450857
 20
191.679686
 30
0.0
 10
26.235615
 20
192.959026
 30
0.0
 10
27.514956
 20
194.174269
 30
0.0
 10
28.730198
 20
192.894928
 30
0.0
 10
29.945440
 20
191.615587
 30
0.0
 10
31.224781
 20
192.830829
 30
0.0
 10
30.009539
 20
194.110170
 30
0.0
 10
31.288880
 20
195.325412
 30
0.0
 10
30.073638
 20
196.604753
 30
0.0
 10
28.794297
 20
195.389511
 30
0.0
 10
27.579055
 20
196.668852
 30
0.0
 10
28.858396
 20
197.884094
 30
0.0
 10
30.137737
 20
199.099336
 30
0.0
 10
28.922494
 20
200.378677
 30
0.0
 10
27.643154
 20
199.163434
 30
0.0
 10
26.427911
 20
200.442775
 30
0.0
 10
27.707252
 20
201.658017
 30
0.0
 10
26.492010
 20
202.937358
 30
0.0
 10
27.771351
 20
204.152600
 30
0.0
 10
28.986593
 20
202.873260
 30
0.0
 10
30.201835
 20
201.593919
 30
0.0
 10
31.481176
 20
202.809161
 30
0.0
 10
30.265934
 20
204.088502
 30
0.0
 10
31.545275
 20
205.303744
 30
0.0
 10
32.760517
 20
204.024403
 30
0.0
 10
34.039858
 20
205.239645
 30
0.0
 10
35.255100
 20
203.960304
 30
0.0
 10
33.975759
 20
202.745062
 30
0.0
 10
32.696418
 20
201.529820
 30
0.0
 10
33.911660
 20
200.250479
 30
0.0
 10
35.191001
 20
201.465721
 30
0.0
 10
36.406243
 20
200.186380
 30
0.0
 10
37.621485
 20
198.907039
 30
0.0
 10
38.900826
 20
200.122282
 30
0.0
 10
40.116068
 20
198.842941
 30
0.0
 10
38.836728
 20
197.627699
 30
0.0
 10
37.557387
 20
196.412456
 30
0.0
 10
38.772629
 20
195.133116
 30
0.0
 10
40.051970
 20
196.348358
 30
0.0
 10
41.267212
 20
195.069017
 30
0.0
 10
42.546553
 20
196.284259
 30
0.0
 10
41.331311
 20
197.563600
 30
0.0
 10
42.610651
 20
198.778842
 30
0.0
 10
43.825894
 20
197.499501
 30
0.0
 10
45.041136
 20
196.220160
 30
0.0
 10
46.320477
 20
197.435402
 30
0.0
 10
45.105234
 20
198.714743
 30
0.0
 10
46.384575
 20
199.929985
 30
0.0
 10
45.169333
 20
201.209326
 30
0.0
 10
43.889992
 20
199.994084
 30
0.0
 10
42.674750
 20
201.273425
 30
0.0
 10
43.954091
 20
202.488667
 30
0.0
 10
45.233432
 20
203.703909
 30
0.0
 10
44.018190
 20
204.983250
 30
0.0
 10
42.738849
 20
203.768008
 30
0.0
 10
41.523607
 20
205.047349
 30
0.0
 10
42.802948
 20
206.262591
 30
0.0
 10
41.587706
 20
207.541932
 30
0.0
 10
42.867046
 20
208.757174
 30
0.0
 10
44.082289
 20
207.477833
 30
0.0
 10
45.297531
 20
206.198492
 30
0.0
 10
46.576872
 20
207.413734
 30
0.0
 10
45.361629
 20
208.693075
 30
0.0
 10
46.640970
 20
209.908317
 30
0.0
 10
47.856212
 20
208.628976
 30
0.0
 10
49.135553
 20
209.844218
 30
0.0
 10
50.350795
 20
208.564878
 30
0.0
 10
49.071455
 20
207.349635
 30
0.0
 10
47.792114
 20
206.134393
 30
0.0
 10
49.007356
 20
204.855052
 30
0.0
 10
50.286697
 20
206.070295
 30
0.0
 10
51.501939
 20
204.790954
 30
0.0
 10
52.781280
 20
206.006196
 30
0.0
 10
51.566038
 20
207.285537
 30
0.0
 10
52.845378
 20
208.500779
 30
0.0
 10
54.060621
 20
207.221438
 30
0.0
 10
55.275863
 20
205.942097
 30
0.0
 10
56.555204
 20
207.157339
 30
0.0
 10
55.339961
 20
208.436680
 30
0.0
 10
56.619302
 20
209.651922
 30
0.0
 10
57.834544
 20
208.372581
 30
0.0
 10
59.113885
 20
209.587823
 30
0.0
 10
60.329127
 20
208.308483
 30
0.0
 10
59.049786
 20
207.093240
 30
0.0
 10
57.770446
 20
205.877998
 30
0.0
 10
58.985688
 20
204.598657
 30
0.0
 10
60.265029
 20
205.813900
 30
0.0
 10
61.480271
 20
204.534559
 30
0.0
 10
60.200930
 20
203.319317
 30
0.0
 10
61.416172
 20
202.039976
 30
0.0
 10
60.136831
 20
200.824734
 30
0.0
 10
58.921589
 20
202.104074
 30
0.0
 10
57.706347
 20
203.383415
 30
0.0
 10
56.427006
 20
202.168173
 30
0.0
 10
57.642248
 20
200.888832
 30
0.0
 10
56.362907
 20
199.673590
 30
0.0
 10
55.083566
 20
198.458348
 30
0.0
 10
56.298808
 20
197.179007
 30
0.0
 10
55.019468
 20
195.963765
 30
0.0
 10
53.804225
 20
197.243106
 30
0.0
 10
52.588983
 20
198.522447
 30
0.0
 10
51.309643
 20
197.307205
 30
0.0
 10
52.524885
 20
196.027864
 30
0.0
 10
51.245544
 20
194.812622
 30
0.0
 10
52.460786
 20
193.533281
 30
0.0
 10
53.740127
 20
194.748523
 30
0.0
 10
54.955369
 20
193.469182
 30
0.0
 10
53.676028
 20
192.253940
 30
0.0
 10
52.396687
 20
191.038698
 30
0.0
 10
53.611929
 20
189.759357
 30
0.0
 10
54.891270
 20
190.974599
 30
0.0
 10
56.106512
 20
189.695258
 30
0.0
 10
57.385853
 20
190.910500
 30
0.0
 10
56.170611
 20
192.189841
 30
0.0
 10
57.449952
 20
193.405083
 30
0.0
 10
58.665194
 20
192.125743
 30
0.0
 10
59.880436
 20
190.846402
 30
0.0
 10
61.159777
 20
192.061644
 30
0.0
 10
59.944535
 20
193.340985
 30
0.0
 10
61.223876
 20
194.556227
 30
0.0
 10
62.439118
 20
193.276886
 30
0.0
 10
63.718459
 20
194.492128
 30
0.0
 10
64.933701
 20
193.212787
 30
0.0
 10
63.654360
 20
191.997545
 30
0.0
 10
62.375019
 20
190.782303
 30
0.0
 10
63.590261
 20
189.502962
 30
0.0
 10
64.869602
 20
190.718204
 30
0.0
 10
66.084844
 20
189.438863
 30
0.0
 10
67.300086
 20
188.159522
 30
0.0
 10
68.579427
 20
189.374765
 30
0.0
 10
69.794669
 20
188.095424
 30
0.0
 10
68.515328
 20
186.880182
 30
0.0
 10
67.235987
 20
185.664939
 30
0.0
 10
68.451230
 20
184.385599
 30
0.0
 10
69.730570
 20
185.600841
 30
0.0
 10
70.945813
 20
184.321500
 30
0.0
 10
72.225153
 20
185.536742
 30
0.0
 10
71.009911
 20
186.816083
 30
0.0
 10
72.289252
 20
188.031325
 30
0.0
 10
73.504494
 20
186.751984
 30
0.0
 10
74.719736
 20
185.472643
 30
0.0
 10
75.999077
 20
186.687885
 30
0.0
 10
74.783835
 20
187.967226
 30
0.0
 10
76.063176
 20
189.182468
 30
0.0
 10
77.278418
 20
187.903127
 30
0.0
 10
78.557759
 20
189.118369
 30
0.0
 10
79.773001
 20
187.839029
 30
0.0
 10
78.493660
 20
186.623787
 30
0.0
 10
77.214319
 20
185.408544
 30
0.0
 10
78.429561
 20
184.129204
 30
0.0
 10
79.708902
 20
185.344446
 30
0.0
 10
80.924144
 20
184.065105
 30
0.0
 10
79.644804
 20
182.849863
 30
0.0
 10
80.860046
 20
181.570522
 30
0.0
 10
79.580705
 20
180.355280
 30
0.0
 10
78.365463
 20
181.634621
 30
0.0
 10
77.150221
 20
182.913961
 30
0.0
 10
75.870880
 20
181.698719
 30
0.0
 10
77.086122
 20
180.419378
 30
0.0
 10
75.806781
 20
179.204136
 30
0.0
 10
74.527440
 20
177.988894
 30
0.0
 10
75.742682
 20
176.709553
 30
0.0
 10
74.463341
 20
175.494311
 30
0.0
 10
73.248099
 20
176.773652
 30
0.0
 10
72.032857
 20
178.052993
 30
0.0
 10
70.753516
 20
176.837751
 30
0.0
 10
71.968758
 20
175.558410
 30
0.0
 10
70.689418
 20
174.343168
 30
0.0
 10
71.904660
 20
173.063827
 30
0.0
 10
73.184000
 20
174.279069
 30
0.0
 10
74.399243
 20
172.999728
 30
0.0
 10
73.119902
 20
171.784486
 30
0.0
 10
71.840561
 20
170.569244
 30
0.0
 10
73.055803
 20
169.289903
 30
0.0
 10
74.335144
 20
170.505145
 30
0.0
 10
75.550386
 20
169.225804
 30
0.0
 10
76.829727
 20
170.441047
 30
0.0
 10
75.614485
 20
171.720387
 30
0.0
 10
76.893826
 20
172.935630
 30
0.0
 10
78.109068
 20
171.656289
 30
0.0
 10
79.324310
 20
170.376948
 30
0.0
 10
80.603651
 20
171.592190
 30
0.0
 10
79.388409
 20
172.871531
 30
0.0
 10
80.667749
 20
174.086773
 30
0.0
 10
81.882992
 20
172.807432
 30
0.0
 10
83.162332
 20
174.022674
 30
0.0
 10
84.377575
 20
172.743333
 30
0.0
 10
83.098234
 20
171.528091
 30
0.0
 10
81.818893
 20
170.312849
 30
0.0
 10
83.034135
 20
169.033508
 30
0.0
 10
84.313476
 20
170.248750
 30
0.0
 10
85.528718
 20
168.969409
 30
0.0
 10
86.808059
 20
170.184651
 30
0.0
 10
85.592817
 20
171.463992
 30
0.0
 10
86.872158
 20
172.679234
 30
0.0
 10
88.087400
 20
171.399894
 30
0.0
 10
89.302642
 20
170.120553
 30
0.0
 10
90.581983
 20
171.335795
 30
0.0
 10
89.366740
 20
172.615136
 30
0.0
 10
90.646081
 20
173.830378
 30
0.0
 10
89.430839
 20
175.109719
 30
0.0
 10
88.151498
 20
173.894477
 30
0.0
 10
86.936256
 20
175.173817
 30
0.0
 10
88.215597
 20
176.389060
 30
0.0
 10
89.494938
 20
177.604302
 30
0.0
 10
88.279696
 20
178.883643
 30
0.0
 10
87.000355
 20
177.668400
 30
0.0
 10
85.785113
 20
178.947741
 30
0.0
 10
87.064454
 20
180.162983
 30
0.0
 10
85.849212
 20
181.442324
 30
0.0
 10
87.128553
 20
182.657566
 30
0.0
 10
88.343795
 20
181.378226
 30
0.0
 10
89.559037
 20
180.098885
 30
0.0
 10
90.838378
 20
181.314127
 30
0.0
 10
89.623136
 20
182.593468
 30
0.0
 10
90.902476
 20
183.808710
 30
0.0
 10
92.117719
 20
182.529369
 30
0.0
 10
93.397059
 20
183.744611
 30
0.0
 10
94.612301
 20
182.465270
 30
0.0
 10
93.332961
 20
181.250028
 30
0.0
 10
92.053620
 20
180.034786
 30
0.0
 10
93.268862
 20
178.755445
 30
0.0
 10
94.548203
 20
179.970687
 30
0.0
 10
95.763445
 20
178.691346
 30
0.0
 10
96.978687
 20
177.412005
 30
0.0
 10
98.258028
 20
178.627248
 30
0.0
 10
99.473270
 20
177.347907
 30
0.0
 10
98.193929
 20
176.132665
 30
0.0
 10
96.914588
 20
174.917422
 30
0.0
 10
98.129830
 20
173.638082
 30
0.0
 10
99.409171
 20
174.853324
 30
0.0
 10
100.624413
 20
173.573983
 30
0.0
 10
101.903754
 20
174.789225
 30
0.0
 10
100.688512
 20
176.068566
 30
0.0
 10
101.967853
 20
177.283808
 30
0.0
 10
103.183095
 20
176.004467
 30
0.0
 10
104.398337
 20
174.725126
 30
0.0
 10
105.677678
 20
175.940368
 30
0.0
 10
104.462436
 20
177.219709
 30
0.0
 10
105.741777
 20
178.434951
 30
0.0
 10
104.526535
 20
179.714292
 30
0.0
 10
103.247194
 20
178.499050
 30
0.0
 10
102.031952
 20
179.778391
 30
0.0
 10
103.311293
 20
180.993633
 30
0.0
 10
104.590633
 20
182.208875
 30
0.0
 10
103.375391
 20
183.488216
 30
0.0
 10
102.096050
 20
182.272974
 30
0.0
 10
100.880808
 20
183.552315
 30
0.0
 10
102.160149
 20
184.767557
 30
0.0
 10
100.944907
 20
186.046898
 30
0.0
 10
102.224248
 20
187.262140
 30
0.0
 10
103.439490
 20
185.982799
 30
0.0
 10
104.654732
 20
184.703458
 30
0.0
 10
105.934073
 20
185.918700
 30
0.0
 10
104.718831
 20
187.198041
 30
0.0
 10
105.998172
 20
188.413283
 30
0.0
 10
104.782930
 20
189.692624
 30
0.0
 10
103.503589
 20
188.477382
 30
0.0
 10
102.288347
 20
189.756723
 30
0.0
 10
103.567688
 20
190.971965
 30
0.0
 10
104.847028
 20
192.187207
 30
0.0
 10
103.631786
 20
193.466548
 30
0.0
 10
102.352445
 20
192.251306
 30
0.0
 10
101.137203
 20
193.530647
 30
0.0
 10
99.857862
 20
192.315405
 30
0.0
 10
101.073105
 20
191.036064
 30
0.0
 10
99.793764
 20
189.820822
 30
0.0
 10
98.578522
 20
191.100162
 30
0.0
 10
97.363280
 20
192.379503
 30
0.0
 10
96.083939
 20
191.164261
 30
0.0
 10
97.299181
 20
189.884920
 30
0.0
 10
96.019840
 20
188.669678
 30
0.0
 10
94.804598
 20
189.949019
 30
0.0
 10
93.525257
 20
188.733777
 30
0.0
 10
92.310015
 20
190.013118
 30
0.0
 10
93.589356
 20
191.228360
 30
0.0
 10
94.868697
 20
192.443602
 30
0.0
 10
93.653454
 20
193.722943
 30
0.0
 10
92.374114
 20
192.507701
 30
0.0
 10
91.158871
 20
193.787042
 30
0.0
 10
92.438212
 20
195.002284
 30
0.0
 10
91.222970
 20
196.281625
 30
0.0
 10
92.502311
 20
197.496867
 30
0.0
 10
93.717553
 20
196.217526
 30
0.0
 10
94.932795
 20
194.938185
 30
0.0
 10
96.212136
 20
196.153427
 30
0.0
 10
94.996894
 20
197.432768
 30
0.0
 10
96.276235
 20
198.648010
 30
0.0
 10
97.555576
 20
199.863252
 30
0.0
 10
96.340334
 20
201.142593
 30
0.0
 10
97.619675
 20
202.357835
 30
0.0
 10
98.834917
 20
201.078494
 30
0.0
 10
100.050159
 20
199.799153
 30
0.0
 10
101.329500
 20
201.014396
 30
0.0
 10
100.114258
 20
202.293736
 30
0.0
 10
101.393598
 20
203.508979
 30
0.0
 10
100.178356
 20
204.788319
 30
0.0
 10
98.899015
 20
203.573077
 30
0.0
 10
97.683773
 20
204.852418
 30
0.0
 10
98.963114
 20
206.067660
 30
0.0
 10
100.242455
 20
207.282902
 30
0.0
 10
99.027213
 20
208.562243
 30
0.0
 10
97.747872
 20
207.347001
 30
0.0
 10
96.532630
 20
208.626342
 30
0.0
 10
95.253289
 20
207.411100
 30
0.0
 10
96.468531
 20
206.131759
 30
0.0
 10
95.189190
 20
204.916517
 30
0.0
 10
93.973948
 20
206.195858
 30
0.0
 10
92.758706
 20
207.475199
 30
0.0
 10
91.479365
 20
206.259957
 30
0.0
 10
92.694607
 20
204.980616
 30
0.0
 10
91.415266
 20
203.765374
 30
0.0
 10
90.200024
 20
205.044714
 30
0.0
 10
88.920683
 20
203.829472
 30
0.0
 10
87.705441
 20
205.108813
 30
0.0
 10
88.984782
 20
206.324055
 30
0.0
 10
90.264123
 20
207.539297
 30
0.0
 10
89.048881
 20
208.818638
 30
0.0
 10
87.769540
 20
207.603396
 30
0.0
 10
86.554298
 20
208.882737
 30
0.0
 10
87.833639
 20
210.097979
 30
0.0
 10
86.618397
 20
211.377320
 30
0.0
 10
87.897738
 20
212.592562
 30
0.0
 10
89.112980
 20
211.313221
 30
0.0
 10
90.328222
 20
210.033880
 30
0.0
 10
91.607563
 20
211.249123
 30
0.0
 10
90.392321
 20
212.528463
 30
0.0
 10
91.671662
 20
213.743706
 30
0.0
 10
90.456419
 20
215.023046
 30
0.0
 10
89.177079
 20
213.807804
 30
0.0
 10
87.961836
 20
215.087145
 30
0.0
 10
89.241177
 20
216.302387
 30
0.0
 10
90.520518
 20
217.517629
 30
0.0
 10
89.305276
 20
218.796970
 30
0.0
 10
88.025935
 20
217.581728
 30
0.0
 10
86.810693
 20
218.861069
 30
0.0
 10
88.090034
 20
220.076311
 30
0.0
 10
86.874792
 20
221.355652
 30
0.0
 10
88.154133
 20
222.570894
 30
0.0
 10
89.369375
 20
221.291553
 30
0.0
 10
90.584617
 20
220.012212
 30
0.0
 10
91.863958
 20
221.227454
 30
0.0
 10
90.648716
 20
222.506795
 30
0.0
 10
91.928057
 20
223.722037
 30
0.0
 10
93.143299
 20
222.442697
 30
0.0
 10
94.422640
 20
223.657939
 30
0.0
 10
95.637882
 20
222.378598
 30
0.0
 10
94.358541
 20
221.163356
 30
0.0
 10
93.079200
 20
219.948114
 30
0.0
 10
94.294442
 20
218.668773
 30
0.0
 10
95.573783
 20
219.884015
 30
0.0
 10
96.789025
 20
218.604674
 30
0.0
 10
98.004267
 20
217.325333
 30
0.0
 10
99.283608
 20
218.540575
 30
0.0
 10
100.498850
 20
217.261234
 30
0.0
 10
99.219509
 20
216.045992
 30
0.0
 10
97.940168
 20
214.830750
 30
0.0
 10
99.155410
 20
213.551409
 30
0.0
 10
100.434751
 20
214.766651
 30
0.0
 10
101.649993
 20
213.487310
 30
0.0
 10
102.929334
 20
214.702553
 30
0.0
 10
101.714092
 20
215.981893
 30
0.0
 10
102.993433
 20
217.197136
 30
0.0
 10
104.208675
 20
215.917795
 30
0.0
 10
105.423917
 20
214.638454
 30
0.0
 10
106.703258
 20
215.853696
 30
0.0
 10
105.488016
 20
217.133037
 30
0.0
 10
106.767357
 20
218.348279
 30
0.0
 10
105.552115
 20
219.627620
 30
0.0
 10
104.272774
 20
218.412378
 30
0.0
 10
103.057532
 20
219.691719
 30
0.0
 10
104.336873
 20
220.906961
 30
0.0
 10
105.616214
 20
222.122203
 30
0.0
 10
104.400971
 20
223.401544
 30
0.0
 10
103.121631
 20
222.186302
 30
0.0
 10
101.906388
 20
223.465642
 30
0.0
 10
103.185729
 20
224.680885
 30
0.0
 10
101.970487
 20
225.960225
 30
0.0
 10
103.249828
 20
227.175467
 30
0.0
 10
104.465070
 20
225.896127
 30
0.0
 10
105.680312
 20
224.616786
 30
0.0
 10
106.959653
 20
225.832028
 30
0.0
 10
105.744411
 20
227.111369
 30
0.0
 10
107.023752
 20
228.326611
 30
0.0
 10
108.238994
 20
227.047270
 30
0.0
 10
109.518335
 20
228.262512
 30
0.0
 10
110.733577
 20
226.983171
 30
0.0
 10
109.454236
 20
225.767929
 30
0.0
 10
108.174895
 20
224.552687
 30
0.0
 10
109.390137
 20
223.273346
 30
0.0
 10
110.669478
 20
224.488588
 30
0.0
 10
111.884720
 20
223.209247
 30
0.0
 10
113.164061
 20
224.424489
 30
0.0
 10
111.948819
 20
225.703830
 30
0.0
 10
113.228160
 20
226.919072
 30
0.0
 10
114.443402
 20
225.639732
 30
0.0
 10
115.658644
 20
224.360391
 30
0.0
 10
116.937985
 20
225.575633
 30
0.0
 10
115.722743
 20
226.854974
 30
0.0
 10
117.002084
 20
228.070216
 30
0.0
 10
118.217326
 20
226.790875
 30
0.0
 10
119.496667
 20
228.006117
 30
0.0
 10
120.711909
 20
226.726776
 30
0.0
 10
119.432568
 20
225.511534
 30
0.0
 10
118.153227
 20
224.296292
 30
0.0
 10
119.368469
 20
223.016951
 30
0.0
 10
120.647810
 20
224.232193
 30
0.0
 10
121.863052
 20
222.952852
 30
0.0
 10
120.583711
 20
221.737610
 30
0.0
 10
121.798954
 20
220.458269
 30
0.0
 10
120.519613
 20
219.243027
 30
0.0
 10
119.304371
 20
220.522368
 30
0.0
 10
118.089128
 20
221.801709
 30
0.0
 10
116.809788
 20
220.586467
 30
0.0
 10
118.025030
 20
219.307126
 30
0.0
 10
116.745689
 20
218.091884
 30
0.0
 10
115.466348
 20
216.876642
 30
0.0
 10
116.681590
 20
215.597301
 30
0.0
 10
115.402249
 20
214.382059
 30
0.0
 10
114.187007
 20
215.661400
 30
0.0
 10
112.971765
 20
216.940741
 30
0.0
 10
111.692424
 20
215.725498
 30
0.0
 10
112.907666
 20
214.446158
 30
0.0
 10
111.628325
 20
213.230915
 30
0.0
 10
112.843567
 20
211.951575
 30
0.0
 10
114.122908
 20
213.166817
 30
0.0
 10
115.338150
 20
211.887476
 30
0.0
 10
114.058810
 20
210.672234
 30
0.0
 10
112.779469
 20
209.456992
 30
0.0
 10
113.994711
 20
208.177651
 30
0.0
 10
115.274052
 20
209.392893
 30
0.0
 10
116.489294
 20
208.113552
 30
0.0
 10
117.768635
 20
209.328794
 30
0.0
 10
116.553393
 20
210.608135
 30
0.0
 10
117.832733
 20
211.823377
 30
0.0
 10
119.047976
 20
210.544036
 30
0.0
 10
120.263218
 20
209.264695
 30
0.0
 10
121.542559
 20
210.479937
 30
0.0
 10
120.327316
 20
211.759278
 30
0.0
 10
121.606657
 20
212.974520
 30
0.0
 10
122.821899
 20
211.695180
 30
0.0
 10
124.101240
 20
212.910422
 30
0.0
 10
125.316482
 20
211.631081
 30
0.0
 10
124.037142
 20
210.415839
 30
0.0
 10
122.757801
 20
209.200597
 30
0.0
 10
123.973043
 20
207.921256
 30
0.0
 10
125.252384
 20
209.136498
 30
0.0
 10
126.467626
 20
207.857157
 30
0.0
 10
127.746967
 20
209.072399
 30
0.0
 10
126.531724
 20
210.351740
 30
0.0
 10
127.811065
 20
211.566982
 30
0.0
 10
129.026307
 20
210.287641
 30
0.0
 10
130.241550
 20
209.008300
 30
0.0
 10
131.520890
 20
210.223542
 30
0.0
 10
130.305648
 20
211.502883
 30
0.0
 10
131.584989
 20
212.718125
 30
0.0
 10
130.369747
 20
213.997466
 30
0.0
 10
129.090406
 20
212.782224
 30
0.0
 10
127.875164
 20
214.061565
 30
0.0
 10
129.154505
 20
215.276807
 30
0.0
 10
130.433846
 20
216.492049
 30
0.0
 10
129.218604
 20
217.771390
 30
0.0
 10
127.939263
 20
216.556148
 30
0.0
 10
126.724021
 20
217.835489
 30
0.0
 10
128.003362
 20
219.050731
 30
0.0
 10
126.788120
 20
220.330072
 30
0.0
 10
128.067460
 20
221.545314
 30
0.0
 10
129.282702
 20
220.265973
 30
0.0
 10
130.497945
 20
218.986632
 30
0.0
 10
131.777285
 20
220.201874
 30
0.0
 10
130.562043
 20
221.481215
 30
0.0
 10
131.841384
 20
222.696457
 30
0.0
 10
133.056626
 20
221.417116
 30
0.0
 10
134.335967
 20
222.632359
 30
0.0
 10
135.551209
 20
221.353018
 30
0.0
 10
134.271868
 20
220.137776
 30
0.0
 10
132.992528
 20
218.922533
 30
0.0
 10
134.207770
 20
217.643193
 30
0.0
 10
135.487111
 20
218.858435
 30
0.0
 10
136.702353
 20
217.579094
 30
0.0
 10
137.917595
 20
216.299753
 30
0.0
 10
139.196936
 20
217.514995
 30
0.0
 10
140.412178
 20
216.235654
 30
0.0
 10
139.132837
 20
215.020412
 30
0.0
 10
137.853496
 20
213.805170
 30
0.0
 10
139.068738
 20
212.525829
 30
0.0
 10
140.348079
 20
213.741071
 30
0.0
 10
141.563321
 20
212.461730
 30
0.0
 10
142.842662
 20
213.676972
 30
0.0
 10
141.627420
 20
214.956313
 30
0.0
 10
142.906761
 20
216.171555
 30
0.0
 10
144.122003
 20
214.892215
 30
0.0
 10
145.337245
 20
213.612874
 30
0.0
 10
146.616586
 20
214.828116
 30
0.0
 10
145.401344
 20
216.107457
 30
0.0
 10
146.680685
 20
217.322699
 30
0.0
 10
145.465442
 20
218.602040
 30
0.0
 10
144.186102
 20
217.386798
 30
0.0
 10
142.970860
 20
218.666138
 30
0.0
 10
144.250200
 20
219.881381
 30
0.0
 10
145.529541
 20
221.096623
 30
0.0
 10
144.314299
 20
222.375963
 30
0.0
 10
143.034958
 20
221.160721
 30
0.0
 10
141.819716
 20
222.440062
 30
0.0
 10
143.099057
 20
223.655304
 30
0.0
 10
141.883815
 20
224.934645
 30
0.0
 10
143.163156
 20
226.149887
 30
0.0
 10
144.378398
 20
224.870546
 30
0.0
 10
145.593640
 20
223.591206
 30
0.0
 10
146.872981
 20
224.806448
 30
0.0
 10
145.657739
 20
226.085789
 30
0.0
 10
146.937080
 20
227.301031
 30
0.0
 10
148.152322
 20
226.021690
 30
0.0
 10
149.431663
 20
227.236932
 30
0.0
 10
150.646905
 20
225.957591
 30
0.0
 10
149.367564
 20
224.742349
 30
0.0
 10
148.088223
 20
223.527107
 30
0.0
 10
149.303465
 20
222.247766
 30
0.0
 10
150.582806
 20
223.463008
 30
0.0
 10
151.798048
 20
222.183667
 30
0.0
 10
153.077389
 20
223.398909
 30
0.0
 10
151.862147
 20
224.678250
 30
0.0
 10
153.141488
 20
225.893492
 30
0.0
 10
154.356730
 20
224.614151
 30
0.0
 10
155.571972
 20
223.334811
 30
0.0
 10
156.851313
 20
224.550053
 30
0.0
 10
155.636071
 20
225.829394
 30
0.0
 10
156.915412
 20
227.044636
 30
0.0
 10
158.130654
 20
225.765295
 30
0.0
 10
159.409995
 20
226.980537
 30
0.0
 10
160.625237
 20
225.701196
 30
0.0
 10
159.345896
 20
224.485954
 30
0.0
 10
158.066555
 20
223.270712
 30
0.0
 10
159.281797
 20
221.991371
 30
0.0
 10
160.561138
 20
223.206613
 30
0.0
 10
161.776380
 20
221.927272
 30
0.0
 10
160.497039
 20
220.712030
 30
0.0
 10
161.712281
 20
219.432689
 30
0.0
 10
160.432940
 20
218.217447
 30
0.0
 10
159.217698
 20
219.496788
 30
0.0
 10
158.002456
 20
220.776129
 30
0.0
 10
156.723115
 20
219.560887
 30
0.0
 10
157.938357
 20
218.281546
 30
0.0
 10
156.659017
 20
217.066304
 30
0.0
 10
155.379676
 20
215.851062
 30
0.0
 10
156.594918
 20
214.571721
 30
0.0
 10
155.315577
 20
213.356479
 30
0.0
 10
154.100335
 20
214.635820
 30
0.0
 10
152.885093
 20
215.915160
 30
0.0
 10
151.605752
 20
214.699918
 30
0.0
 10
152.820994
 20
213.420577
 30
0.0
 10
151.541653
 20
212.205335
 30
0.0
 10
152.756895
 20
210.925994
 30
0.0
 10
154.036236
 20
212.141237
 30
0.0
 10
155.251478
 20
210.861896
 30
0.0
 10
153.972137
 20
209.646654
 30
0.0
 10
152.692796
 20
208.431411
 30
0.0
 10
153.908039
 20
207.152071
 30
0.0
 10
155.187379
 20
208.367313
 30
0.0
 10
156.402621
 20
207.087972
 30
0.0
 10
157.681962
 20
208.303214
 30
0.0
 10
156.466720
 20
209.582555
 30
0.0
 10
157.746061
 20
210.797797
 30
0.0
 10
158.961303
 20
209.518456
 30
0.0
 10
160.176545
 20
208.239115
 30
0.0
 10
161.455886
 20
209.454357
 30
0.0
 10
160.240644
 20
210.733698
 30
0.0
 10
161.519985
 20
211.948940
 30
0.0
 10
162.735227
 20
210.669599
 30
0.0
 10
164.014568
 20
211.884841
 30
0.0
 10
165.229810
 20
210.605501
 30
0.0
 10
163.950469
 20
209.390259
 30
0.0
 10
162.671128
 20
208.175016
 30
0.0
 10
163.886370
 20
206.895676
 30
0.0
 10
165.165711
 20
208.110918
 30
0.0
 10
166.380953
 20
206.831577
 30
0.0
 10
165.101613
 20
205.616335
 30
0.0
 10
166.316855
 20
204.336994
 30
0.0
 10
165.037514
 20
203.121752
 30
0.0
 10
163.822272
 20
204.401093
 30
0.0
 10
162.607030
 20
205.680433
 30
0.0
 10
161.327689
 20
204.465191
 30
0.0
 10
162.542931
 20
203.185850
 30
0.0
 10
161.263590
 20
201.970608
 30
0.0
 10
162.478832
 20
200.691267
 30
0.0
 10
163.758173
 20
201.906510
 30
0.0
 10
164.973415
 20
200.627169
 30
0.0
 10
163.694074
 20
199.411927
 30
0.0
 10
162.414733
 20
198.196684
 30
0.0
 10
163.629975
 20
196.917344
 30
0.0
 10
164.909316
 20
198.132586
 30
0.0
 10
166.124558
 20
196.853245
 30
0.0
 10
164.845218
 20
195.638003
 30
0.0
 10
166.060460
 20
194.358662
 30
0.0
 10
164.781119
 20
193.143420
 30
0.0
 10
163.565877
 20
194.422761
 30
0.0
 10
162.350635
 20
195.702102
 30
0.0
 10
161.071294
 20
194.486859
 30
0.0
 10
162.286536
 20
193.207519
 30
0.0
 10
161.007195
 20
191.992276
 30
0.0
 10
159.791953
 20
193.271617
 30
0.0
 10
158.512612
 20
192.056375
 30
0.0
 10
157.297370
 20
193.335716
 30
0.0
 10
158.576711
 20
194.550958
 30
0.0
 10
159.856052
 20
195.766200
 30
0.0
 10
158.640809
 20
197.045541
 30
0.0
 10
157.361469
 20
195.830299
 30
0.0
 10
156.146226
 20
197.109640
 30
0.0
 10
154.930984
 20
198.388981
 30
0.0
 10
153.651643
 20
197.173739
 30
0.0
 10
152.436401
 20
198.453080
 30
0.0
 10
153.715742
 20
199.668322
 30
0.0
 10
154.995083
 20
200.883564
 30
0.0
 10
153.779841
 20
202.162905
 30
0.0
 10
152.500500
 20
200.947663
 30
0.0
 10
151.285258
 20
202.227003
 30
0.0
 10
150.005917
 20
201.011761
 30
0.0
 10
151.221159
 20
199.732420
 30
0.0
 10
149.941818
 20
198.517178
 30
0.0
 10
148.726576
 20
199.796519
 30
0.0
 10
147.511334
 20
201.075860
 30
0.0
 10
146.231993
 20
199.860618
 30
0.0
 10
147.447235
 20
198.581277
 30
0.0
 10
146.167895
 20
197.366035
 30
0.0
 10
147.383137
 20
196.086694
 30
0.0
 10
148.662478
 20
197.301936
 30
0.0
 10
149.877720
 20
196.022595
 30
0.0
 10
148.598379
 20
194.807353
 30
0.0
 10
147.319038
 20
193.592111
 30
0.0
 10
148.534280
 20
192.312770
 30
0.0
 10
149.813621
 20
193.528012
 30
0.0
 10
151.028863
 20
192.248671
 30
0.0
 10
149.749522
 20
191.033429
 30
0.0
 10
150.964764
 20
189.754088
 30
0.0
 10
149.685423
 20
188.538846
 30
0.0
 10
148.470181
 20
189.818187
 30
0.0
 10
147.254939
 20
191.097528
 30
0.0
 10
145.975598
 20
189.882286
 30
0.0
 10
147.190840
 20
188.602945
 30
0.0
 10
145.911499
 20
187.387703
 30
0.0
 10
144.632159
 20
186.172461
 30
0.0
 10
145.847401
 20
184.893120
 30
0.0
 10
144.568060
 20
183.677878
 30
0.0
 10
143.352818
 20
184.957219
 30
0.0
 10
142.137576
 20
186.236560
 30
0.0
 10
140.858235
 20
185.021318
 30
0.0
 10
142.073477
 20
183.741977
 30
0.0
 10
140.794136
 20
182.526735
 30
0.0
 10
142.009378
 20
181.247394
 30
0.0
 10
143.288719
 20
182.462636
 30
0.0
 10
144.503961
 20
181.183295
 30
0.0
 10
143.224620
 20
179.968053
 30
0.0
 10
141.945279
 20
178.752811
 30
0.0
 10
143.160521
 20
177.473470
 30
0.0
 10
144.439862
 20
178.688712
 30
0.0
 10
145.655104
 20
177.409371
 30
0.0
 10
144.375764
 20
176.194129
 30
0.0
 10
145.591006
 20
174.914788
 30
0.0
 10
144.311665
 20
173.699546
 30
0.0
 10
143.096423
 20
174.978887
 30
0.0
 10
141.881181
 20
176.258228
 30
0.0
 10
140.601840
 20
175.042986
 30
0.0
 10
141.817082
 20
173.763645
 30
0.0
 10
140.537741
 20
172.548403
 30
0.0
 10
139.322499
 20
173.827744
 30
0.0
 10
138.043158
 20
172.612501
 30
0.0
 10
136.827916
 20
173.891842
 30
0.0
 10
138.107257
 20
175.107084
 30
0.0
 10
139.386598
 20
176.322326
 30
0.0
 10
138.171356
 20
177.601667
 30
0.0
 10
136.892015
 20
176.386425
 30
0.0
 10
135.676773
 20
177.665766
 30
0.0
 10
134.461530
 20
178.945107
 30
0.0
 10
133.182190
 20
177.729865
 30
0.0
 10
131.966947
 20
179.009206
 30
0.0
 10
133.246288
 20
180.224448
 30
0.0
 10
134.525629
 20
181.439690
 30
0.0
 10
133.310387
 20
182.719031
 30
0.0
 10
132.031046
 20
181.503789
 30
0.0
 10
130.815804
 20
182.783130
 30
0.0
 10
129.536463
 20
181.567887
 30
0.0
 10
130.751705
 20
180.288547
 30
0.0
 10
129.472364
 20
179.073305
 30
0.0
 10
128.257122
 20
180.352645
 30
0.0
 10
127.041880
 20
181.631986
 30
0.0
 10
125.762539
 20
180.416744
 30
0.0
 10
126.977781
 20
179.137403
 30
0.0
 10
125.698441
 20
177.922161
 30
0.0
 10
126.913683
 20
176.642820
 30
0.0
 10
128.193024
 20
177.858062
 30
0.0
 10
129.408266
 20
176.578722
 30
0.0
 10
128.128925
 20
175.363479
 30
0.0
 10
126.849584
 20
174.148237
 30
0.0
 10
128.064826
 20
172.868896
 30
0.0
 10
129.344167
 20
174.084139
 30
0.0
 10
130.559409
 20
172.804798
 30
0.0
 10
129.280068
 20
171.589556
 30
0.0
 10
130.495310
 20
170.310215
 30
0.0
 10
129.215969
 20
169.094973
 30
0.0
 10
128.000727
 20
170.374313
 30
0.0
 10
126.785485
 20
171.653654
 30
0.0
 10
125.506144
 20
170.438412
 30
0.0
 10
126.721386
 20
169.159071
 30
0.0
 10
125.442046
 20
167.943829
 30
0.0
 10
126.657288
 20
166.664488
 30
0.0
 10
127.936629
 20
167.879730
 30
0.0
 10
129.151871
 20
166.600390
 30
0.0
 10
127.872530
 20
165.385147
 30
0.0
 10
126.593189
 20
164.169905
 30
0.0
 10
127.808431
 20
162.890565
 30
0.0
 10
129.087772
 20
164.105807
 30
0.0
 10
130.303014
 20
162.826466
 30
0.0
 10
131.582355
 20
164.041708
 30
0.0
 10
130.367113
 20
165.321049
 30
0.0
 10
131.646454
 20
166.536291
 30
0.0
 10
132.861696
 20
165.256950
 30
0.0
 10
134.076938
 20
163.977609
 30
0.0
 10
135.356279
 20
165.192851
 30
0.0
 10
134.141037
 20
166.472192
 30
0.0
 10
135.420378
 20
167.687434
 30
0.0
 10
136.635620
 20
166.408093
 30
0.0
 10
137.914960
 20
167.623335
 30
0.0
 10
139.130203
 20
166.343995
 30
0.0
 10
137.850862
 20
165.128752
 30
0.0
 10
136.571521
 20
163.913510
 30
0.0
 10
137.786763
 20
162.634169
 30
0.0
 10
139.066104
 20
163.849412
 30
0.0
 10
140.281346
 20
162.570071
 30
0.0
 10
139.002005
 20
161.354829
 30
0.0
 10
140.217247
 20
160.075488
 30
0.0
 10
138.937906
 20
158.860246
 30
0.0
 10
137.722664
 20
160.139586
 30
0.0
 10
136.507422
 20
161.418927
 30
0.0
 10
135.228081
 20
160.203685
 30
0.0
 10
136.443323
 20
158.924344
 30
0.0
 10
135.163982
 20
157.709102
 30
0.0
 10
133.884642
 20
156.493860
 30
0.0
 10
135.099884
 20
155.214519
 30
0.0
 10
133.820543
 20
153.999277
 30
0.0
 10
132.605301
 20
155.278618
 30
0.0
 10
131.390059
 20
156.557959
 30
0.0
 10
130.110718
 20
155.342717
 30
0.0
 10
131.325960
 20
154.063376
 30
0.0
 10
130.046619
 20
152.848134
 30
0.0
 10
131.261861
 20
151.568793
 30
0.0
 10
132.541202
 20
152.784035
 30
0.0
 10
133.756444
 20
151.504694
 30
0.0
 10
132.477103
 20
150.289452
 30
0.0
 10
131.197762
 20
149.074210
 30
0.0
 10
132.413004
 20
147.794869
 30
0.0
 10
133.692345
 20
149.010111
 30
0.0
 10
134.907587
 20
147.730770
 30
0.0
 10
136.186928
 20
148.946012
 30
0.0
 10
134.971686
 20
150.225353
 30
0.0
 10
136.251027
 20
151.440595
 30
0.0
 10
137.466269
 20
150.161255
 30
0.0
 10
138.681511
 20
148.881914
 30
0.0
 10
139.960852
 20
150.097156
 30
0.0
 10
138.745610
 20
151.376497
 30
0.0
 10
140.024951
 20
152.591739
 30
0.0
 10
141.240193
 20
151.312398
 30
0.0
 10
142.519534
 20
152.527640
 30
0.0
 10
143.734776
 20
151.248299
 30
0.0
 10
142.455435
 20
150.033057
 30
0.0
 10
141.176094
 20
148.817815
 30
0.0
 10
142.391336
 20
147.538474
 30
0.0
 10
143.670677
 20
148.753716
 30
0.0
 10
144.885919
 20
147.474375
 30
0.0
 10
146.165260
 20
148.689617
 30
0.0
 10
144.950018
 20
149.968958
 30
0.0
 10
146.229359
 20
151.184200
 30
0.0
 10
147.444601
 20
149.904860
 30
0.0
 10
148.659843
 20
148.625519
 30
0.0
 10
149.939184
 20
149.840761
 30
0.0
 10
148.723942
 20
151.120102
 30
0.0
 10
150.003283
 20
152.335344
 30
0.0
 10
148.788041
 20
153.614685
 30
0.0
 10
147.508700
 20
152.399443
 30
0.0
 10
146.293458
 20
153.678783
 30
0.0
 10
147.572799
 20
154.894025
 30
0.0
 10
148.852139
 20
156.109268
 30
0.0
 10
147.636897
 20
157.388608
 30
0.0
 10
146.357556
 20
156.173366
 30
0.0
 10
145.142314
 20
157.452707
 30
0.0
 10
146.421655
 20
158.667949
 30
0.0
 10
145.206413
 20
159.947290
 30
0.0
 10
146.485754
 20
161.162532
 30
0.0
 10
147.700996
 20
159.883191
 30
0.0
 10
148.916238
 20
158.603851
 30
0.0
 10
150.195579
 20
159.819093
 30
0.0
 10
148.980337
 20
161.098434
 30
0.0
 10
150.259678
 20
162.313676
 30
0.0
 10
151.474920
 20
161.034335
 30
0.0
 10
152.754261
 20
162.249577
 30
0.0
 10
153.969503
 20
160.970236
 30
0.0
 10
152.690162
 20
159.754994
 30
0.0
 10
151.410821
 20
158.539752
 30
0.0
 10
152.626063
 20
157.260411
 30
0.0
 10
153.905404
 20
158.475653
 30
0.0
 10
155.120646
 20
157.196312
 30
0.0
 10
156.335888
 20
155.916971
 30
0.0
 10
157.615229
 20
157.132213
 30
0.0
 10
158.830471
 20
155.852873
 30
0.0
 10
157.551131
 20
154.637630
 30
0.0
 10
156.271790
 20
153.422388
 30
0.0
 10
157.487032
 20
152.143047
 30
0.0
 10
158.766373
 20
153.358290
 30
0.0
 10
159.981615
 20
152.078949
 30
0.0
 10
161.260956
 20
153.294191
 30
0.0
 10
160.045714
 20
154.573532
 30
0.0
 10
161.325054
 20
155.788774
 30
0.0
 10
162.540296
 20
154.509433
 30
0.0
 10
163.755539
 20
153.230092
 30
0.0
 10
165.034879
 20
154.445334
 30
0.0
 10
163.819637
 20
155.724675
 30
0.0
 10
165.098978
 20
156.939917
 30
0.0
 10
163.883736
 20
158.219258
 30
0.0
 10
162.604395
 20
157.004016
 30
0.0
 10
161.389153
 20
158.283357
 30
0.0
 10
162.668494
 20
159.498599
 30
0.0
 10
163.947835
 20
160.713841
 30
0.0
 10
162.732593
 20
161.993182
 30
0.0
 10
161.453252
 20
160.777940
 30
0.0
 10
160.238010
 20
162.057281
 30
0.0
 10
161.517351
 20
163.272523
 30
0.0
 10
160.302109
 20
164.551864
 30
0.0
 10
161.581449
 20
165.767106
 30
0.0
 10
162.796692
 20
164.487765
 30
0.0
 10
164.011934
 20
163.208424
 30
0.0
 10
165.291275
 20
164.423666
 30
0.0
 10
164.076032
 20
165.703007
 30
0.0
 10
165.355373
 20
166.918249
 30
0.0
 10
166.570615
 20
165.638908
 30
0.0
 10
167.849956
 20
166.854150
 30
0.0
 10
169.065198
 20
165.574809
 30
0.0
 10
167.785857
 20
164.359567
 30
0.0
 10
166.506517
 20
163.144325
 30
0.0
 10
167.721759
 20
161.864984
 30
0.0
 10
169.001100
 20
163.080226
 30
0.0
 10
170.216342
 20
161.800886
 30
0.0
 10
171.495683
 20
163.016128
 30
0.0
 10
170.280440
 20
164.295469
 30
0.0
 10
171.559781
 20
165.510711
 30
0.0
 10
172.775023
 20
164.231370
 30
0.0
 10
173.990266
 20
162.952029
 30
0.0
 10
175.269606
 20
164.167271
 30
0.0
 10
174.054364
 20
165.446612
 30
0.0
 10
175.333705
 20
166.661854
 30
0.0
 10
176.548947
 20
165.382513
 30
0.0
 10
177.828288
 20
166.597755
 30
0.0
 10
179.043530
 20
165.318414
 30
0.0
 10
177.764189
 20
164.103172
 30
0.0
 10
176.484849
 20
162.887930
 30
0.0
 10
177.700091
 20
161.608589
 30
0.0
 10
178.979432
 20
162.823831
 30
0.0
 10
180.194674
 20
161.544491
 30
0.0
 10
178.915333
 20
160.329248
 30
0.0
 10
180.130575
 20
159.049908
 30
0.0
 10
178.851234
 20
157.834665
 30
0.0
 10
177.635992
 20
159.114006
 30
0.0
 10
176.420750
 20
160.393347
 30
0.0
 10
175.141409
 20
159.178105
 30
0.0
 10
176.356651
 20
157.898764
 30
0.0
 10
175.077310
 20
156.683522
 30
0.0
 10
173.797969
 20
155.468280
 30
0.0
 10
175.013211
 20
154.188939
 30
0.0
 10
173.733871
 20
152.973697
 30
0.0
 10
172.518628
 20
154.253038
 30
0.0
 10
171.303386
 20
155.532379
 30
0.0
 10
170.024045
 20
154.317137
 30
0.0
 10
171.239288
 20
153.037796
 30
0.0
 10
169.959947
 20
151.822554
 30
0.0
 10
171.175189
 20
150.543213
 30
0.0
 10
172.454530
 20
151.758455
 30
0.0
 10
173.669772
 20
150.479114
 30
0.0
 10
172.390431
 20
149.263872
 30
0.0
 10
171.111090
 20
148.048630
 30
0.0
 10
172.326332
 20
146.769289
 30
0.0
 10
173.605673
 20
147.984531
 30
0.0
 10
174.820915
 20
146.705190
 30
0.0
 10
176.100256
 20
147.920432
 30
0.0
 10
174.885014
 20
149.199773
 30
0.0
 10
176.164355
 20
150.415015
 30
0.0
 10
177.379597
 20
149.135674
 30
0.0
 10
178.594839
 20
147.856334
 30
0.0
 10
179.874180
 20
149.071576
 30
0.0
 10
178.658938
 20
150.350917
 30
0.0
 10
179.938279
 20
151.566159
 30
0.0
 10
181.153521
 20
150.286818
 30
0.0
 10
182.432862
 20
151.502060
 30
0.0
 10
183.648104
 20
150.222719
 30
0.0
 10
182.368763
 20
149.007477
 30
0.0
 10
181.089422
 20
147.792235
 30
0.0
 10
182.304664
 20
146.512894
 30
0.0
 10
183.584005
 20
147.728136
 30
0.0
 10
184.799247
 20
146.448795
 30
0.0
 10
183.519906
 20
145.233553
 30
0.0
 10
184.735148
 20
143.954212
 30
0.0
 10
183.455807
 20
142.738970
 30
0.0
 10
182.240565
 20
144.018311
 30
0.0
 10
181.025323
 20
145.297652
 30
0.0
 10
179.745982
 20
144.082410
 30
0.0
 10
180.961224
 20
142.803069
 30
0.0
 10
179.681884
 20
141.587827
 30
0.0
 10
180.897126
 20
140.308486
 30
0.0
 10
182.176467
 20
141.523728
 30
0.0
 10
183.391709
 20
140.244387
 30
0.0
 10
182.112368
 20
139.029145
 30
0.0
 10
180.833027
 20
137.813903
 30
0.0
 10
182.048269
 20
136.534562
 30
0.0
 10
183.327610
 20
137.749804
 30
0.0
 10
184.542852
 20
136.470463
 30
0.0
 10
183.263511
 20
135.255221
 30
0.0
 10
184.478753
 20
133.975880
 30
0.0
 10
183.199412
 20
132.760638
 30
0.0
 10
181.984170
 20
134.039979
 30
0.0
 10
180.768928
 20
135.319320
 30
0.0
 10
179.489587
 20
134.104078
 30
0.0
 10
180.704829
 20
132.824737
 30
0.0
 10
179.425489
 20
131.609495
 30
0.0
 10
178.210246
 20
132.888836
 30
0.0
 10
176.930906
 20
131.673594
 30
0.0
 10
175.715663
 20
132.952934
 30
0.0
 10
176.995004
 20
134.168177
 30
0.0
 10
178.274345
 20
135.383419
 30
0.0
 10
177.059103
 20
136.662760
 30
0.0
 10
175.779762
 20
135.447517
 30
0.0
 10
174.564520
 20
136.726858
 30
0.0
 10
173.349278
 20
138.006199
 30
0.0
 10
172.069937
 20
136.790957
 30
0.0
 10
170.854695
 20
138.070298
 30
0.0
 10
172.134036
 20
139.285540
 30
0.0
 10
173.413377
 20
140.500782
 30
0.0
 10
172.198135
 20
141.780123
 30
0.0
 10
170.918794
 20
140.564881
 30
0.0
 10
169.703552
 20
141.844222
 30
0.0
 10
168.424211
 20
140.628980
 30
0.0
 10
169.639453
 20
139.349639
 30
0.0
 10
168.360112
 20
138.134397
 30
0.0
 10
167.144870
 20
139.413738
 30
0.0
 10
165.929628
 20
140.693078
 30
0.0
 10
164.650287
 20
139.477836
 30
0.0
 10
165.865529
 20
138.198495
 30
0.0
 10
164.586188
 20
136.983253
 30
0.0
 10
165.801430
 20
135.703912
 30
0.0
 10
167.080771
 20
136.919155
 30
0.0
 10
168.296013
 20
135.639814
 30
0.0
 10
167.016672
 20
134.424572
 30
0.0
 10
165.737332
 20
133.209329
 30
0.0
 10
166.952574
 20
131.929989
 30
0.0
 10
168.231914
 20
133.145231
 30
0.0
 10
169.447157
 20
131.865890
 30
0.0
 10
168.167816
 20
130.650648
 30
0.0
 10
169.383058
 20
129.371307
 30
0.0
 10
168.103717
 20
128.156065
 30
0.0
 10
166.888475
 20
129.435406
 30
0.0
 10
165.673233
 20
130.714746
 30
0.0
 10
164.393892
 20
129.499504
 30
0.0
 10
165.609134
 20
128.220164
 30
0.0
 10
164.329793
 20
127.004921
 30
0.0
 10
165.545035
 20
125.725581
 30
0.0
 10
166.824376
 20
126.940823
 30
0.0
 10
168.039618
 20
125.661482
 30
0.0
 10
166.760277
 20
124.446240
 30
0.0
 10
165.480936
 20
123.230998
 30
0.0
 10
166.696179
 20
121.951657
 30
0.0
 10
167.975519
 20
123.166899
 30
0.0
 10
169.190762
 20
121.887558
 30
0.0
 10
170.470102
 20
123.102800
 30
0.0
 10
169.254860
 20
124.382141
 30
0.0
 10
170.534201
 20
125.597383
 30
0.0
 10
171.749443
 20
124.318042
 30
0.0
 10
172.964685
 20
123.038701
 30
0.0
 10
174.244026
 20
124.253943
 30
0.0
 10
173.028784
 20
125.533284
 30
0.0
 10
174.308125
 20
126.748526
 30
0.0
 10
175.523367
 20
125.469185
 30
0.0
 10
176.802708
 20
126.684428
 30
0.0
 10
178.017950
 20
125.405087
 30
0.0
 10
176.738609
 20
124.189845
 30
0.0
 10
175.459268
 20
122.974603
 30
0.0
 10
176.674511
 20
121.695262
 30
0.0
 10
177.953851
 20
122.910504
 30
0.0
 10
179.169093
 20
121.631163
 30
0.0
 10
177.889753
 20
120.415921
 30
0.0
 10
179.104995
 20
119.136580
 30
0.0
 10
177.825654
 20
117.921338
 30
0.0
 10
176.610412
 20
119.200679
 30
0.0
 10
175.395170
 20
120.480020
 30
0.0
 10
174.115829
 20
119.264777
 30
0.0
 10
175.331071
 20
117.985437
 30
0.0
 10
174.051730
 20
116.770194
 30
0.0
 10
172.772389
 20
115.554952
 30
0.0
 10
173.987631
 20
114.275611
 30
0.0
 10
172.708290
 20
113.060369
 30
0.0
 10
171.493048
 20
114.339710
 30
0.0
 10
170.277806
 20
115.619051
 30
0.0
 10
168.998465
 20
114.403809
 30
0.0
 10
170.213707
 20
113.124468
 30
0.0
 10
168.934367
 20
111.909226
 30
0.0
 10
170.149609
 20
110.629885
 30
0.0
 10
171.428950
 20
111.845127
 30
0.0
 10
172.644192
 20
110.565786
 30
0.0
 10
171.364851
 20
109.350544
 30
0.0
 10
170.085510
 20
108.135302
 30
0.0
 10
171.300752
 20
106.855961
 30
0.0
 10
172.580093
 20
108.071203
 30
0.0
 10
173.795335
 20
106.791863
 30
0.0
 10
175.074676
 20
108.007105
 30
0.0
 10
173.859434
 20
109.286445
 30
0.0
 10
175.138775
 20
110.501688
 30
0.0
 10
176.354017
 20
109.222347
 30
0.0
 10
177.569259
 20
107.943006
 30
0.0
 10
178.848600
 20
109.158248
 30
0.0
 10
177.633358
 20
110.437589
 30
0.0
 10
178.912698
 20
111.652831
 30
0.0
 10
180.127941
 20
110.373490
 30
0.0
 10
181.407281
 20
111.588732
 30
0.0
 10
182.622524
 20
110.309391
 30
0.0
 10
181.343183
 20
109.094149
 30
0.0
 10
180.063842
 20
107.878907
 30
0.0
 10
181.279084
 20
106.599566
 30
0.0
 10
182.558425
 20
107.814808
 30
0.0
 10
183.773667
 20
106.535467
 30
0.0
 10
182.494326
 20
105.320225
 30
0.0
 10
183.709568
 20
104.040884
 30
0.0
 10
182.430227
 20
102.825642
 30
0.0
 10
181.214985
 20
104.104983
 30
0.0
 10
179.999743
 20
105.384324
 30
0.0
 10
178.720402
 20
104.169082
 30
0.0
 10
179.935644
 20
102.889741
 30
0.0
 10
178.656303
 20
101.674499
 30
0.0
 10
179.871546
 20
100.395158
 30
0.0
 10
181.150886
 20
101.610400
 30
0.0
 10
182.366129
 20
100.331059
 30
0.0
 10
181.086788
 20
99.115817
 30
0.0
 10
179.807447
 20
97.900575
 30
0.0
 10
181.022689
 20
96.621234
 30
0.0
 10
182.302030
 20
97.836476
 30
0.0
 10
183.517272
 20
96.557136
 30
0.0
 10
182.237931
 20
95.341893
 30
0.0
 10
183.453173
 20
94.062553
 30
0.0
 10
182.173832
 20
92.847310
 30
0.0
 10
180.958590
 20
94.126651
 30
0.0
 10
179.743348
 20
95.405992
 30
0.0
 10
178.464007
 20
94.190750
 30
0.0
 10
179.679249
 20
92.911409
 30
0.0
 10
178.399908
 20
91.696167
 30
0.0
 10
177.184666
 20
92.975508
 30
0.0
 10
175.905325
 20
91.760266
 30
0.0
 10
174.690083
 20
93.039607
 30
0.0
 10
175.969424
 20
94.254849
 30
0.0
 10
177.248765
 20
95.470091
 30
0.0
 10
176.033523
 20
96.749432
 30
0.0
 10
174.754182
 20
95.534190
 30
0.0
 10
173.538940
 20
96.813531
 30
0.0
 10
172.323698
 20
98.092871
 30
0.0
 10
171.044357
 20
96.877629
 30
0.0
 10
169.829115
 20
98.156970
 30
0.0
 10
171.108456
 20
99.372212
 30
0.0
 10
172.387797
 20
100.587454
 30
0.0
 10
171.172554
 20
101.866795
 30
0.0
 10
169.893214
 20
100.651553
 30
0.0
 10
168.677971
 20
101.930894
 30
0.0
 10
167.398631
 20
100.715652
 30
0.0
 10
168.613873
 20
99.436311
 30
0.0
 10
167.334532
 20
98.221069
 30
0.0
 10
166.119290
 20
99.500410
 30
0.0
 10
164.904048
 20
100.779751
 30
0.0
 10
163.624707
 20
99.564509
 30
0.0
 10
164.839949
 20
98.285168
 30
0.0
 10
163.560608
 20
97.069926
 30
0.0
 10
164.775850
 20
95.790585
 30
0.0
 10
166.055191
 20
97.005827
 30
0.0
 10
167.270433
 20
95.726486
 30
0.0
 10
165.991092
 20
94.511244
 30
0.0
 10
164.711751
 20
93.296002
 30
0.0
 10
165.926993
 20
92.016661
 30
0.0
 10
167.206334
 20
93.231903
 30
0.0
 10
168.421576
 20
91.952562
 30
0.0
 10
167.142236
 20
90.737320
 30
0.0
 10
168.357478
 20
89.457979
 30
0.0
 10
167.078137
 20
88.242737
 30
0.0
 10
165.862895
 20
89.522078
 30
0.0
 10
164.647653
 20
90.801419
 30
0.0
 10
163.368312
 20
89.586177
 30
0.0
 10
164.583554
 20
88.306836
 30
0.0
 10
163.304213
 20
87.091594
 30
0.0
 10
162.088971
 20
88.370935
 30
0.0
 10
160.809630
 20
87.155692
 30
0.0
 10
159.594388
 20
88.435033
 30
0.0
 10
160.873729
 20
89.650275
 30
0.0
 10
162.153070
 20
90.865518
 30
0.0
 10
160.937828
 20
92.144858
 30
0.0
 10
159.658487
 20
90.929616
 30
0.0
 10
158.443245
 20
92.208957
 30
0.0
 10
157.163904
 20
90.993715
 30
0.0
 10
158.379146
 20
89.714374
 30
0.0
 10
157.099805
 20
88.499132
 30
0.0
 10
155.884563
 20
89.778473
 30
0.0
 10
154.669321
 20
91.057814
 30
0.0
 10
153.389980
 20
89.842572
 30
0.0
 10
154.605222
 20
88.563231
 30
0.0
 10
153.325881
 20
87.347989
 30
0.0
 10
152.110639
 20
88.627330
 30
0.0
 10
150.831298
 20
87.412087
 30
0.0
 10
149.616056
 20
88.691428
 30
0.0
 10
150.895397
 20
89.906670
 30
0.0
 10
152.174738
 20
91.121913
 30
0.0
 10
150.959496
 20
92.401253
 30
0.0
 10
149.680155
 20
91.186011
 30
0.0
 10
148.464913
 20
92.465352
 30
0.0
 10
149.744253
 20
93.680594
 30
0.0
 10
148.529011
 20
94.959935
 30
0.0
 10
149.808352
 20
96.175177
 30
0.0
 10
151.023594
 20
94.895836
 30
0.0
 10
152.238836
 20
93.616496
 30
0.0
 10
153.518177
 20
94.831738
 30
0.0
 10
152.302935
 20
96.111079
 30
0.0
 10
153.582276
 20
97.326321
 30
0.0
 10
154.861617
 20
98.541563
 30
0.0
 10
153.646375
 20
99.820904
 30
0.0
 10
154.925716
 20
101.036146
 30
0.0
 10
156.140958
 20
99.756805
 30
0.0
 10
157.356200
 20
98.477464
 30
0.0
 10
158.635541
 20
99.692706
 30
0.0
 10
157.420299
 20
100.972047
 30
0.0
 10
158.699640
 20
102.187289
 30
0.0
 10
157.484397
 20
103.466630
 30
0.0
 10
156.205057
 20
102.251388
 30
0.0
 10
154.989814
 20
103.530729
 30
0.0
 10
156.269155
 20
104.745971
 30
0.0
 10
157.548496
 20
105.961213
 30
0.0
 10
156.333254
 20
107.240554
 30
0.0
 10
155.053913
 20
106.025312
 30
0.0
 10
153.838671
 20
107.304653
 30
0.0
 10
152.559330
 20
106.089410
 30
0.0
 10
153.774572
 20
104.810070
 30
0.0
 10
152.495232
 20
103.594827
 30
0.0
 10
151.279989
 20
104.874168
 30
0.0
 10
150.064747
 20
106.153509
 30
0.0
 10
148.785406
 20
104.938267
 30
0.0
 10
150.000649
 20
103.658926
 30
0.0
 10
148.721308
 20
102.443684
 30
0.0
 10
147.506066
 20
103.723025
 30
0.0
 10
146.226725
 20
102.507783
 30
0.0
 10
145.011483
 20
103.787124
 30
0.0
 10
146.290823
 20
105.002366
 30
0.0
 10
147.570164
 20
106.217608
 30
0.0
 10
146.354922
 20
107.496949
 30
0.0
 10
145.075581
 20
106.281707
 30
0.0
 10
143.860339
 20
107.561048
 30
0.0
 10
142.645097
 20
108.840388
 30
0.0
 10
141.365756
 20
107.625146
 30
0.0
 10
140.150514
 20
108.904487
 30
0.0
 10
141.429855
 20
110.119729
 30
0.0
 10
142.709196
 20
111.334971
 30
0.0
 10
141.493954
 20
112.614312
 30
0.0
 10
140.214613
 20
111.399070
 30
0.0
 10
138.999371
 20
112.678411
 30
0.0
 10
137.720030
 20
111.463169
 30
0.0
 10
138.935272
 20
110.183828
 30
0.0
 10
137.655931
 20
108.968586
 30
0.0
 10
136.440689
 20
110.247927
 30
0.0
 10
135.225447
 20
111.527268
 30
0.0
 10
133.946106
 20
110.312026
 30
0.0
 10
135.161348
 20
109.032685
 30
0.0
 10
133.882007
 20
107.817443
 30
0.0
 10
132.666765
 20
109.096784
 30
0.0
 10
131.387424
 20
107.881541
 30
0.0
 10
130.172182
 20
109.160882
 30
0.0
 10
131.451523
 20
110.376124
 30
0.0
 10
132.730864
 20
111.591367
 30
0.0
 10
131.515622
 20
112.870707
 30
0.0
 10
130.236281
 20
111.655465
 30
0.0
 10
129.021039
 20
112.934806
 30
0.0
 10
130.300380
 20
114.150048
 30
0.0
 10
129.085138
 20
115.429389
 30
0.0
 10
130.364478
 20
116.644631
 30
0.0
 10
131.579721
 20
115.365290
 30
0.0
 10
132.794963
 20
114.085949
 30
0.0
 10
134.074304
 20
115.301192
 30
0.0
 10
132.859061
 20
116.580532
 30
0.0
 10
134.138402
 20
117.795775
 30
0.0
 10
135.417743
 20
119.011017
 30
0.0
 10
134.202501
 20
120.290358
 30
0.0
 10
135.481842
 20
121.505600
 30
0.0
 10
136.697084
 20
120.226259
 30
0.0
 10
137.912326
 20
118.946918
 30
0.0
 10
139.191667
 20
120.162160
 30
0.0
 10
137.976425
 20
121.441501
 30
0.0
 10
139.255766
 20
122.656743
 30
0.0
 10
138.040524
 20
123.936084
 30
0.0
 10
136.761183
 20
122.720842
 30
0.0
 10
135.545941
 20
124.000183
 30
0.0
 10
136.825282
 20
125.215425
 30
0.0
 10
138.104622
 20
126.430667
 30
0.0
 10
136.889380
 20
127.710008
 30
0.0
 10
135.610039
 20
126.494766
 30
0.0
 10
134.394797
 20
127.774107
 30
0.0
 10
133.115456
 20
126.558864
 30
0.0
 10
134.330699
 20
125.279524
 30
0.0
 10
133.051358
 20
124.064281
 30
0.0
 10
131.836116
 20
125.343622
 30
0.0
 10
130.620874
 20
126.622963
 30
0.0
 10
129.341533
 20
125.407721
 30
0.0
 10
130.556775
 20
124.128380
 30
0.0
 10
129.277434
 20
122.913138
 30
0.0
 10
128.062192
 20
124.192479
 30
0.0
 10
126.782851
 20
122.977237
 30
0.0
 10
125.567609
 20
124.256578
 30
0.0
 10
126.846950
 20
125.471820
 30
0.0
 10
128.126291
 20
126.687062
 30
0.0
 10
126.911048
 20
127.966403
 30
0.0
 10
125.631708
 20
126.751161
 30
0.0
 10
124.416465
 20
128.030502
 30
0.0
 10
123.137125
 20
126.815259
 30
0.0
 10
124.352367
 20
125.535919
 30
0.0
 10
123.073026
 20
124.320676
 30
0.0
 10
121.857784
 20
125.600017
 30
0.0
 10
120.642542
 20
126.879358
 30
0.0
 10
119.363201
 20
125.664116
 30
0.0
 10
120.578443
 20
124.384775
 30
0.0
 10
119.299102
 20
123.169533
 30
0.0
 10
120.514344
 20
121.890192
 30
0.0
 10
121.793685
 20
123.105434
 30
0.0
 10
123.008927
 20
121.826093
 30
0.0
 10
121.729586
 20
120.610851
 30
0.0
 10
120.450245
 20
119.395609
 30
0.0
 10
121.665487
 20
118.116268
 30
0.0
 10
122.944828
 20
119.331510
 30
0.0
 10
124.160070
 20
118.052170
 30
0.0
 10
122.880730
 20
116.836928
 30
0.0
 10
124.095972
 20
115.557587
 30
0.0
 10
122.816631
 20
114.342345
 30
0.0
 10
121.601389
 20
115.621685
 30
0.0
 10
120.386147
 20
116.901026
 30
0.0
 10
119.106806
 20
115.685784
 30
0.0
 10
120.322048
 20
114.406443
 30
0.0
 10
119.042707
 20
113.191201
 30
0.0
 10
117.827465
 20
114.470542
 30
0.0
 10
116.548124
 20
113.255300
 30
0.0
 10
115.332882
 20
114.534641
 30
0.0
 10
116.612223
 20
115.749883
 30
0.0
 10
117.891564
 20
116.965125
 30
0.0
 10
116.676321
 20
118.244466
 30
0.0
 10
115.396981
 20
117.029224
 30
0.0
 10
114.181738
 20
118.308565
 30
0.0
 10
112.966496
 20
119.587906
 30
0.0
 10
111.687155
 20
118.372663
 30
0.0
 10
110.471913
 20
119.652004
 30
0.0
 10
111.751254
 20
120.867246
 30
0.0
 10
113.030595
 20
122.082489
 30
0.0
 10
111.815353
 20
123.361829
 30
0.0
 10
110.536012
 20
122.146587
 30
0.0
 10
109.320770
 20
123.425928
 30
0.0
 10
108.041429
 20
122.210686
 30
0.0
 10
109.256671
 20
120.931345
 30
0.0
 10
107.977330
 20
119.716103
 30
0.0
 10
106.762088
 20
120.995444
 30
0.0
 10
105.546846
 20
122.274785
 30
0.0
 10
104.267505
 20
121.059543
 30
0.0
 10
105.482747
 20
119.780202
 30
0.0
 10
104.203407
 20
118.564960
 30
0.0
 10
105.418649
 20
117.285619
 30
0.0
 10
106.697990
 20
118.500861
 30
0.0
 10
107.913232
 20
117.221520
 30
0.0
 10
106.633891
 20
116.006278
 30
0.0
 10
105.354550
 20
114.791036
 30
0.0
 10
106.569792
 20
113.511695
 30
0.0
 10
107.849133
 20
114.726937
 30
0.0
 10
109.064375
 20
113.447596
 30
0.0
 10
107.785034
 20
112.232354
 30
0.0
 10
109.000276
 20
110.953013
 30
0.0
 10
107.720935
 20
109.737771
 30
0.0
 10
106.505693
 20
111.017112
 30
0.0
 10
105.290451
 20
112.296453
 30
0.0
 10
104.011110
 20
111.081211
 30
0.0
 10
105.226352
 20
109.801870
 30
0.0
 10
103.947012
 20
108.586628
 30
0.0
 10
105.162254
 20
107.307287
 30
0.0
 10
106.441594
 20
108.522529
 30
0.0
 10
107.656837
 20
107.243188
 30
0.0
 10
106.377496
 20
106.027946
 30
0.0
 10
105.098155
 20
104.812704
 30
0.0
 10
106.313397
 20
103.533363
 30
0.0
 10
107.592738
 20
104.748605
 30
0.0
 10
108.807980
 20
103.469264
 30
0.0
 10
110.087321
 20
104.684506
 30
0.0
 10
108.872079
 20
105.963847
 30
0.0
 10
110.151420
 20
107.179089
 30
0.0
 10
111.366662
 20
105.899749
 30
0.0
 10
112.581904
 20
104.620408
 30
0.0
 10
113.861245
 20
105.835650
 30
0.0
 10
112.646003
 20
107.114991
 30
0.0
 10
113.925343
 20
108.330233
 30
0.0
 10
115.140586
 20
107.050892
 30
0.0
 10
116.419926
 20
108.266134
 30
0.0
 10
117.635169
 20
106.986793
 30
0.0
 10
116.355828
 20
105.771551
 30
0.0
 10
115.076487
 20
104.556309
 30
0.0
 10
116.291729
 20
103.276968
 30
0.0
 10
117.571070
 20
104.492210
 30
0.0
 10
118.786312
 20
103.212869
 30
0.0
 10
117.506971
 20
101.997627
 30
0.0
 10
118.722213
 20
100.718286
 30
0.0
 10
117.442872
 20
99.503044
 30
0.0
 10
116.227630
 20
100.782385
 30
0.0
 10
115.012388
 20
102.061726
 30
0.0
 10
113.733047
 20
100.846484
 30
0.0
 10
114.948289
 20
99.567143
 30
0.0
 10
113.668948
 20
98.351901
 30
0.0
 10
112.389608
 20
97.136659
 30
0.0
 10
113.604850
 20
95.857318
 30
0.0
 10
112.325509
 20
94.642076
 30
0.0
 10
111.110267
 20
95.921417
 30
0.0
 10
109.895025
 20
97.200757
 30
0.0
 10
108.615684
 20
95.985515
 30
0.0
 10
109.830926
 20
94.706174
 30
0.0
 10
108.551585
 20
93.490932
 30
0.0
 10
109.766827
 20
92.211591
 30
0.0
 10
111.046168
 20
93.426834
 30
0.0
 10
112.261410
 20
92.147493
 30
0.0
 10
110.982069
 20
90.932251
 30
0.0
 10
109.702728
 20
89.717009
 30
0.0
 10
110.917970
 20
88.437668
 30
0.0
 10
112.197311
 20
89.652910
 30
0.0
 10
113.412553
 20
88.373569
 30
0.0
 10
114.691894
 20
89.588811
 30
0.0
 10
113.476652
 20
90.868152
 30
0.0
 10
114.755993
 20
92.083394
 30
0.0
 10
115.971235
 20
90.804053
 30
0.0
 10
117.186477
 20
89.524712
 30
0.0
 10
118.465818
 20
90.739954
 30
0.0
 10
117.250576
 20
92.019295
 30
0.0
 10
118.529917
 20
93.234537
 30
0.0
 10
119.745159
 20
91.955196
 30
0.0
 10
121.024500
 20
93.170439
 30
0.0
 10
122.239742
 20
91.891098
 30
0.0
 10
120.960401
 20
90.675856
 30
0.0
 10
119.681060
 20
89.460613
 30
0.0
 10
120.896302
 20
88.181273
 30
0.0
 10
122.175643
 20
89.396515
 30
0.0
 10
123.390885
 20
88.117174
 30
0.0
 10
122.111544
 20
86.901932
 30
0.0
 10
123.326787
 20
85.622591
 30
0.0
 10
122.047446
 20
84.407349
 30
0.0
 10
120.832204
 20
85.686690
 30
0.0
 10
119.616961
 20
86.966030
 30
0.0
 10
118.337621
 20
85.750788
 30
0.0
 10
119.552863
 20
84.471448
 30
0.0
 10
118.273522
 20
83.256205
 30
0.0
 10
119.488764
 20
81.976865
 30
0.0
 10
120.768105
 20
83.192107
 30
0.0
 10
121.983347
 20
81.912766
 30
0.0
 10
120.704006
 20
80.697524
 30
0.0
 10
119.424665
 20
79.482282
 30
0.0
 10
120.639907
 20
78.202941
 30
0.0
 10
121.919248
 20
79.418183
 30
0.0
 10
123.134490
 20
78.138842
 30
0.0
 10
121.855149
 20
76.923600
 30
0.0
 10
123.070391
 20
75.644259
 30
0.0
 10
121.791051
 20
74.429017
 30
0.0
 10
120.575809
 20
75.708358
 30
0.0
 10
119.360566
 20
76.987699
 30
0.0
 10
118.081226
 20
75.772456
 30
0.0
 10
119.296468
 20
74.493116
 30
0.0
 10
118.017127
 20
73.277873
 30
0.0
 10
116.801885
 20
74.557214
 30
0.0
 10
115.522544
 20
73.341972
 30
0.0
 10
114.307302
 20
74.621313
 30
0.0
 10
115.586643
 20
75.836555
 30
0.0
 10
116.865983
 20
77.051797
 30
0.0
 10
115.650741
 20
78.331138
 30
0.0
 10
114.371400
 20
77.115896
 30
0.0
 10
113.156158
 20
78.395237
 30
0.0
 10
111.940916
 20
79.674578
 30
0.0
 10
110.661575
 20
78.459336
 30
0.0
 10
109.446333
 20
79.738677
 30
0.0
 10
110.725674
 20
80.953919
 30
0.0
 10
112.005015
 20
82.169161
 30
0.0
 10
110.789773
 20
83.448502
 30
0.0
 10
109.510432
 20
82.233260
 30
0.0
 10
108.295190
 20
83.512600
 30
0.0
 10
107.015849
 20
82.297358
 30
0.0
 10
108.231091
 20
81.018017
 30
0.0
 10
106.951750
 20
79.802775
 30
0.0
 10
105.736508
 20
81.082116
 30
0.0
 10
104.521266
 20
82.361457
 30
0.0
 10
103.241925
 20
81.146215
 30
0.0
 10
104.457167
 20
79.866874
 30
0.0
 10
103.177826
 20
78.651632
 30
0.0
 10
104.393069
 20
77.372291
 30
0.0
 10
105.672409
 20
78.587533
 30
0.0
 10
106.887651
 20
77.308192
 30
0.0
 10
105.608311
 20
76.092950
 30
0.0
 10
104.328970
 20
74.877708
 30
0.0
 10
105.544212
 20
73.598367
 30
0.0
 10
106.823553
 20
74.813609
 30
0.0
 10
108.038795
 20
73.534269
 30
0.0
 10
106.759454
 20
72.319026
 30
0.0
 10
107.974696
 20
71.039686
 30
0.0
 10
106.695355
 20
69.824443
 30
0.0
 10
105.480113
 20
71.103784
 30
0.0
 10
104.264871
 20
72.383125
 30
0.0
 10
102.985530
 20
71.167883
 30
0.0
 10
104.200772
 20
69.888542
 30
0.0
 10
102.921431
 20
68.673300
 30
0.0
 10
101.706189
 20
69.952641
 30
0.0
 10
100.426848
 20
68.737399
 30
0.0
 10
99.211606
 20
70.016740
 30
0.0
 10
100.490947
 20
71.231982
 30
0.0
 10
101.770288
 20
72.447224
 30
0.0
 10
100.555046
 20
73.726565
 30
0.0
 10
99.275705
 20
72.511323
 30
0.0
 10
98.060463
 20
73.790664
 30
0.0
 10
96.781122
 20
72.575421
 30
0.0
 10
97.996364
 20
71.296081
 30
0.0
 10
96.717023
 20
70.080838
 30
0.0
 10
95.501781
 20
71.360179
 30
0.0
 10
94.286539
 20
72.639520
 30
0.0
 10
93.007198
 20
71.424278
 30
0.0
 10
94.222440
 20
70.144937
 30
0.0
 10
92.943099
 20
68.929695
 30
0.0
 10
91.727857
 20
70.209036
 30
0.0
 10
90.448516
 20
68.993794
 30
0.0
 10
89.233274
 20
70.273135
 30
0.0
 10
90.512615
 20
71.488377
 30
0.0
 10
91.791956
 20
72.703619
 30
0.0
 10
90.576714
 20
73.982960
 30
0.0
 10
89.297373
 20
72.767718
 30
0.0
 10
88.082131
 20
74.047059
 30
0.0
 10
89.361472
 20
75.262301
 30
0.0
 10
88.146230
 20
76.541642
 30
0.0
 10
89.425571
 20
77.756884
 30
0.0
 10
90.640813
 20
76.477543
 30
0.0
 10
91.856055
 20
75.198202
 30
0.0
 10
93.135396
 20
76.413444
 30
0.0
 10
91.920154
 20
77.692785
 30
0.0
 10
93.199494
 20
78.908027
 30
0.0
 10
94.478835
 20
80.123269
 30
0.0
 10
93.263593
 20
81.402610
 30
0.0
 10
94.542934
 20
82.617852
 30
0.0
 10
95.758176
 20
81.338511
 30
0.0
 10
96.973418
 20
80.059170
 30
0.0
 10
98.252759
 20
81.274412
 30
0.0
 10
97.037517
 20
82.553753
 30
0.0
 10
98.316858
 20
83.768995
 30
0.0
 10
97.101616
 20
85.048336
 30
0.0
 10
95.822275
 20
83.833094
 30
0.0
 10
94.607033
 20
85.112435
 30
0.0
 10
95.886374
 20
86.327677
 30
0.0
 10
97.165715
 20
87.542919
 30
0.0
 10
95.950472
 20
88.822260
 30
0.0
 10
94.671132
 20
87.607018
 30
0.0
 10
93.455890
 20
88.886359
 30
0.0
 10
92.176549
 20
87.671117
 30
0.0
 10
93.391791
 20
86.391776
 30
0.0
 10
92.112450
 20
85.176534
 30
0.0
 10
90.897208
 20
86.455875
 30
0.0
 10
89.681966
 20
87.735216
 30
0.0
 10
88.402625
 20
86.519973
 30
0.0
 10
89.617867
 20
85.240633
 30
0.0
 10
88.338526
 20
84.025391
 30
0.0
 10
87.123284
 20
85.304731
 30
0.0
 10
85.843943
 20
84.089489
 30
0.0
 10
84.628701
 20
85.368830
 30
0.0
 10
85.908042
 20
86.584072
 30
0.0
 10
87.187383
 20
87.799314
 30
0.0
 10
85.972141
 20
89.078655
 30
0.0
 10
84.692800
 20
87.863413
 30
0.0
 10
83.477558
 20
89.142754
 30
0.0
 10
82.198217
 20
87.927512
 30
0.0
 10
83.413459
 20
86.648171
 30
0.0
 10
82.134118
 20
85.432929
 30
0.0
 10
80.918876
 20
86.712270
 30
0.0
 10
79.703634
 20
87.991611
 30
0.0
 10
78.424293
 20
86.776369
 30
0.0
 10
79.639535
 20
85.497028
 30
0.0
 10
78.360194
 20
84.281786
 30
0.0
 10
79.575436
 20
83.002445
 30
0.0
 10
80.854777
 20
84.217687
 30
0.0
 10
82.070019
 20
82.938346
 30
0.0
 10
80.790678
 20
81.723104
 30
0.0
 10
79.511337
 20
80.507862
 30
0.0
 10
80.726580
 20
79.228521
 30
0.0
 10
82.005920
 20
80.443763
 30
0.0
 10
83.221163
 20
79.164422
 30
0.0
 10
81.941822
 20
77.949180
 30
0.0
 10
83.157064
 20
76.669839
 30
0.0
 10
81.877723
 20
75.454597
 30
0.0
 10
80.662481
 20
76.733938
 30
0.0
 10
79.447239
 20
78.013279
 30
0.0
 10
78.167898
 20
76.798037
 30
0.0
 10
79.383140
 20
75.518696
 30
0.0
 10
78.103799
 20
74.303454
 30
0.0
 10
76.888557
 20
75.582794
 30
0.0
 10
75.609216
 20
74.367552
 30
0.0
 10
74.393974
 20
75.646893
 30
0.0
 10
75.673315
 20
76.862135
 30
0.0
 10
76.952656
 20
78.077377
 30
0.0
 10
75.737414
 20
79.356718
 30
0.0
 10
74.458073
 20
78.141476
 30
0.0
 10
73.242831
 20
79.420817
 30
0.0
 10
72.027589
 20
80.700158
 30
0.0
 10
70.748248
 20
79.484916
 30
0.0
 10
69.533006
 20
80.764257
 30
0.0
 10
70.812346
 20
81.979499
 30
0.0
 10
72.091687
 20
83.194741
 30
0.0
 10
70.876445
 20
84.474082
 30
0.0
 10
69.597104
 20
83.258840
 30
0.0
 10
68.381862
 20
84.538181
 30
0.0
 10
67.102521
 20
83.322938
 30
0.0
 10
68.317763
 20
82.043598
 30
0.0
 10
67.038423
 20
80.828355
 30
0.0
 10
65.823180
 20
82.107696
 30
0.0
 10
64.607938
 20
83.387037
 30
0.0
 10
63.328597
 20
82.171795
 30
0.0
 10
64.543840
 20
80.892454
 30
0.0
 10
63.264499
 20
79.677212
 30
0.0
 10
64.479741
 20
78.397871
 30
0.0
 10
65.759082
 20
79.613113
 30
0.0
 10
66.974324
 20
78.333773
 30
0.0
 10
65.694983
 20
77.118530
 30
0.0
 10
64.415642
 20
75.903288
 30
0.0
 10
65.630884
 20
74.623947
 30
0.0
 10
66.910225
 20
75.839190
 30
0.0
 10
68.125467
 20
74.559849
 30
0.0
 10
66.846126
 20
73.344607
 30
0.0
 10
68.061368
 20
72.065266
 30
0.0
 10
66.782028
 20
70.850024
 30
0.0
 10
65.566785
 20
72.129364
 30
0.0
 10
64.351543
 20
73.408705
 30
0.0
 10
63.072202
 20
72.193463
 30
0.0
 10
64.287445
 20
70.914122
 30
0.0
 10
63.008104
 20
69.698880
 30
0.0
 10
61.792862
 20
70.978221
 30
0.0
 10
60.513521
 20
69.762979
 30
0.0
 10
59.298279
 20
71.042320
 30
0.0
 10
60.577619
 20
72.257562
 30
0.0
 10
61.856960
 20
73.472804
 30
0.0
 10
60.641718
 20
74.752145
 30
0.0
 10
59.362377
 20
73.536903
 30
0.0
 10
58.147135
 20
74.816244
 30
0.0
 10
56.867794
 20
73.601002
 30
0.0
 10
58.083036
 20
72.321661
 30
0.0
 10
56.803696
 20
71.106419
 30
0.0
 10
55.588453
 20
72.385759
 30
0.0
 10
54.373211
 20
73.665100
 30
0.0
 10
53.093871
 20
72.449858
 30
0.0
 10
54.309113
 20
71.170517
 30
0.0
 10
53.029772
 20
69.955275
 30
0.0
 10
51.814530
 20
71.234616
 30
0.0
 10
50.535189
 20
70.019374
 30
0.0
 10
49.319947
 20
71.298715
 30
0.0
 10
50.599288
 20
72.513957
 30
0.0
 10
51.878628
 20
73.729199
 30
0.0
 10
50.663386
 20
75.008540
 30
0.0
 10
49.384045
 20
73.793298
 30
0.0
 10
48.168803
 20
75.072639
 30
0.0
 10
49.448144
 20
76.287881
 30
0.0
 10
48.232902
 20
77.567222
 30
0.0
 10
49.512243
 20
78.782464
 30
0.0
 10
50.727485
 20
77.503123
 30
0.0
 10
51.942727
 20
76.223782
 30
0.0
 10
53.222068
 20
77.439024
 30
0.0
 10
52.006826
 20
78.718365
 30
0.0
 10
53.286167
 20
79.933607
 30
0.0
 10
54.565508
 20
81.148849
 30
0.0
 10
53.350266
 20
82.428190
 30
0.0
 10
54.629606
 20
83.643432
 30
0.0
 10
55.844849
 20
82.364091
 30
0.0
 10
57.060091
 20
81.084751
 30
0.0
 10
58.339432
 20
82.299993
 30
0.0
 10
57.124189
 20
83.579334
 30
0.0
 10
58.403530
 20
84.794576
 30
0.0
 10
57.188288
 20
86.073916
 30
0.0
 10
55.908947
 20
84.858674
 30
0.0
 10
54.693705
 20
86.138015
 30
0.0
 10
55.973046
 20
87.353257
 30
0.0
 10
57.252387
 20
88.568499
 30
0.0
 10
56.037145
 20
89.847840
 30
0.0
 10
54.757804
 20
88.632598
 30
0.0
 10
53.542562
 20
89.911939
 30
0.0
 10
52.263221
 20
88.696697
 30
0.0
 10
53.478463
 20
87.417356
 30
0.0
 10
52.199122
 20
86.202114
 30
0.0
 10
50.983880
 20
87.481455
 30
0.0
 10
49.768638
 20
88.760796
 30
0.0
 10
48.489297
 20
87.545554
 30
0.0
 10
49.704539
 20
86.266213
 30
0.0
 10
48.425198
 20
85.050971
 30
0.0
 10
47.209956
 20
86.330312
 30
0.0
 10
45.930615
 20
85.115069
 30
0.0
 10
44.715373
 20
86.394410
 30
0.0
 10
45.994714
 20
87.609652
 30
0.0
 10
47.274055
 20
88.824895
 30
0.0
 10
46.058813
 20
90.104235
 30
0.0
 10
44.779472
 20
88.888993
 30
0.0
 10
43.564230
 20
90.168334
 30
0.0
 10
44.843571
 20
91.383576
 30
0.0
 10
43.628329
 20
92.662917
 30
0.0
 10
44.907670
 20
93.878159
 30
0.0
 10
46.122912
 20
92.598818
 30
0.0
 10
47.338154
 20
91.319477
 30
0.0
 10
48.617495
 20
92.534720
 30
0.0
 10
47.402253
 20
93.814060
 30
0.0
 10
48.681593
 20
95.029303
 30
0.0
 10
47.466351
 20
96.308643
 30
0.0
 10
46.187010
 20
95.093401
 30
0.0
 10
44.971768
 20
96.372742
 30
0.0
 10
46.251109
 20
97.587984
 30
0.0
 10
47.530450
 20
98.803226
 30
0.0
 10
46.315208
 20
100.082567
 30
0.0
 10
45.035867
 20
98.867325
 30
0.0
 10
43.820625
 20
100.146666
 30
0.0
 10
45.099966
 20
101.361908
 30
0.0
 10
43.884724
 20
102.641249
 30
0.0
 10
45.164065
 20
103.856491
 30
0.0
 10
46.379307
 20
102.577150
 30
0.0
 10
47.594549
 20
101.297809
 30
0.0
 10
48.873890
 20
102.513052
 30
0.0
 10
47.658648
 20
103.792392
 30
0.0
 10
48.937988
 20
105.007635
 30
0.0
 10
50.153231
 20
103.728294
 30
0.0
 10
51.432571
 20
104.943536
 30
0.0
 10
52.647814
 20
103.664195
 30
0.0
 10
51.368473
 20
102.448953
 30
0.0
 10
50.089132
 20
101.233711
 30
0.0
 10
51.304374
 20
99.954370
 30
0.0
 10
52.583715
 20
101.169612
 30
0.0
 10
53.798957
 20
99.890271
 30
0.0
 10
55.014199
 20
98.610930
 30
0.0
 10
56.293540
 20
99.826172
 30
0.0
 10
57.508782
 20
98.546831
 30
0.0
 10
56.229441
 20
97.331589
 30
0.0
 10
54.950100
 20
96.116347
 30
0.0
 10
56.165342
 20
94.837006
 30
0.0
 10
57.444683
 20
96.052248
 30
0.0
 10
58.659925
 20
94.772908
 30
0.0
 10
59.939266
 20
95.988150
 30
0.0
 10
58.724024
 20
97.267491
 30
0.0
 10
60.003365
 20
98.482733
 30
0.0
 10
61.218607
 20
97.203392
 30
0.0
 10
62.433849
 20
95.924051
 30
0.0
 10
63.713190
 20
97.139293
 30
0.0
 10
62.497948
 20
98.418634
 30
0.0
 10
63.777289
 20
99.633876
 30
0.0
 10
62.562047
 20
100.913217
 30
0.0
 10
61.282706
 20
99.697975
 30
0.0
 10
60.067464
 20
100.977316
 30
0.0
 10
61.346805
 20
102.192558
 30
0.0
 10
62.626145
 20
103.407800
 30
0.0
 10
61.410903
 20
104.687141
 30
0.0
 10
60.131562
 20
103.471899
 30
0.0
 10
58.916320
 20
104.751239
 30
0.0
 10
60.195661
 20
105.966482
 30
0.0
 10
58.980419
 20
107.245822
 30
0.0
 10
60.259760
 20
108.461065
 30
0.0
 10
61.475002
 20
107.181724
 30
0.0
 10
62.690244
 20
105.902383
 30
0.0
 10
63.969585
 20
107.117625
 30
0.0
 10
62.754343
 20
108.396966
 30
0.0
 10
64.033684
 20
109.612208
 30
0.0
 10
65.313025
 20
110.827450
 30
0.0
 10
64.097783
 20
112.106791
 30
0.0
 10
65.377123
 20
113.322033
 30
0.0
 10
66.592366
 20
112.042692
 30
0.0
 10
67.807608
 20
110.763351
 30
0.0
 10
69.086949
 20
111.978593
 30
0.0
 10
67.871706
 20
113.257934
 30
0.0
 10
69.151047
 20
114.473176
 30
0.0
 10
67.935805
 20
115.752517
 30
0.0
 10
66.656464
 20
114.537275
 30
0.0
 10
65.441222
 20
115.816616
 30
0.0
 10
66.720563
 20
117.031858
 30
0.0
 10
67.999904
 20
118.247100
 30
0.0
 10
66.784662
 20
119.526441
 30
0.0
 10
65.505321
 20
118.311199
 30
0.0
 10
64.290079
 20
119.590540
 30
0.0
 10
65.569420
 20
120.805782
 30
0.0
 10
64.354178
 20
122.085123
 30
0.0
 10
65.633518
 20
123.300365
 30
0.0
 10
66.848761
 20
122.021024
 30
0.0
 10
68.064003
 20
120.741683
 30
0.0
 10
69.343344
 20
121.956925
 30
0.0
 10
68.128101
 20
123.236266
 30
0.0
 10
69.407442
 20
124.451508
 30
0.0
 10
70.622684
 20
123.172167
 30
0.0
 10
71.902025
 20
124.387410
 30
0.0
 10
73.117267
 20
123.108069
 30
0.0
 10
71.837927
 20
121.892827
 30
0.0
 10
70.558586
 20
120.677584
 30
0.0
 10
71.773828
 20
119.398244
 30
0.0
 10
73.053169
 20
120.613486
 30
0.0
 10
74.268411
 20
119.334145
 30
0.0
 10
75.483653
 20
118.054804
 30
0.0
 10
76.762994
 20
119.270046
 30
0.0
 10
77.978236
 20
117.990705
 30
0.0
 10
76.698895
 20
116.775463
 30
0.0
 10
75.419554
 20
115.560221
 30
0.0
 10
76.634796
 20
114.280880
 30
0.0
 10
77.914137
 20
115.496122
 30
0.0
 10
79.129379
 20
114.216781
 30
0.0
 10
80.408720
 20
115.432023
 30
0.0
 10
79.193478
 20
116.711364
 30
0.0
 10
80.472819
 20
117.926606
 30
0.0
 10
81.688061
 20
116.647266
 30
0.0
 10
82.903303
 20
115.367925
 30
0.0
 10
84.182644
 20
116.583167
 30
0.0
 10
82.967402
 20
117.862508
 30
0.0
 10
84.246743
 20
119.077750
 30
0.0
 10
83.031501
 20
120.357091
 30
0.0
 10
81.752160
 20
119.141849
 30
0.0
 10
80.536918
 20
120.421189
 30
0.0
 10
81.816258
 20
121.636431
 30
0.0
 10
83.095599
 20
122.851674
 30
0.0
 10
81.880357
 20
124.131014
 30
0.0
 10
80.601016
 20
122.915772
 30
0.0
 10
79.385774
 20
124.195113
 30
0.0
 10
80.665115
 20
125.410355
 30
0.0
 10
79.449873
 20
126.689696
 30
0.0
 10
80.729214
 20
127.904938
 30
0.0
 10
81.944456
 20
126.625597
 30
0.0
 10
83.159698
 20
125.346257
 30
0.0
 10
84.439039
 20
126.561499
 30
0.0
 10
83.223797
 20
127.840840
 30
0.0
 10
84.503138
 20
129.056082
 30
0.0
 10
83.287896
 20
130.335423
 30
0.0
 10
82.008555
 20
129.120180
 30
0.0
 10
80.793313
 20
130.399521
 30
0.0
 10
82.072654
 20
131.614763
 30
0.0
 10
83.351994
 20
132.830006
 30
0.0
 10
82.136752
 20
134.109346
 30
0.0
 10
80.857411
 20
132.894104
 30
0.0
 10
79.642169
 20
134.173445
 30
0.0
 10
78.362828
 20
132.958203
 30
0.0
 10
79.578071
 20
131.678862
 30
0.0
 10
78.298730
 20
130.463620
 30
0.0
 10
77.083488
 20
131.742961
 30
0.0
 10
75.868245
 20
133.022302
 30
0.0
 10
74.588905
 20
131.807060
 30
0.0
 10
75.804147
 20
130.527719
 30
0.0
 10
74.524806
 20
129.312477
 30
0.0
 10
73.309564
 20
130.591818
 30
0.0
 10
72.030223
 20
129.376575
 30
0.0
 10
70.814981
 20
130.655916
 30
0.0
 10
72.094322
 20
131.871158
 30
0.0
 10
73.373662
 20
133.086401
 30
0.0
 10
72.158420
 20
134.365741
 30
0.0
 10
70.879079
 20
133.150499
 30
0.0
 10
69.663837
 20
134.429840
 30
0.0
 10
70.943178
 20
135.645082
 30
0.0
 10
69.727936
 20
136.924423
 30
0.0
 10
71.007277
 20
138.139665
 30
0.0
 10
72.222519
 20
136.860324
 30
0.0
 10
73.437761
 20
135.580984
 30
0.0
 10
74.717102
 20
136.796226
 30
0.0
 10
73.501860
 20
138.075567
 30
0.0
 10
74.781201
 20
139.290809
 30
0.0
 10
76.060542
 20
140.506051
 30
0.0
 10
74.845300
 20
141.785392
 30
0.0
 10
76.124640
 20
143.000634
 30
0.0
 10
77.339883
 20
141.721293
 30
0.0
 10
78.555125
 20
140.441952
 30
0.0
 10
79.834466
 20
141.657194
 30
0.0
 10
78.619223
 20
142.936535
 30
0.0
 10
79.898564
 20
144.151777
 30
0.0
 10
78.683322
 20
145.431118
 30
0.0
 10
77.403981
 20
144.215876
 30
0.0
 10
76.188739
 20
145.495217
 30
0.0
 10
77.468080
 20
146.710459
 30
0.0
 10
78.747421
 20
147.925701
 30
0.0
 10
77.532179
 20
149.205042
 30
0.0
 10
76.252838
 20
147.989800
 30
0.0
 10
75.037596
 20
149.269141
 30
0.0
 10
73.758255
 20
148.053898
 30
0.0
 10
74.973497
 20
146.774558
 30
0.0
 10
73.694156
 20
145.559315
 30
0.0
 10
72.478914
 20
146.838656
 30
0.0
 10
71.263672
 20
148.117997
 30
0.0
 10
69.984331
 20
146.902755
 30
0.0
 10
71.199573
 20
145.623414
 30
0.0
 10
69.920232
 20
144.408172
 30
0.0
 10
68.704990
 20
145.687513
 30
0.0
 10
67.425649
 20
144.472271
 30
0.0
 10
66.210407
 20
145.751612
 30
0.0
 10
67.489748
 20
146.966854
 30
0.0
 10
68.769089
 20
148.182096
 30
0.0
 10
67.553847
 20
149.461437
 30
0.0
 10
66.274506
 20
148.246195
 30
0.0
 10
65.059264
 20
149.525536
 30
0.0
 10
63.779923
 20
148.310293
 30
0.0
 10
64.995165
 20
147.030953
 30
0.0
 10
63.715824
 20
145.815711
 30
0.0
 10
62.500582
 20
147.095051
 30
0.0
 10
61.285340
 20
148.374392
 30
0.0
 10
60.005999
 20
147.159150
 30
0.0
 10
61.221241
 20
145.879809
 30
0.0
 10
59.941900
 20
144.664567
 30
0.0
 10
61.157143
 20
143.385226
 30
0.0
 10
62.436483
 20
144.600468
 30
0.0
 10
63.651726
 20
143.321128
 30
0.0
 10
62.372385
 20
142.105885
 30
0.0
 10
61.093044
 20
140.890643
 30
0.0
 10
62.308286
 20
139.611302
 30
0.0
 10
63.587627
 20
140.826545
 30
0.0
 10
64.802869
 20
139.547204
 30
0.0
 10
63.523528
 20
138.331962
 30
0.0
 10
64.738770
 20
137.052621
 30
0.0
 10
63.459429
 20
135.837379
 30
0.0
 10
62.244187
 20
137.116719
 30
0.0
 10
61.028945
 20
138.396060
 30
0.0
 10
59.749604
 20
137.180818
 30
0.0
 10
60.964846
 20
135.901477
 30
0.0
 10
59.685505
 20
134.686235
 30
0.0
 10
58.470263
 20
135.965576
 30
0.0
 10
57.190922
 20
134.750334
 30
0.0
 10
55.975680
 20
136.029675
 30
0.0
 10
57.255021
 20
137.244917
 30
0.0
 10
58.534362
 20
138.460159
 30
0.0
 10
57.319120
 20
139.739500
 30
0.0
 10
56.039779
 20
138.524258
 30
0.0
 10
54.824537
 20
139.803599
 30
0.0
 10
53.609295
 20
141.082940
 30
0.0
 10
52.329954
 20
139.867697
 30
0.0
 10
51.114712
 20
141.147038
 30
0.0
 10
52.394053
 20
142.362280
 30
0.0
 10
53.673394
 20
143.577523
 30
0.0
 10
52.458152
 20
144.856863
 30
0.0
 10
51.178811
 20
143.641621
 30
0.0
 10
49.963569
 20
144.920962
 30
0.0
 10
48.684228
 20
143.705720
 30
0.0
 10
49.899470
 20
142.426379
 30
0.0
 10
48.620129
 20
141.211137
 30
0.0
 10
47.404887
 20
142.490478
 30
0.0
 10
46.189645
 20
143.769819
 30
0.0
 10
44.910304
 20
142.554577
 30
0.0
 10
46.125546
 20
141.275236
 30
0.0
 10
44.846205
 20
140.059994
 30
0.0
 10
46.061447
 20
138.780653
 30
0.0
 10
47.340788
 20
139.995895
 30
0.0
 10
48.556030
 20
138.716554
 30
0.0
 10
47.276689
 20
137.501312
 30
0.0
 10
45.997348
 20
136.286070
 30
0.0
 10
47.212591
 20
135.006729
 30
0.0
 10
48.491931
 20
136.221971
 30
0.0
 10
49.707174
 20
134.942630
 30
0.0
 10
48.427833
 20
133.727388
 30
0.0
 10
49.643075
 20
132.448047
 30
0.0
 10
48.363734
 20
131.232805
 30
0.0
 10
47.148492
 20
132.512146
 30
0.0
 10
45.933250
 20
133.791487
 30
0.0
 10
44.653909
 20
132.576245
 30
0.0
 10
45.869151
 20
131.296904
 30
0.0
 10
44.589810
 20
130.081662
 30
0.0
 10
43.374568
 20
131.361003
 30
0.0
 10
42.095227
 20
130.145761
 30
0.0
 10
40.879985
 20
131.425101
 30
0.0
 10
42.159326
 20
132.640344
 30
0.0
 10
43.438667
 20
133.855586
 30
0.0
 10
42.223425
 20
135.134927
 30
0.0
 10
40.944084
 20
133.919684
 30
0.0
 10
39.728842
 20
135.199025
 30
0.0
 10
38.449501
 20
133.983783
 30
0.0
 10
39.664743
 20
132.704442
 30
0.0
 10
38.385402
 20
131.489200
 30
0.0
 10
37.170160
 20
132.768541
 30
0.0
 10
35.954918
 20
134.047882
 30
0.0
 10
34.675577
 20
132.832640
 30
0.0
 10
35.890819
 20
131.553299
 30
0.0
 10
34.611478
 20
130.338057
 30
0.0
 10
33.396236
 20
131.617398
 30
0.0
 10
32.116895
 20
130.402156
 30
0.0
 10
30.901653
 20
131.681496
 30
0.0
 10
32.180994
 20
132.896739
 30
0.0
 10
33.460335
 20
134.111981
 30
0.0
 10
32.245093
 20
135.391322
 30
0.0
 10
30.965752
 20
134.176079
 30
0.0
 10
29.750510
 20
135.455420
 30
0.0
 10
31.029851
 20
136.670662
 30
0.0
 10
29.814608
 20
137.950003
 30
0.0
 10
31.093949
 20
139.165245
 30
0.0
 10
32.309191
 20
137.885905
 30
0.0
 10
33.524434
 20
136.606564
 30
0.0
 10
34.803774
 20
137.821806
 30
0.0
 10
33.588532
 20
139.101147
 30
0.0
 10
34.867873
 20
140.316389
 30
0.0
 10
36.147214
 20
141.531631
 30
0.0
 10
34.931972
 20
142.810972
 30
0.0
 10
36.211313
 20
144.026214
 30
0.0
 10
37.426555
 20
142.746873
 30
0.0
 10
38.641797
 20
141.467532
 30
0.0
 10
39.921138
 20
142.682774
 30
0.0
 10
38.705896
 20
143.962115
 30
0.0
 10
39.985237
 20
145.177357
 30
0.0
 10
38.769995
 20
146.456698
 30
0.0
 10
37.490654
 20
145.241456
 30
0.0
 10
36.275412
 20
146.520797
 30
0.0
 10
37.554752
 20
147.736039
 30
0.0
 10
38.834093
 20
148.951281
 30
0.0
 10
37.618851
 20
150.230622
 30
0.0
 10
36.339510
 20
149.015380
 30
0.0
 10
35.124268
 20
150.294721
 30
0.0
 10
33.844927
 20
149.079479
 30
0.0
 10
35.060169
 20
147.800138
 30
0.0
 10
33.780829
 20
146.584896
 30
0.0
 10
32.565586
 20
147.864236
 30
0.0
 10
31.350344
 20
149.143577
 30
0.0
 10
30.071003
 20
147.928335
 30
0.0
 10
31.286246
 20
146.648994
 30
0.0
 10
30.006905
 20
145.433752
 30
0.0
 10
28.791663
 20
146.713093
 30
0.0
 10
27.512322
 20
145.497851
 30
0.0
 10
26.297080
 20
146.777192
 30
0.0
 10
27.576420
 20
147.992434
 30
0.0
 10
28.855761
 20
149.207676
 30
0.0
 10
27.640519
 20
150.487017
 30
0.0
 10
26.361178
 20
149.271775
 30
0.0
  0
ENDSEC
  0
SECTION
  2
OBJECTS
  0
DICTIONARY
  5
C
330
0
100
AcDbDictionary
  3
ACAD_GROUP
350
D
  3
ACAD_MLINESTYLE
350
17
  0
DICTIONARY
  5
D
330
C
100
AcDbDictionary
  0
DICTIONARY
  5
1A
330
C
100
AcDbDictionary
  0
DICTIONARY
  5
17
330
C
100
AcDbDictionary
  3
STANDARD
350
18
  0
DICTIONARY
  5
19
330
C
100
AcDbDictionary
  0
ENDSEC
  0
EOF
