  0
SECTION
  2
HEADER
  9
$ACADVER
  1
AC1014
  9
$HANDSEED
  5
FFFF
  9
$MEASUREMENT
 70
     1
  0
ENDSEC
  0
SECTION
  2
TABLES
  0
TABLE
  2
VPORT
  5
8
330
0
100
AcDbSymbolTable
 70
     4
  0
VPORT
  5
2E
330
8
100
AcDbSymbolTableRecord
100
AcDbViewportTableRecord
  2
*ACTIVE
 70
     0
 10
0.0
 20
0.0
 11
1.0
 21
1.0
 12
210.0
 22
148.5
 13
0.0
 23
0.0
 14
10.0
 24
10.0
 15
10.0
 25
10.0
 16
0.0
 26
0.0
 36
1.0
 17
0.0
 27
0.0
 37
0.0
 40
341.0
 41
1.24
 42
50.0
 43
0.0
 44
0.0
 50
0.0
 51
0.0
 71
     0
 72
   100
 73
     1
 74
     3
 75
     0
 76
     0
 77
     0
 78
     0
  0
ENDTAB
  0
TABLE
  2
LTYPE
  5
5
330
0
100
AcDbSymbolTable
 70
     1
  0
LTYPE
  5
14
330
5
100
AcDbSymbolTableRecord
100
AcDbLinetypeTableRecord
  2
BYBLOCK
 70
     0
  3

 72
    65
 73
     0
 40
0.0
  0
LTYPE
  5
15
330
5
100
AcDbSymbolTableRecord
100
AcDbLinetypeTableRecord
  2
BYLAYER
 70
     0
  3

 72
    65
 73
     0
 40
0.0
  0
LTYPE
  5
16
330
5
100
AcDbSymbolTableRecord
100
AcDbLinetypeTableRecord
  2
CONTINUOUS
 70
     0
  3
Solid line
 72
    65
 73
     0
 40
0.0
  0
ENDTAB
  0
TABLE
  2
LAYER
  5
2
100
AcDbSymbolTable
 70
2
  0
LAYER
  5
50
100
AcDbSymbolTableRecord
100
AcDbLayerTableRecord
  2
0
 70
0
  6
CONTINUOUS
  0
LAYER
  5
51
100
AcDbSymbolTableRecord
100
AcDbLayerTableRecord
  2
Layer_1
 70
0
  6
CONTINUOUS
  0
ENDTAB
  0
TABLE
  2
STYLE
  5
3
330
0
100
AcDbSymbolTable
 70
     1
  0
STYLE
  5
11
330
3
100
AcDbSymbolTableRecord
100
AcDbTextStyleTableRecord
  2
STANDARD
 70
     0
 40
0.0
 41
1.0
 50
0.0
 71
     0
 42
2.5
  3
txt
  4

  0
ENDTAB
  0
TABLE
  2
VIEW
  5
6
330
0
100
AcDbSymbolTable
 70
     0
  0
ENDTAB
  0
TABLE
  2
UCS
  5
7
330
0
100
AcDbSymbolTable
 70
     0
  0
ENDTAB
  0
TABLE
  2
APPID
  5
9
330
0
100
AcDbSymbolTable
 70
     2
  0
APPID
  5
12
330
9
100
AcDbSymbolTableRecord
100
AcDbRegAppTableRecord
  2
ACAD
 70
     0
  0
ENDTAB
  0
TABLE
  2
DIMSTYLE
  5
A
330
0
100
AcDbSymbolTable
 70
     1
  0
DIMSTYLE
105
27
330
A
100
AcDbSymbolTableRecord
100
AcDbDimStyleTableRecord
  2
ISO-25
 70
     0
  3

  4

  5

  6

  7

 40
1.0
 41
2.5
 42
0.625
 43
3.75
 44
1.25
 45
0.0
 46
0.0
 47
0.0
 48
0.0
140
2.5
141
2.5
142
0.0
143
0.03937007874016
144
1.0
145
0.0
146
1.0
147
0.625
 71
     0
 72
     0
 73
     0
 74
     0
 75
     0
 76
     0
 77
     1
 78
     8
170
     0
171
     3
172
     1
173
     0
174
     0
175
     0
176
     0
177
     0
178
     0
270
     2
271
     2
272
     2
273
     2
274
     3
340
11
275
     0
280
     0
281
     0
282
     0
283
     0
284
     8
285
     0
286
     0
287
     3
288
     0
  0
ENDTAB
  0
TABLE
  2
BLOCK_RECORD
  5
1
330
0
100
AcDbSymbolTable
 70
     1
  0
BLOCK_RECORD
  5
1F
330
1
100
AcDbSymbolTableRecord
100
AcDbBlockTableRecord
  2
*MODEL_SPACE
  0
BLOCK_RECORD
  5
1B
330
1
100
AcDbSymbolTableRecord
100
AcDbBlockTableRecord
  2
*PAPER_SPACE
  0
ENDTAB
  0
ENDSEC
  0
SECTION
  2
BLOCKS
  0
BLOCK
  5
20
330
1F
100
AcDbEntity
  8
0
100
AcDbBlockBegin
  2
*MODEL_SPACE
 70
     0
 10
0.0
 20
0.0
 30
0.0
  3
*MODEL_SPACE
  1

  0
ENDBLK
  5
21
330
1F
100
AcDbEntity
  8
0
100
AcDbBlockEnd
  0
BLOCK
  5
1C
330
1B
100
AcDbEntity
 67
     1
  8
0
100
AcDbBlockBegin
  2
*PAPER_SPACE
  1

  0
ENDBLK
  5
1D
330
1B
100
AcDbEntity
 67
     1
  8
0
100
AcDbBlockEnd
  0
ENDSEC
  0
SECTION
  2
ENTITIES
  0
SPLINE
  5
100
100
AcDbEntity
  8
Layer_1
 62
7
100
AcDbSpline
 70
8
 71
3
 72
8
 73
4
 74
0
 40
0
 40
0
 40
0
 40
0
 40
1
 40
1
 40
1
 40
1
 10
8.764648
 20
222.246201
 30
0.0
 10
8.764648
 20
247.888280
 30
0.0
 10
47.435657
 20
268.675293
 30
0.0
 10
95.138763
 20
268.675293
 30
0.0
  0
SPLINE
  5
101
100
AcDbEntity
  8
Layer_1
 62
7
100
AcDbSpline
 70
8
 71
3
 72
8
 73
4
 74
0
 40
0
 40
0
 40
0
 40
0
 40
1
 40
1
 40
1
 40
1
 10
95.138763
 20
268.675293
 30
0.0
 10
118.046603
 20
268.675293
 30
0.0
 10
140.016198
 20
263.783671
 30
0.0
 10
156.214487
 20
255.076527
 30
0.0
  0
SPLINE
  5
102
100
AcDbEntity
  8
Layer_1
 62
7
100
AcDbSpline
 70
8
 71
3
 72
8
 73
4
 74
0
 40
0
 40
0
 40
0
 40
0
 40
1
 40
1
 40
1
 40
1
 10
156.214487
 20
255.076527
 30
0.0
 10
172.412776
 20
246.369383
 30
0.0
 10
181.512880
 20
234.559962
 30
0.0
 10
181.512880
 20
222.246201
 30
0.0
  0
LINE
  5
103
100
AcDbEntity
  8
Layer_1
 62
7
100
AcDbLine
 10
22.388601
 20
222.232512
 30
0.0
 11
22.388601
 21
212.622534
 31
0.0
  0
LINE
  5
104
100
AcDbEntity
  8
Layer_1
 62
7
100
AcDbLine
 10
8.788180
 20
222.232512
 30
0.0
 11
8.788180
 21
212.622534
 31
0.0
  0
LINE
  5
105
100
AcDbEntity
  8
Layer_1
 62
7
100
AcDbLine
 10
8.788180
 20
212.622535
 30
0.0
 11
22.388601
 21
212.622535
 31
0.0
  0
LINE
  5
106
100
AcDbEntity
  8
Layer_1
 62
7
100
AcDbLine
 10
167.905020
 20
222.232512
 30
0.0
 11
167.905020
 21
212.622534
 31
0.0
  0
LINE
  5
107
100
AcDbEntity
  8
Layer_1
 62
7
100
AcDbLine
 10
181.511940
 20
222.264348
 30
0.0
 11
181.511940
 21
212.654370
 31
0.0
  0
LINE
  5
108
100
AcDbEntity
  8
Layer_1
 62
7
100
AcDbLine
 10
181.505450
 20
212.622535
 30
0.0
 11
167.905020
 21
212.622535
 31
0.0
  0
SPLINE
  5
109
100
AcDbEntity
  8
Layer_1
 62
7
100
AcDbSpline
 70
8
 71
3
 72
8
 73
4
 74
0
 40
0
 40
0
 40
0
 40
0
 40
1
 40
1
 40
1
 40
1
 10
8.933250
 20
197.134666
 30
0.0
 10
8.933248
 20
184.820905
 30
0.0
 10
18.033351
 20
173.011482
 30
0.0
 10
34.231640
 20
164.304338
 30
0.0
  0
SPLINE
  5
10a
100
AcDbEntity
  8
Layer_1
 62
7
100
AcDbSpline
 70
8
 71
3
 72
8
 73
4
 74
0
 40
0
 40
0
 40
0
 40
0
 40
1
 40
1
 40
1
 40
1
 10
34.231640
 20
164.304338
 30
0.0
 10
50.429929
 20
155.597193
 30
0.0
 10
72.399524
 20
150.705570
 30
0.0
 10
95.307365
 20
150.705570
 30
0.0
  0
SPLINE
  5
10b
100
AcDbEntity
  8
Layer_1
 62
7
100
AcDbSpline
 70
8
 71
3
 72
8
 73
4
 74
0
 40
0
 40
0
 40
0
 40
0
 40
1
 40
1
 40
1
 40
1
 10
95.307365
 20
150.705570
 30
0.0
 10
118.215206
 20
150.705570
 30
0.0
 10
140.184801
 20
155.597193
 30
0.0
 10
156.383090
 20
164.304338
 30
0.0
  0
SPLINE
  5
10c
100
AcDbEntity
  8
Layer_1
 62
7
100
AcDbSpline
 70
8
 71
3
 72
8
 73
4
 74
0
 40
0
 40
0
 40
0
 40
0
 40
1
 40
1
 40
1
 40
1
 10
156.383090
 20
164.304338
 30
0.0
 10
172.581379
 20
173.011482
 30
0.0
 10
181.681482
 20
184.820904
 30
0.0
 10
181.681480
 20
197.134666
 30
0.0
  0
LINE
  5
10d
100
AcDbEntity
  8
Layer_1
 62
7
100
AcDbLine
 10
22.557209
 20
197.148351
 30
0.0
 11
22.557209
 21
206.758329
 31
0.0
  0
LINE
  5
10e
100
AcDbEntity
  8
Layer_1
 62
7
100
AcDbLine
 10
8.956786
 20
197.124392
 30
0.0
 11
8.956786
 21
206.933691
 31
0.0
  0
LINE
  5
10f
100
AcDbEntity
  8
Layer_1
 62
7
100
AcDbLine
 10
8.956786
 20
206.758328
 30
0.0
 11
22.557209
 21
206.758328
 31
0.0
  0
LINE
  5
110
100
AcDbEntity
  8
Layer_1
 62
7
100
AcDbLine
 10
168.073620
 20
197.148351
 30
0.0
 11
168.073620
 21
206.758329
 31
0.0
  0
LINE
  5
111
100
AcDbEntity
  8
Layer_1
 62
7
100
AcDbLine
 10
181.680550
 20
197.116515
 30
0.0
 11
181.680550
 21
206.726493
 31
0.0
  0
LINE
  5
112
100
AcDbEntity
  8
Layer_1
 62
7
100
AcDbLine
 10
181.674050
 20
206.758328
 30
0.0
 11
168.073620
 21
206.758328
 31
0.0
  0
SPLINE
  5
113
100
AcDbEntity
  8
Layer_1
 62
7
100
AcDbSpline
 70
8
 71
3
 72
8
 73
4
 74
0
 40
0
 40
0
 40
0
 40
0
 40
1
 40
1
 40
1
 40
1
 10
22.382788
 20
222.065110
 30
0.0
 10
25.637623
 20
222.065110
 30
0.0
 10
28.759148
 20
220.748106
 30
0.0
 10
31.060663
 20
218.403824
 30
0.0
  0
SPLINE
  5
114
100
AcDbEntity
  8
Layer_1
 62
7
100
AcDbSpline
 70
8
 71
3
 72
8
 73
4
 74
0
 40
0
 40
0
 40
0
 40
0
 40
1
 40
1
 40
1
 40
1
 10
31.060663
 20
218.403824
 30
0.0
 10
33.362179
 20
216.059542
 30
0.0
 10
34.655157
 20
212.880013
 30
0.0
 10
34.655157
 20
209.564697
 30
0.0
  0
SPLINE
  5
115
100
AcDbEntity
  8
Layer_1
 62
7
100
AcDbSpline
 70
8
 71
3
 72
8
 73
4
 74
0
 40
0
 40
0
 40
0
 40
0
 40
1
 40
1
 40
1
 40
1
 10
34.655157
 20
209.564697
 30
0.0
 10
34.655157
 20
206.249381
 30
0.0
 10
33.362179
 20
203.069852
 30
0.0
 10
31.060663
 20
200.725570
 30
0.0
  0
SPLINE
  5
116
100
AcDbEntity
  8
Layer_1
 62
7
100
AcDbSpline
 70
8
 71
3
 72
8
 73
4
 74
0
 40
0
 40
0
 40
0
 40
0
 40
1
 40
1
 40
1
 40
1
 10
31.060663
 20
200.725570
 30
0.0
 10
28.759148
 20
198.381288
 30
0.0
 10
25.637623
 20
197.064284
 30
0.0
 10
22.382788
 20
197.064284
 30
0.0
  0
SPLINE
  5
117
100
AcDbEntity
  8
Layer_1
 62
7
100
AcDbSpline
 70
8
 71
3
 72
8
 73
4
 74
0
 40
0
 40
0
 40
0
 40
0
 40
1
 40
1
 40
1
 40
1
 10
168.073620
 20
222.121821
 30
0.0
 10
161.228596
 20
222.121818
 30
0.0
 10
155.679610
 20
216.531317
 30
0.0
 10
155.679610
 20
209.635086
 30
0.0
  0
SPLINE
  5
118
100
AcDbEntity
  8
Layer_1
 62
7
100
AcDbSpline
 70
8
 71
3
 72
8
 73
4
 74
0
 40
0
 40
0
 40
0
 40
0
 40
1
 40
1
 40
1
 40
1
 10
155.679610
 20
209.635086
 30
0.0
 10
155.679610
 20
202.738855
 30
0.0
 10
161.228596
 20
197.148354
 30
0.0
 10
168.073620
 20
197.148351
 30
0.0
  0
SPLINE
  5
119
100
AcDbEntity
  8
Layer_1
 62
5
100
AcDbSpline
 70
8
 71
3
 72
8
 73
4
 74
0
 40
0
 40
0
 40
0
 40
0
 40
1
 40
1
 40
1
 40
1
 10
27.597961
 20
274.581325
 30
0.0
 10
27.597961
 20
274.267055
 30
0.0
 10
27.473118
 20
273.965657
 30
0.0
 10
27.250896
 20
273.743435
 30
0.0
  0
SPLINE
  5
11a
100
AcDbEntity
  8
Layer_1
 62
5
100
AcDbSpline
 70
8
 71
3
 72
8
 73
4
 74
0
 40
0
 40
0
 40
0
 40
0
 40
1
 40
1
 40
1
 40
1
 10
27.250896
 20
273.743435
 30
0.0
 10
27.028674
 20
273.521213
 30
0.0
 10
26.727276
 20
273.396370
 30
0.0
 10
26.413006
 20
273.396370
 30
0.0
  0
SPLINE
  5
11b
100
AcDbEntity
  8
Layer_1
 62
5
100
AcDbSpline
 70
8
 71
3
 72
8
 73
4
 74
0
 40
0
 40
0
 40
0
 40
0
 40
1
 40
1
 40
1
 40
1
 10
26.413006
 20
273.396370
 30
0.0
 10
26.098736
 20
273.396370
 30
0.0
 10
25.797338
 20
273.521213
 30
0.0
 10
25.575116
 20
273.743435
 30
0.0
  0
SPLINE
  5
11c
100
AcDbEntity
  8
Layer_1
 62
5
100
AcDbSpline
 70
8
 71
3
 72
8
 73
4
 74
0
 40
0
 40
0
 40
0
 40
0
 40
1
 40
1
 40
1
 40
1
 10
25.575116
 20
273.743435
 30
0.0
 10
25.352894
 20
273.965657
 30
0.0
 10
25.228051
 20
274.267055
 30
0.0
 10
25.228051
 20
274.581325
 30
0.0
  0
SPLINE
  5
11d
100
AcDbEntity
  8
Layer_1
 62
5
100
AcDbSpline
 70
8
 71
3
 72
8
 73
4
 74
0
 40
0
 40
0
 40
0
 40
0
 40
1
 40
1
 40
1
 40
1
 10
25.228051
 20
274.581325
 30
0.0
 10
25.228051
 20
274.895595
 30
0.0
 10
25.352894
 20
275.196993
 30
0.0
 10
25.575116
 20
275.419215
 30
0.0
  0
SPLINE
  5
11e
100
AcDbEntity
  8
Layer_1
 62
5
100
AcDbSpline
 70
8
 71
3
 72
8
 73
4
 74
0
 40
0
 40
0
 40
0
 40
0
 40
1
 40
1
 40
1
 40
1
 10
25.575116
 20
275.419215
 30
0.0
 10
25.797338
 20
275.641437
 30
0.0
 10
26.098736
 20
275.766280
 30
0.0
 10
26.413006
 20
275.766280
 30
0.0
  0
SPLINE
  5
11f
100
AcDbEntity
  8
Layer_1
 62
5
100
AcDbSpline
 70
8
 71
3
 72
8
 73
4
 74
0
 40
0
 40
0
 40
0
 40
0
 40
1
 40
1
 40
1
 40
1
 10
26.413006
 20
275.766280
 30
0.0
 10
26.727276
 20
275.766280
 30
0.0
 10
27.028674
 20
275.641437
 30
0.0
 10
27.250896
 20
275.419215
 30
0.0
  0
SPLINE
  5
120
100
AcDbEntity
  8
Layer_1
 62
5
100
AcDbSpline
 70
8
 71
3
 72
8
 73
4
 74
0
 40
0
 40
0
 40
0
 40
0
 40
1
 40
1
 40
1
 40
1
 10
27.250896
 20
275.419215
 30
0.0
 10
27.473118
 20
275.196993
 30
0.0
 10
27.597961
 20
274.895595
 30
0.0
 10
27.597961
 20
274.581325
 30
0.0
  0
LINE
  5
121
100
AcDbEntity
  8
Layer_1
 62
5
100
AcDbLine
 10
27.597961
 20
274.581325
 30
0.0
 11
27.597961
 21
274.581325
 31
0.0
  0
SPLINE
  5
122
100
AcDbEntity
  8
Layer_1
 62
5
100
AcDbSpline
 70
8
 71
3
 72
8
 73
4
 74
0
 40
0
 40
0
 40
0
 40
0
 40
1
 40
1
 40
1
 40
1
 10
27.597961
 20
144.799540
 30
0.0
 10
27.597958
 20
144.145109
 30
0.0
 10
27.067437
 20
143.614590
 30
0.0
 10
26.413006
 20
143.614590
 30
0.0
  0
SPLINE
  5
123
100
AcDbEntity
  8
Layer_1
 62
5
100
AcDbSpline
 70
8
 71
3
 72
8
 73
4
 74
0
 40
0
 40
0
 40
0
 40
0
 40
1
 40
1
 40
1
 40
1
 10
26.413006
 20
143.614590
 30
0.0
 10
25.758575
 20
143.614590
 30
0.0
 10
25.228054
 20
144.145109
 30
0.0
 10
25.228051
 20
144.799540
 30
0.0
  0
SPLINE
  5
124
100
AcDbEntity
  8
Layer_1
 62
5
100
AcDbSpline
 70
8
 71
3
 72
8
 73
4
 74
0
 40
0
 40
0
 40
0
 40
0
 40
1
 40
1
 40
1
 40
1
 10
25.228051
 20
144.799540
 30
0.0
 10
25.228050
 20
145.113810
 30
0.0
 10
25.352892
 20
145.415210
 30
0.0
 10
25.575114
 20
145.637433
 30
0.0
  0
SPLINE
  5
125
100
AcDbEntity
  8
Layer_1
 62
5
100
AcDbSpline
 70
8
 71
3
 72
8
 73
4
 74
0
 40
0
 40
0
 40
0
 40
0
 40
1
 40
1
 40
1
 40
1
 10
25.575114
 20
145.637433
 30
0.0
 10
25.797337
 20
145.859656
 30
0.0
 10
26.098736
 20
145.984500
 30
0.0
 10
26.413006
 20
145.984500
 30
0.0
  0
SPLINE
  5
126
100
AcDbEntity
  8
Layer_1
 62
5
100
AcDbSpline
 70
8
 71
3
 72
8
 73
4
 74
0
 40
0
 40
0
 40
0
 40
0
 40
1
 40
1
 40
1
 40
1
 10
26.413006
 20
145.984500
 30
0.0
 10
26.727276
 20
145.984500
 30
0.0
 10
27.028675
 20
145.859656
 30
0.0
 10
27.250898
 20
145.637433
 30
0.0
  0
SPLINE
  5
127
100
AcDbEntity
  8
Layer_1
 62
5
100
AcDbSpline
 70
8
 71
3
 72
8
 73
4
 74
0
 40
0
 40
0
 40
0
 40
0
 40
1
 40
1
 40
1
 40
1
 10
27.250898
 20
145.637433
 30
0.0
 10
27.473120
 20
145.415210
 30
0.0
 10
27.597962
 20
145.113810
 30
0.0
 10
27.597961
 20
144.799540
 30
0.0
  0
LINE
  5
128
100
AcDbEntity
  8
Layer_1
 62
5
100
AcDbLine
 10
27.597961
 20
144.799540
 30
0.0
 11
27.597961
 21
144.799540
 31
0.0
  0
SPLINE
  5
129
100
AcDbEntity
  8
Layer_1
 62
5
100
AcDbSpline
 70
8
 71
3
 72
8
 73
4
 74
0
 40
0
 40
0
 40
0
 40
0
 40
1
 40
1
 40
1
 40
1
 10
164.528430
 20
144.799540
 30
0.0
 10
164.528427
 20
144.145111
 30
0.0
 10
163.997909
 20
143.614593
 30
0.0
 10
163.343480
 20
143.614590
 30
0.0
  0
SPLINE
  5
12a
100
AcDbEntity
  8
Layer_1
 62
5
100
AcDbSpline
 70
8
 71
3
 72
8
 73
4
 74
0
 40
0
 40
0
 40
0
 40
0
 40
1
 40
1
 40
1
 40
1
 10
163.343480
 20
143.614590
 30
0.0
 10
163.029210
 20
143.614589
 30
0.0
 10
162.727812
 20
143.739430
 30
0.0
 10
162.505589
 20
143.961652
 30
0.0
  0
SPLINE
  5
12b
100
AcDbEntity
  8
Layer_1
 62
5
100
AcDbSpline
 70
8
 71
3
 72
8
 73
4
 74
0
 40
0
 40
0
 40
0
 40
0
 40
1
 40
1
 40
1
 40
1
 10
162.505589
 20
143.961652
 30
0.0
 10
162.283366
 20
144.183873
 30
0.0
 10
162.158521
 20
144.485270
 30
0.0
 10
162.158520
 20
144.799540
 30
0.0
  0
SPLINE
  5
12c
100
AcDbEntity
  8
Layer_1
 62
5
100
AcDbSpline
 70
8
 71
3
 72
8
 73
4
 74
0
 40
0
 40
0
 40
0
 40
0
 40
1
 40
1
 40
1
 40
1
 10
162.158520
 20
144.799540
 30
0.0
 10
162.158519
 20
145.113811
 30
0.0
 10
162.283362
 20
145.415211
 30
0.0
 10
162.505585
 20
145.637435
 30
0.0
  0
SPLINE
  5
12d
100
AcDbEntity
  8
Layer_1
 62
5
100
AcDbSpline
 70
8
 71
3
 72
8
 73
4
 74
0
 40
0
 40
0
 40
0
 40
0
 40
1
 40
1
 40
1
 40
1
 10
162.505585
 20
145.637435
 30
0.0
 10
162.727809
 20
145.859658
 30
0.0
 10
163.029209
 20
145.984501
 30
0.0
 10
163.343480
 20
145.984500
 30
0.0
  0
SPLINE
  5
12e
100
AcDbEntity
  8
Layer_1
 62
5
100
AcDbSpline
 70
8
 71
3
 72
8
 73
4
 74
0
 40
0
 40
0
 40
0
 40
0
 40
1
 40
1
 40
1
 40
1
 10
163.343480
 20
145.984500
 30
0.0
 10
163.657750
 20
145.984499
 30
0.0
 10
163.959147
 20
145.859654
 30
0.0
 10
164.181368
 20
145.637431
 30
0.0
  0
SPLINE
  5
12f
100
AcDbEntity
  8
Layer_1
 62
5
100
AcDbSpline
 70
8
 71
3
 72
8
 73
4
 74
0
 40
0
 40
0
 40
0
 40
0
 40
1
 40
1
 40
1
 40
1
 10
164.181368
 20
145.637431
 30
0.0
 10
164.403590
 20
145.415208
 30
0.0
 10
164.528431
 20
145.113810
 30
0.0
 10
164.528430
 20
144.799540
 30
0.0
  0
LINE
  5
130
100
AcDbEntity
  8
Layer_1
 62
5
100
AcDbLine
 10
164.528430
 20
144.799540
 30
0.0
 11
164.528430
 21
144.799540
 31
0.0
  0
SPLINE
  5
131
100
AcDbEntity
  8
Layer_1
 62
5
100
AcDbSpline
 70
8
 71
3
 72
8
 73
4
 74
0
 40
0
 40
0
 40
0
 40
0
 40
1
 40
1
 40
1
 40
1
 10
164.528430
 20
274.581325
 30
0.0
 10
164.528430
 20
273.926894
 30
0.0
 10
163.997911
 20
273.396373
 30
0.0
 10
163.343480
 20
273.396370
 30
0.0
  0
SPLINE
  5
132
100
AcDbEntity
  8
Layer_1
 62
5
100
AcDbSpline
 70
8
 71
3
 72
8
 73
4
 74
0
 40
0
 40
0
 40
0
 40
0
 40
1
 40
1
 40
1
 40
1
 10
163.343480
 20
273.396370
 30
0.0
 10
163.029210
 20
273.396369
 30
0.0
 10
162.727810
 20
273.521211
 30
0.0
 10
162.505587
 20
273.743433
 30
0.0
  0
SPLINE
  5
133
100
AcDbEntity
  8
Layer_1
 62
5
100
AcDbSpline
 70
8
 71
3
 72
8
 73
4
 74
0
 40
0
 40
0
 40
0
 40
0
 40
1
 40
1
 40
1
 40
1
 10
162.505587
 20
273.743433
 30
0.0
 10
162.283364
 20
273.965656
 30
0.0
 10
162.158520
 20
274.267055
 30
0.0
 10
162.158520
 20
274.581325
 30
0.0
  0
SPLINE
  5
134
100
AcDbEntity
  8
Layer_1
 62
5
100
AcDbSpline
 70
8
 71
3
 72
8
 73
4
 74
0
 40
0
 40
0
 40
0
 40
0
 40
1
 40
1
 40
1
 40
1
 10
162.158520
 20
274.581325
 30
0.0
 10
162.158520
 20
274.895595
 30
0.0
 10
162.283364
 20
275.196994
 30
0.0
 10
162.505587
 20
275.419217
 30
0.0
  0
SPLINE
  5
135
100
AcDbEntity
  8
Layer_1
 62
5
100
AcDbSpline
 70
8
 71
3
 72
8
 73
4
 74
0
 40
0
 40
0
 40
0
 40
0
 40
1
 40
1
 40
1
 40
1
 10
162.505587
 20
275.419217
 30
0.0
 10
162.727810
 20
275.641439
 30
0.0
 10
163.029210
 20
275.766281
 30
0.0
 10
163.343480
 20
275.766280
 30
0.0
  0
SPLINE
  5
136
100
AcDbEntity
  8
Layer_1
 62
5
100
AcDbSpline
 70
8
 71
3
 72
8
 73
4
 74
0
 40
0
 40
0
 40
0
 40
0
 40
1
 40
1
 40
1
 40
1
 10
163.343480
 20
275.766280
 30
0.0
 10
163.997911
 20
275.766277
 30
0.0
 10
164.528430
 20
275.235756
 30
0.0
 10
164.528430
 20
274.581325
 30
0.0
  0
LINE
  5
137
100
AcDbEntity
  8
Layer_1
 62
5
100
AcDbLine
 10
164.528430
 20
274.581325
 30
0.0
 11
164.528430
 21
274.581325
 31
0.0
  0
LINE
  5
138
100
AcDbEntity
  8
Layer_1
 62
7
100
AcDbLine
 10
1.128080
 20
281.562592
 30
0.0
 11
1.128080
 21
136.888010
 31
0.0
  0
LINE
  5
139
100
AcDbEntity
  8
Layer_1
 62
7
100
AcDbLine
 10
194.808870
 20
281.562592
 30
0.0
 11
194.808870
 21
136.888010
 31
0.0
  0
LINE
  5
13a
100
AcDbEntity
  8
Layer_1
 62
7
100
AcDbLine
 10
1.128080
 20
281.562592
 30
0.0
 11
194.808870
 21
281.562592
 31
0.0
  0
LINE
  5
13b
100
AcDbEntity
  8
Layer_1
 62
7
100
AcDbLine
 10
1.128081
 20
136.888010
 30
0.0
 11
194.808870
 21
136.888010
 31
0.0
  0
ENDSEC
  0
SECTION
  2
OBJECTS
  0
DICTIONARY
  5
C
330
0
100
AcDbDictionary
  3
ACAD_GROUP
350
D
  3
ACAD_MLINESTYLE
350
17
  0
DICTIONARY
  5
D
330
C
100
AcDbDictionary
  0
DICTIONARY
  5
1A
330
C
100
AcDbDictionary
  0
DICTIONARY
  5
17
330
C
100
AcDbDictionary
  3
STANDARD
350
18
  0
DICTIONARY
  5
19
330
C
100
AcDbDictionary
  0
ENDSEC
  0
EOF
