  0
SECTION
  2
HEADER
  9
$ACADVER
  1
AC1014
  9
$HANDSEED
  5
FFFF
  9
$MEASUREMENT
 70
     1
  0
ENDSEC
  0
SECTION
  2
TABLES
  0
TABLE
  2
VPORT
  5
8
330
0
100
AcDbSymbolTable
 70
     4
  0
VPORT
  5
2E
330
8
100
AcDbSymbolTableRecord
100
AcDbViewportTableRecord
  2
*ACTIVE
 70
     0
 10
0.0
 20
0.0
 11
1.0
 21
1.0
 12
210.0
 22
148.5
 13
0.0
 23
0.0
 14
10.0
 24
10.0
 15
10.0
 25
10.0
 16
0.0
 26
0.0
 36
1.0
 17
0.0
 27
0.0
 37
0.0
 40
341.0
 41
1.24
 42
50.0
 43
0.0
 44
0.0
 50
0.0
 51
0.0
 71
     0
 72
   100
 73
     1
 74
     3
 75
     0
 76
     0
 77
     0
 78
     0
  0
ENDTAB
  0
TABLE
  2
LTYPE
  5
5
330
0
100
AcDbSymbolTable
 70
     1
  0
LTYPE
  5
14
330
5
100
AcDbSymbolTableRecord
100
AcDbLinetypeTableRecord
  2
BYBLOCK
 70
     0
  3

 72
    65
 73
     0
 40
0.0
  0
LTYPE
  5
15
330
5
100
AcDbSymbolTableRecord
100
AcDbLinetypeTableRecord
  2
BYLAYER
 70
     0
  3

 72
    65
 73
     0
 40
0.0
  0
LTYPE
  5
16
330
5
100
AcDbSymbolTableRecord
100
AcDbLinetypeTableRecord
  2
CONTINUOUS
 70
     0
  3
Solid line
 72
    65
 73
     0
 40
0.0
  0
ENDTAB
  0
TABLE
  2
LAYER
  5
2
100
AcDbSymbolTable
 70
2
  0
LAYER
  5
50
100
AcDbSymbolTableRecord
100
AcDbLayerTableRecord
  2
0
 70
0
  6
CONTINUOUS
  0
LAYER
  5
51
100
AcDbSymbolTableRecord
100
AcDbLayerTableRecord
  2
Layer_1
 70
0
  6
CONTINUOUS
  0
ENDTAB
  0
TABLE
  2
STYLE
  5
3
330
0
100
AcDbSymbolTable
 70
     1
  0
STYLE
  5
11
330
3
100
AcDbSymbolTableRecord
100
AcDbTextStyleTableRecord
  2
STANDARD
 70
     0
 40
0.0
 41
1.0
 50
0.0
 71
     0
 42
2.5
  3
txt
  4

  0
ENDTAB
  0
TABLE
  2
VIEW
  5
6
330
0
100
AcDbSymbolTable
 70
     0
  0
ENDTAB
  0
TABLE
  2
UCS
  5
7
330
0
100
AcDbSymbolTable
 70
     0
  0
ENDTAB
  0
TABLE
  2
APPID
  5
9
330
0
100
AcDbSymbolTable
 70
     2
  0
APPID
  5
12
330
9
100
AcDbSymbolTableRecord
100
AcDbRegAppTableRecord
  2
ACAD
 70
     0
  0
ENDTAB
  0
TABLE
  2
DIMSTYLE
  5
A
330
0
100
AcDbSymbolTable
 70
     1
  0
DIMSTYLE
105
27
330
A
100
AcDbSymbolTableRecord
100
AcDbDimStyleTableRecord
  2
ISO-25
 70
     0
  3

  4

  5

  6

  7

 40
1.0
 41
2.5
 42
0.625
 43
3.75
 44
1.25
 45
0.0
 46
0.0
 47
0.0
 48
0.0
140
2.5
141
2.5
142
0.0
143
0.03937007874016
144
1.0
145
0.0
146
1.0
147
0.625
 71
     0
 72
     0
 73
     0
 74
     0
 75
     0
 76
     0
 77
     1
 78
     8
170
     0
171
     3
172
     1
173
     0
174
     0
175
     0
176
     0
177
     0
178
     0
270
     2
271
     2
272
     2
273
     2
274
     3
340
11
275
     0
280
     0
281
     0
282
     0
283
     0
284
     8
285
     0
286
     0
287
     3
288
     0
  0
ENDTAB
  0
TABLE
  2
BLOCK_RECORD
  5
1
330
0
100
AcDbSymbolTable
 70
     1
  0
BLOCK_RECORD
  5
1F
330
1
100
AcDbSymbolTableRecord
100
AcDbBlockTableRecord
  2
*MODEL_SPACE
  0
BLOCK_RECORD
  5
1B
330
1
100
AcDbSymbolTableRecord
100
AcDbBlockTableRecord
  2
*PAPER_SPACE
  0
ENDTAB
  0
ENDSEC
  0
SECTION
  2
BLOCKS
  0
BLOCK
  5
20
330
1F
100
AcDbEntity
  8
0
100
AcDbBlockBegin
  2
*MODEL_SPACE
 70
     0
 10
0.0
 20
0.0
 30
0.0
  3
*MODEL_SPACE
  1

  0
ENDBLK
  5
21
330
1F
100
AcDbEntity
  8
0
100
AcDbBlockEnd
  0
BLOCK
  5
1C
330
1B
100
AcDbEntity
 67
     1
  8
0
100
AcDbBlockBegin
  2
*PAPER_SPACE
  1

  0
ENDBLK
  5
1D
330
1B
100
AcDbEntity
 67
     1
  8
0
100
AcDbBlockEnd
  0
ENDSEC
  0
SECTION
  2
ENTITIES
  0
LINE
  5
100
100
AcDbEntity
  8
Layer_1
 62
7
100
AcDbLine
 10
8.159604
 20
233.500000
 30
0.0
 11
8.159604
 21
63.500000
 31
0.0
  0
LINE
  5
101
100
AcDbEntity
  8
Layer_1
 62
7
100
AcDbLine
 10
201.840400
 20
233.500000
 30
0.0
 11
201.840400
 21
63.500000
 31
0.0
  0
LINE
  5
102
100
AcDbEntity
  8
Layer_1
 62
7
100
AcDbLine
 10
8.159604
 20
233.500000
 30
0.0
 11
201.840400
 21
233.500000
 31
0.0
  0
LINE
  5
103
100
AcDbEntity
  8
Layer_1
 62
7
100
AcDbLine
 10
8.159614
 20
63.500000
 30
0.0
 11
201.840400
 21
63.500000
 31
0.0
  0
SPLINE
  5
104
100
AcDbEntity
  8
Layer_1
 62
7
100
AcDbSpline
 70
8
 71
3
 72
8
 73
4
 74
0
 40
0
 40
0
 40
0
 40
0
 40
1
 40
1
 40
1
 40
1
 10
20.159085
 20
165.589823
 30
0.0
 10
20.159087
 20
198.663586
 30
0.0
 10
58.111413
 20
225.475169
 30
0.0
 10
104.927980
 20
225.475170
 30
0.0
  0
SPLINE
  5
105
100
AcDbEntity
  8
Layer_1
 62
7
100
AcDbSpline
 70
8
 71
3
 72
8
 73
4
 74
0
 40
0
 40
0
 40
0
 40
0
 40
1
 40
1
 40
1
 40
1
 10
104.927980
 20
225.475170
 30
0.0
 10
151.744549
 20
225.475171
 30
0.0
 10
189.696878
 20
198.663588
 30
0.0
 10
189.696880
 20
165.589823
 30
0.0
  0
LINE
  5
106
100
AcDbEntity
  8
Layer_1
 62
7
100
AcDbLine
 10
20.166466
 20
165.622133
 30
0.0
 11
20.166466
 21
150.622133
 31
0.0
  0
LINE
  5
107
100
AcDbEntity
  8
Layer_1
 62
7
100
AcDbLine
 10
44.956466
 20
165.622133
 30
0.0
 11
44.956466
 21
150.622133
 31
0.0
  0
LINE
  5
108
100
AcDbEntity
  8
Layer_1
 62
7
100
AcDbLine
 10
20.166466
 20
150.622133
 30
0.0
 11
44.956466
 21
150.622133
 31
0.0
  0
SPLINE
  5
109
100
AcDbEntity
  8
Layer_1
 62
7
100
AcDbSpline
 70
8
 71
3
 72
8
 73
4
 74
0
 40
0
 40
0
 40
0
 40
0
 40
1
 40
1
 40
1
 40
1
 10
44.786827
 20
165.502823
 30
0.0
 10
51.988283
 20
165.502823
 30
0.0
 10
57.826217
 20
157.859621
 30
0.0
 10
57.826218
 20
148.431253
 30
0.0
  0
SPLINE
  5
10a
100
AcDbEntity
  8
Layer_1
 62
7
100
AcDbSpline
 70
8
 71
3
 72
8
 73
4
 74
0
 40
0
 40
0
 40
0
 40
0
 40
1
 40
1
 40
1
 40
1
 10
57.826218
 20
148.431253
 30
0.0
 10
57.826219
 20
143.903589
 30
0.0
 10
56.452431
 20
139.561366
 30
0.0
 10
54.007071
 20
136.359823
 30
0.0
  0
SPLINE
  5
10b
100
AcDbEntity
  8
Layer_1
 62
7
100
AcDbSpline
 70
8
 71
3
 72
8
 73
4
 74
0
 40
0
 40
0
 40
0
 40
0
 40
1
 40
1
 40
1
 40
1
 10
54.007071
 20
136.359823
 30
0.0
 10
51.561710
 20
133.158281
 30
0.0
 10
48.245089
 20
131.359673
 30
0.0
 10
44.786827
 20
131.359673
 30
0.0
  0
LINE
  5
10c
100
AcDbEntity
  8
Layer_1
 62
7
100
AcDbLine
 10
189.696170
 20
165.631233
 30
0.0
 11
189.696170
 21
150.631233
 31
0.0
  0
LINE
  5
10d
100
AcDbEntity
  8
Layer_1
 62
7
100
AcDbLine
 10
164.906170
 20
165.631233
 30
0.0
 11
164.906170
 21
150.631233
 31
0.0
  0
LINE
  5
10e
100
AcDbEntity
  8
Layer_1
 62
7
100
AcDbLine
 10
189.696170
 20
150.631233
 30
0.0
 11
164.906170
 21
150.631233
 31
0.0
  0
SPLINE
  5
10f
100
AcDbEntity
  8
Layer_1
 62
7
100
AcDbSpline
 70
8
 71
3
 72
8
 73
4
 74
0
 40
0
 40
0
 40
0
 40
0
 40
1
 40
1
 40
1
 40
1
 10
20.328724
 20
131.410183
 30
0.0
 10
20.328723
 20
98.336418
 30
0.0
 10
58.281051
 20
71.524834
 30
0.0
 10
105.097620
 20
71.524833
 30
0.0
  0
SPLINE
  5
110
100
AcDbEntity
  8
Layer_1
 62
7
100
AcDbSpline
 70
8
 71
3
 72
8
 73
4
 74
0
 40
0
 40
0
 40
0
 40
0
 40
1
 40
1
 40
1
 40
1
 10
105.097620
 20
71.524833
 30
0.0
 10
127.579730
 20
71.524833
 30
0.0
 10
149.141032
 20
77.834164
 30
0.0
 10
165.038284
 20
89.064845
 30
0.0
  0
SPLINE
  5
111
100
AcDbEntity
  8
Layer_1
 62
7
100
AcDbSpline
 70
8
 71
3
 72
8
 73
4
 74
0
 40
0
 40
0
 40
0
 40
0
 40
1
 40
1
 40
1
 40
1
 10
165.038284
 20
89.064845
 30
0.0
 10
180.935537
 20
100.295527
 30
0.0
 10
189.866520
 20
115.527600
 30
0.0
 10
189.866520
 20
131.410183
 30
0.0
  0
LINE
  5
112
100
AcDbEntity
  8
Layer_1
 62
7
100
AcDbLine
 10
20.336117
 20
131.377883
 30
0.0
 11
20.336117
 21
146.377873
 31
0.0
  0
LINE
  5
113
100
AcDbEntity
  8
Layer_1
 62
7
100
AcDbLine
 10
45.126117
 20
131.377883
 30
0.0
 11
45.126117
 21
146.377873
 31
0.0
  0
LINE
  5
114
100
AcDbEntity
  8
Layer_1
 62
7
100
AcDbLine
 10
20.336117
 20
146.377873
 30
0.0
 11
45.126117
 21
146.377873
 31
0.0
  0
LINE
  5
115
100
AcDbEntity
  8
Layer_1
 62
7
100
AcDbLine
 10
189.865820
 20
131.368783
 30
0.0
 11
189.865820
 21
146.368773
 31
0.0
  0
LINE
  5
116
100
AcDbEntity
  8
Layer_1
 62
7
100
AcDbLine
 10
165.075820
 20
131.368783
 30
0.0
 11
165.075820
 21
146.368773
 31
0.0
  0
LINE
  5
117
100
AcDbEntity
  8
Layer_1
 62
7
100
AcDbLine
 10
189.865820
 20
146.368773
 30
0.0
 11
165.075820
 21
146.368773
 31
0.0
  0
SPLINE
  5
118
100
AcDbEntity
  8
Layer_1
 62
7
100
AcDbSpline
 70
8
 71
3
 72
8
 73
4
 74
0
 40
0
 40
0
 40
0
 40
0
 40
1
 40
1
 40
1
 40
1
 10
165.075830
 20
165.511923
 30
0.0
 10
161.617566
 20
165.511926
 30
0.0
 10
158.300943
 20
163.713320
 30
0.0
 10
155.855580
 20
160.511777
 30
0.0
  0
SPLINE
  5
119
100
AcDbEntity
  8
Layer_1
 62
7
100
AcDbSpline
 70
8
 71
3
 72
8
 73
4
 74
0
 40
0
 40
0
 40
0
 40
0
 40
1
 40
1
 40
1
 40
1
 10
155.855580
 20
160.511777
 30
0.0
 10
153.410218
 20
157.310234
 30
0.0
 10
152.036429
 20
152.968009
 30
0.0
 10
152.036430
 20
148.440343
 30
0.0
  0
SPLINE
  5
11a
100
AcDbEntity
  8
Layer_1
 62
7
100
AcDbSpline
 70
8
 71
3
 72
8
 73
4
 74
0
 40
0
 40
0
 40
0
 40
0
 40
1
 40
1
 40
1
 40
1
 10
152.036430
 20
148.440343
 30
0.0
 10
152.036431
 20
143.912679
 30
0.0
 10
153.410221
 20
139.570456
 30
0.0
 10
155.855583
 20
136.368916
 30
0.0
  0
SPLINE
  5
11b
100
AcDbEntity
  8
Layer_1
 62
7
100
AcDbSpline
 70
8
 71
3
 72
8
 73
4
 74
0
 40
0
 40
0
 40
0
 40
0
 40
1
 40
1
 40
1
 40
1
 10
155.855583
 20
136.368916
 30
0.0
 10
158.300945
 20
133.167375
 30
0.0
 10
161.617567
 20
131.368770
 30
0.0
 10
165.075830
 20
131.368773
 30
0.0
  0
SPLINE
  5
11c
100
AcDbEntity
  8
Layer_1
 62
5
100
AcDbSpline
 70
8
 71
3
 72
8
 73
4
 74
0
 40
0
 40
0
 40
0
 40
0
 40
1
 40
1
 40
1
 40
1
 10
37.719734
 20
213.390895
 30
0.0
 10
37.719735
 20
213.076624
 30
0.0
 10
37.594892
 20
212.775224
 30
0.0
 10
37.372669
 20
212.553001
 30
0.0
  0
SPLINE
  5
11d
100
AcDbEntity
  8
Layer_1
 62
5
100
AcDbSpline
 70
8
 71
3
 72
8
 73
4
 74
0
 40
0
 40
0
 40
0
 40
0
 40
1
 40
1
 40
1
 40
1
 10
37.372669
 20
212.553001
 30
0.0
 10
37.150446
 20
212.330777
 30
0.0
 10
36.849046
 20
212.205934
 30
0.0
 10
36.534775
 20
212.205935
 30
0.0
  0
SPLINE
  5
11e
100
AcDbEntity
  8
Layer_1
 62
5
100
AcDbSpline
 70
8
 71
3
 72
8
 73
4
 74
0
 40
0
 40
0
 40
0
 40
0
 40
1
 40
1
 40
1
 40
1
 10
36.534775
 20
212.205935
 30
0.0
 10
36.220505
 20
212.205935
 30
0.0
 10
35.919106
 20
212.330779
 30
0.0
 10
35.696883
 20
212.553002
 30
0.0
  0
SPLINE
  5
11f
100
AcDbEntity
  8
Layer_1
 62
5
100
AcDbSpline
 70
8
 71
3
 72
8
 73
4
 74
0
 40
0
 40
0
 40
0
 40
0
 40
1
 40
1
 40
1
 40
1
 10
35.696883
 20
212.553002
 30
0.0
 10
35.474661
 20
212.775225
 30
0.0
 10
35.349819
 20
213.076625
 30
0.0
 10
35.349820
 20
213.390895
 30
0.0
  0
SPLINE
  5
120
100
AcDbEntity
  8
Layer_1
 62
5
100
AcDbSpline
 70
8
 71
3
 72
8
 73
4
 74
0
 40
0
 40
0
 40
0
 40
0
 40
1
 40
1
 40
1
 40
1
 10
35.349820
 20
213.390895
 30
0.0
 10
35.349823
 20
214.045326
 30
0.0
 10
35.880344
 20
214.575845
 30
0.0
 10
36.534775
 20
214.575845
 30
0.0
  0
SPLINE
  5
121
100
AcDbEntity
  8
Layer_1
 62
5
100
AcDbSpline
 70
8
 71
3
 72
8
 73
4
 74
0
 40
0
 40
0
 40
0
 40
0
 40
1
 40
1
 40
1
 40
1
 10
36.534775
 20
214.575845
 30
0.0
 10
37.189207
 20
214.575847
 30
0.0
 10
37.719731
 20
214.045327
 30
0.0
 10
37.719734
 20
213.390895
 30
0.0
  0
LINE
  5
122
100
AcDbEntity
  8
Layer_1
 62
5
100
AcDbLine
 10
37.719734
 20
213.390895
 30
0.0
 11
37.719734
 21
213.390895
 31
0.0
  0
SPLINE
  5
123
100
AcDbEntity
  8
Layer_1
 62
5
100
AcDbSpline
 70
8
 71
3
 72
8
 73
4
 74
0
 40
0
 40
0
 40
0
 40
0
 40
1
 40
1
 40
1
 40
1
 10
37.719734
 20
83.609105
 30
0.0
 10
37.719731
 20
82.954673
 30
0.0
 10
37.189207
 20
82.424153
 30
0.0
 10
36.534775
 20
82.424155
 30
0.0
  0
SPLINE
  5
124
100
AcDbEntity
  8
Layer_1
 62
5
100
AcDbSpline
 70
8
 71
3
 72
8
 73
4
 74
0
 40
0
 40
0
 40
0
 40
0
 40
1
 40
1
 40
1
 40
1
 10
36.534775
 20
82.424155
 30
0.0
 10
35.880344
 20
82.424155
 30
0.0
 10
35.349823
 20
82.954674
 30
0.0
 10
35.349820
 20
83.609105
 30
0.0
  0
SPLINE
  5
125
100
AcDbEntity
  8
Layer_1
 62
5
100
AcDbSpline
 70
8
 71
3
 72
8
 73
4
 74
0
 40
0
 40
0
 40
0
 40
0
 40
1
 40
1
 40
1
 40
1
 10
35.349820
 20
83.609105
 30
0.0
 10
35.349819
 20
83.923375
 30
0.0
 10
35.474661
 20
84.224775
 30
0.0
 10
35.696883
 20
84.446998
 30
0.0
  0
SPLINE
  5
126
100
AcDbEntity
  8
Layer_1
 62
5
100
AcDbSpline
 70
8
 71
3
 72
8
 73
4
 74
0
 40
0
 40
0
 40
0
 40
0
 40
1
 40
1
 40
1
 40
1
 10
35.696883
 20
84.446998
 30
0.0
 10
35.919106
 20
84.669221
 30
0.0
 10
36.220505
 20
84.794065
 30
0.0
 10
36.534775
 20
84.794065
 30
0.0
  0
SPLINE
  5
127
100
AcDbEntity
  8
Layer_1
 62
5
100
AcDbSpline
 70
8
 71
3
 72
8
 73
4
 74
0
 40
0
 40
0
 40
0
 40
0
 40
1
 40
1
 40
1
 40
1
 10
36.534775
 20
84.794065
 30
0.0
 10
36.849046
 20
84.794066
 30
0.0
 10
37.150446
 20
84.669223
 30
0.0
 10
37.372669
 20
84.446999
 30
0.0
  0
SPLINE
  5
128
100
AcDbEntity
  8
Layer_1
 62
5
100
AcDbSpline
 70
8
 71
3
 72
8
 73
4
 74
0
 40
0
 40
0
 40
0
 40
0
 40
1
 40
1
 40
1
 40
1
 10
37.372669
 20
84.446999
 30
0.0
 10
37.594892
 20
84.224776
 30
0.0
 10
37.719735
 20
83.923376
 30
0.0
 10
37.719734
 20
83.609105
 30
0.0
  0
LINE
  5
129
100
AcDbEntity
  8
Layer_1
 62
5
100
AcDbLine
 10
37.719734
 20
83.609105
 30
0.0
 11
37.719734
 21
83.609105
 31
0.0
  0
SPLINE
  5
12a
100
AcDbEntity
  8
Layer_1
 62
5
100
AcDbSpline
 70
8
 71
3
 72
8
 73
4
 74
0
 40
0
 40
0
 40
0
 40
0
 40
1
 40
1
 40
1
 40
1
 10
174.650190
 20
83.609105
 30
0.0
 10
174.650187
 20
82.954680
 30
0.0
 10
174.119675
 20
82.424163
 30
0.0
 10
173.465250
 20
82.424155
 30
0.0
  0
SPLINE
  5
12b
100
AcDbEntity
  8
Layer_1
 62
5
100
AcDbSpline
 70
8
 71
3
 72
8
 73
4
 74
0
 40
0
 40
0
 40
0
 40
0
 40
1
 40
1
 40
1
 40
1
 10
173.465250
 20
82.424155
 30
0.0
 10
173.150980
 20
82.424154
 30
0.0
 10
172.849582
 20
82.548995
 30
0.0
 10
172.627359
 20
82.771217
 30
0.0
  0
SPLINE
  5
12c
100
AcDbEntity
  8
Layer_1
 62
5
100
AcDbSpline
 70
8
 71
3
 72
8
 73
4
 74
0
 40
0
 40
0
 40
0
 40
0
 40
1
 40
1
 40
1
 40
1
 10
172.627359
 20
82.771217
 30
0.0
 10
172.405136
 20
82.993438
 30
0.0
 10
172.280291
 20
83.294835
 30
0.0
 10
172.280290
 20
83.609105
 30
0.0
  0
SPLINE
  5
12d
100
AcDbEntity
  8
Layer_1
 62
5
100
AcDbSpline
 70
8
 71
3
 72
8
 73
4
 74
0
 40
0
 40
0
 40
0
 40
0
 40
1
 40
1
 40
1
 40
1
 10
172.280290
 20
83.609105
 30
0.0
 10
172.280289
 20
83.923376
 30
0.0
 10
172.405132
 20
84.224776
 30
0.0
 10
172.627355
 20
84.447000
 30
0.0
  0
SPLINE
  5
12e
100
AcDbEntity
  8
Layer_1
 62
5
100
AcDbSpline
 70
8
 71
3
 72
8
 73
4
 74
0
 40
0
 40
0
 40
0
 40
0
 40
1
 40
1
 40
1
 40
1
 10
172.627355
 20
84.447000
 30
0.0
 10
172.849579
 20
84.669223
 30
0.0
 10
173.150979
 20
84.794066
 30
0.0
 10
173.465250
 20
84.794065
 30
0.0
  0
SPLINE
  5
12f
100
AcDbEntity
  8
Layer_1
 62
5
100
AcDbSpline
 70
8
 71
3
 72
8
 73
4
 74
0
 40
0
 40
0
 40
0
 40
0
 40
1
 40
1
 40
1
 40
1
 10
173.465250
 20
84.794065
 30
0.0
 10
174.119679
 20
84.794057
 30
0.0
 10
174.650193
 20
84.263534
 30
0.0
 10
174.650190
 20
83.609105
 30
0.0
  0
LINE
  5
130
100
AcDbEntity
  8
Layer_1
 62
5
100
AcDbLine
 10
174.650190
 20
83.609105
 30
0.0
 11
174.650190
 21
83.609105
 31
0.0
  0
SPLINE
  5
131
100
AcDbEntity
  8
Layer_1
 62
5
100
AcDbSpline
 70
8
 71
3
 72
8
 73
4
 74
0
 40
0
 40
0
 40
0
 40
0
 40
1
 40
1
 40
1
 40
1
 10
174.650190
 20
213.390895
 30
0.0
 10
174.650193
 20
212.736466
 30
0.0
 10
174.119679
 20
212.205943
 30
0.0
 10
173.465250
 20
212.205935
 30
0.0
  0
SPLINE
  5
132
100
AcDbEntity
  8
Layer_1
 62
5
100
AcDbSpline
 70
8
 71
3
 72
8
 73
4
 74
0
 40
0
 40
0
 40
0
 40
0
 40
1
 40
1
 40
1
 40
1
 10
173.465250
 20
212.205935
 30
0.0
 10
173.150979
 20
212.205934
 30
0.0
 10
172.849579
 20
212.330777
 30
0.0
 10
172.627355
 20
212.553000
 30
0.0
  0
SPLINE
  5
133
100
AcDbEntity
  8
Layer_1
 62
5
100
AcDbSpline
 70
8
 71
3
 72
8
 73
4
 74
0
 40
0
 40
0
 40
0
 40
0
 40
1
 40
1
 40
1
 40
1
 10
172.627355
 20
212.553000
 30
0.0
 10
172.405132
 20
212.775224
 30
0.0
 10
172.280289
 20
213.076624
 30
0.0
 10
172.280290
 20
213.390895
 30
0.0
  0
SPLINE
  5
134
100
AcDbEntity
  8
Layer_1
 62
5
100
AcDbSpline
 70
8
 71
3
 72
8
 73
4
 74
0
 40
0
 40
0
 40
0
 40
0
 40
1
 40
1
 40
1
 40
1
 10
172.280290
 20
213.390895
 30
0.0
 10
172.280291
 20
213.705165
 30
0.0
 10
172.405136
 20
214.006562
 30
0.0
 10
172.627359
 20
214.228783
 30
0.0
  0
SPLINE
  5
135
100
AcDbEntity
  8
Layer_1
 62
5
100
AcDbSpline
 70
8
 71
3
 72
8
 73
4
 74
0
 40
0
 40
0
 40
0
 40
0
 40
1
 40
1
 40
1
 40
1
 10
172.627359
 20
214.228783
 30
0.0
 10
172.849582
 20
214.451005
 30
0.0
 10
173.150980
 20
214.575846
 30
0.0
 10
173.465250
 20
214.575845
 30
0.0
  0
SPLINE
  5
136
100
AcDbEntity
  8
Layer_1
 62
5
100
AcDbSpline
 70
8
 71
3
 72
8
 73
4
 74
0
 40
0
 40
0
 40
0
 40
0
 40
1
 40
1
 40
1
 40
1
 10
173.465250
 20
214.575845
 30
0.0
 10
174.119675
 20
214.575837
 30
0.0
 10
174.650187
 20
214.045320
 30
0.0
 10
174.650190
 20
213.390895
 30
0.0
  0
LINE
  5
137
100
AcDbEntity
  8
Layer_1
 62
5
100
AcDbLine
 10
174.650190
 20
213.390895
 30
0.0
 11
174.650190
 21
213.390895
 31
0.0
  0
ENDSEC
  0
SECTION
  2
OBJECTS
  0
DICTIONARY
  5
C
330
0
100
AcDbDictionary
  3
ACAD_GROUP
350
D
  3
ACAD_MLINESTYLE
350
17
  0
DICTIONARY
  5
D
330
C
100
AcDbDictionary
  0
DICTIONARY
  5
1A
330
C
100
AcDbDictionary
  0
DICTIONARY
  5
17
330
C
100
AcDbDictionary
  3
STANDARD
350
18
  0
DICTIONARY
  5
19
330
C
100
AcDbDictionary
  0
ENDSEC
  0
EOF
