<?xml version="1.0" encoding="UTF-8" standalone="no"?>
<!-- Created with Inkscape (http://www.inkscape.org/) -->

<svg
   width="210mm"
   height="297mm"
   viewBox="0 0 210 297"
   version="1.1"
   id="svg5"
   inkscape:version="1.1.2 (0a00cf5339, 2022-02-04)"
   sodipodi:docname="penrose.svg"
   xmlns:inkscape="http://www.inkscape.org/namespaces/inkscape"
   xmlns:sodipodi="http://sodipodi.sourceforge.net/DTD/sodipodi-0.dtd"
   xmlns="http://www.w3.org/2000/svg"
   xmlns:svg="http://www.w3.org/2000/svg">
  <sodipodi:namedview
     id="namedview7"
     pagecolor="#ffffff"
     bordercolor="#666666"
     borderopacity="1.0"
     inkscape:pageshadow="2"
     inkscape:pageopacity="0.0"
     inkscape:pagecheckerboard="0"
     inkscape:document-units="mm"
     showgrid="false"
     showguides="false"
     inkscape:guide-bbox="true"
     inkscape:zoom="1"
     inkscape:cx="303.5"
     inkscape:cy="392"
     inkscape:window-width="1920"
     inkscape:window-height="1039"
     inkscape:window-x="0"
     inkscape:window-y="20"
     inkscape:window-maximized="1"
     inkscape:current-layer="layer1"
     showborder="false">
    <sodipodi:guide
       position="129.55216,262.35289"
       orientation="0,-1"
       id="guide1375" />
  </sodipodi:namedview>
  <defs
     id="defs2" />
  <g
     inkscape:label="Layer 1"
     inkscape:groupmode="layer"
     id="layer1">
    <path
       style="fill:none;fill-opacity:1;stroke:#000000;stroke-width:0.264583;stroke-miterlimit:4;stroke-dasharray:none;stroke-opacity:1"
       id="path846"
       sodipodi:type="arc"
       sodipodi:cx="95.138763"
       sodipodi:cy="74.753799"
       sodipodi:rx="86.374115"
       sodipodi:ry="46.429092"
       sodipodi:start="3.1415927"
       sodipodi:end="0"
       sodipodi:arc-type="arc"
       sodipodi:open="true"
       d="M 8.7646484,74.753799 A 86.374115,46.429092 0 0 1 95.138763,28.324707 86.374115,46.429092 0 0 1 181.51288,74.753799" />
    <path
       style="fill:none;stroke:#000000;stroke-width:0.264583;stroke-linecap:butt;stroke-linejoin:miter;stroke-miterlimit:4;stroke-dasharray:none;stroke-opacity:1"
       d="m 22.388601,74.767488 v 9.609978"
       id="path1293" />
    <path
       style="fill:none;stroke:#000000;stroke-width:0.264583;stroke-linecap:butt;stroke-linejoin:miter;stroke-miterlimit:4;stroke-dasharray:none;stroke-opacity:1"
       d="m 8.7881795,74.767488 v 9.609978"
       id="path1293-5" />
    <path
       style="fill:none;stroke:#000000;stroke-width:0.264583;stroke-linecap:butt;stroke-linejoin:miter;stroke-miterlimit:4;stroke-dasharray:none;stroke-opacity:1"
       d="M 8.7881795,84.377465 H 22.388601"
       id="path1432" />
    <path
       style="fill:none;stroke:#000000;stroke-width:0.264583;stroke-linecap:butt;stroke-linejoin:miter;stroke-miterlimit:4;stroke-dasharray:none;stroke-opacity:1"
       d="m 167.90502,74.767488 v 9.609978"
       id="path1293-7" />
    <path
       style="fill:none;stroke:#000000;stroke-width:0.264583;stroke-linecap:butt;stroke-linejoin:miter;stroke-miterlimit:4;stroke-dasharray:none;stroke-opacity:1"
       d="M 181.51194,74.735652 V 84.34563"
       id="path1293-5-4" />
    <path
       style="fill:none;stroke:#000000;stroke-width:0.264583;stroke-linecap:butt;stroke-linejoin:miter;stroke-miterlimit:4;stroke-dasharray:none;stroke-opacity:1"
       d="M 181.50545,84.377465 H 167.90502"
       id="path1432-9" />
    <path
       style="fill:none;fill-opacity:1;stroke:#000000;stroke-width:0.264583;stroke-miterlimit:4;stroke-dasharray:none;stroke-opacity:1"
       id="path846-4"
       sodipodi:type="arc"
       sodipodi:cx="95.307365"
       sodipodi:cy="-99.865334"
       sodipodi:rx="86.374115"
       sodipodi:ry="46.429092"
       sodipodi:start="3.1415927"
       sodipodi:end="0"
       sodipodi:arc-type="arc"
       sodipodi:open="true"
       transform="scale(1,-1)"
       d="M 8.9332504,-99.865334 A 86.374115,46.429092 0 0 1 95.307365,-146.29443 86.374115,46.429092 0 0 1 181.68148,-99.865334" />
    <path
       style="fill:none;stroke:#000000;stroke-width:0.264583;stroke-linecap:butt;stroke-linejoin:miter;stroke-miterlimit:4;stroke-dasharray:none;stroke-opacity:1"
       d="M 22.557209,99.851649 V 90.241671"
       id="path1293-59" />
    <path
       style="fill:none;stroke:#000000;stroke-width:0.264583;stroke-linecap:butt;stroke-linejoin:miter;stroke-miterlimit:4;stroke-dasharray:none;stroke-opacity:1"
       d="M 8.9567859,99.875608 V 90.066309"
       id="path1293-5-3" />
    <path
       style="fill:none;stroke:#000000;stroke-width:0.264583;stroke-linecap:butt;stroke-linejoin:miter;stroke-miterlimit:4;stroke-dasharray:none;stroke-opacity:1"
       d="M 8.9567859,90.241672 H 22.557209"
       id="path1432-5" />
    <path
       style="fill:none;stroke:#000000;stroke-width:0.264583;stroke-linecap:butt;stroke-linejoin:miter;stroke-miterlimit:4;stroke-dasharray:none;stroke-opacity:1"
       d="M 168.07362,99.851649 V 90.241671"
       id="path1293-7-7" />
    <path
       style="fill:none;stroke:#000000;stroke-width:0.264583;stroke-linecap:butt;stroke-linejoin:miter;stroke-miterlimit:4;stroke-dasharray:none;stroke-opacity:1"
       d="M 181.68055,99.883485 V 90.273507"
       id="path1293-5-4-0" />
    <path
       style="fill:none;stroke:#000000;stroke-width:0.264583;stroke-linecap:butt;stroke-linejoin:miter;stroke-miterlimit:4;stroke-dasharray:none;stroke-opacity:1"
       d="M 181.67405,90.241672 H 168.07362"
       id="path1432-9-8" />
    <path
       style="fill:none;fill-opacity:1;stroke:#000000;stroke-width:0.264583;stroke-miterlimit:4;stroke-dasharray:none;stroke-opacity:1"
       id="path1939"
       sodipodi:type="arc"
       sodipodi:cx="22.382788"
       sodipodi:cy="87.435303"
       sodipodi:rx="12.272369"
       sodipodi:ry="12.500413"
       sodipodi:start="4.712389"
       sodipodi:end="1.5707963"
       sodipodi:open="true"
       sodipodi:arc-type="arc"
       d="M 22.382788,74.93489 A 12.272369,12.500413 0 0 1 34.655157,87.435303 12.272369,12.500413 0 0 1 22.382788,99.935716" />
    <path
       style="fill:none;fill-opacity:1;stroke:#000000;stroke-width:0.264583;stroke-miterlimit:4;stroke-dasharray:none;stroke-opacity:1"
       id="path1939-1"
       sodipodi:type="arc"
       sodipodi:cx="-168.07362"
       sodipodi:cy="87.364914"
       sodipodi:rx="12.394016"
       sodipodi:ry="12.486735"
       sodipodi:start="4.712389"
       sodipodi:end="1.5707963"
       sodipodi:open="true"
       sodipodi:arc-type="arc"
       transform="scale(-1,1)"
       d="m -168.07362,74.878179 a 12.394016,12.486735 0 0 1 12.39401,12.486735 12.394016,12.486735 0 0 1 -12.39401,12.486735" />
    <path
       style="fill:none;stroke:#000004;stroke-width:0.264583;stroke-miterlimit:4;stroke-dasharray:none"
       d="m 27.597961,22.418675 a 1.1849547,1.1849547 0 0 1 -1.184955,1.184955 1.1849547,1.1849547 0 0 1 -1.184955,-1.184955 1.1849547,1.1849547 0 0 1 1.184955,-1.184955 1.1849547,1.1849547 0 0 1 1.184955,1.184955 z"
       id="path1411" />
    <path
       style="fill:none;stroke:#000004;stroke-width:0.264583;stroke-miterlimit:4;stroke-dasharray:none"
       d="m 27.597961,152.20046 a 1.1849547,1.1849547 0 0 1 -1.184955,1.18495 1.1849547,1.1849547 0 0 1 -1.184955,-1.18495 1.1849547,1.1849547 0 0 1 1.184955,-1.18496 1.1849547,1.1849547 0 0 1 1.184955,1.18496 z"
       id="path1411-44" />
    <path
       style="fill:none;stroke:#000004;stroke-width:0.264583;stroke-miterlimit:4;stroke-dasharray:none"
       d="m 164.52843,152.20046 a 1.1849547,1.1849547 0 0 1 -1.18495,1.18495 1.1849547,1.1849547 0 0 1 -1.18496,-1.18495 1.1849547,1.1849547 0 0 1 1.18496,-1.18496 1.1849547,1.1849547 0 0 1 1.18495,1.18496 z"
       id="path1411-47" />
    <path
       style="fill:none;stroke:#000004;stroke-width:0.264583;stroke-miterlimit:4;stroke-dasharray:none"
       d="m 164.52843,22.418675 a 1.1849547,1.1849547 0 0 1 -1.18495,1.184955 1.1849547,1.1849547 0 0 1 -1.18496,-1.184955 1.1849547,1.1849547 0 0 1 1.18496,-1.184955 1.1849547,1.1849547 0 0 1 1.18495,1.184955 z"
       id="path1411-4" />
    <path
       style="fill:none;stroke:#000000;stroke-width:0.264583px;stroke-linecap:butt;stroke-linejoin:miter;stroke-opacity:1"
       d="M 1.1280803,15.437408 V 160.11199"
       id="path4517" />
    <path
       style="fill:none;stroke:#000000;stroke-width:0.264583px;stroke-linecap:butt;stroke-linejoin:miter;stroke-opacity:1"
       d="M 194.80887,15.437408 V 160.11199"
       id="path4517-5" />
    <path
       style="fill:none;stroke:#000000;stroke-width:0.264583px;stroke-linecap:butt;stroke-linejoin:miter;stroke-opacity:1"
       d="M 1.1280803,15.437408 H 194.80887"
       id="path4519" />
    <path
       style="fill:none;stroke:#000000;stroke-width:0.264583px;stroke-linecap:butt;stroke-linejoin:miter;stroke-opacity:1"
       d="M 1.128081,160.11199 H 194.80887"
       id="path4519-3" />
  </g>
</svg>
