999
"DXF R12 Output" (www.mydxf.blogspot.com)
 0 
SECTION
 2 
HEADER
 9 
$ACADVER
 1 
AC1009
 9 
$EXTMIN
 10 
 0 
 20 
 0 
 9 
$EXTMAX
 10 
 8.5 
 20 
 11 
 0 
ENDSEC
 0 
SECTION
 2 
ENTITIES
0
LINE
8
Layer 1
10
2.473580
20
62.722800
11
2.592863
21
64.017901
0
LINE
8
Layer 1
10
2.592863
20
64.017901
11
2.946300
21
65.291066
0
LINE
8
Layer 1
10
2.946300
20
65.291066
11
3.527268
21
66.533702
0
LINE
8
Layer 1
10
3.527268
20
66.533702
11
4.329148
21
67.737218
0
LINE
8
Layer 1
10
4.329148
20
67.737218
11
5.345317
21
68.893022
0
LINE
8
Layer 1
10
5.345317
20
68.893022
11
6.569156
21
69.992521
0
LINE
8
Layer 1
10
6.569156
20
69.992521
11
7.994043
21
71.027123
0
LINE
8
Layer 1
10
7.994043
20
71.027123
11
9.613357
21
71.988236
0
LINE
8
Layer 1
10
9.613357
20
71.988236
11
11.401364
21
72.858671
0
LINE
8
Layer 1
10
11.401364
20
72.858671
11
13.326085
21
73.624595
0
LINE
8
Layer 1
10
13.326085
20
73.624595
11
17.521735
21
74.828674
0
LINE
8
Layer 1
10
17.521735
20
74.828674
11
22.072431
21
75.571999
0
LINE
8
Layer 1
10
22.072431
20
75.571999
11
26.850300
21
75.826100
0
LINE
8
Layer 1
10
26.850300
20
75.826100
11
31.763040
21
75.559878
0
LINE
8
Layer 1
10
31.763040
20
75.559878
11
36.338780
21
74.796362
0
LINE
8
Layer 1
10
36.338780
20
74.796362
11
40.479496
21
73.588244
0
LINE
8
Layer 1
10
40.479496
20
73.588244
11
44.087165
21
71.988213
0
LINE
8
Layer 1
10
44.087165
20
71.988213
11
45.660475
21
71.057697
0
LINE
8
Layer 1
10
45.660475
20
71.057697
11
47.063764
21
70.048963
0
LINE
8
Layer 1
10
47.063764
20
70.048963
11
48.284779
21
68.968596
0
LINE
8
Layer 1
10
48.284779
20
68.968596
11
49.311268
21
67.823183
0
LINE
8
Layer 1
10
49.311268
20
67.823183
11
50.130978
21
66.619310
0
LINE
8
Layer 1
10
50.130978
20
66.619310
11
50.731655
21
65.363565
0
LINE
8
Layer 1
10
50.731655
20
65.363565
11
51.101047
21
64.062533
0
LINE
8
Layer 1
10
51.101047
20
64.062533
11
51.226900
21
62.722800
0
LINE
8
Layer 1
10
6.318560
20
62.719000
11
6.318560
21
60.006800
0
LINE
8
Layer 1
10
2.480220
20
62.719000
11
2.480220
21
60.006800
0
LINE
8
Layer 1
10
2.480220
20
60.006800
11
6.318560
21
60.006800
0
LINE
8
Layer 1
10
47.386500
20
62.719000
11
47.386500
21
60.006800
0
LINE
8
Layer 1
10
51.226700
20
62.728000
11
51.226700
21
60.015800
0
LINE
8
Layer 1
10
51.224800
20
60.006800
11
47.386500
21
60.006800
0
LINE
8
Layer 1
10
2.521160
20
-112.004000
11
2.640322
21
-113.299146
0
LINE
8
Layer 1
10
2.640322
20
-113.299146
11
2.993655
21
-114.572361
0
LINE
8
Layer 1
10
2.993655
20
-114.572361
11
3.574537
21
-115.815051
0
LINE
8
Layer 1
10
3.574537
20
-115.815051
11
4.376346
21
-117.018623
0
LINE
8
Layer 1
10
4.376346
20
-117.018623
11
5.392463
21
-118.174485
0
LINE
8
Layer 1
10
5.392463
20
-118.174485
11
6.616267
21
-119.274042
0
LINE
8
Layer 1
10
6.616267
20
-119.274042
11
8.041135
21
-120.308703
0
LINE
8
Layer 1
10
8.041135
20
-120.308703
11
9.660448
21
-121.269873
0
LINE
8
Layer 1
10
9.660448
20
-121.269873
11
11.448470
21
-122.140363
0
LINE
8
Layer 1
10
11.448470
20
-122.140363
11
13.373219
21
-122.906336
0
LINE
8
Layer 1
10
13.373219
20
-122.906336
11
17.568958
21
-124.110494
0
LINE
8
Layer 1
10
17.568958
20
-124.110494
11
22.119781
21
-124.853874
0
LINE
8
Layer 1
10
22.119781
20
-124.853874
11
26.897800
21
-125.108000
0
LINE
8
Layer 1
10
26.897800
20
-125.108000
11
31.675828
21
-124.853880
0
LINE
8
Layer 1
10
31.675828
20
-124.853880
11
36.226660
21
-124.110504
0
LINE
8
Layer 1
10
36.226660
20
-124.110504
11
40.422410
21
-122.906347
0
LINE
8
Layer 1
10
40.422410
20
-122.906347
11
42.347164
21
-122.140374
0
LINE
8
Layer 1
10
42.347164
20
-122.140374
11
44.135190
21
-121.269885
0
LINE
8
Layer 1
10
44.135190
20
-121.269885
11
45.754508
21
-120.308714
0
LINE
8
Layer 1
10
45.754508
20
-120.308714
11
47.179381
21
-119.274052
0
LINE
8
Layer 1
10
47.179381
20
-119.274052
11
48.403188
21
-118.174494
0
LINE
8
Layer 1
10
48.403188
20
-118.174494
11
49.419308
21
-117.018631
0
LINE
8
Layer 1
10
49.419308
20
-117.018631
11
50.221120
21
-115.815057
0
LINE
8
Layer 1
10
50.221120
20
-115.815057
11
50.802004
21
-114.572365
0
LINE
8
Layer 1
10
50.802004
20
-114.572365
11
51.155337
21
-113.299148
0
LINE
8
Layer 1
10
51.155337
20
-113.299148
11
51.274500
21
-112.004000
0
LINE
8
Layer 1
10
6.366140
20
55.639700
11
6.366140
21
58.351800
0
LINE
8
Layer 1
10
2.527800
20
55.632900
11
2.527800
21
58.401300
0
LINE
8
Layer 1
10
2.527800
20
58.351800
11
6.366140
21
58.351800
0
LINE
8
Layer 1
10
47.434100
20
55.639700
11
47.434100
21
58.351800
0
LINE
8
Layer 1
10
51.274200
20
55.630700
11
51.274200
21
58.342800
0
LINE
8
Layer 1
10
51.272400
20
58.351800
11
47.434100
21
58.351800
0
LINE
8
Layer 1
10
6.316920
20
62.671700
11
7.642358
21
62.403154
0
LINE
8
Layer 1
10
7.642358
20
62.403154
11
8.766009
21
61.638401
0
LINE
8
Layer 1
10
8.766009
20
61.638401
11
9.516807
21
60.493868
0
LINE
8
Layer 1
10
9.516807
20
60.493868
11
9.780450
21
59.143800
0
LINE
8
Layer 1
10
9.780450
20
59.143800
11
9.516807
21
57.793732
0
LINE
8
Layer 1
10
9.516807
20
57.793732
11
8.766009
21
56.649199
0
LINE
8
Layer 1
10
8.766009
20
56.649199
11
7.642358
21
55.884446
0
LINE
8
Layer 1
10
7.642358
20
55.884446
11
6.316920
21
55.615900
0
LINE
8
Layer 1
10
47.434100
20
62.687700
11
46.095527
21
62.419449
0
LINE
8
Layer 1
10
46.095527
20
62.419449
11
44.960739
21
61.655536
0
LINE
8
Layer 1
10
44.960739
20
61.655536
11
44.202499
21
60.512258
0
LINE
8
Layer 1
10
44.202499
20
60.512258
11
43.936240
21
59.163670
0
LINE
8
Layer 1
10
43.936240
20
59.163670
11
44.202499
21
57.815082
0
LINE
8
Layer 1
10
44.202499
20
57.815082
11
44.960739
21
56.671804
0
LINE
8
Layer 1
10
44.960739
20
56.671804
11
46.095527
21
55.907891
0
LINE
8
Layer 1
10
46.095527
20
55.907891
11
47.434100
21
55.639640
0
LINE
8
Layer 1
10
7.830830
20
77.487300
11
7.732881
21
77.250829
0
LINE
8
Layer 1
10
7.732881
20
77.250829
11
7.496410
21
77.152880
0
LINE
8
Layer 1
10
7.496410
20
77.152880
11
7.259939
21
77.250829
0
LINE
8
Layer 1
10
7.259939
20
77.250829
11
7.161990
21
77.487300
0
LINE
8
Layer 1
10
7.161990
20
77.487300
11
7.259939
21
77.723771
0
LINE
8
Layer 1
10
7.259939
20
77.723771
11
7.496410
21
77.821720
0
LINE
8
Layer 1
10
7.496410
20
77.821720
11
7.732881
21
77.723771
0
LINE
8
Layer 1
10
7.732881
20
77.723771
11
7.830830
21
77.487300
0
LINE
8
Layer 1
10
7.830830
20
77.487300
11
7.830830
21
77.487300
0
LINE
8
Layer 1
10
7.830830
20
40.860000
11
7.732880
21
40.623530
0
LINE
8
Layer 1
10
7.732880
20
40.623530
11
7.496410
21
40.525581
0
LINE
8
Layer 1
10
7.496410
20
40.525581
11
7.259940
21
40.623530
0
LINE
8
Layer 1
10
7.259940
20
40.623530
11
7.161990
21
40.860000
0
LINE
8
Layer 1
10
7.161990
20
40.860000
11
7.259939
21
41.096472
0
LINE
8
Layer 1
10
7.259939
20
41.096472
11
7.496410
21
41.194422
0
LINE
8
Layer 1
10
7.496410
20
41.194422
11
7.732881
21
41.096472
0
LINE
8
Layer 1
10
7.732881
20
41.096472
11
7.830830
21
40.860000
0
LINE
8
Layer 1
10
7.830830
20
40.860000
11
7.830830
21
40.860000
0
LINE
8
Layer 1
10
46.475600
20
40.860000
11
46.377651
21
40.623530
0
LINE
8
Layer 1
10
46.377651
20
40.623530
11
46.141181
21
40.525581
0
LINE
8
Layer 1
10
46.141181
20
40.525581
11
45.904709
21
40.623529
0
LINE
8
Layer 1
10
45.904709
20
40.623529
11
45.806759
21
40.860000
0
LINE
8
Layer 1
10
45.806759
20
40.860000
11
45.904708
21
41.096473
0
LINE
8
Layer 1
10
45.904708
20
41.096473
11
46.141181
21
41.194422
0
LINE
8
Layer 1
10
46.141181
20
41.194422
11
46.377652
21
41.096472
0
LINE
8
Layer 1
10
46.377652
20
41.096472
11
46.475600
21
40.860000
0
LINE
8
Layer 1
10
46.475600
20
40.860000
11
46.475600
21
40.860000
0
LINE
8
Layer 1
10
46.475600
20
77.487300
11
46.377651
21
77.250830
0
LINE
8
Layer 1
10
46.377651
20
77.250830
11
46.141181
21
77.152880
0
LINE
8
Layer 1
10
46.141181
20
77.152880
11
45.904709
21
77.250829
0
LINE
8
Layer 1
10
45.904709
20
77.250829
11
45.806759
21
77.487300
0
LINE
8
Layer 1
10
45.806759
20
77.487300
11
45.904709
21
77.723771
0
LINE
8
Layer 1
10
45.904709
20
77.723771
11
46.141181
21
77.821720
0
LINE
8
Layer 1
10
46.141181
20
77.821720
11
46.377651
21
77.723770
0
LINE
8
Layer 1
10
46.377651
20
77.723770
11
46.475600
21
77.487300
0
LINE
8
Layer 1
10
46.475600
20
77.487300
11
46.475600
21
77.487300
 0 
ENDSEC
 0 
EOF